G04 #@! TF.GenerationSoftware,KiCad,Pcbnew,9.0.2-2.fc42*
G04 #@! TF.CreationDate,2025-06-29T00:33:01+02:00*
G04 #@! TF.ProjectId,hack_solder,6861636b-5f73-46f6-9c64-65722e6b6963,rev?*
G04 #@! TF.SameCoordinates,Original*
G04 #@! TF.FileFunction,Profile,NP*
%FSLAX46Y46*%
G04 Gerber Fmt 4.6, Leading zero omitted, Abs format (unit mm)*
G04 Created by KiCad (PCBNEW 9.0.2-2.fc42) date 2025-06-29 00:33:01*
%MOMM*%
%LPD*%
G01*
G04 APERTURE LIST*
G04 #@! TA.AperFunction,Profile*
%ADD10C,0.050000*%
G04 #@! TD*
%ADD11C,0.050000*%
G04 APERTURE END LIST*
D10*
X12500000Y-35000000D02*
X12500000Y-50000000D01*
D11*
X25000000Y-60000000D02*
X24965469Y-60054503D01*
X24930996Y-60108879D01*
X24896674Y-60162979D01*
X24862408Y-60216952D01*
X24828293Y-60270651D01*
X24794234Y-60324224D01*
X24760324Y-60377526D01*
X24726470Y-60430702D01*
X24692763Y-60483609D01*
X24659113Y-60536391D01*
X24625609Y-60588905D01*
X24592160Y-60641296D01*
X24558857Y-60693422D01*
X24525610Y-60745424D01*
X24492506Y-60797163D01*
X24459457Y-60848779D01*
X24426552Y-60900135D01*
X24393701Y-60951368D01*
X24360993Y-61002342D01*
X24328338Y-61053195D01*
X24295825Y-61103791D01*
X24263366Y-61154266D01*
X24231046Y-61204486D01*
X24198781Y-61254586D01*
X24166654Y-61304433D01*
X24134580Y-61354161D01*
X24102645Y-61403637D01*
X24070762Y-61452995D01*
X24039017Y-61502103D01*
X24007324Y-61551094D01*
X23975768Y-61599837D01*
X23944263Y-61648463D01*
X23912893Y-61696843D01*
X23881576Y-61745107D01*
X23850392Y-61793127D01*
X23819260Y-61841031D01*
X23788262Y-61888693D01*
X23757314Y-61936240D01*
X23726499Y-61983546D01*
X23695735Y-62030739D01*
X23665102Y-62077692D01*
X23634520Y-62124532D01*
X23604068Y-62171135D01*
X23573666Y-62217625D01*
X23543394Y-62263880D01*
X23513172Y-62310023D01*
X23483078Y-62355932D01*
X23453034Y-62401729D01*
X23423118Y-62447295D01*
X23393251Y-62492750D01*
X23363511Y-62537975D01*
X23333819Y-62583089D01*
X23304254Y-62627975D01*
X23274738Y-62672751D01*
X23245346Y-62717301D01*
X23216003Y-62761741D01*
X23186785Y-62805957D01*
X23157614Y-62850064D01*
X23128566Y-62893947D01*
X23099567Y-62937723D01*
X23070690Y-62981277D01*
X23041860Y-63024723D01*
X23013152Y-63067950D01*
X22984491Y-63111070D01*
X22955952Y-63153971D01*
X22927459Y-63196766D01*
X22899086Y-63239344D01*
X22870759Y-63281817D01*
X22842552Y-63324074D01*
X22814391Y-63366227D01*
X22786349Y-63408165D01*
X22758353Y-63450000D01*
X22730474Y-63491622D01*
X22702641Y-63533140D01*
X22674925Y-63574447D01*
X22647254Y-63615652D01*
X22619700Y-63656647D01*
X22592190Y-63697540D01*
X22564796Y-63738225D01*
X22537446Y-63778808D01*
X22510212Y-63819184D01*
X22483021Y-63859459D01*
X22455945Y-63899530D01*
X22428913Y-63939499D01*
X22401994Y-63979265D01*
X22375119Y-64018932D01*
X22348356Y-64058396D01*
X22321637Y-64097760D01*
X22295030Y-64136924D01*
X22268465Y-64175989D01*
X22242013Y-64214854D01*
X22215602Y-64253622D01*
X22189303Y-64292191D01*
X22163046Y-64330663D01*
X22136898Y-64368938D01*
X22110793Y-64407116D01*
X22084797Y-64445099D01*
X22058843Y-64482985D01*
X22032997Y-64520677D01*
X22007193Y-64558273D01*
X21981497Y-64595677D01*
X21955842Y-64632986D01*
X21930295Y-64670103D01*
X21904788Y-64707125D01*
X21879388Y-64743958D01*
X21854028Y-64780696D01*
X21828775Y-64817245D01*
X21803562Y-64853701D01*
X21778454Y-64889970D01*
X21753386Y-64926145D01*
X21728423Y-64962134D01*
X21703499Y-64998031D01*
X21678680Y-65033743D01*
X21653900Y-65069362D01*
X21629224Y-65104799D01*
X21604587Y-65140143D01*
X21580052Y-65175306D01*
X21555557Y-65210377D01*
X21531163Y-65245268D01*
X21506809Y-65280068D01*
X21482555Y-65314688D01*
X21458341Y-65349218D01*
X21434227Y-65383570D01*
X21410152Y-65417832D01*
X21386176Y-65451917D01*
X21362239Y-65485913D01*
X21338401Y-65519733D01*
X21314601Y-65553465D01*
X21290900Y-65587021D01*
X21267237Y-65620490D01*
X21243671Y-65653785D01*
X21220144Y-65686992D01*
X21196714Y-65720028D01*
X21173321Y-65752976D01*
X21150025Y-65785753D01*
X21126766Y-65818443D01*
X21103603Y-65850963D01*
X21080477Y-65883397D01*
X21057447Y-65915663D01*
X21034454Y-65947842D01*
X21011555Y-65979854D01*
X20988694Y-66011781D01*
X20965926Y-66043542D01*
X20943195Y-66075217D01*
X20920558Y-66106728D01*
X20897956Y-66138154D01*
X20875448Y-66169416D01*
X20852976Y-66200594D01*
X20830597Y-66231609D01*
X20808253Y-66262541D01*
X20786001Y-66293310D01*
X20763784Y-66323997D01*
X20741660Y-66354523D01*
X20719570Y-66384967D01*
X20697571Y-66415251D01*
X20675608Y-66445453D01*
X20653734Y-66475496D01*
X20631896Y-66505458D01*
X20610147Y-66535263D01*
X20588433Y-66564986D01*
X20566809Y-66594553D01*
X20545218Y-66624039D01*
X20523717Y-66653370D01*
X20502249Y-66682620D01*
X20480870Y-66711717D01*
X20459525Y-66740733D01*
X20438267Y-66769596D01*
X20417043Y-66798380D01*
X20395907Y-66827012D01*
X20374804Y-66855565D01*
X20353787Y-66883967D01*
X20332804Y-66912290D01*
X20311907Y-66940463D01*
X20291043Y-66968558D01*
X20270265Y-66996505D01*
X20249520Y-67024373D01*
X20228860Y-67052093D01*
X20208232Y-67079737D01*
X20187689Y-67107233D01*
X20167179Y-67134652D01*
X20146753Y-67161926D01*
X20126358Y-67189123D01*
X20106048Y-67216175D01*
X20085770Y-67243151D01*
X20065575Y-67269983D01*
X20045411Y-67296739D01*
X20025331Y-67323353D01*
X20005282Y-67349891D01*
X19985315Y-67376287D01*
X19965380Y-67402609D01*
X19945527Y-67428789D01*
X19925704Y-67454895D01*
X19905963Y-67480861D01*
X19886253Y-67506754D01*
X19866624Y-67532506D01*
X19847026Y-67558186D01*
X19827508Y-67583727D01*
X19808020Y-67609195D01*
X19788613Y-67634526D01*
X19769236Y-67659784D01*
X19749938Y-67684906D01*
X19730671Y-67709956D01*
X19711482Y-67734870D01*
X19692324Y-67759712D01*
X19673244Y-67784420D01*
X19654194Y-67809056D01*
X19635222Y-67833558D01*
X19616280Y-67857990D01*
X19597415Y-67882289D01*
X19578580Y-67906517D01*
X19559822Y-67930613D01*
X19541093Y-67954640D01*
X19522441Y-67978535D01*
X19503819Y-68002360D01*
X19485272Y-68026055D01*
X19466754Y-68049681D01*
X19448313Y-68073177D01*
X19429900Y-68096605D01*
X19411562Y-68119904D01*
X19393253Y-68143135D01*
X19375019Y-68166238D01*
X19356813Y-68189272D01*
X19338682Y-68212181D01*
X19320579Y-68235021D01*
X19302550Y-68257735D01*
X19284550Y-68280382D01*
X19266623Y-68302904D01*
X19248723Y-68325359D01*
X19230897Y-68347690D01*
X19213099Y-68369954D01*
X19195374Y-68392095D01*
X19177676Y-68414170D01*
X19160051Y-68436122D01*
X19142453Y-68458008D01*
X19124927Y-68479772D01*
X19107428Y-68501471D01*
X19090001Y-68523049D01*
X19072601Y-68544562D01*
X19055272Y-68565955D01*
X19037970Y-68587283D01*
X19020739Y-68608492D01*
X19003534Y-68629637D01*
X18986400Y-68650663D01*
X18969293Y-68671625D01*
X18952255Y-68692469D01*
X18935244Y-68713250D01*
X18918302Y-68733914D01*
X18901387Y-68754514D01*
X18884541Y-68774999D01*
X18867721Y-68795420D01*
X18850969Y-68815726D01*
X18834244Y-68835970D01*
X18817587Y-68856099D01*
X18800956Y-68876166D01*
X18784392Y-68896119D01*
X18767855Y-68916010D01*
X18751385Y-68935789D01*
X18734940Y-68955506D01*
X18718563Y-68975110D01*
X18702211Y-68994654D01*
X18685926Y-69014086D01*
X18669666Y-69033457D01*
X18653473Y-69052717D01*
X18637304Y-69071917D01*
X18621202Y-69091008D01*
X18605124Y-69110037D01*
X18589112Y-69128958D01*
X18573125Y-69147819D01*
X18557204Y-69166572D01*
X18541306Y-69185265D01*
X18525474Y-69203850D01*
X18509666Y-69222377D01*
X18493923Y-69240796D01*
X18478204Y-69259156D01*
X18462550Y-69277411D01*
X18446919Y-69295607D01*
X18431352Y-69313697D01*
X18415810Y-69331729D01*
X18400331Y-69349657D01*
X18384875Y-69367526D01*
X18369483Y-69385292D01*
X18354115Y-69403000D01*
X18338809Y-69420605D01*
X18323527Y-69438152D01*
X18308307Y-69455597D01*
X18293111Y-69472985D01*
X18277977Y-69490272D01*
X18262866Y-69507501D01*
X18247817Y-69524630D01*
X18232791Y-69541702D01*
X18217826Y-69558674D01*
X18202885Y-69575590D01*
X18188004Y-69592406D01*
X18173146Y-69609167D01*
X18158350Y-69625828D01*
X18143575Y-69642434D01*
X18128861Y-69658942D01*
X18114170Y-69675395D01*
X18099539Y-69691750D01*
X18084930Y-69708050D01*
X18070381Y-69724254D01*
X18055854Y-69740402D01*
X18041387Y-69756455D01*
X18026941Y-69772454D01*
X18012555Y-69788357D01*
X17998191Y-69804206D01*
X17983886Y-69819960D01*
X17969602Y-69835660D01*
X17955377Y-69851267D01*
X17941173Y-69866820D01*
X17927028Y-69882279D01*
X17912904Y-69897686D01*
X17898839Y-69912999D01*
X17884794Y-69928260D01*
X17870807Y-69943429D01*
X17856841Y-69958545D01*
X17842933Y-69973570D01*
X17829045Y-69988542D01*
X17815215Y-70003424D01*
X17801405Y-70018254D01*
X17787652Y-70032993D01*
X17773920Y-70047681D01*
X17760245Y-70062280D01*
X17746590Y-70076827D01*
X17732990Y-70091285D01*
X17719412Y-70105692D01*
X17705889Y-70120011D01*
X17692387Y-70134279D01*
X17678940Y-70148459D01*
X17665513Y-70162589D01*
X17652142Y-70176632D01*
X17638790Y-70190624D01*
X17625494Y-70204530D01*
X17612217Y-70218387D01*
X17598995Y-70232157D01*
X17585793Y-70245878D01*
X17572645Y-70259513D01*
X17559516Y-70273100D01*
X17546442Y-70286601D01*
X17533388Y-70300054D01*
X17520387Y-70313423D01*
X17507405Y-70326743D01*
X17494477Y-70339979D01*
X17481568Y-70353167D01*
X17468712Y-70366272D01*
X17455876Y-70379329D01*
X17443092Y-70392304D01*
X17430328Y-70405231D01*
X17417616Y-70418076D01*
X17404923Y-70430873D01*
X17392282Y-70443590D01*
X17379660Y-70456259D01*
X17367090Y-70468848D01*
X17354538Y-70481389D01*
X17342039Y-70493851D01*
X17329557Y-70506266D01*
X17317128Y-70518601D01*
X17304717Y-70530890D01*
X17292356Y-70543100D01*
X17280015Y-70555264D01*
X17267724Y-70567350D01*
X17255451Y-70579389D01*
X17243229Y-70591351D01*
X17231025Y-70603268D01*
X17218871Y-70615107D01*
X17206736Y-70626901D01*
X17194650Y-70638618D01*
X17182582Y-70650290D01*
X17170564Y-70661886D01*
X17158564Y-70673437D01*
X17146613Y-70684913D01*
X17134680Y-70696344D01*
X17122796Y-70707701D01*
X17110929Y-70719012D01*
X17099112Y-70730250D01*
X17087312Y-70741443D01*
X17075560Y-70752563D01*
X17063826Y-70763638D01*
X17052140Y-70774641D01*
X17040472Y-70785600D01*
X17028851Y-70796486D01*
X17017248Y-70807328D01*
X17005692Y-70818099D01*
X16994154Y-70828826D01*
X16982663Y-70839482D01*
X16971189Y-70850095D01*
X16959762Y-70860637D01*
X16948352Y-70871136D01*
X16936989Y-70881565D01*
X16925643Y-70891951D01*
X16914344Y-70902267D01*
X16903061Y-70912541D01*
X16891825Y-70922746D01*
X16880605Y-70932908D01*
X16869431Y-70943002D01*
X16858274Y-70953054D01*
X16847163Y-70963037D01*
X16836068Y-70972979D01*
X16825019Y-70982853D01*
X16813986Y-70992686D01*
X16802998Y-71002452D01*
X16792027Y-71012176D01*
X16781100Y-71021834D01*
X16770190Y-71031450D01*
X16759325Y-71041001D01*
X16748475Y-71050511D01*
X16737671Y-71059955D01*
X16726882Y-71069358D01*
X16716137Y-71078697D01*
X16705408Y-71087995D01*
X16694724Y-71097229D01*
X16684055Y-71106422D01*
X16673430Y-71115551D01*
X16662820Y-71124641D01*
X16652254Y-71133667D01*
X16641704Y-71142653D01*
X16631197Y-71151576D01*
X16620705Y-71160460D01*
X16610256Y-71169281D01*
X16599823Y-71178063D01*
X16589433Y-71186782D01*
X16579057Y-71195463D01*
X16568725Y-71204082D01*
X16558407Y-71212662D01*
X16548132Y-71221181D01*
X16537872Y-71229662D01*
X16527654Y-71238082D01*
X16517451Y-71246464D01*
X16507290Y-71254785D01*
X16497143Y-71263068D01*
X16487039Y-71271292D01*
X16476949Y-71279477D01*
X16466900Y-71287604D01*
X16456866Y-71295693D01*
X16446873Y-71303722D01*
X16436895Y-71311715D01*
X16426958Y-71319649D01*
X16417035Y-71327546D01*
X16407153Y-71335385D01*
X16397285Y-71343187D01*
X16387458Y-71350931D01*
X16377644Y-71358639D01*
X16367872Y-71366290D01*
X16358113Y-71373904D01*
X16348394Y-71381462D01*
X16338690Y-71388983D01*
X16329025Y-71396448D01*
X16319374Y-71403878D01*
X16309763Y-71411251D01*
X16300165Y-71418589D01*
X16290607Y-71425871D01*
X16281063Y-71433117D01*
X16271558Y-71440309D01*
X16262066Y-71447466D01*
X16252614Y-71454568D01*
X16243175Y-71461634D01*
X16233774Y-71468647D01*
X16224387Y-71475625D01*
X16215039Y-71482549D01*
X16205704Y-71489438D01*
X16196407Y-71496275D01*
X16187124Y-71503076D01*
X16177878Y-71509825D01*
X16168646Y-71516540D01*
X16159452Y-71523202D01*
X16150270Y-71529831D01*
X16141127Y-71536407D01*
X16131996Y-71542949D01*
X16122902Y-71549440D01*
X16113822Y-71555897D01*
X16104779Y-71562303D01*
X16095748Y-71568676D01*
X16086755Y-71574998D01*
X16077774Y-71581286D01*
X16068830Y-71587525D01*
X16059899Y-71593730D01*
X16051004Y-71599885D01*
X16042122Y-71606008D01*
X16033275Y-71612081D01*
X16024442Y-71618121D01*
X16015644Y-71624112D01*
X16006860Y-71630071D01*
X15998110Y-71635981D01*
X15989373Y-71641859D01*
X15980672Y-71647688D01*
X15971983Y-71653486D01*
X15963330Y-71659235D01*
X15954688Y-71664953D01*
X15946082Y-71670623D01*
X15937488Y-71676261D01*
X15928929Y-71681853D01*
X15920382Y-71687412D01*
X15911869Y-71692926D01*
X15903369Y-71698407D01*
X15894903Y-71703843D01*
X15886449Y-71709247D01*
X15878029Y-71714605D01*
X15869621Y-71719932D01*
X15861247Y-71725214D01*
X15852885Y-71730465D01*
X15844557Y-71735671D01*
X15836241Y-71740846D01*
X15827958Y-71745977D01*
X15819686Y-71751076D01*
X15811448Y-71756132D01*
X15803222Y-71761157D01*
X15795029Y-71766139D01*
X15786847Y-71771090D01*
X15778698Y-71775997D01*
X15770561Y-71780875D01*
X15762456Y-71785709D01*
X15754363Y-71790514D01*
X15746303Y-71795276D01*
X15738253Y-71800007D01*
X15730236Y-71804697D01*
X15722230Y-71809357D01*
X15714256Y-71813975D01*
X15706294Y-71818564D01*
X15698363Y-71823111D01*
X15690443Y-71827629D01*
X15682555Y-71832105D01*
X15674678Y-71836552D01*
X15666833Y-71840959D01*
X15658998Y-71845336D01*
X15651195Y-71849673D01*
X15643402Y-71853982D01*
X15635641Y-71858250D01*
X15627890Y-71862489D01*
X15620170Y-71866689D01*
X15612461Y-71870860D01*
X15604783Y-71874992D01*
X15597115Y-71879095D01*
X15589478Y-71883159D01*
X15581851Y-71887195D01*
X15574254Y-71891192D01*
X15566668Y-71895162D01*
X15559112Y-71899093D01*
X15551566Y-71902995D01*
X15544051Y-71906860D01*
X15536545Y-71910698D01*
X15529069Y-71914497D01*
X15521604Y-71918269D01*
X15514168Y-71922004D01*
X15506742Y-71925711D01*
X15499345Y-71929381D01*
X15491959Y-71933023D01*
X15484601Y-71936629D01*
X15477254Y-71940208D01*
X15469935Y-71943751D01*
X15462627Y-71947266D01*
X15455346Y-71950746D01*
X15448076Y-71954198D01*
X15440835Y-71957615D01*
X15433603Y-71961006D01*
X15426399Y-71964360D01*
X15419206Y-71967689D01*
X15412040Y-71970982D01*
X15404884Y-71974248D01*
X15397756Y-71977480D01*
X15390637Y-71980686D01*
X15383546Y-71983857D01*
X15376465Y-71987002D01*
X15369411Y-71990113D01*
X15362367Y-71993198D01*
X15355350Y-71996249D01*
X15348342Y-71999274D01*
X15341362Y-72002266D01*
X15334391Y-72005232D01*
X15327446Y-72008165D01*
X15320511Y-72011072D01*
X15313603Y-72013946D01*
X15306704Y-72016795D01*
X15299831Y-72019611D01*
X15292968Y-72022401D01*
X15286130Y-72025160D01*
X15279302Y-72027893D01*
X15272500Y-72030594D01*
X15265707Y-72033270D01*
X15258940Y-72035915D01*
X15252182Y-72038534D01*
X15245449Y-72041122D01*
X15238726Y-72043685D01*
X15232028Y-72046217D01*
X15225339Y-72048724D01*
X15218674Y-72051201D01*
X15212020Y-72053653D01*
X15205389Y-72056074D01*
X15198768Y-72058470D01*
X15192172Y-72060837D01*
X15185584Y-72063179D01*
X15179021Y-72065491D01*
X15172467Y-72067779D01*
X15165936Y-72070037D01*
X15159415Y-72072271D01*
X15152918Y-72074475D01*
X15146430Y-72076655D01*
X15139965Y-72078807D01*
X15133509Y-72080934D01*
X15127077Y-72083032D01*
X15120653Y-72085107D01*
X15114253Y-72087153D01*
X15107862Y-72089175D01*
X15101493Y-72091169D01*
X15095134Y-72093139D01*
X15088797Y-72095081D01*
X15082469Y-72097000D01*
X15076163Y-72098891D01*
X15069866Y-72100758D01*
X15063592Y-72102598D01*
X15057326Y-72104414D01*
X15051082Y-72106203D01*
X15044847Y-72107969D01*
X15038634Y-72109708D01*
X15032430Y-72111423D01*
X15026247Y-72113112D01*
X15020073Y-72114778D01*
X15013920Y-72116417D01*
X15007776Y-72118034D01*
X15001653Y-72119624D01*
X14995539Y-72121191D01*
X14989446Y-72122732D01*
X14983361Y-72124250D01*
X14977297Y-72125743D01*
X14971241Y-72127212D01*
X14965206Y-72128656D01*
X14959180Y-72130078D01*
X14953174Y-72131474D01*
X14947176Y-72132848D01*
X14941199Y-72134197D01*
X14935229Y-72135523D01*
X14929280Y-72136824D01*
X14923339Y-72138103D01*
X14917418Y-72139357D01*
X14911506Y-72140589D01*
X14905612Y-72141797D01*
X14899727Y-72142982D01*
X14893862Y-72144143D01*
X14888004Y-72145282D01*
X14882166Y-72146397D01*
X14876336Y-72147490D01*
X14870525Y-72148559D01*
X14864722Y-72149606D01*
X14858938Y-72150630D01*
X14853161Y-72151632D01*
X14847404Y-72152610D01*
X14841654Y-72153567D01*
X14835923Y-72154500D01*
X14830200Y-72155412D01*
X14824495Y-72156300D01*
X14818797Y-72157167D01*
X14813118Y-72158011D01*
X14807447Y-72158834D01*
X14801793Y-72159634D01*
X14796148Y-72160413D01*
X14790520Y-72161169D01*
X14784899Y-72161903D01*
X14779296Y-72162616D01*
X14773701Y-72163307D01*
X14768123Y-72163976D01*
X14762553Y-72164623D01*
X14757000Y-72165249D01*
X14751454Y-72165854D01*
X14745926Y-72166436D01*
X14740404Y-72166998D01*
X14734900Y-72167538D01*
X14729403Y-72168057D01*
X14723922Y-72168555D01*
X14718450Y-72169031D01*
X14712993Y-72169486D01*
X14707544Y-72169921D01*
X14702110Y-72170334D01*
X14696685Y-72170727D01*
X14691275Y-72171098D01*
X14685872Y-72171449D01*
X14680485Y-72171778D01*
X14675106Y-72172088D01*
X14669742Y-72172376D01*
X14664385Y-72172644D01*
X14659044Y-72172891D01*
X14653710Y-72173117D01*
X14648391Y-72173323D01*
X14643079Y-72173509D01*
X14637782Y-72173674D01*
X14632493Y-72173819D01*
X14627218Y-72173944D01*
X14621950Y-72174048D01*
X14616697Y-72174132D01*
X14611451Y-72174196D01*
X14606219Y-72174240D01*
X14600994Y-72174264D01*
X14595783Y-72174267D01*
X14590580Y-72174251D01*
X14585390Y-72174214D01*
X14580208Y-72174158D01*
X14575039Y-72174082D01*
X14569877Y-72173986D01*
X14564729Y-72173870D01*
X14559588Y-72173734D01*
X14554460Y-72173579D01*
X14549339Y-72173404D01*
X14544231Y-72173209D01*
X14539130Y-72172995D01*
X14534042Y-72172761D01*
X14528961Y-72172507D01*
X14523893Y-72172234D01*
X14518832Y-72171941D01*
X14513783Y-72171629D01*
X14508741Y-72171298D01*
X14503711Y-72170947D01*
X14498689Y-72170576D01*
X14493678Y-72170187D01*
X14488675Y-72169777D01*
X14483683Y-72169349D01*
X14478698Y-72168902D01*
X14473724Y-72168435D01*
X14468758Y-72167949D01*
X14463803Y-72167443D01*
X14458855Y-72166919D01*
X14453919Y-72166375D01*
X14448989Y-72165812D01*
X14444070Y-72165231D01*
X14439158Y-72164630D01*
X14434257Y-72164010D01*
X14429363Y-72163371D01*
X14424479Y-72162713D01*
X14419602Y-72162035D01*
X14414736Y-72161339D01*
X14409877Y-72160624D01*
X14405028Y-72159890D01*
X14400185Y-72159137D01*
X14395353Y-72158365D01*
X14390528Y-72157574D01*
X14385712Y-72156765D01*
X14380903Y-72155936D01*
X14376104Y-72155089D01*
X14371312Y-72154222D01*
X14366529Y-72153337D01*
X14361753Y-72152433D01*
X14356987Y-72151510D01*
X14352227Y-72150569D01*
X14347476Y-72149608D01*
X14342732Y-72148629D01*
X14337997Y-72147631D01*
X14333268Y-72146614D01*
X14328549Y-72145578D01*
X14323836Y-72144523D01*
X14319132Y-72143450D01*
X14314434Y-72142358D01*
X14309745Y-72141247D01*
X14305062Y-72140118D01*
X14300388Y-72138969D01*
X14295721Y-72137802D01*
X14291061Y-72136616D01*
X14286408Y-72135411D01*
X14281763Y-72134188D01*
X14277125Y-72132946D01*
X14272494Y-72131685D01*
X14267871Y-72130405D01*
X14263254Y-72129106D01*
X14258644Y-72127789D01*
X14254042Y-72126453D01*
X14249446Y-72125098D01*
X14244857Y-72123724D01*
X14240275Y-72122331D01*
X14235700Y-72120920D01*
X14231132Y-72119489D01*
X14226570Y-72118040D01*
X14222016Y-72116572D01*
X14212926Y-72113579D01*
X14203862Y-72110511D01*
X14194824Y-72107367D01*
X14185812Y-72104147D01*
X14176824Y-72100851D01*
X14167862Y-72097479D01*
X14158924Y-72094031D01*
X14150011Y-72090507D01*
X14141121Y-72086906D01*
X14132255Y-72083228D01*
X14123412Y-72079473D01*
X14114592Y-72075641D01*
X14105794Y-72071731D01*
X14097019Y-72067744D01*
X14088266Y-72063679D01*
X14079535Y-72059536D01*
X14070825Y-72055315D01*
X14062136Y-72051015D01*
X14053468Y-72046636D01*
X14044821Y-72042177D01*
X14036194Y-72037640D01*
X14027587Y-72033022D01*
X14019001Y-72028324D01*
X14010433Y-72023546D01*
X14001885Y-72018687D01*
X13993356Y-72013746D01*
X13984846Y-72008724D01*
X13976354Y-72003620D01*
X13967881Y-71998434D01*
X13959426Y-71993165D01*
X13950988Y-71987813D01*
X13942569Y-71982377D01*
X13934167Y-71976857D01*
X13925782Y-71971253D01*
X13917414Y-71965564D01*
X13909063Y-71959790D01*
X13900729Y-71953930D01*
X13892411Y-71947983D01*
X13884109Y-71941950D01*
X13875824Y-71935830D01*
X13867554Y-71929621D01*
X13859300Y-71923325D01*
X13851062Y-71916940D01*
X13842839Y-71910465D01*
X13834632Y-71903901D01*
X13826439Y-71897246D01*
X13818262Y-71890500D01*
X13810099Y-71883663D01*
X13801951Y-71876734D01*
X13793818Y-71869711D01*
X13785699Y-71862596D01*
X13777594Y-71855387D01*
X13769503Y-71848083D01*
X13761427Y-71840684D01*
X13753365Y-71833189D01*
X13745316Y-71825598D01*
X13737281Y-71817910D01*
X13729260Y-71810124D01*
X13721253Y-71802240D01*
X13713259Y-71794256D01*
X13705278Y-71786173D01*
X13697311Y-71777990D01*
X13689357Y-71769705D01*
X13681416Y-71761318D01*
X13673489Y-71752829D01*
X13665574Y-71744237D01*
X13657673Y-71735541D01*
X13649784Y-71726740D01*
X13641909Y-71717833D01*
X13634047Y-71708820D01*
X13626197Y-71699701D01*
X13618360Y-71690473D01*
X13610536Y-71681137D01*
X13602725Y-71671691D01*
X13594927Y-71662136D01*
X13587142Y-71652469D01*
X13579369Y-71642691D01*
X13571609Y-71632800D01*
X13563862Y-71622795D01*
X13556128Y-71612677D01*
X13548407Y-71602443D01*
X13540698Y-71592094D01*
X13533003Y-71581627D01*
X13525320Y-71571043D01*
X13517650Y-71560341D01*
X13509993Y-71549519D01*
X13502349Y-71538577D01*
X13494718Y-71527513D01*
X13487100Y-71516328D01*
X13479496Y-71505019D01*
X13471904Y-71493587D01*
X13464326Y-71482030D01*
X13456761Y-71470347D01*
X13449209Y-71458537D01*
X13441671Y-71446600D01*
X13434147Y-71434534D01*
X13426635Y-71422339D01*
X13419138Y-71410013D01*
X13411654Y-71397555D01*
X13404185Y-71384965D01*
X13396729Y-71372242D01*
X13389287Y-71359384D01*
X13381859Y-71346391D01*
X13374446Y-71333261D01*
X13367046Y-71319994D01*
X13359662Y-71306588D01*
X13352291Y-71293042D01*
X13344936Y-71279357D01*
X13337595Y-71265529D01*
X13330269Y-71251559D01*
X13322959Y-71237445D01*
X13315663Y-71223186D01*
X13308383Y-71208781D01*
X13301118Y-71194230D01*
X13293869Y-71179530D01*
X13286636Y-71164681D01*
X13279418Y-71149682D01*
X13272216Y-71134532D01*
X13265031Y-71119229D01*
X13257862Y-71103772D01*
X13250710Y-71088161D01*
X13243574Y-71072394D01*
X13236455Y-71056469D01*
X13229353Y-71040387D01*
X13222268Y-71024145D01*
X13215201Y-71007743D01*
X13208151Y-70991179D01*
X13201119Y-70974452D01*
X13194105Y-70957562D01*
X13187109Y-70940505D01*
X13180131Y-70923283D01*
X13173171Y-70905893D01*
X13166231Y-70888333D01*
X13159309Y-70870604D01*
X13152406Y-70852703D01*
X13145522Y-70834630D01*
X13138658Y-70816383D01*
X13131814Y-70797961D01*
X13124990Y-70779362D01*
X13118185Y-70760586D01*
X13111401Y-70741631D01*
X13104638Y-70722495D01*
X13097895Y-70703178D01*
X13091174Y-70683678D01*
X13084473Y-70663994D01*
X13077794Y-70644125D01*
X13071137Y-70624068D01*
X13064502Y-70603824D01*
X13057889Y-70583390D01*
X13051298Y-70562765D01*
X13044730Y-70541948D01*
X13038185Y-70520938D01*
X13031663Y-70499732D01*
X13025164Y-70478330D01*
X13018689Y-70456731D01*
X13012238Y-70434932D01*
X13005811Y-70412933D01*
X12999409Y-70390732D01*
X12993031Y-70368327D01*
X12986678Y-70345717D01*
X12980350Y-70322902D01*
X12974048Y-70299878D01*
X12967772Y-70276645D01*
X12961522Y-70253202D01*
X12955298Y-70229546D01*
X12949100Y-70205677D01*
X12942930Y-70181592D01*
X12936786Y-70157291D01*
X12930671Y-70132772D01*
X12924582Y-70108033D01*
X12918522Y-70083073D01*
X12912490Y-70057889D01*
X12906487Y-70032482D01*
X12900513Y-70006848D01*
X12894568Y-69980987D01*
X12888652Y-69954897D01*
X12882766Y-69928577D01*
X12876910Y-69902023D01*
X12871085Y-69875236D01*
X12865290Y-69848214D01*
X12859527Y-69820954D01*
X12853795Y-69793455D01*
X12848094Y-69765716D01*
X12842426Y-69737735D01*
X12836789Y-69709509D01*
X12831186Y-69681039D01*
X12825615Y-69652321D01*
X12820078Y-69623354D01*
X12814574Y-69594136D01*
X12809104Y-69564666D01*
X12803668Y-69534941D01*
X12798267Y-69504961D01*
X12792901Y-69474723D01*
X12787570Y-69444225D01*
X12782275Y-69413467D01*
X12777016Y-69382445D01*
X12771793Y-69351158D01*
X12766607Y-69319604D01*
X12761458Y-69287782D01*
X12756346Y-69255689D01*
X12751272Y-69223324D01*
X12746236Y-69190685D01*
X12741238Y-69157770D01*
X12736279Y-69124577D01*
X12731359Y-69091104D01*
X12726479Y-69057349D01*
X12721639Y-69023310D01*
X12716839Y-68988985D01*
X12712079Y-68954373D01*
X12707361Y-68919471D01*
X12702683Y-68884277D01*
X12698048Y-68848789D01*
X12693455Y-68813006D01*
X12688904Y-68776925D01*
X12684396Y-68740543D01*
X12679931Y-68703860D01*
X12675510Y-68666873D01*
X12671133Y-68629580D01*
X12666801Y-68591978D01*
X12662513Y-68554066D01*
X12658271Y-68515841D01*
X12654074Y-68477302D01*
X12649923Y-68438445D01*
X12645818Y-68399270D01*
X12641761Y-68359773D01*
X12637751Y-68319952D01*
X12633788Y-68279806D01*
X12629873Y-68239331D01*
X12626007Y-68198526D01*
X12622190Y-68157389D01*
X12618422Y-68115916D01*
X12614704Y-68074105D01*
X12611036Y-68031955D01*
X12607419Y-67989463D01*
X12603852Y-67946626D01*
X12600337Y-67903443D01*
X12596874Y-67859909D01*
X12593463Y-67816024D01*
X12590106Y-67771785D01*
X12586801Y-67727188D01*
X12583550Y-67682233D01*
X12580353Y-67636915D01*
X12577210Y-67591233D01*
X12574123Y-67545184D01*
X12571091Y-67498765D01*
X12568115Y-67451973D01*
X12565195Y-67404807D01*
X12562332Y-67357263D01*
X12559526Y-67309338D01*
X12556779Y-67261031D01*
X12554089Y-67212338D01*
X12551458Y-67163256D01*
X12548886Y-67113782D01*
X12546374Y-67063915D01*
X12543923Y-67013650D01*
X12541531Y-66962985D01*
X12539201Y-66911918D01*
X12536933Y-66860444D01*
X12534726Y-66808562D01*
X12532583Y-66756269D01*
X12530502Y-66703560D01*
X12528485Y-66650434D01*
X12526532Y-66596886D01*
X12524644Y-66542915D01*
X12522821Y-66488517D01*
X12521064Y-66433688D01*
X12519373Y-66378426D01*
X12517748Y-66322728D01*
X12516191Y-66266589D01*
X12514702Y-66210007D01*
X12513280Y-66152979D01*
X12511928Y-66095501D01*
X12510645Y-66037570D01*
X12509433Y-65979182D01*
X12508290Y-65920333D01*
X12507219Y-65861021D01*
X12506219Y-65801242D01*
X12505292Y-65740993D01*
X12504437Y-65680269D01*
X12503656Y-65619066D01*
X12502948Y-65557383D01*
X12502315Y-65495213D01*
X12501757Y-65432555D01*
X12501275Y-65369404D01*
X12500869Y-65305756D01*
X12500540Y-65241607D01*
X12500288Y-65176953D01*
X12500114Y-65111791D01*
X12500019Y-65046116D01*
X12500000Y-65000000D01*
X25000000Y-40000000D02*
X24965469Y-39945497D01*
X24930996Y-39891121D01*
X24896674Y-39837021D01*
X24862408Y-39783048D01*
X24828293Y-39729349D01*
X24794234Y-39675776D01*
X24760324Y-39622474D01*
X24726470Y-39569298D01*
X24692763Y-39516391D01*
X24659113Y-39463609D01*
X24625609Y-39411095D01*
X24592160Y-39358704D01*
X24558857Y-39306578D01*
X24525610Y-39254576D01*
X24492506Y-39202837D01*
X24459457Y-39151221D01*
X24426552Y-39099865D01*
X24393701Y-39048632D01*
X24360993Y-38997658D01*
X24328338Y-38946805D01*
X24295825Y-38896209D01*
X24263366Y-38845734D01*
X24231046Y-38795514D01*
X24198781Y-38745414D01*
X24166654Y-38695567D01*
X24134580Y-38645839D01*
X24102645Y-38596363D01*
X24070762Y-38547005D01*
X24039017Y-38497897D01*
X24007324Y-38448906D01*
X23975768Y-38400163D01*
X23944263Y-38351537D01*
X23912893Y-38303157D01*
X23881576Y-38254893D01*
X23850392Y-38206873D01*
X23819260Y-38158969D01*
X23788262Y-38111307D01*
X23757314Y-38063760D01*
X23726499Y-38016454D01*
X23695735Y-37969261D01*
X23665102Y-37922308D01*
X23634520Y-37875468D01*
X23604068Y-37828865D01*
X23573666Y-37782375D01*
X23543394Y-37736120D01*
X23513172Y-37689977D01*
X23483078Y-37644068D01*
X23453034Y-37598271D01*
X23423118Y-37552705D01*
X23393251Y-37507250D01*
X23363511Y-37462025D01*
X23333819Y-37416911D01*
X23304254Y-37372025D01*
X23274738Y-37327249D01*
X23245346Y-37282699D01*
X23216003Y-37238259D01*
X23186785Y-37194043D01*
X23157614Y-37149936D01*
X23128566Y-37106053D01*
X23099567Y-37062277D01*
X23070690Y-37018723D01*
X23041860Y-36975277D01*
X23013152Y-36932050D01*
X22984491Y-36888930D01*
X22955952Y-36846029D01*
X22927459Y-36803234D01*
X22899086Y-36760656D01*
X22870759Y-36718183D01*
X22842552Y-36675926D01*
X22814391Y-36633773D01*
X22786349Y-36591835D01*
X22758353Y-36550000D01*
X22730474Y-36508378D01*
X22702641Y-36466860D01*
X22674925Y-36425553D01*
X22647254Y-36384348D01*
X22619700Y-36343353D01*
X22592190Y-36302460D01*
X22564796Y-36261775D01*
X22537446Y-36221192D01*
X22510212Y-36180816D01*
X22483021Y-36140541D01*
X22455945Y-36100470D01*
X22428913Y-36060501D01*
X22401994Y-36020735D01*
X22375119Y-35981068D01*
X22348356Y-35941604D01*
X22321637Y-35902240D01*
X22295030Y-35863076D01*
X22268465Y-35824011D01*
X22242013Y-35785146D01*
X22215602Y-35746378D01*
X22189303Y-35707809D01*
X22163046Y-35669337D01*
X22136898Y-35631062D01*
X22110793Y-35592884D01*
X22084797Y-35554901D01*
X22058843Y-35517015D01*
X22032997Y-35479323D01*
X22007193Y-35441727D01*
X21981497Y-35404323D01*
X21955842Y-35367014D01*
X21930295Y-35329897D01*
X21904788Y-35292875D01*
X21879388Y-35256042D01*
X21854028Y-35219304D01*
X21828775Y-35182755D01*
X21803562Y-35146299D01*
X21778454Y-35110030D01*
X21753386Y-35073855D01*
X21728423Y-35037866D01*
X21703499Y-35001969D01*
X21678680Y-34966257D01*
X21653900Y-34930638D01*
X21629224Y-34895201D01*
X21604587Y-34859857D01*
X21580052Y-34824694D01*
X21555557Y-34789623D01*
X21531163Y-34754732D01*
X21506809Y-34719932D01*
X21482555Y-34685312D01*
X21458341Y-34650782D01*
X21434227Y-34616430D01*
X21410152Y-34582168D01*
X21386176Y-34548083D01*
X21362239Y-34514087D01*
X21338401Y-34480267D01*
X21314601Y-34446535D01*
X21290900Y-34412979D01*
X21267237Y-34379510D01*
X21243671Y-34346215D01*
X21220144Y-34313008D01*
X21196714Y-34279972D01*
X21173321Y-34247024D01*
X21150025Y-34214247D01*
X21126766Y-34181557D01*
X21103603Y-34149037D01*
X21080477Y-34116603D01*
X21057447Y-34084337D01*
X21034454Y-34052158D01*
X21011555Y-34020146D01*
X20988694Y-33988219D01*
X20965926Y-33956458D01*
X20943195Y-33924783D01*
X20920558Y-33893272D01*
X20897956Y-33861846D01*
X20875448Y-33830584D01*
X20852976Y-33799406D01*
X20830597Y-33768391D01*
X20808253Y-33737459D01*
X20786001Y-33706690D01*
X20763784Y-33676003D01*
X20741660Y-33645477D01*
X20719570Y-33615033D01*
X20697571Y-33584749D01*
X20675608Y-33554547D01*
X20653734Y-33524504D01*
X20631896Y-33494542D01*
X20610147Y-33464737D01*
X20588433Y-33435014D01*
X20566809Y-33405447D01*
X20545218Y-33375961D01*
X20523717Y-33346630D01*
X20502249Y-33317380D01*
X20480870Y-33288283D01*
X20459525Y-33259267D01*
X20438267Y-33230404D01*
X20417043Y-33201620D01*
X20395907Y-33172988D01*
X20374804Y-33144435D01*
X20353787Y-33116033D01*
X20332804Y-33087710D01*
X20311907Y-33059537D01*
X20291043Y-33031442D01*
X20270265Y-33003495D01*
X20249520Y-32975627D01*
X20228860Y-32947907D01*
X20208232Y-32920263D01*
X20187689Y-32892767D01*
X20167179Y-32865348D01*
X20146753Y-32838074D01*
X20126358Y-32810877D01*
X20106048Y-32783825D01*
X20085770Y-32756849D01*
X20065575Y-32730017D01*
X20045411Y-32703261D01*
X20025331Y-32676647D01*
X20005282Y-32650109D01*
X19985315Y-32623713D01*
X19965380Y-32597391D01*
X19945527Y-32571211D01*
X19925704Y-32545105D01*
X19905963Y-32519139D01*
X19886253Y-32493246D01*
X19866624Y-32467494D01*
X19847026Y-32441814D01*
X19827508Y-32416273D01*
X19808020Y-32390805D01*
X19788613Y-32365474D01*
X19769236Y-32340216D01*
X19749938Y-32315094D01*
X19730671Y-32290044D01*
X19711482Y-32265130D01*
X19692324Y-32240288D01*
X19673244Y-32215580D01*
X19654194Y-32190944D01*
X19635222Y-32166442D01*
X19616280Y-32142010D01*
X19597415Y-32117711D01*
X19578580Y-32093483D01*
X19559822Y-32069387D01*
X19541093Y-32045360D01*
X19522441Y-32021465D01*
X19503819Y-31997640D01*
X19485272Y-31973945D01*
X19466754Y-31950319D01*
X19448313Y-31926823D01*
X19429900Y-31903395D01*
X19411562Y-31880096D01*
X19393253Y-31856865D01*
X19375019Y-31833762D01*
X19356813Y-31810728D01*
X19338682Y-31787819D01*
X19320579Y-31764979D01*
X19302550Y-31742265D01*
X19284550Y-31719618D01*
X19266623Y-31697096D01*
X19248723Y-31674641D01*
X19230897Y-31652310D01*
X19213099Y-31630046D01*
X19195374Y-31607905D01*
X19177676Y-31585830D01*
X19160051Y-31563878D01*
X19142453Y-31541992D01*
X19124927Y-31520228D01*
X19107428Y-31498529D01*
X19090001Y-31476951D01*
X19072601Y-31455438D01*
X19055272Y-31434045D01*
X19037970Y-31412717D01*
X19020739Y-31391508D01*
X19003534Y-31370363D01*
X18986400Y-31349337D01*
X18969293Y-31328375D01*
X18952255Y-31307531D01*
X18935244Y-31286750D01*
X18918302Y-31266086D01*
X18901387Y-31245486D01*
X18884541Y-31225001D01*
X18867721Y-31204580D01*
X18850969Y-31184274D01*
X18834244Y-31164030D01*
X18817587Y-31143901D01*
X18800956Y-31123834D01*
X18784392Y-31103881D01*
X18767855Y-31083990D01*
X18751385Y-31064211D01*
X18734940Y-31044494D01*
X18718563Y-31024890D01*
X18702211Y-31005346D01*
X18685926Y-30985914D01*
X18669666Y-30966543D01*
X18653473Y-30947283D01*
X18637304Y-30928083D01*
X18621202Y-30908992D01*
X18605124Y-30889963D01*
X18589112Y-30871042D01*
X18573125Y-30852181D01*
X18557204Y-30833428D01*
X18541306Y-30814735D01*
X18525474Y-30796150D01*
X18509666Y-30777623D01*
X18493923Y-30759204D01*
X18478204Y-30740844D01*
X18462550Y-30722589D01*
X18446919Y-30704393D01*
X18431352Y-30686303D01*
X18415810Y-30668271D01*
X18400331Y-30650343D01*
X18384875Y-30632474D01*
X18369483Y-30614708D01*
X18354115Y-30597000D01*
X18338809Y-30579395D01*
X18323527Y-30561848D01*
X18308307Y-30544403D01*
X18293111Y-30527015D01*
X18277977Y-30509728D01*
X18262866Y-30492499D01*
X18247817Y-30475370D01*
X18232791Y-30458298D01*
X18217826Y-30441326D01*
X18202885Y-30424410D01*
X18188004Y-30407594D01*
X18173146Y-30390833D01*
X18158350Y-30374172D01*
X18143575Y-30357566D01*
X18128861Y-30341058D01*
X18114170Y-30324605D01*
X18099539Y-30308250D01*
X18084930Y-30291950D01*
X18070381Y-30275746D01*
X18055854Y-30259598D01*
X18041387Y-30243545D01*
X18026941Y-30227546D01*
X18012555Y-30211643D01*
X17998191Y-30195794D01*
X17983886Y-30180040D01*
X17969602Y-30164340D01*
X17955377Y-30148733D01*
X17941173Y-30133180D01*
X17927028Y-30117721D01*
X17912904Y-30102314D01*
X17898839Y-30087001D01*
X17884794Y-30071740D01*
X17870807Y-30056571D01*
X17856841Y-30041455D01*
X17842933Y-30026430D01*
X17829045Y-30011458D01*
X17815215Y-29996576D01*
X17801405Y-29981746D01*
X17787652Y-29967007D01*
X17773920Y-29952319D01*
X17760245Y-29937720D01*
X17746590Y-29923173D01*
X17732990Y-29908715D01*
X17719412Y-29894308D01*
X17705889Y-29879989D01*
X17692387Y-29865721D01*
X17678940Y-29851541D01*
X17665513Y-29837411D01*
X17652142Y-29823368D01*
X17638790Y-29809376D01*
X17625494Y-29795470D01*
X17612217Y-29781613D01*
X17598995Y-29767843D01*
X17585793Y-29754122D01*
X17572645Y-29740487D01*
X17559516Y-29726900D01*
X17546442Y-29713399D01*
X17533388Y-29699946D01*
X17520387Y-29686577D01*
X17507405Y-29673257D01*
X17494477Y-29660021D01*
X17481568Y-29646833D01*
X17468712Y-29633728D01*
X17455876Y-29620671D01*
X17443092Y-29607696D01*
X17430328Y-29594769D01*
X17417616Y-29581924D01*
X17404923Y-29569127D01*
X17392282Y-29556410D01*
X17379660Y-29543741D01*
X17367090Y-29531152D01*
X17354538Y-29518611D01*
X17342039Y-29506149D01*
X17329557Y-29493734D01*
X17317128Y-29481399D01*
X17304717Y-29469110D01*
X17292356Y-29456900D01*
X17280015Y-29444736D01*
X17267724Y-29432650D01*
X17255451Y-29420611D01*
X17243229Y-29408649D01*
X17231025Y-29396732D01*
X17218871Y-29384893D01*
X17206736Y-29373099D01*
X17194650Y-29361382D01*
X17182582Y-29349710D01*
X17170564Y-29338114D01*
X17158564Y-29326563D01*
X17146613Y-29315087D01*
X17134680Y-29303656D01*
X17122796Y-29292299D01*
X17110929Y-29280988D01*
X17099112Y-29269750D01*
X17087312Y-29258557D01*
X17075560Y-29247437D01*
X17063826Y-29236362D01*
X17052140Y-29225359D01*
X17040472Y-29214400D01*
X17028851Y-29203514D01*
X17017248Y-29192672D01*
X17005692Y-29181901D01*
X16994154Y-29171174D01*
X16982663Y-29160518D01*
X16971189Y-29149905D01*
X16959762Y-29139363D01*
X16948352Y-29128864D01*
X16936989Y-29118435D01*
X16925643Y-29108049D01*
X16914344Y-29097733D01*
X16903061Y-29087459D01*
X16891825Y-29077254D01*
X16880605Y-29067092D01*
X16869431Y-29056998D01*
X16858274Y-29046946D01*
X16847163Y-29036963D01*
X16836068Y-29027021D01*
X16825019Y-29017147D01*
X16813986Y-29007314D01*
X16802998Y-28997548D01*
X16792027Y-28987824D01*
X16781100Y-28978166D01*
X16770190Y-28968550D01*
X16759325Y-28958999D01*
X16748475Y-28949489D01*
X16737671Y-28940045D01*
X16726882Y-28930642D01*
X16716137Y-28921303D01*
X16705408Y-28912005D01*
X16694724Y-28902771D01*
X16684055Y-28893578D01*
X16673430Y-28884449D01*
X16662820Y-28875359D01*
X16652254Y-28866333D01*
X16641704Y-28857347D01*
X16631197Y-28848424D01*
X16620705Y-28839540D01*
X16610256Y-28830719D01*
X16599823Y-28821937D01*
X16589433Y-28813218D01*
X16579057Y-28804537D01*
X16568725Y-28795918D01*
X16558407Y-28787338D01*
X16548132Y-28778819D01*
X16537872Y-28770338D01*
X16527654Y-28761918D01*
X16517451Y-28753536D01*
X16507290Y-28745215D01*
X16497143Y-28736932D01*
X16487039Y-28728708D01*
X16476949Y-28720523D01*
X16466900Y-28712396D01*
X16456866Y-28704307D01*
X16446873Y-28696278D01*
X16436895Y-28688285D01*
X16426958Y-28680351D01*
X16417035Y-28672454D01*
X16407153Y-28664615D01*
X16397285Y-28656813D01*
X16387458Y-28649069D01*
X16377644Y-28641361D01*
X16367872Y-28633710D01*
X16358113Y-28626096D01*
X16348394Y-28618538D01*
X16338690Y-28611017D01*
X16329025Y-28603552D01*
X16319374Y-28596122D01*
X16309763Y-28588749D01*
X16300165Y-28581411D01*
X16290607Y-28574129D01*
X16281063Y-28566883D01*
X16271558Y-28559691D01*
X16262066Y-28552534D01*
X16252614Y-28545432D01*
X16243175Y-28538366D01*
X16233774Y-28531353D01*
X16224387Y-28524375D01*
X16215039Y-28517451D01*
X16205704Y-28510562D01*
X16196407Y-28503725D01*
X16187124Y-28496924D01*
X16177878Y-28490175D01*
X16168646Y-28483460D01*
X16159452Y-28476798D01*
X16150270Y-28470169D01*
X16141127Y-28463593D01*
X16131996Y-28457051D01*
X16122902Y-28450560D01*
X16113822Y-28444103D01*
X16104779Y-28437697D01*
X16095748Y-28431324D01*
X16086755Y-28425002D01*
X16077774Y-28418714D01*
X16068830Y-28412475D01*
X16059899Y-28406270D01*
X16051004Y-28400115D01*
X16042122Y-28393992D01*
X16033275Y-28387919D01*
X16024442Y-28381879D01*
X16015644Y-28375888D01*
X16006860Y-28369929D01*
X15998110Y-28364019D01*
X15989373Y-28358141D01*
X15980672Y-28352312D01*
X15971983Y-28346514D01*
X15963330Y-28340765D01*
X15954688Y-28335047D01*
X15946082Y-28329377D01*
X15937488Y-28323739D01*
X15928929Y-28318147D01*
X15920382Y-28312588D01*
X15911869Y-28307074D01*
X15903369Y-28301593D01*
X15894903Y-28296157D01*
X15886449Y-28290753D01*
X15878029Y-28285395D01*
X15869621Y-28280068D01*
X15861247Y-28274786D01*
X15852885Y-28269535D01*
X15844557Y-28264329D01*
X15836241Y-28259154D01*
X15827958Y-28254023D01*
X15819686Y-28248924D01*
X15811448Y-28243868D01*
X15803222Y-28238843D01*
X15795029Y-28233861D01*
X15786847Y-28228910D01*
X15778698Y-28224003D01*
X15770561Y-28219125D01*
X15762456Y-28214291D01*
X15754363Y-28209486D01*
X15746303Y-28204724D01*
X15738253Y-28199993D01*
X15730236Y-28195303D01*
X15722230Y-28190643D01*
X15714256Y-28186025D01*
X15706294Y-28181436D01*
X15698363Y-28176889D01*
X15690443Y-28172371D01*
X15682555Y-28167895D01*
X15674678Y-28163448D01*
X15666833Y-28159041D01*
X15658998Y-28154664D01*
X15651195Y-28150327D01*
X15643402Y-28146018D01*
X15635641Y-28141750D01*
X15627890Y-28137511D01*
X15620170Y-28133311D01*
X15612461Y-28129140D01*
X15604783Y-28125008D01*
X15597115Y-28120905D01*
X15589478Y-28116841D01*
X15581851Y-28112805D01*
X15574254Y-28108808D01*
X15566668Y-28104838D01*
X15559112Y-28100907D01*
X15551566Y-28097005D01*
X15544051Y-28093140D01*
X15536545Y-28089302D01*
X15529069Y-28085503D01*
X15521604Y-28081731D01*
X15514168Y-28077996D01*
X15506742Y-28074289D01*
X15499345Y-28070619D01*
X15491959Y-28066977D01*
X15484601Y-28063371D01*
X15477254Y-28059792D01*
X15469935Y-28056249D01*
X15462627Y-28052734D01*
X15455346Y-28049254D01*
X15448076Y-28045802D01*
X15440835Y-28042385D01*
X15433603Y-28038994D01*
X15426399Y-28035640D01*
X15419206Y-28032311D01*
X15412040Y-28029018D01*
X15404884Y-28025752D01*
X15397756Y-28022520D01*
X15390637Y-28019314D01*
X15383546Y-28016143D01*
X15376465Y-28012998D01*
X15369411Y-28009887D01*
X15362367Y-28006802D01*
X15355350Y-28003751D01*
X15348342Y-28000726D01*
X15341362Y-27997734D01*
X15334391Y-27994768D01*
X15327446Y-27991835D01*
X15320511Y-27988928D01*
X15313603Y-27986054D01*
X15306704Y-27983205D01*
X15299831Y-27980389D01*
X15292968Y-27977599D01*
X15286130Y-27974840D01*
X15279302Y-27972107D01*
X15272500Y-27969406D01*
X15265707Y-27966730D01*
X15258940Y-27964085D01*
X15252182Y-27961466D01*
X15245449Y-27958878D01*
X15238726Y-27956315D01*
X15232028Y-27953783D01*
X15225339Y-27951276D01*
X15218674Y-27948799D01*
X15212020Y-27946347D01*
X15205389Y-27943926D01*
X15198768Y-27941530D01*
X15192172Y-27939163D01*
X15185584Y-27936821D01*
X15179021Y-27934509D01*
X15172467Y-27932221D01*
X15165936Y-27929963D01*
X15159415Y-27927729D01*
X15152918Y-27925525D01*
X15146430Y-27923345D01*
X15139965Y-27921193D01*
X15133509Y-27919066D01*
X15127077Y-27916968D01*
X15120653Y-27914893D01*
X15114253Y-27912847D01*
X15107862Y-27910825D01*
X15101493Y-27908831D01*
X15095134Y-27906861D01*
X15088797Y-27904919D01*
X15082469Y-27903000D01*
X15076163Y-27901109D01*
X15069866Y-27899242D01*
X15063592Y-27897402D01*
X15057326Y-27895586D01*
X15051082Y-27893797D01*
X15044847Y-27892031D01*
X15038634Y-27890292D01*
X15032430Y-27888577D01*
X15026247Y-27886888D01*
X15020073Y-27885222D01*
X15013920Y-27883583D01*
X15007776Y-27881966D01*
X15001653Y-27880376D01*
X14995539Y-27878809D01*
X14989446Y-27877268D01*
X14983361Y-27875750D01*
X14977297Y-27874257D01*
X14971241Y-27872788D01*
X14965206Y-27871344D01*
X14959180Y-27869922D01*
X14953174Y-27868526D01*
X14947176Y-27867152D01*
X14941199Y-27865803D01*
X14935229Y-27864477D01*
X14929280Y-27863176D01*
X14923339Y-27861897D01*
X14917418Y-27860643D01*
X14911506Y-27859411D01*
X14905612Y-27858203D01*
X14899727Y-27857018D01*
X14893862Y-27855857D01*
X14888004Y-27854718D01*
X14882166Y-27853603D01*
X14876336Y-27852510D01*
X14870525Y-27851441D01*
X14864722Y-27850394D01*
X14858938Y-27849370D01*
X14853161Y-27848368D01*
X14847404Y-27847390D01*
X14841654Y-27846433D01*
X14835923Y-27845500D01*
X14830200Y-27844588D01*
X14824495Y-27843700D01*
X14818797Y-27842833D01*
X14813118Y-27841989D01*
X14807447Y-27841166D01*
X14801793Y-27840366D01*
X14796148Y-27839587D01*
X14790520Y-27838831D01*
X14784899Y-27838097D01*
X14779296Y-27837384D01*
X14773701Y-27836693D01*
X14768123Y-27836024D01*
X14762553Y-27835377D01*
X14757000Y-27834751D01*
X14751454Y-27834146D01*
X14745926Y-27833564D01*
X14740404Y-27833002D01*
X14734900Y-27832462D01*
X14729403Y-27831943D01*
X14723922Y-27831445D01*
X14718450Y-27830969D01*
X14712993Y-27830514D01*
X14707544Y-27830079D01*
X14702110Y-27829666D01*
X14696685Y-27829273D01*
X14691275Y-27828902D01*
X14685872Y-27828551D01*
X14680485Y-27828222D01*
X14675106Y-27827912D01*
X14669742Y-27827624D01*
X14664385Y-27827356D01*
X14659044Y-27827109D01*
X14653710Y-27826883D01*
X14648391Y-27826677D01*
X14643079Y-27826491D01*
X14637782Y-27826326D01*
X14632493Y-27826181D01*
X14627218Y-27826056D01*
X14621950Y-27825952D01*
X14616697Y-27825868D01*
X14611451Y-27825804D01*
X14606219Y-27825760D01*
X14600994Y-27825736D01*
X14595783Y-27825733D01*
X14590580Y-27825749D01*
X14585390Y-27825786D01*
X14580208Y-27825842D01*
X14575039Y-27825918D01*
X14569877Y-27826014D01*
X14564729Y-27826130D01*
X14559588Y-27826266D01*
X14554460Y-27826421D01*
X14549339Y-27826596D01*
X14544231Y-27826791D01*
X14539130Y-27827005D01*
X14534042Y-27827239D01*
X14528961Y-27827493D01*
X14523893Y-27827766D01*
X14518832Y-27828059D01*
X14513783Y-27828371D01*
X14508741Y-27828702D01*
X14503711Y-27829053D01*
X14498689Y-27829424D01*
X14493678Y-27829813D01*
X14488675Y-27830223D01*
X14483683Y-27830651D01*
X14478698Y-27831098D01*
X14473724Y-27831565D01*
X14468758Y-27832051D01*
X14463803Y-27832557D01*
X14458855Y-27833081D01*
X14453919Y-27833625D01*
X14448989Y-27834188D01*
X14444070Y-27834769D01*
X14439158Y-27835370D01*
X14434257Y-27835990D01*
X14429363Y-27836629D01*
X14424479Y-27837287D01*
X14419602Y-27837965D01*
X14414736Y-27838661D01*
X14409877Y-27839376D01*
X14405028Y-27840110D01*
X14400185Y-27840863D01*
X14395353Y-27841635D01*
X14390528Y-27842426D01*
X14385712Y-27843235D01*
X14380903Y-27844064D01*
X14376104Y-27844911D01*
X14371312Y-27845778D01*
X14366529Y-27846663D01*
X14361753Y-27847567D01*
X14356987Y-27848490D01*
X14352227Y-27849431D01*
X14347476Y-27850392D01*
X14342732Y-27851371D01*
X14337997Y-27852369D01*
X14333268Y-27853386D01*
X14328549Y-27854422D01*
X14323836Y-27855477D01*
X14319132Y-27856550D01*
X14314434Y-27857642D01*
X14309745Y-27858753D01*
X14305062Y-27859882D01*
X14300388Y-27861031D01*
X14295721Y-27862198D01*
X14291061Y-27863384D01*
X14286408Y-27864589D01*
X14281763Y-27865812D01*
X14277125Y-27867054D01*
X14272494Y-27868315D01*
X14267871Y-27869595D01*
X14263254Y-27870894D01*
X14258644Y-27872211D01*
X14254042Y-27873547D01*
X14249446Y-27874902D01*
X14244857Y-27876276D01*
X14240275Y-27877669D01*
X14235700Y-27879080D01*
X14231132Y-27880511D01*
X14226570Y-27881960D01*
X14222016Y-27883428D01*
X14212926Y-27886421D01*
X14203862Y-27889489D01*
X14194824Y-27892633D01*
X14185812Y-27895853D01*
X14176824Y-27899149D01*
X14167862Y-27902521D01*
X14158924Y-27905969D01*
X14150011Y-27909493D01*
X14141121Y-27913094D01*
X14132255Y-27916772D01*
X14123412Y-27920527D01*
X14114592Y-27924359D01*
X14105794Y-27928269D01*
X14097019Y-27932256D01*
X14088266Y-27936321D01*
X14079535Y-27940464D01*
X14070825Y-27944685D01*
X14062136Y-27948985D01*
X14053468Y-27953364D01*
X14044821Y-27957823D01*
X14036194Y-27962360D01*
X14027587Y-27966978D01*
X14019001Y-27971676D01*
X14010433Y-27976454D01*
X14001885Y-27981313D01*
X13993356Y-27986254D01*
X13984846Y-27991276D01*
X13976354Y-27996380D01*
X13967881Y-28001566D01*
X13959426Y-28006835D01*
X13950988Y-28012187D01*
X13942569Y-28017623D01*
X13934167Y-28023143D01*
X13925782Y-28028747D01*
X13917414Y-28034436D01*
X13909063Y-28040210D01*
X13900729Y-28046070D01*
X13892411Y-28052017D01*
X13884109Y-28058050D01*
X13875824Y-28064170D01*
X13867554Y-28070379D01*
X13859300Y-28076675D01*
X13851062Y-28083060D01*
X13842839Y-28089535D01*
X13834632Y-28096099D01*
X13826439Y-28102754D01*
X13818262Y-28109500D01*
X13810099Y-28116337D01*
X13801951Y-28123266D01*
X13793818Y-28130289D01*
X13785699Y-28137404D01*
X13777594Y-28144613D01*
X13769503Y-28151917D01*
X13761427Y-28159316D01*
X13753365Y-28166811D01*
X13745316Y-28174402D01*
X13737281Y-28182090D01*
X13729260Y-28189876D01*
X13721253Y-28197760D01*
X13713259Y-28205744D01*
X13705278Y-28213827D01*
X13697311Y-28222010D01*
X13689357Y-28230295D01*
X13681416Y-28238682D01*
X13673489Y-28247171D01*
X13665574Y-28255763D01*
X13657673Y-28264459D01*
X13649784Y-28273260D01*
X13641909Y-28282167D01*
X13634047Y-28291180D01*
X13626197Y-28300299D01*
X13618360Y-28309527D01*
X13610536Y-28318863D01*
X13602725Y-28328309D01*
X13594927Y-28337864D01*
X13587142Y-28347531D01*
X13579369Y-28357309D01*
X13571609Y-28367200D01*
X13563862Y-28377205D01*
X13556128Y-28387323D01*
X13548407Y-28397557D01*
X13540698Y-28407906D01*
X13533003Y-28418373D01*
X13525320Y-28428957D01*
X13517650Y-28439659D01*
X13509993Y-28450481D01*
X13502349Y-28461423D01*
X13494718Y-28472487D01*
X13487100Y-28483672D01*
X13479496Y-28494981D01*
X13471904Y-28506413D01*
X13464326Y-28517970D01*
X13456761Y-28529653D01*
X13449209Y-28541463D01*
X13441671Y-28553400D01*
X13434147Y-28565466D01*
X13426635Y-28577661D01*
X13419138Y-28589987D01*
X13411654Y-28602445D01*
X13404185Y-28615035D01*
X13396729Y-28627758D01*
X13389287Y-28640616D01*
X13381859Y-28653609D01*
X13374446Y-28666739D01*
X13367046Y-28680006D01*
X13359662Y-28693412D01*
X13352291Y-28706958D01*
X13344936Y-28720643D01*
X13337595Y-28734471D01*
X13330269Y-28748441D01*
X13322959Y-28762555D01*
X13315663Y-28776814D01*
X13308383Y-28791219D01*
X13301118Y-28805770D01*
X13293869Y-28820470D01*
X13286636Y-28835319D01*
X13279418Y-28850318D01*
X13272216Y-28865468D01*
X13265031Y-28880771D01*
X13257862Y-28896228D01*
X13250710Y-28911839D01*
X13243574Y-28927606D01*
X13236455Y-28943531D01*
X13229353Y-28959613D01*
X13222268Y-28975855D01*
X13215201Y-28992257D01*
X13208151Y-29008821D01*
X13201119Y-29025548D01*
X13194105Y-29042438D01*
X13187109Y-29059495D01*
X13180131Y-29076717D01*
X13173171Y-29094107D01*
X13166231Y-29111667D01*
X13159309Y-29129396D01*
X13152406Y-29147297D01*
X13145522Y-29165370D01*
X13138658Y-29183617D01*
X13131814Y-29202039D01*
X13124990Y-29220638D01*
X13118185Y-29239414D01*
X13111401Y-29258369D01*
X13104638Y-29277505D01*
X13097895Y-29296822D01*
X13091174Y-29316322D01*
X13084473Y-29336006D01*
X13077794Y-29355875D01*
X13071137Y-29375932D01*
X13064502Y-29396176D01*
X13057889Y-29416610D01*
X13051298Y-29437235D01*
X13044730Y-29458052D01*
X13038185Y-29479062D01*
X13031663Y-29500268D01*
X13025164Y-29521670D01*
X13018689Y-29543269D01*
X13012238Y-29565068D01*
X13005811Y-29587067D01*
X12999409Y-29609268D01*
X12993031Y-29631673D01*
X12986678Y-29654283D01*
X12980350Y-29677098D01*
X12974048Y-29700122D01*
X12967772Y-29723355D01*
X12961522Y-29746798D01*
X12955298Y-29770454D01*
X12949100Y-29794323D01*
X12942930Y-29818408D01*
X12936786Y-29842709D01*
X12930671Y-29867228D01*
X12924582Y-29891967D01*
X12918522Y-29916927D01*
X12912490Y-29942111D01*
X12906487Y-29967518D01*
X12900513Y-29993152D01*
X12894568Y-30019013D01*
X12888652Y-30045103D01*
X12882766Y-30071423D01*
X12876910Y-30097977D01*
X12871085Y-30124764D01*
X12865290Y-30151786D01*
X12859527Y-30179046D01*
X12853795Y-30206545D01*
X12848094Y-30234284D01*
X12842426Y-30262265D01*
X12836789Y-30290491D01*
X12831186Y-30318961D01*
X12825615Y-30347679D01*
X12820078Y-30376646D01*
X12814574Y-30405864D01*
X12809104Y-30435334D01*
X12803668Y-30465059D01*
X12798267Y-30495039D01*
X12792901Y-30525277D01*
X12787570Y-30555775D01*
X12782275Y-30586533D01*
X12777016Y-30617555D01*
X12771793Y-30648842D01*
X12766607Y-30680396D01*
X12761458Y-30712218D01*
X12756346Y-30744311D01*
X12751272Y-30776676D01*
X12746236Y-30809315D01*
X12741238Y-30842230D01*
X12736279Y-30875423D01*
X12731359Y-30908896D01*
X12726479Y-30942651D01*
X12721639Y-30976690D01*
X12716839Y-31011015D01*
X12712079Y-31045627D01*
X12707361Y-31080529D01*
X12702683Y-31115723D01*
X12698048Y-31151211D01*
X12693455Y-31186994D01*
X12688904Y-31223075D01*
X12684396Y-31259457D01*
X12679931Y-31296140D01*
X12675510Y-31333127D01*
X12671133Y-31370420D01*
X12666801Y-31408022D01*
X12662513Y-31445934D01*
X12658271Y-31484159D01*
X12654074Y-31522698D01*
X12649923Y-31561555D01*
X12645818Y-31600730D01*
X12641761Y-31640227D01*
X12637751Y-31680048D01*
X12633788Y-31720194D01*
X12629873Y-31760669D01*
X12626007Y-31801474D01*
X12622190Y-31842611D01*
X12618422Y-31884084D01*
X12614704Y-31925895D01*
X12611036Y-31968045D01*
X12607419Y-32010537D01*
X12603852Y-32053374D01*
X12600337Y-32096557D01*
X12596874Y-32140091D01*
X12593463Y-32183976D01*
X12590106Y-32228215D01*
X12586801Y-32272812D01*
X12583550Y-32317767D01*
X12580353Y-32363085D01*
X12577210Y-32408767D01*
X12574123Y-32454816D01*
X12571091Y-32501235D01*
X12568115Y-32548027D01*
X12565195Y-32595193D01*
X12562332Y-32642737D01*
X12559526Y-32690662D01*
X12556779Y-32738969D01*
X12554089Y-32787662D01*
X12551458Y-32836744D01*
X12548886Y-32886218D01*
X12546374Y-32936085D01*
X12543923Y-32986350D01*
X12541531Y-33037015D01*
X12539201Y-33088082D01*
X12536933Y-33139556D01*
X12534726Y-33191438D01*
X12532583Y-33243731D01*
X12530502Y-33296440D01*
X12528485Y-33349566D01*
X12526532Y-33403114D01*
X12524644Y-33457085D01*
X12522821Y-33511483D01*
X12521064Y-33566312D01*
X12519373Y-33621574D01*
X12517748Y-33677272D01*
X12516191Y-33733411D01*
X12514702Y-33789993D01*
X12513280Y-33847021D01*
X12511928Y-33904499D01*
X12510645Y-33962430D01*
X12509433Y-34020818D01*
X12508290Y-34079667D01*
X12507219Y-34138979D01*
X12506219Y-34198758D01*
X12505292Y-34259007D01*
X12504437Y-34319731D01*
X12503656Y-34380934D01*
X12502948Y-34442617D01*
X12502315Y-34504787D01*
X12501757Y-34567445D01*
X12501275Y-34630596D01*
X12500869Y-34694244D01*
X12500540Y-34758393D01*
X12500288Y-34823047D01*
X12500114Y-34888209D01*
X12500019Y-34953884D01*
X12500000Y-35000000D01*
X87500000Y-50000000D02*
X87478123Y-49969227D01*
X87456246Y-49938490D01*
X87434375Y-49907795D01*
X87412505Y-49877135D01*
X87390641Y-49846518D01*
X87368777Y-49815936D01*
X87346919Y-49785396D01*
X87325061Y-49754892D01*
X87303209Y-49724430D01*
X87281358Y-49694004D01*
X87259513Y-49663619D01*
X87237668Y-49633270D01*
X87215829Y-49602963D01*
X87193991Y-49572691D01*
X87172158Y-49542461D01*
X87150326Y-49512266D01*
X87128500Y-49482113D01*
X87106674Y-49451995D01*
X87084854Y-49421919D01*
X87063035Y-49391878D01*
X87041221Y-49361879D01*
X87019408Y-49331915D01*
X86997601Y-49301993D01*
X86975794Y-49272105D01*
X86953993Y-49242259D01*
X86932193Y-49212448D01*
X86910398Y-49182678D01*
X86888604Y-49152943D01*
X86866815Y-49123250D01*
X86845028Y-49093592D01*
X86823245Y-49063974D01*
X86801464Y-49034392D01*
X86779688Y-49004851D01*
X86757913Y-48975344D01*
X86736143Y-48945879D01*
X86714375Y-48916448D01*
X86692611Y-48887059D01*
X86670849Y-48857704D01*
X86649092Y-48828390D01*
X86627335Y-48799111D01*
X86605585Y-48769872D01*
X86583834Y-48740668D01*
X86562090Y-48711505D01*
X86540346Y-48682377D01*
X86518608Y-48653289D01*
X86496870Y-48624236D01*
X86475138Y-48595223D01*
X86453407Y-48566245D01*
X86431681Y-48537307D01*
X86409956Y-48508404D01*
X86388237Y-48479541D01*
X86366518Y-48450712D01*
X86344804Y-48421924D01*
X86323092Y-48393170D01*
X86301385Y-48364457D01*
X86279678Y-48335778D01*
X86257977Y-48307139D01*
X86236277Y-48278534D01*
X86214582Y-48249969D01*
X86192888Y-48221439D01*
X86171200Y-48192948D01*
X86149512Y-48164492D01*
X86127829Y-48136076D01*
X86106148Y-48107693D01*
X86084471Y-48079351D01*
X86062796Y-48051043D01*
X86041126Y-48022774D01*
X86019457Y-47994540D01*
X85997793Y-47966345D01*
X85976130Y-47938184D01*
X85954472Y-47910063D01*
X85932815Y-47881976D01*
X85911163Y-47853928D01*
X85889512Y-47825914D01*
X85867867Y-47797940D01*
X85846222Y-47769999D01*
X85824583Y-47742098D01*
X85802944Y-47714231D01*
X85781311Y-47686403D01*
X85759678Y-47658608D01*
X85738051Y-47630853D01*
X85716425Y-47603132D01*
X85694804Y-47575450D01*
X85673183Y-47547801D01*
X85651568Y-47520192D01*
X85629954Y-47492616D01*
X85608345Y-47465079D01*
X85586737Y-47437576D01*
X85565134Y-47410111D01*
X85543532Y-47382680D01*
X85521935Y-47355288D01*
X85500339Y-47327930D01*
X85478748Y-47300610D01*
X85457159Y-47273324D01*
X85435574Y-47246076D01*
X85413990Y-47218862D01*
X85392411Y-47191686D01*
X85370833Y-47164544D01*
X85349261Y-47137440D01*
X85327689Y-47110369D01*
X85306122Y-47083337D01*
X85284556Y-47056338D01*
X85262996Y-47029378D01*
X85241436Y-47002450D01*
X85219881Y-46975561D01*
X85198327Y-46948706D01*
X85176779Y-46921888D01*
X85155231Y-46895103D01*
X85133688Y-46868357D01*
X85112146Y-46841644D01*
X85090610Y-46814969D01*
X85069074Y-46788326D01*
X85047543Y-46761722D01*
X85026013Y-46735151D01*
X85004488Y-46708618D01*
X84982964Y-46682117D01*
X84961446Y-46655655D01*
X84939927Y-46629225D01*
X84918415Y-46602833D01*
X84896902Y-46576474D01*
X84875395Y-46550152D01*
X84853889Y-46523864D01*
X84832388Y-46497613D01*
X84810888Y-46471394D01*
X84789393Y-46445214D01*
X84767898Y-46419066D01*
X84746409Y-46392955D01*
X84724920Y-46366877D01*
X84703437Y-46340837D01*
X84681954Y-46314829D01*
X84660477Y-46288858D01*
X84639000Y-46262920D01*
X84617528Y-46237019D01*
X84596057Y-46211151D01*
X84574591Y-46185320D01*
X84553126Y-46159521D01*
X84531666Y-46133760D01*
X84510207Y-46108030D01*
X84488753Y-46082338D01*
X84467299Y-46056679D01*
X84445851Y-46031056D01*
X84424403Y-46005465D01*
X84402961Y-45979912D01*
X84381519Y-45954390D01*
X84360082Y-45928906D01*
X84338646Y-45903454D01*
X84317215Y-45878038D01*
X84295785Y-45852655D01*
X84274360Y-45827308D01*
X84252935Y-45801994D01*
X84231516Y-45776716D01*
X84210097Y-45751470D01*
X84188683Y-45726261D01*
X84167270Y-45701083D01*
X84145862Y-45675942D01*
X84124455Y-45650833D01*
X84103053Y-45625761D01*
X84081651Y-45600721D01*
X84060255Y-45575716D01*
X84038859Y-45550744D01*
X84017468Y-45525808D01*
X83996078Y-45500904D01*
X83974693Y-45476036D01*
X83953309Y-45451199D01*
X83931929Y-45426399D01*
X83910550Y-45401631D01*
X83889177Y-45376899D01*
X83867804Y-45352198D01*
X83846435Y-45327533D01*
X83825068Y-45302900D01*
X83803705Y-45278303D01*
X83782344Y-45253738D01*
X83760987Y-45229208D01*
X83739631Y-45204710D01*
X83718279Y-45180248D01*
X83696929Y-45155817D01*
X83675583Y-45131422D01*
X83654238Y-45107058D01*
X83632898Y-45082730D01*
X83611559Y-45058434D01*
X83590225Y-45034173D01*
X83568891Y-45009943D01*
X83547562Y-44985749D01*
X83526234Y-44961586D01*
X83504910Y-44937459D01*
X83483588Y-44913362D01*
X83462270Y-44889302D01*
X83440953Y-44865272D01*
X83419641Y-44841278D01*
X83398329Y-44817315D01*
X83377023Y-44793387D01*
X83355717Y-44769490D01*
X83334415Y-44745629D01*
X83313115Y-44721798D01*
X83291819Y-44698003D01*
X83270524Y-44674239D01*
X83249234Y-44650509D01*
X83227944Y-44626811D01*
X83206660Y-44603148D01*
X83185376Y-44579515D01*
X83164096Y-44555918D01*
X83142818Y-44532351D01*
X83121544Y-44508819D01*
X83100271Y-44485318D01*
X83079002Y-44461852D01*
X83057735Y-44438417D01*
X83036471Y-44415016D01*
X83015209Y-44391646D01*
X82993952Y-44368311D01*
X82972695Y-44345006D01*
X82951442Y-44321736D01*
X82930191Y-44298497D01*
X82908944Y-44275292D01*
X82887698Y-44252118D01*
X82866456Y-44228978D01*
X82845216Y-44205869D01*
X82823979Y-44182794D01*
X82802744Y-44159749D01*
X82781513Y-44136739D01*
X82760283Y-44113760D01*
X82739058Y-44090814D01*
X82717833Y-44067900D01*
X82696613Y-44045019D01*
X82675393Y-44022168D01*
X82654178Y-43999352D01*
X82632964Y-43976566D01*
X82611755Y-43953814D01*
X82590546Y-43931093D01*
X82569341Y-43908405D01*
X82548138Y-43885748D01*
X82526939Y-43863124D01*
X82505740Y-43840531D01*
X82484546Y-43817972D01*
X82463353Y-43795443D01*
X82442165Y-43772947D01*
X82420977Y-43750482D01*
X82399793Y-43728050D01*
X82378611Y-43705649D01*
X82357432Y-43683281D01*
X82336255Y-43660943D01*
X82315082Y-43638638D01*
X82293909Y-43616364D01*
X82272741Y-43594123D01*
X82251574Y-43571912D01*
X82230411Y-43549735D01*
X82209250Y-43527588D01*
X82188092Y-43505473D01*
X82166935Y-43483389D01*
X82145782Y-43461338D01*
X82124631Y-43439317D01*
X82103483Y-43417329D01*
X82082337Y-43395371D01*
X82061194Y-43373446D01*
X82040053Y-43351551D01*
X82018915Y-43329688D01*
X81997779Y-43307856D01*
X81976647Y-43286057D01*
X81955515Y-43264287D01*
X81934388Y-43242550D01*
X81913262Y-43220843D01*
X81892139Y-43199169D01*
X81871018Y-43177524D01*
X81849901Y-43155912D01*
X81828785Y-43134330D01*
X81807672Y-43112780D01*
X81786561Y-43091260D01*
X81765454Y-43069773D01*
X81744348Y-43048315D01*
X81723245Y-43026890D01*
X81702144Y-43005494D01*
X81681046Y-42984131D01*
X81659950Y-42962797D01*
X81638858Y-42941496D01*
X81617766Y-42920224D01*
X81596679Y-42898984D01*
X81575592Y-42877774D01*
X81554509Y-42856596D01*
X81533428Y-42835447D01*
X81512350Y-42814331D01*
X81491273Y-42793244D01*
X81470200Y-42772189D01*
X81449129Y-42751163D01*
X81428060Y-42730169D01*
X81406993Y-42709205D01*
X81385930Y-42688272D01*
X81364868Y-42667369D01*
X81343810Y-42646498D01*
X81322752Y-42625656D01*
X81301699Y-42604846D01*
X81280646Y-42584065D01*
X81259597Y-42563315D01*
X81238549Y-42542595D01*
X81217505Y-42521907D01*
X81196462Y-42501247D01*
X81175423Y-42480619D01*
X81154385Y-42460021D01*
X81133350Y-42439454D01*
X81112316Y-42418915D01*
X81091286Y-42398409D01*
X81070258Y-42377931D01*
X81049232Y-42357485D01*
X81028208Y-42337068D01*
X81007188Y-42316682D01*
X80986168Y-42296325D01*
X80965152Y-42275999D01*
X80944138Y-42255702D01*
X80923126Y-42235436D01*
X80902116Y-42215200D01*
X80881110Y-42194994D01*
X80860104Y-42174817D01*
X80839102Y-42154671D01*
X80818101Y-42134554D01*
X80797104Y-42114468D01*
X80776107Y-42094411D01*
X80755114Y-42074385D01*
X80734123Y-42054387D01*
X80713134Y-42034421D01*
X80692147Y-42014483D01*
X80671163Y-41994575D01*
X80650181Y-41974697D01*
X80629201Y-41954849D01*
X80608223Y-41935030D01*
X80587248Y-41915241D01*
X80566275Y-41895481D01*
X80545304Y-41875752D01*
X80524335Y-41856051D01*
X80503369Y-41836381D01*
X80482405Y-41816739D01*
X80461443Y-41797128D01*
X80440483Y-41777545D01*
X80419526Y-41757992D01*
X80398570Y-41738468D01*
X80377618Y-41718974D01*
X80356666Y-41699509D01*
X80335718Y-41680074D01*
X80314771Y-41660668D01*
X80293827Y-41641291D01*
X80272884Y-41621943D01*
X80251945Y-41602625D01*
X80231007Y-41583335D01*
X80210071Y-41564076D01*
X80189137Y-41544845D01*
X80168207Y-41525643D01*
X80147277Y-41506470D01*
X80126350Y-41487327D01*
X80105425Y-41468212D01*
X80084503Y-41449127D01*
X80063581Y-41430070D01*
X80042663Y-41411043D01*
X80021746Y-41392044D01*
X80000833Y-41373075D01*
X79979920Y-41354134D01*
X79959010Y-41335223D01*
X79938102Y-41316339D01*
X79917196Y-41297485D01*
X79896292Y-41278660D01*
X79875391Y-41259864D01*
X79854491Y-41241095D01*
X79833594Y-41222357D01*
X79812698Y-41203646D01*
X79791805Y-41184965D01*
X79770913Y-41166312D01*
X79750024Y-41147688D01*
X79729136Y-41129092D01*
X79708252Y-41110525D01*
X79687368Y-41091986D01*
X79666487Y-41073476D01*
X79645608Y-41054994D01*
X79624731Y-41036542D01*
X79603856Y-41018117D01*
X79582983Y-40999721D01*
X79562112Y-40981353D01*
X79541243Y-40963014D01*
X79520376Y-40944703D01*
X79499511Y-40926421D01*
X79478647Y-40908166D01*
X79457787Y-40889941D01*
X79436927Y-40871743D01*
X79416071Y-40853574D01*
X79395215Y-40835432D01*
X79374362Y-40817320D01*
X79353511Y-40799235D01*
X79332662Y-40781178D01*
X79311814Y-40763150D01*
X79290969Y-40745150D01*
X79270125Y-40727177D01*
X79249284Y-40709233D01*
X79228444Y-40691317D01*
X79207607Y-40673429D01*
X79186770Y-40655568D01*
X79165937Y-40637736D01*
X79145105Y-40619932D01*
X79124275Y-40602156D01*
X79103446Y-40584407D01*
X79082620Y-40566687D01*
X79061796Y-40548994D01*
X79040973Y-40531329D01*
X79020152Y-40513692D01*
X78999334Y-40496083D01*
X78978517Y-40478501D01*
X78957702Y-40460948D01*
X78936888Y-40443422D01*
X78916077Y-40425923D01*
X78895267Y-40408452D01*
X78874460Y-40391010D01*
X78853654Y-40373594D01*
X78832850Y-40356206D01*
X78812047Y-40338846D01*
X78791247Y-40321513D01*
X78770448Y-40304208D01*
X78749652Y-40286931D01*
X78728856Y-40269680D01*
X78708063Y-40252458D01*
X78687271Y-40235262D01*
X78666482Y-40218094D01*
X78645694Y-40200954D01*
X78624908Y-40183841D01*
X78604123Y-40166755D01*
X78583341Y-40149697D01*
X78562559Y-40132665D01*
X78541780Y-40115662D01*
X78521003Y-40098685D01*
X78500227Y-40081735D01*
X78479453Y-40064813D01*
X78458681Y-40047918D01*
X78437910Y-40031050D01*
X78417141Y-40014210D01*
X78396374Y-39997396D01*
X78375609Y-39980610D01*
X78354844Y-39963850D01*
X78334083Y-39947118D01*
X78313322Y-39930412D01*
X78292563Y-39913734D01*
X78271806Y-39897083D01*
X78251051Y-39880459D01*
X78230297Y-39863861D01*
X78209545Y-39847291D01*
X78188794Y-39830747D01*
X78168045Y-39814230D01*
X78147298Y-39797740D01*
X78126552Y-39781277D01*
X78105808Y-39764841D01*
X78085066Y-39748431D01*
X78064325Y-39732049D01*
X78043586Y-39715693D01*
X78022848Y-39699363D01*
X78002112Y-39683061D01*
X77981377Y-39666785D01*
X77960645Y-39650536D01*
X77939913Y-39634313D01*
X77919183Y-39618117D01*
X77898455Y-39601948D01*
X77877728Y-39585805D01*
X77857003Y-39569688D01*
X77836280Y-39553599D01*
X77815558Y-39537535D01*
X77794837Y-39521499D01*
X77774118Y-39505488D01*
X77753401Y-39489504D01*
X77732684Y-39473547D01*
X77711970Y-39457616D01*
X77691257Y-39441711D01*
X77670545Y-39425832D01*
X77649835Y-39409980D01*
X77629127Y-39394155D01*
X77608419Y-39378355D01*
X77587714Y-39362582D01*
X77567010Y-39346835D01*
X77546307Y-39331114D01*
X77525605Y-39315420D01*
X77504906Y-39299751D01*
X77484207Y-39284109D01*
X77463510Y-39268493D01*
X77442814Y-39252903D01*
X77422120Y-39237339D01*
X77401427Y-39221801D01*
X77380736Y-39206289D01*
X77360046Y-39190804D01*
X77339357Y-39175344D01*
X77318670Y-39159910D01*
X77297984Y-39144502D01*
X77277299Y-39129120D01*
X77256616Y-39113765D01*
X77235934Y-39098435D01*
X77215254Y-39083130D01*
X77194575Y-39067852D01*
X77173897Y-39052600D01*
X77153220Y-39037373D01*
X77132545Y-39022172D01*
X77111871Y-39006997D01*
X77091198Y-38991848D01*
X77070527Y-38976724D01*
X77049857Y-38961627D01*
X77029188Y-38946554D01*
X77008521Y-38931508D01*
X76987855Y-38916487D01*
X76967190Y-38901492D01*
X76946526Y-38886523D01*
X76925864Y-38871579D01*
X76905203Y-38856660D01*
X76884542Y-38841767D01*
X76863884Y-38826900D01*
X76843226Y-38812058D01*
X76822570Y-38797242D01*
X76801915Y-38782451D01*
X76781261Y-38767686D01*
X76760608Y-38752946D01*
X76739957Y-38738231D01*
X76719306Y-38723542D01*
X76698657Y-38708878D01*
X76678009Y-38694240D01*
X76657362Y-38679627D01*
X76636717Y-38665039D01*
X76616072Y-38650476D01*
X76595429Y-38635939D01*
X76574787Y-38621427D01*
X76554145Y-38606940D01*
X76533505Y-38592479D01*
X76512866Y-38578042D01*
X76492229Y-38563631D01*
X76471592Y-38549245D01*
X76450956Y-38534884D01*
X76430321Y-38520548D01*
X76409688Y-38506238D01*
X76389055Y-38491952D01*
X76368424Y-38477691D01*
X76347794Y-38463456D01*
X76327165Y-38449245D01*
X76306536Y-38435060D01*
X76285909Y-38420899D01*
X76265283Y-38406763D01*
X76244658Y-38392653D01*
X76224033Y-38378567D01*
X76203410Y-38364506D01*
X76182788Y-38350470D01*
X76162167Y-38336459D01*
X76141547Y-38322472D01*
X76120928Y-38308511D01*
X76100309Y-38294574D01*
X76079692Y-38280662D01*
X76059075Y-38266775D01*
X76038460Y-38252913D01*
X76017845Y-38239075D01*
X75997232Y-38225262D01*
X75976619Y-38211474D01*
X75956008Y-38197710D01*
X75935397Y-38183971D01*
X75914787Y-38170257D01*
X75894178Y-38156567D01*
X75873570Y-38142902D01*
X75852962Y-38129261D01*
X75832356Y-38115645D01*
X75811750Y-38102053D01*
X75791146Y-38088486D01*
X75770541Y-38074943D01*
X75749939Y-38061426D01*
X75729336Y-38047932D01*
X75708735Y-38034463D01*
X75688134Y-38021018D01*
X75667535Y-38007598D01*
X75646935Y-37994201D01*
X75626337Y-37980830D01*
X75605740Y-37967482D01*
X75585143Y-37954160D01*
X75564547Y-37940861D01*
X75543952Y-37927587D01*
X75523358Y-37914336D01*
X75502764Y-37901111D01*
X75482171Y-37887909D01*
X75461579Y-37874732D01*
X75440988Y-37861578D01*
X75420397Y-37848450D01*
X75399807Y-37835344D01*
X75379218Y-37822264D01*
X75358629Y-37809207D01*
X75338041Y-37796175D01*
X75317454Y-37783166D01*
X75296867Y-37770182D01*
X75276281Y-37757222D01*
X75255696Y-37744286D01*
X75235111Y-37731373D01*
X75214527Y-37718485D01*
X75193943Y-37705621D01*
X75173361Y-37692781D01*
X75152778Y-37679964D01*
X75132197Y-37667172D01*
X75111616Y-37654403D01*
X75091036Y-37641659D01*
X75070456Y-37628938D01*
X75049877Y-37616241D01*
X75029298Y-37603568D01*
X75008720Y-37590919D01*
X74988142Y-37578293D01*
X74967565Y-37565692D01*
X74946988Y-37553113D01*
X74926413Y-37540560D01*
X74905837Y-37528029D01*
X74885262Y-37515522D01*
X74864687Y-37503039D01*
X74844113Y-37490580D01*
X74823539Y-37478144D01*
X74802967Y-37465732D01*
X74782394Y-37453344D01*
X74761822Y-37440979D01*
X74741250Y-37428638D01*
X74720679Y-37416321D01*
X74700107Y-37404026D01*
X74679538Y-37391756D01*
X74658967Y-37379509D01*
X74638398Y-37367286D01*
X74617828Y-37355085D01*
X74597260Y-37342909D01*
X74576691Y-37330756D01*
X74556123Y-37318626D01*
X74535555Y-37306520D01*
X74514988Y-37294437D01*
X74494420Y-37282378D01*
X74473854Y-37270342D01*
X74453287Y-37258329D01*
X74432722Y-37246340D01*
X74412155Y-37234374D01*
X74391590Y-37222431D01*
X74371025Y-37210511D01*
X74350460Y-37198616D01*
X74329895Y-37186742D01*
X74309331Y-37174893D01*
X74288766Y-37163066D01*
X74268203Y-37151263D01*
X74247639Y-37139483D01*
X74227076Y-37127727D01*
X74206512Y-37115992D01*
X74185950Y-37104282D01*
X74165387Y-37092594D01*
X74144825Y-37080931D01*
X74124262Y-37069289D01*
X74103700Y-37057671D01*
X74083138Y-37046076D01*
X74062576Y-37034504D01*
X74042014Y-37022954D01*
X74021453Y-37011429D01*
X74000891Y-36999925D01*
X73980330Y-36988446D01*
X73959768Y-36976988D01*
X73939208Y-36965555D01*
X73918646Y-36954143D01*
X73898086Y-36942755D01*
X73877525Y-36931389D01*
X73856965Y-36920047D01*
X73836403Y-36908727D01*
X73815843Y-36897431D01*
X73795282Y-36886156D01*
X73774722Y-36874905D01*
X73754161Y-36863677D01*
X73733601Y-36852472D01*
X73713040Y-36841288D01*
X73692480Y-36830129D01*
X73671919Y-36818991D01*
X73651359Y-36807877D01*
X73630798Y-36796785D01*
X73610238Y-36785716D01*
X73589676Y-36774669D01*
X73569117Y-36763646D01*
X73548555Y-36752644D01*
X73527995Y-36741666D01*
X73507433Y-36730710D01*
X73486873Y-36719777D01*
X73466311Y-36708865D01*
X73445751Y-36697978D01*
X73425188Y-36687112D01*
X73404628Y-36676269D01*
X73384065Y-36665448D01*
X73363504Y-36654651D01*
X73342942Y-36643875D01*
X73322380Y-36633122D01*
X73301817Y-36622391D01*
X73281256Y-36611683D01*
X73260692Y-36600997D01*
X73240130Y-36590335D01*
X73219566Y-36579693D01*
X73199004Y-36569075D01*
X73178439Y-36558479D01*
X73157876Y-36547906D01*
X73137311Y-36537354D01*
X73116748Y-36526825D01*
X73096182Y-36516318D01*
X73075618Y-36505834D01*
X73055052Y-36495371D01*
X73034488Y-36484932D01*
X73013921Y-36474514D01*
X72993356Y-36464119D01*
X72972788Y-36453746D01*
X72952223Y-36443395D01*
X72931655Y-36433066D01*
X72911088Y-36422760D01*
X72890519Y-36412475D01*
X72869952Y-36402214D01*
X72849382Y-36391973D01*
X72828814Y-36381756D01*
X72808244Y-36371560D01*
X72787675Y-36361387D01*
X72767104Y-36351235D01*
X72746534Y-36341106D01*
X72725962Y-36330998D01*
X72705391Y-36320913D01*
X72684818Y-36310849D01*
X72664247Y-36300808D01*
X72643673Y-36290789D01*
X72623100Y-36280792D01*
X72602525Y-36270816D01*
X72581952Y-36260863D01*
X72561375Y-36250931D01*
X72540801Y-36241022D01*
X72520224Y-36231134D01*
X72499648Y-36221269D01*
X72479069Y-36211425D01*
X72458493Y-36201604D01*
X72437913Y-36191803D01*
X72417335Y-36182026D01*
X72396754Y-36172269D01*
X72376175Y-36162535D01*
X72355593Y-36152822D01*
X72335013Y-36143132D01*
X72314429Y-36133462D01*
X72293848Y-36123815D01*
X72273263Y-36114189D01*
X72252680Y-36104586D01*
X72232094Y-36095004D01*
X72211509Y-36085444D01*
X72190922Y-36075905D01*
X72170336Y-36066389D01*
X72149747Y-36056893D01*
X72129160Y-36047420D01*
X72087980Y-36028538D01*
X72046798Y-36009743D01*
X72005612Y-35991034D01*
X71964423Y-35972411D01*
X71923231Y-35953874D01*
X71882036Y-35935424D01*
X71840836Y-35917060D01*
X71799634Y-35898781D01*
X71758427Y-35880589D01*
X71717217Y-35862482D01*
X71676003Y-35844461D01*
X71634785Y-35826525D01*
X71593563Y-35808675D01*
X71552337Y-35790910D01*
X71511107Y-35773231D01*
X71469872Y-35755636D01*
X71428633Y-35738127D01*
X71387390Y-35720702D01*
X71346142Y-35703363D01*
X71304889Y-35686108D01*
X71263632Y-35668938D01*
X71222370Y-35651853D01*
X71181103Y-35634852D01*
X71139830Y-35617935D01*
X71098553Y-35601103D01*
X71057271Y-35584355D01*
X71015983Y-35567691D01*
X70974691Y-35551111D01*
X70933392Y-35534615D01*
X70892088Y-35518203D01*
X70850779Y-35501875D01*
X70809463Y-35485631D01*
X70768142Y-35469470D01*
X70726815Y-35453393D01*
X70685483Y-35437399D01*
X70644143Y-35421488D01*
X70602798Y-35405661D01*
X70561447Y-35389917D01*
X70520089Y-35374257D01*
X70478725Y-35358679D01*
X70437354Y-35343184D01*
X70395976Y-35327772D01*
X70354592Y-35312443D01*
X70313201Y-35297196D01*
X70271803Y-35282033D01*
X70230398Y-35266952D01*
X70188986Y-35251953D01*
X70147566Y-35237037D01*
X70106139Y-35222203D01*
X70064705Y-35207451D01*
X70023264Y-35192782D01*
X69981814Y-35178194D01*
X69940357Y-35163689D01*
X69898892Y-35149266D01*
X69857420Y-35134924D01*
X69815939Y-35120664D01*
X69774450Y-35106487D01*
X69732953Y-35092390D01*
X69691448Y-35078376D01*
X69649934Y-35064443D01*
X69608412Y-35050591D01*
X69566881Y-35036821D01*
X69525342Y-35023133D01*
X69483793Y-35009525D01*
X69442236Y-34995999D01*
X69400670Y-34982554D01*
X69359094Y-34969190D01*
X69317510Y-34955907D01*
X69275916Y-34942705D01*
X69234312Y-34929584D01*
X69192700Y-34916543D01*
X69151077Y-34903584D01*
X69109445Y-34890705D01*
X69067803Y-34877907D01*
X69026151Y-34865189D01*
X68984489Y-34852552D01*
X68942817Y-34839995D01*
X68901134Y-34827519D01*
X68859441Y-34815123D01*
X68817738Y-34802808D01*
X68776024Y-34790572D01*
X68734300Y-34778417D01*
X68692564Y-34766342D01*
X68650818Y-34754347D01*
X68609061Y-34742432D01*
X68567292Y-34730597D01*
X68525513Y-34718842D01*
X68483722Y-34707167D01*
X68441920Y-34695572D01*
X68400106Y-34684056D01*
X68358280Y-34672620D01*
X68316443Y-34661264D01*
X68274593Y-34649988D01*
X68232732Y-34638791D01*
X68190859Y-34627673D01*
X68148973Y-34616635D01*
X68107075Y-34605677D01*
X68065165Y-34594797D01*
X68023242Y-34583998D01*
X67981306Y-34573277D01*
X67939358Y-34562636D01*
X67897396Y-34552074D01*
X67855422Y-34541591D01*
X67813435Y-34531187D01*
X67771434Y-34520862D01*
X67729420Y-34510617D01*
X67687392Y-34500450D01*
X67645351Y-34490362D01*
X67603296Y-34480354D01*
X67561228Y-34470424D01*
X67519145Y-34460573D01*
X67477048Y-34450801D01*
X67434937Y-34441107D01*
X67392812Y-34431492D01*
X67350673Y-34421957D01*
X67308519Y-34412499D01*
X67266350Y-34403121D01*
X67224166Y-34393821D01*
X67181968Y-34384599D01*
X67139754Y-34375457D01*
X67097525Y-34366392D01*
X67055281Y-34357406D01*
X67013022Y-34348499D01*
X66970747Y-34339670D01*
X66928457Y-34330920D01*
X66886151Y-34322248D01*
X66843828Y-34313654D01*
X66801490Y-34305138D01*
X66759136Y-34296701D01*
X66716766Y-34288342D01*
X66674379Y-34280062D01*
X66631975Y-34271860D01*
X66589555Y-34263735D01*
X66547118Y-34255690D01*
X66504665Y-34247722D01*
X66462194Y-34239832D01*
X66419706Y-34232021D01*
X66377201Y-34224287D01*
X66334678Y-34216632D01*
X66292138Y-34209055D01*
X66249581Y-34201556D01*
X66207005Y-34194135D01*
X66164412Y-34186792D01*
X66121800Y-34179527D01*
X66079170Y-34172340D01*
X66036522Y-34165231D01*
X65993856Y-34158200D01*
X65951171Y-34151247D01*
X65908467Y-34144372D01*
X65865744Y-34137574D01*
X65823003Y-34130855D01*
X65780242Y-34124214D01*
X65737462Y-34117650D01*
X65694662Y-34111165D01*
X65651843Y-34104757D01*
X65609005Y-34098428D01*
X65566146Y-34092176D01*
X65523268Y-34086002D01*
X65480369Y-34079906D01*
X65437451Y-34073888D01*
X65394512Y-34067948D01*
X65351552Y-34062085D01*
X65308572Y-34056301D01*
X65265571Y-34050594D01*
X65222549Y-34044965D01*
X65179506Y-34039415D01*
X65136442Y-34033942D01*
X65093356Y-34028546D01*
X65050249Y-34023229D01*
X65007120Y-34017990D01*
X64963970Y-34012828D01*
X64920797Y-34007745D01*
X64877602Y-34002739D01*
X64834386Y-33997811D01*
X64791146Y-33992961D01*
X64747885Y-33988190D01*
X64704600Y-33983496D01*
X64661293Y-33978880D01*
X64617963Y-33974341D01*
X64574610Y-33969881D01*
X64531233Y-33965499D01*
X64487833Y-33961195D01*
X64444410Y-33956969D01*
X64400962Y-33952821D01*
X64357491Y-33948751D01*
X64313996Y-33944759D01*
X64270476Y-33940845D01*
X64226933Y-33937009D01*
X64183364Y-33933251D01*
X64139771Y-33929571D01*
X64096154Y-33925970D01*
X64052511Y-33922446D01*
X64008843Y-33919001D01*
X63965150Y-33915634D01*
X63921431Y-33912345D01*
X63877687Y-33909135D01*
X63833917Y-33906003D01*
X63790121Y-33902949D01*
X63746299Y-33899973D01*
X63702451Y-33897076D01*
X63658576Y-33894257D01*
X63614675Y-33891516D01*
X63570747Y-33888854D01*
X63526792Y-33886271D01*
X63482810Y-33883766D01*
X63438801Y-33881339D01*
X63394764Y-33878991D01*
X63350700Y-33876722D01*
X63306607Y-33874531D01*
X63262487Y-33872419D01*
X63218339Y-33870385D01*
X63174163Y-33868431D01*
X63129958Y-33866555D01*
X63085725Y-33864757D01*
X63041462Y-33863039D01*
X62997171Y-33861400D01*
X62952851Y-33859839D01*
X62908501Y-33858358D01*
X62864122Y-33856955D01*
X62819713Y-33855632D01*
X62775274Y-33854387D01*
X62730805Y-33853222D01*
X62686306Y-33852136D01*
X62641777Y-33851129D01*
X62597217Y-33850202D01*
X62552626Y-33849353D01*
X62508005Y-33848585D01*
X62463352Y-33847895D01*
X62418668Y-33847285D01*
X62373952Y-33846755D01*
X62329205Y-33846304D01*
X62284425Y-33845933D01*
X62239614Y-33845641D01*
X62194770Y-33845429D01*
X62149894Y-33845297D01*
X62104985Y-33845245D01*
X62060044Y-33845273D01*
X62015069Y-33845381D01*
X61970061Y-33845569D01*
X61925020Y-33845836D01*
X61879945Y-33846184D01*
X61834836Y-33846613D01*
X61789693Y-33847121D01*
X61744516Y-33847710D01*
X61699305Y-33848379D01*
X61654058Y-33849129D01*
X61608777Y-33849959D01*
X61563461Y-33850870D01*
X61518110Y-33851861D01*
X61472723Y-33852933D01*
X61427301Y-33854086D01*
X61381842Y-33855320D01*
X61336348Y-33856635D01*
X61290817Y-33858031D01*
X61245249Y-33859508D01*
X61199645Y-33861066D01*
X61154004Y-33862706D01*
X61108326Y-33864426D01*
X61062610Y-33866229D01*
X61016857Y-33868112D01*
X60971066Y-33870077D01*
X60925237Y-33872124D01*
X60879369Y-33874253D01*
X60833463Y-33876463D01*
X60787518Y-33878756D01*
X60741535Y-33881130D01*
X60695512Y-33883586D01*
X60649450Y-33886125D01*
X60603347Y-33888746D01*
X60557206Y-33891449D01*
X60511024Y-33894234D01*
X60464801Y-33897103D01*
X60418538Y-33900053D01*
X60372234Y-33903087D01*
X60325889Y-33906203D01*
X60279503Y-33909402D01*
X60233075Y-33912684D01*
X60186605Y-33916049D01*
X60140093Y-33919498D01*
X60093539Y-33923030D01*
X60046942Y-33926645D01*
X60000303Y-33930343D01*
X59953620Y-33934126D01*
X59906894Y-33937992D01*
X59860125Y-33941941D01*
X59813311Y-33945975D01*
X59766454Y-33950093D01*
X59719552Y-33954295D01*
X59672605Y-33958581D01*
X59625613Y-33962951D01*
X59578577Y-33967406D01*
X59531494Y-33971946D01*
X59484366Y-33976570D01*
X59437192Y-33981280D01*
X59389972Y-33986074D01*
X59342705Y-33990953D01*
X59295392Y-33995917D01*
X59248031Y-34000967D01*
X59200623Y-34006102D01*
X59153167Y-34011323D01*
X59105663Y-34016629D01*
X59058111Y-34022022D01*
X59010510Y-34027500D01*
X58962860Y-34033064D01*
X58915161Y-34038715D01*
X58867413Y-34044452D01*
X58819615Y-34050275D01*
X58771767Y-34056185D01*
X58723868Y-34062182D01*
X58675919Y-34068266D01*
X58627918Y-34074436D01*
X58579867Y-34080694D01*
X58531763Y-34087040D01*
X58483608Y-34093473D01*
X58435400Y-34099993D01*
X58387140Y-34106601D01*
X58338827Y-34113297D01*
X58290460Y-34120081D01*
X58242040Y-34126954D01*
X58193566Y-34133915D01*
X58145038Y-34140964D01*
X58096454Y-34148102D01*
X58047816Y-34155329D01*
X57999123Y-34162645D01*
X57950374Y-34170050D01*
X57901569Y-34177545D01*
X57852707Y-34185129D01*
X57803789Y-34192803D01*
X57754813Y-34200567D01*
X57705780Y-34208420D01*
X57656689Y-34216364D01*
X57607540Y-34224399D01*
X57558333Y-34232524D01*
X57509066Y-34240739D01*
X57459740Y-34249046D01*
X57410354Y-34257444D01*
X57360907Y-34265933D01*
X57311401Y-34274513D01*
X57261833Y-34283186D01*
X57212204Y-34291950D01*
X57162513Y-34300806D01*
X57112760Y-34309754D01*
X57062944Y-34318795D01*
X57013065Y-34327929D01*
X56963123Y-34337155D01*
X56913116Y-34346475D01*
X56863046Y-34355888D01*
X56812910Y-34365394D01*
X56762710Y-34374995D01*
X56712443Y-34384689D01*
X56662111Y-34394477D01*
X56611712Y-34404359D01*
X56561246Y-34414337D01*
X56510712Y-34424409D01*
X56460111Y-34434576D01*
X56409441Y-34444838D01*
X56358702Y-34455196D01*
X56307893Y-34465649D01*
X56257015Y-34476199D01*
X56206066Y-34486845D01*
X56155046Y-34497587D01*
X56103955Y-34508426D01*
X56052792Y-34519362D01*
X56001556Y-34530395D01*
X55950248Y-34541526D01*
X55898866Y-34552754D01*
X55847409Y-34564080D01*
X55795878Y-34575505D01*
X55744272Y-34587028D01*
X55692590Y-34598650D01*
X55640832Y-34610371D01*
X55588997Y-34622191D01*
X55537085Y-34634111D01*
X55485094Y-34646131D01*
X55433025Y-34658252D01*
X55380876Y-34670472D01*
X55328648Y-34682794D01*
X55276339Y-34695216D01*
X55223949Y-34707740D01*
X55171478Y-34720366D01*
X55118924Y-34733093D01*
X55066287Y-34745923D01*
X55013566Y-34758856D01*
X54960761Y-34771892D01*
X54907870Y-34785030D01*
X54854895Y-34798273D01*
X54801832Y-34811620D01*
X54748683Y-34825070D01*
X54695446Y-34838626D01*
X54642120Y-34852286D01*
X54588705Y-34866052D01*
X54535199Y-34879924D01*
X54481604Y-34893901D01*
X54427916Y-34907985D01*
X54374136Y-34922176D01*
X54320263Y-34936475D01*
X54266296Y-34950880D01*
X54212235Y-34965394D01*
X54158078Y-34980016D01*
X54103824Y-34994747D01*
X54049474Y-35009587D01*
X53995025Y-35024537D01*
X53940477Y-35039597D01*
X53885829Y-35054767D01*
X53831081Y-35070048D01*
X53776231Y-35085440D01*
X53721278Y-35100944D01*
X53666222Y-35116561D01*
X53611061Y-35132290D01*
X53555795Y-35148132D01*
X53500423Y-35164088D01*
X53444943Y-35180158D01*
X53389354Y-35196343D01*
X53333656Y-35212642D01*
X53277847Y-35229058D01*
X53221927Y-35245589D01*
X53165894Y-35262237D01*
X53109747Y-35279002D01*
X53053485Y-35295885D01*
X52997107Y-35312887D01*
X52940612Y-35330007D01*
X52883998Y-35347246D01*
X52827264Y-35364605D01*
X52770410Y-35382085D01*
X52713433Y-35399686D01*
X52656333Y-35417409D01*
X52599108Y-35435254D01*
X52541757Y-35453222D01*
X52484278Y-35471314D01*
X52426671Y-35489530D01*
X52368933Y-35507872D01*
X52311063Y-35526338D01*
X52253061Y-35544931D01*
X52194924Y-35563652D01*
X52136650Y-35582499D01*
X52078239Y-35601476D01*
X52019689Y-35620581D01*
X51960997Y-35639817D01*
X51902163Y-35659183D01*
X51843185Y-35678681D01*
X51784061Y-35698312D01*
X51724789Y-35718075D01*
X51665368Y-35737973D01*
X51605796Y-35758005D01*
X51546070Y-35778173D01*
X51486189Y-35798478D01*
X51426151Y-35818921D01*
X51365954Y-35839502D01*
X51305596Y-35860222D01*
X51245074Y-35881083D01*
X51184387Y-35902086D01*
X51123533Y-35923230D01*
X51062509Y-35944519D01*
X51001313Y-35965952D01*
X50939943Y-35987530D01*
X50878395Y-36009256D01*
X50816669Y-36031129D01*
X50754760Y-36053152D01*
X50692667Y-36075325D01*
X50630387Y-36097649D01*
X50567918Y-36120127D01*
X50505255Y-36142758D01*
X50442398Y-36165545D01*
X50379341Y-36188489D01*
X50316084Y-36211591D01*
X50252621Y-36234853D01*
X50188951Y-36258276D01*
X50125070Y-36281862D01*
X50060975Y-36305612D01*
X49996661Y-36329527D01*
X49932126Y-36353611D01*
X49867366Y-36377863D01*
X49802377Y-36402287D01*
X49737155Y-36426883D01*
X49671696Y-36451654D01*
X49605996Y-36476602D01*
X49540050Y-36501728D01*
X49473855Y-36527035D01*
X49407405Y-36552524D01*
X49340696Y-36578198D01*
X49273723Y-36604060D01*
X49206481Y-36630111D01*
X49138965Y-36656353D01*
X49071169Y-36682790D01*
X49003088Y-36709424D01*
X48934716Y-36736257D01*
X48866046Y-36763293D01*
X48797074Y-36790534D01*
X48727792Y-36817982D01*
X48658194Y-36845642D01*
X48588272Y-36873516D01*
X48518020Y-36901608D01*
X48447429Y-36929921D01*
X48376493Y-36958459D01*
X48305202Y-36987225D01*
X48233550Y-37016223D01*
X48161525Y-37045458D01*
X48089120Y-37074933D01*
X48016325Y-37104653D01*
X47943129Y-37134623D01*
X47869523Y-37164847D01*
X47795494Y-37195331D01*
X47721032Y-37226079D01*
X47646124Y-37257097D01*
X47570757Y-37288392D01*
X47494918Y-37319969D01*
X47418594Y-37351835D01*
X47341768Y-37383996D01*
X47264426Y-37416460D01*
X47186550Y-37449234D01*
X47108124Y-37482327D01*
X47029128Y-37515745D01*
X46949543Y-37549500D01*
X46869349Y-37583600D01*
X46788522Y-37618055D01*
X46707039Y-37652876D01*
X46624876Y-37688075D01*
X46542004Y-37723664D01*
X46458395Y-37759656D01*
X46374018Y-37796065D01*
X46288840Y-37832906D01*
X46202824Y-37870197D01*
X46115932Y-37907953D01*
X46028122Y-37946196D01*
X45939347Y-37984945D01*
X45849559Y-38024224D01*
X45758701Y-38064057D01*
X45666715Y-38104471D01*
X45573534Y-38145497D01*
X45479086Y-38187168D01*
X45383290Y-38229520D01*
X45286056Y-38272595D01*
X45187281Y-38316438D01*
X45086852Y-38361103D01*
X44984639Y-38406648D01*
X44880493Y-38453141D01*
X44774243Y-38500659D01*
X44665689Y-38549295D01*
X44554597Y-38599154D01*
X44440688Y-38650363D01*
X44323625Y-38703077D01*
X44202996Y-38757484D01*
X44078284Y-38813817D01*
X43948830Y-38872379D01*
X43813767Y-38933563D01*
X43671912Y-38997910D01*
X43521575Y-39066190D01*
X43360184Y-39139574D01*
X43183449Y-39220018D01*
X42983123Y-39311282D01*
X42738597Y-39422759D01*
X42587155Y-39491820D01*
X42408838Y-39573136D01*
X42231069Y-39654180D01*
X42053852Y-39734929D01*
X41877189Y-39815362D01*
X41789066Y-39855452D01*
X41701082Y-39895455D01*
X41613237Y-39935367D01*
X41525533Y-39975186D01*
X41437968Y-40014909D01*
X41350544Y-40054533D01*
X41263260Y-40094055D01*
X41176118Y-40133472D01*
X41089116Y-40172782D01*
X41002257Y-40211982D01*
X40915539Y-40251069D01*
X40828963Y-40290040D01*
X40742529Y-40328892D01*
X40656238Y-40367623D01*
X40570090Y-40406230D01*
X40484086Y-40444709D01*
X40398224Y-40483059D01*
X40312507Y-40521276D01*
X40226934Y-40559357D01*
X40141505Y-40597300D01*
X40056220Y-40635101D01*
X39971081Y-40672759D01*
X39886087Y-40710270D01*
X39801238Y-40747631D01*
X39758868Y-40766255D01*
X39716535Y-40784840D01*
X39674239Y-40803386D01*
X39631978Y-40821893D01*
X39589755Y-40840361D01*
X39547568Y-40858789D01*
X39505418Y-40877176D01*
X39463304Y-40895523D01*
X39421227Y-40913829D01*
X39379187Y-40932094D01*
X39337184Y-40950317D01*
X39295217Y-40968498D01*
X39253288Y-40986637D01*
X39211395Y-41004733D01*
X39169539Y-41022786D01*
X39127720Y-41040796D01*
X39085939Y-41058762D01*
X39044194Y-41076684D01*
X39002486Y-41094561D01*
X38960816Y-41112394D01*
X38919182Y-41130181D01*
X38877586Y-41147923D01*
X38836027Y-41165619D01*
X38794506Y-41183269D01*
X38753021Y-41200873D01*
X38711574Y-41218429D01*
X38670164Y-41235938D01*
X38628792Y-41253400D01*
X38587457Y-41270813D01*
X38546160Y-41288178D01*
X38504900Y-41305495D01*
X38463678Y-41322763D01*
X38422493Y-41339981D01*
X38381346Y-41357149D01*
X38340236Y-41374268D01*
X38299164Y-41391335D01*
X38258130Y-41408353D01*
X38217134Y-41425319D01*
X38176175Y-41442233D01*
X38135255Y-41459096D01*
X38094372Y-41475906D01*
X38053527Y-41492664D01*
X38012720Y-41509369D01*
X37971951Y-41526021D01*
X37931220Y-41542619D01*
X37890527Y-41559163D01*
X37849872Y-41575653D01*
X37809255Y-41592089D01*
X37768676Y-41608469D01*
X37728136Y-41624794D01*
X37687634Y-41641063D01*
X37647169Y-41657276D01*
X37606744Y-41673433D01*
X37566356Y-41689533D01*
X37526007Y-41705576D01*
X37485697Y-41721561D01*
X37445424Y-41737489D01*
X37405191Y-41753358D01*
X37364995Y-41769169D01*
X37324839Y-41784921D01*
X37284720Y-41800613D01*
X37244641Y-41816247D01*
X37204600Y-41831820D01*
X37164598Y-41847333D01*
X37124634Y-41862785D01*
X37084709Y-41878176D01*
X37044823Y-41893506D01*
X37004976Y-41908774D01*
X36965168Y-41923981D01*
X36925399Y-41939124D01*
X36885668Y-41954205D01*
X36845977Y-41969223D01*
X36806324Y-41984178D01*
X36766711Y-41999069D01*
X36727136Y-42013895D01*
X36687601Y-42028657D01*
X36648105Y-42043354D01*
X36608648Y-42057986D01*
X36569230Y-42072552D01*
X36529851Y-42087053D01*
X36490512Y-42101487D01*
X36451212Y-42115855D01*
X36411951Y-42130155D01*
X36372730Y-42144388D01*
X36333548Y-42158554D01*
X36294406Y-42172651D01*
X36255303Y-42186681D01*
X36216240Y-42200641D01*
X36177216Y-42214532D01*
X36138232Y-42228354D01*
X36099287Y-42242106D01*
X36060382Y-42255788D01*
X36021517Y-42269400D01*
X35982692Y-42282940D01*
X35943906Y-42296410D01*
X35905160Y-42309807D01*
X35866454Y-42323133D01*
X35827788Y-42336387D01*
X35789162Y-42349568D01*
X35750576Y-42362676D01*
X35712030Y-42375711D01*
X35673524Y-42388672D01*
X35635057Y-42401559D01*
X35596631Y-42414372D01*
X35558245Y-42427110D01*
X35519900Y-42439773D01*
X35481594Y-42452361D01*
X35443329Y-42464872D01*
X35405104Y-42477308D01*
X35366919Y-42489667D01*
X35328775Y-42501949D01*
X35290671Y-42514155D01*
X35252607Y-42526282D01*
X35214584Y-42538332D01*
X35176601Y-42550303D01*
X35138659Y-42562196D01*
X35100758Y-42574010D01*
X35062897Y-42585745D01*
X35025076Y-42597400D01*
X34987297Y-42608975D01*
X34949558Y-42620469D01*
X34911859Y-42631883D01*
X34874202Y-42643216D01*
X34836585Y-42654468D01*
X34799009Y-42665637D01*
X34761474Y-42676725D01*
X34723980Y-42687730D01*
X34686527Y-42698653D01*
X34649115Y-42709492D01*
X34611744Y-42720247D01*
X34574414Y-42730919D01*
X34537125Y-42741507D01*
X34499877Y-42752010D01*
X34462671Y-42762428D01*
X34425505Y-42772760D01*
X34388381Y-42783008D01*
X34351298Y-42793169D01*
X34314256Y-42803244D01*
X34277256Y-42813232D01*
X34240297Y-42823133D01*
X34203379Y-42832947D01*
X34166503Y-42842672D01*
X34129668Y-42852310D01*
X34092875Y-42861860D01*
X34056124Y-42871320D01*
X34019414Y-42880692D01*
X33982745Y-42889974D01*
X33946119Y-42899166D01*
X33909534Y-42908268D01*
X33872990Y-42917279D01*
X33836489Y-42926200D01*
X33800029Y-42935029D01*
X33763611Y-42943766D01*
X33745418Y-42948101D01*
X33727235Y-42952412D01*
X33709063Y-42956700D01*
X33690901Y-42960965D01*
X33672750Y-42965207D01*
X33654609Y-42969426D01*
X33636478Y-42973621D01*
X33618359Y-42977793D01*
X33600249Y-42981942D01*
X33582150Y-42986067D01*
X33564062Y-42990169D01*
X33545984Y-42994248D01*
X33527917Y-42998303D01*
X33509860Y-43002334D01*
X33491814Y-43006342D01*
X33473778Y-43010326D01*
X33455753Y-43014287D01*
X33437738Y-43018223D01*
X33419734Y-43022136D01*
X33401741Y-43026025D01*
X33383758Y-43029891D01*
X33365785Y-43033732D01*
X33347823Y-43037549D01*
X33329872Y-43041343D01*
X33311931Y-43045112D01*
X33294001Y-43048857D01*
X33276082Y-43052578D01*
X33258173Y-43056275D01*
X33240274Y-43059948D01*
X33222387Y-43063596D01*
X33204509Y-43067220D01*
X33186643Y-43070820D01*
X33168787Y-43074395D01*
X33150941Y-43077946D01*
X33133107Y-43081473D01*
X33115283Y-43084975D01*
X33097469Y-43088452D01*
X33079666Y-43091905D01*
X33061874Y-43095333D01*
X33044092Y-43098736D01*
X33026322Y-43102115D01*
X33008561Y-43105468D01*
X32990812Y-43108797D01*
X32973073Y-43112101D01*
X32955344Y-43115380D01*
X32937627Y-43118634D01*
X32919920Y-43121864D01*
X32902223Y-43125068D01*
X32884538Y-43128247D01*
X32866863Y-43131400D01*
X32849199Y-43134529D01*
X32831545Y-43137632D01*
X32813902Y-43140711D01*
X32796270Y-43143763D01*
X32778649Y-43146791D01*
X32761038Y-43149793D01*
X32743438Y-43152769D01*
X32725849Y-43155720D01*
X32708270Y-43158646D01*
X32690702Y-43161546D01*
X32673145Y-43164420D01*
X32655599Y-43167269D01*
X32638063Y-43170092D01*
X32620538Y-43172889D01*
X32603024Y-43175660D01*
X32585521Y-43178405D01*
X32568028Y-43181125D01*
X32550546Y-43183819D01*
X32533075Y-43186486D01*
X32515615Y-43189128D01*
X32498165Y-43191743D01*
X32480726Y-43194333D01*
X32463298Y-43196896D01*
X32445881Y-43199433D01*
X32428475Y-43201944D01*
X32411079Y-43204429D01*
X32393694Y-43206887D01*
X32376320Y-43209319D01*
X32358957Y-43211724D01*
X32341605Y-43214103D01*
X32324263Y-43216455D01*
X32306933Y-43218781D01*
X32289613Y-43221080D01*
X32272304Y-43223353D01*
X32255006Y-43225599D01*
X32237718Y-43227818D01*
X32220442Y-43230010D01*
X32203176Y-43232176D01*
X32185921Y-43234315D01*
X32168677Y-43236427D01*
X32151444Y-43238512D01*
X32134222Y-43240569D01*
X32117011Y-43242600D01*
X32099810Y-43244604D01*
X32082621Y-43246581D01*
X32065442Y-43248530D01*
X32048274Y-43250452D01*
X32031117Y-43252347D01*
X32013971Y-43254215D01*
X31996836Y-43256055D01*
X31979712Y-43257868D01*
X31962599Y-43259654D01*
X31945497Y-43261412D01*
X31928405Y-43263142D01*
X31911325Y-43264845D01*
X31894255Y-43266520D01*
X31877197Y-43268168D01*
X31860149Y-43269788D01*
X31843112Y-43271380D01*
X31826086Y-43272945D01*
X31809072Y-43274481D01*
X31792068Y-43275990D01*
X31775075Y-43277471D01*
X31758093Y-43278924D01*
X31741122Y-43280349D01*
X31724162Y-43281745D01*
X31707213Y-43283114D01*
X31690275Y-43284455D01*
X31673348Y-43285767D01*
X31656432Y-43287051D01*
X31639527Y-43288307D01*
X31622633Y-43289534D01*
X31605750Y-43290734D01*
X31588878Y-43291904D01*
X31572017Y-43293047D01*
X31555167Y-43294161D01*
X31538328Y-43295246D01*
X31521500Y-43296303D01*
X31504683Y-43297331D01*
X31487877Y-43298330D01*
X31471083Y-43299301D01*
X31454299Y-43300243D01*
X31437526Y-43301156D01*
X31420765Y-43302040D01*
X31404014Y-43302896D01*
X31387274Y-43303722D01*
X31370546Y-43304520D01*
X31353829Y-43305288D01*
X31337122Y-43306028D01*
X31320427Y-43306738D01*
X31303743Y-43307419D01*
X31287070Y-43308071D01*
X31270408Y-43308694D01*
X31253757Y-43309287D01*
X31237118Y-43309852D01*
X31220489Y-43310386D01*
X31203871Y-43310892D01*
X31187265Y-43311368D01*
X31170670Y-43311814D01*
X31154086Y-43312231D01*
X31137513Y-43312618D01*
X31120951Y-43312976D01*
X31104400Y-43313304D01*
X31087861Y-43313602D01*
X31071332Y-43313870D01*
X31054815Y-43314109D01*
X31038309Y-43314318D01*
X31021814Y-43314497D01*
X31005330Y-43314646D01*
X30988857Y-43314764D01*
X30972396Y-43314853D01*
X30955946Y-43314912D01*
X30939507Y-43314941D01*
X30923079Y-43314940D01*
X30906662Y-43314908D01*
X30890257Y-43314846D01*
X30873862Y-43314754D01*
X30857479Y-43314631D01*
X30841107Y-43314478D01*
X30824747Y-43314295D01*
X30808397Y-43314081D01*
X30792059Y-43313837D01*
X30775732Y-43313562D01*
X30759416Y-43313256D01*
X30743112Y-43312920D01*
X30726819Y-43312553D01*
X30710537Y-43312156D01*
X30694266Y-43311727D01*
X30678006Y-43311268D01*
X30661758Y-43310778D01*
X30645521Y-43310257D01*
X30629295Y-43309705D01*
X30613081Y-43309122D01*
X30596878Y-43308509D01*
X30580686Y-43307863D01*
X30564505Y-43307187D01*
X30548336Y-43306480D01*
X30532178Y-43305741D01*
X30516031Y-43304972D01*
X30499896Y-43304170D01*
X30483772Y-43303338D01*
X30467659Y-43302474D01*
X30451558Y-43301579D01*
X30435467Y-43300652D01*
X30419389Y-43299694D01*
X30403321Y-43298704D01*
X30387265Y-43297682D01*
X30371220Y-43296629D01*
X30355187Y-43295544D01*
X30339165Y-43294427D01*
X30323154Y-43293279D01*
X30307155Y-43292099D01*
X30291167Y-43290887D01*
X30275190Y-43289643D01*
X30259225Y-43288366D01*
X30243271Y-43287058D01*
X30227328Y-43285718D01*
X30211397Y-43284346D01*
X30195477Y-43282942D01*
X30179569Y-43281505D01*
X30163672Y-43280036D01*
X30147786Y-43278535D01*
X30131912Y-43277002D01*
X30116049Y-43275436D01*
X30100198Y-43273838D01*
X30084358Y-43272208D01*
X30068530Y-43270545D01*
X30052713Y-43268849D01*
X30036907Y-43267121D01*
X30021113Y-43265360D01*
X30005330Y-43263566D01*
X29989559Y-43261740D01*
X29973799Y-43259881D01*
X29958050Y-43257989D01*
X29942313Y-43256065D01*
X29926588Y-43254107D01*
X29910874Y-43252117D01*
X29895171Y-43250093D01*
X29879480Y-43248037D01*
X29863801Y-43245947D01*
X29848133Y-43243825D01*
X29832476Y-43241669D01*
X29816831Y-43239480D01*
X29801197Y-43237258D01*
X29785575Y-43235002D01*
X29769965Y-43232713D01*
X29754366Y-43230391D01*
X29738778Y-43228036D01*
X29723202Y-43225646D01*
X29707638Y-43223224D01*
X29692085Y-43220768D01*
X29676543Y-43218278D01*
X29661013Y-43215754D01*
X29645495Y-43213197D01*
X29629988Y-43210607D01*
X29614493Y-43207982D01*
X29599009Y-43205324D01*
X29583537Y-43202631D01*
X29568076Y-43199905D01*
X29552627Y-43197145D01*
X29537190Y-43194351D01*
X29521764Y-43191523D01*
X29506350Y-43188661D01*
X29490947Y-43185764D01*
X29475556Y-43182834D01*
X29460177Y-43179869D01*
X29444809Y-43176870D01*
X29429452Y-43173837D01*
X29414108Y-43170769D01*
X29398775Y-43167667D01*
X29383453Y-43164531D01*
X29368143Y-43161360D01*
X29352845Y-43158154D01*
X29337559Y-43154914D01*
X29322284Y-43151640D01*
X29307020Y-43148330D01*
X29291769Y-43144987D01*
X29276529Y-43141608D01*
X29261301Y-43138194D01*
X29246084Y-43134746D01*
X29230879Y-43131263D01*
X29215686Y-43127745D01*
X29200504Y-43124192D01*
X29185334Y-43120604D01*
X29170176Y-43116981D01*
X29155029Y-43113322D01*
X29139894Y-43109629D01*
X29124771Y-43105901D01*
X29109659Y-43102137D01*
X29094560Y-43098338D01*
X29079471Y-43094504D01*
X29064395Y-43090634D01*
X29049330Y-43086729D01*
X29034277Y-43082788D01*
X29019236Y-43078812D01*
X29004207Y-43074801D01*
X28989189Y-43070754D01*
X28974183Y-43066671D01*
X28959188Y-43062553D01*
X28944206Y-43058398D01*
X28929235Y-43054209D01*
X28914276Y-43049983D01*
X28899329Y-43045721D01*
X28884393Y-43041424D01*
X28869470Y-43037091D01*
X28854558Y-43032722D01*
X28839657Y-43028316D01*
X28824769Y-43023875D01*
X28809892Y-43019398D01*
X28795028Y-43014884D01*
X28780175Y-43010334D01*
X28765333Y-43005748D01*
X28750504Y-43001126D01*
X28735686Y-42996467D01*
X28720881Y-42991772D01*
X28706087Y-42987041D01*
X28691304Y-42982273D01*
X28676534Y-42977469D01*
X28661776Y-42972628D01*
X28647029Y-42967750D01*
X28632294Y-42962836D01*
X28617571Y-42957885D01*
X28602860Y-42952898D01*
X28588161Y-42947874D01*
X28573473Y-42942813D01*
X28558798Y-42937715D01*
X28544134Y-42932580D01*
X28529482Y-42927408D01*
X28514842Y-42922199D01*
X28500214Y-42916953D01*
X28485598Y-42911671D01*
X28470994Y-42906351D01*
X28456401Y-42900994D01*
X28441821Y-42895599D01*
X28427252Y-42890168D01*
X28412696Y-42884699D01*
X28398151Y-42879193D01*
X28383618Y-42873649D01*
X28369097Y-42868068D01*
X28354588Y-42862450D01*
X28340091Y-42856794D01*
X28325606Y-42851100D01*
X28311133Y-42845369D01*
X28296672Y-42839600D01*
X28282222Y-42833794D01*
X28267785Y-42827949D01*
X28253360Y-42822067D01*
X28238946Y-42816148D01*
X28224545Y-42810190D01*
X28210155Y-42804194D01*
X28195778Y-42798161D01*
X28181412Y-42792089D01*
X28167058Y-42785980D01*
X28152717Y-42779832D01*
X28138387Y-42773646D01*
X28124070Y-42767423D01*
X28109764Y-42761160D01*
X28095471Y-42754860D01*
X28081189Y-42748521D01*
X28066919Y-42742144D01*
X28052662Y-42735729D01*
X28038416Y-42729275D01*
X28024183Y-42722782D01*
X28009961Y-42716252D01*
X27995752Y-42709682D01*
X27981555Y-42703074D01*
X27967369Y-42696427D01*
X27953196Y-42689742D01*
X27939035Y-42683018D01*
X27924885Y-42676255D01*
X27910748Y-42669453D01*
X27896623Y-42662612D01*
X27882510Y-42655733D01*
X27868409Y-42648814D01*
X27854321Y-42641857D01*
X27840244Y-42634860D01*
X27826179Y-42627824D01*
X27812127Y-42620750D01*
X27798086Y-42613636D01*
X27784058Y-42606482D01*
X27770042Y-42599290D01*
X27756037Y-42592058D01*
X27742045Y-42584787D01*
X27728065Y-42577476D01*
X27714098Y-42570126D01*
X27700142Y-42562737D01*
X27686199Y-42555308D01*
X27672267Y-42547839D01*
X27658348Y-42540331D01*
X27644441Y-42532783D01*
X27630546Y-42525195D01*
X27616663Y-42517568D01*
X27602792Y-42509900D01*
X27588934Y-42502193D01*
X27575088Y-42494446D01*
X27561254Y-42486660D01*
X27547432Y-42478833D01*
X27533622Y-42470966D01*
X27519824Y-42463059D01*
X27506039Y-42455112D01*
X27492266Y-42447125D01*
X27478505Y-42439097D01*
X27464756Y-42431030D01*
X27451019Y-42422922D01*
X27437295Y-42414774D01*
X27423583Y-42406585D01*
X27409883Y-42398356D01*
X27396195Y-42390087D01*
X27382520Y-42381777D01*
X27368857Y-42373426D01*
X27355206Y-42365035D01*
X27341567Y-42356603D01*
X27327940Y-42348131D01*
X27314326Y-42339618D01*
X27300724Y-42331064D01*
X27287134Y-42322469D01*
X27273557Y-42313833D01*
X27259992Y-42305157D01*
X27246439Y-42296439D01*
X27232898Y-42287681D01*
X27219370Y-42278882D01*
X27205854Y-42270041D01*
X27192350Y-42261159D01*
X27178859Y-42252237D01*
X27165379Y-42243273D01*
X27151913Y-42234267D01*
X27138458Y-42225221D01*
X27125016Y-42216133D01*
X27111586Y-42207004D01*
X27098168Y-42197833D01*
X27084763Y-42188621D01*
X27071370Y-42179367D01*
X27057990Y-42170072D01*
X27044621Y-42160735D01*
X27031265Y-42151356D01*
X27017922Y-42141936D01*
X27004591Y-42132474D01*
X26991272Y-42122970D01*
X26977965Y-42113425D01*
X26964671Y-42103837D01*
X26951389Y-42094208D01*
X26938120Y-42084537D01*
X26924863Y-42074824D01*
X26911619Y-42065068D01*
X26898386Y-42055271D01*
X26885167Y-42045431D01*
X26871959Y-42035550D01*
X26858764Y-42025626D01*
X26845582Y-42015660D01*
X26832411Y-42005651D01*
X26819254Y-41995600D01*
X26806108Y-41985507D01*
X26792975Y-41975371D01*
X26779855Y-41965193D01*
X26766747Y-41954972D01*
X26753651Y-41944709D01*
X26740568Y-41934403D01*
X26727497Y-41924055D01*
X26714439Y-41913663D01*
X26701393Y-41903230D01*
X26688360Y-41892753D01*
X26675339Y-41882233D01*
X26662331Y-41871671D01*
X26649335Y-41861065D01*
X26636351Y-41850417D01*
X26623380Y-41839725D01*
X26610422Y-41828991D01*
X26597476Y-41818213D01*
X26584542Y-41807393D01*
X26571621Y-41796529D01*
X26558713Y-41785622D01*
X26545817Y-41774671D01*
X26532933Y-41763678D01*
X26520062Y-41752641D01*
X26507204Y-41741560D01*
X26494358Y-41730436D01*
X26481525Y-41719269D01*
X26468704Y-41708058D01*
X26455896Y-41696803D01*
X26443100Y-41685505D01*
X26430317Y-41674163D01*
X26417546Y-41662778D01*
X26404788Y-41651348D01*
X26392042Y-41639875D01*
X26379310Y-41628358D01*
X26366589Y-41616797D01*
X26353881Y-41605193D01*
X26341186Y-41593544D01*
X26328503Y-41581851D01*
X26315833Y-41570114D01*
X26303176Y-41558333D01*
X26290531Y-41546508D01*
X26277899Y-41534639D01*
X26265279Y-41522725D01*
X26252672Y-41510767D01*
X26240078Y-41498765D01*
X26227496Y-41486718D01*
X26214927Y-41474627D01*
X26202370Y-41462492D01*
X26189826Y-41450312D01*
X26177295Y-41438088D01*
X26164777Y-41425818D01*
X26152271Y-41413505D01*
X26139777Y-41401146D01*
X26127297Y-41388743D01*
X26114829Y-41376295D01*
X26102373Y-41363802D01*
X26089931Y-41351265D01*
X26077501Y-41338682D01*
X26065083Y-41326055D01*
X26052679Y-41313382D01*
X26040287Y-41300665D01*
X26027907Y-41287902D01*
X26015541Y-41275095D01*
X26003187Y-41262242D01*
X25990846Y-41249344D01*
X25978517Y-41236400D01*
X25966202Y-41223412D01*
X25953899Y-41210378D01*
X25941608Y-41197299D01*
X25929331Y-41184174D01*
X25917066Y-41171004D01*
X25904814Y-41157788D01*
X25892575Y-41144526D01*
X25880348Y-41131219D01*
X25868134Y-41117867D01*
X25855933Y-41104469D01*
X25843745Y-41091025D01*
X25831569Y-41077535D01*
X25819406Y-41063999D01*
X25807256Y-41050418D01*
X25795119Y-41036790D01*
X25782995Y-41023117D01*
X25770883Y-41009397D01*
X25758784Y-40995632D01*
X25746698Y-40981820D01*
X25734624Y-40967963D01*
X25722564Y-40954059D01*
X25710516Y-40940109D01*
X25698481Y-40926113D01*
X25686459Y-40912070D01*
X25674450Y-40897981D01*
X25662454Y-40883846D01*
X25650470Y-40869664D01*
X25638499Y-40855435D01*
X25626541Y-40841161D01*
X25614596Y-40826839D01*
X25602664Y-40812471D01*
X25590745Y-40798056D01*
X25578838Y-40783595D01*
X25566944Y-40769087D01*
X25555063Y-40754532D01*
X25543196Y-40739930D01*
X25531340Y-40725281D01*
X25519498Y-40710586D01*
X25507669Y-40695843D01*
X25495853Y-40681054D01*
X25484049Y-40666217D01*
X25472258Y-40651333D01*
X25460481Y-40636402D01*
X25448716Y-40621424D01*
X25436964Y-40606399D01*
X25425225Y-40591326D01*
X25413499Y-40576206D01*
X25401786Y-40561039D01*
X25390085Y-40545824D01*
X25378398Y-40530562D01*
X25366724Y-40515252D01*
X25355062Y-40499895D01*
X25343414Y-40484490D01*
X25331778Y-40469038D01*
X25320156Y-40453538D01*
X25308546Y-40437990D01*
X25296949Y-40422394D01*
X25285366Y-40406751D01*
X25273795Y-40391060D01*
X25262237Y-40375321D01*
X25250692Y-40359533D01*
X25239160Y-40343698D01*
X25227642Y-40327815D01*
X25216136Y-40311884D01*
X25204643Y-40295905D01*
X25193163Y-40279877D01*
X25181696Y-40263802D01*
X25170243Y-40247678D01*
X25158802Y-40231506D01*
X25147374Y-40215285D01*
X25135959Y-40199016D01*
X25124558Y-40182699D01*
X25113169Y-40166333D01*
X25101793Y-40149919D01*
X25090431Y-40133456D01*
X25079081Y-40116945D01*
X25067745Y-40100385D01*
X25056421Y-40083776D01*
X25045111Y-40067118D01*
X25033814Y-40050412D01*
X25022529Y-40033657D01*
X25011258Y-40016853D01*
X25000000Y-40000000D01*
D10*
X12500000Y-65000000D02*
X12500000Y-50000000D01*
D11*
X87500000Y-50000000D02*
X87478123Y-50030773D01*
X87456246Y-50061510D01*
X87434375Y-50092205D01*
X87412505Y-50122865D01*
X87390641Y-50153482D01*
X87368777Y-50184064D01*
X87346919Y-50214604D01*
X87325061Y-50245108D01*
X87303209Y-50275570D01*
X87281358Y-50305996D01*
X87259513Y-50336381D01*
X87237668Y-50366730D01*
X87215829Y-50397037D01*
X87193991Y-50427309D01*
X87172158Y-50457539D01*
X87150326Y-50487734D01*
X87128500Y-50517887D01*
X87106674Y-50548005D01*
X87084854Y-50578081D01*
X87063035Y-50608122D01*
X87041221Y-50638121D01*
X87019408Y-50668085D01*
X86997601Y-50698007D01*
X86975794Y-50727895D01*
X86953993Y-50757741D01*
X86932193Y-50787552D01*
X86910398Y-50817322D01*
X86888604Y-50847057D01*
X86866815Y-50876750D01*
X86845028Y-50906408D01*
X86823245Y-50936026D01*
X86801464Y-50965608D01*
X86779688Y-50995149D01*
X86757913Y-51024656D01*
X86736143Y-51054121D01*
X86714375Y-51083552D01*
X86692611Y-51112941D01*
X86670849Y-51142296D01*
X86649092Y-51171610D01*
X86627335Y-51200889D01*
X86605585Y-51230128D01*
X86583834Y-51259332D01*
X86562090Y-51288495D01*
X86540346Y-51317623D01*
X86518608Y-51346711D01*
X86496870Y-51375764D01*
X86475138Y-51404777D01*
X86453407Y-51433755D01*
X86431681Y-51462693D01*
X86409956Y-51491596D01*
X86388237Y-51520459D01*
X86366518Y-51549288D01*
X86344804Y-51578076D01*
X86323092Y-51606830D01*
X86301385Y-51635543D01*
X86279678Y-51664222D01*
X86257977Y-51692861D01*
X86236277Y-51721466D01*
X86214582Y-51750031D01*
X86192888Y-51778561D01*
X86171200Y-51807052D01*
X86149512Y-51835508D01*
X86127829Y-51863924D01*
X86106148Y-51892307D01*
X86084471Y-51920649D01*
X86062796Y-51948957D01*
X86041126Y-51977226D01*
X86019457Y-52005460D01*
X85997793Y-52033655D01*
X85976130Y-52061816D01*
X85954472Y-52089937D01*
X85932815Y-52118024D01*
X85911163Y-52146072D01*
X85889512Y-52174086D01*
X85867867Y-52202060D01*
X85846222Y-52230001D01*
X85824583Y-52257902D01*
X85802944Y-52285769D01*
X85781311Y-52313597D01*
X85759678Y-52341392D01*
X85738051Y-52369147D01*
X85716425Y-52396868D01*
X85694804Y-52424550D01*
X85673183Y-52452199D01*
X85651568Y-52479808D01*
X85629954Y-52507384D01*
X85608345Y-52534921D01*
X85586737Y-52562424D01*
X85565134Y-52589889D01*
X85543532Y-52617320D01*
X85521935Y-52644712D01*
X85500339Y-52672070D01*
X85478748Y-52699390D01*
X85457159Y-52726676D01*
X85435574Y-52753924D01*
X85413990Y-52781138D01*
X85392411Y-52808314D01*
X85370833Y-52835456D01*
X85349261Y-52862560D01*
X85327689Y-52889631D01*
X85306122Y-52916663D01*
X85284556Y-52943662D01*
X85262996Y-52970622D01*
X85241436Y-52997550D01*
X85219881Y-53024439D01*
X85198327Y-53051294D01*
X85176779Y-53078112D01*
X85155231Y-53104897D01*
X85133688Y-53131643D01*
X85112146Y-53158356D01*
X85090610Y-53185031D01*
X85069074Y-53211674D01*
X85047543Y-53238278D01*
X85026013Y-53264849D01*
X85004488Y-53291382D01*
X84982964Y-53317883D01*
X84961446Y-53344345D01*
X84939927Y-53370775D01*
X84918415Y-53397167D01*
X84896902Y-53423526D01*
X84875395Y-53449848D01*
X84853889Y-53476136D01*
X84832388Y-53502387D01*
X84810888Y-53528606D01*
X84789393Y-53554786D01*
X84767898Y-53580934D01*
X84746409Y-53607045D01*
X84724920Y-53633123D01*
X84703437Y-53659163D01*
X84681954Y-53685171D01*
X84660477Y-53711142D01*
X84639000Y-53737080D01*
X84617528Y-53762981D01*
X84596057Y-53788849D01*
X84574591Y-53814680D01*
X84553126Y-53840479D01*
X84531666Y-53866240D01*
X84510207Y-53891970D01*
X84488753Y-53917662D01*
X84467299Y-53943321D01*
X84445851Y-53968944D01*
X84424403Y-53994535D01*
X84402961Y-54020088D01*
X84381519Y-54045610D01*
X84360082Y-54071094D01*
X84338646Y-54096546D01*
X84317215Y-54121962D01*
X84295785Y-54147345D01*
X84274360Y-54172692D01*
X84252935Y-54198006D01*
X84231516Y-54223284D01*
X84210097Y-54248530D01*
X84188683Y-54273739D01*
X84167270Y-54298917D01*
X84145862Y-54324058D01*
X84124455Y-54349167D01*
X84103053Y-54374239D01*
X84081651Y-54399279D01*
X84060255Y-54424284D01*
X84038859Y-54449256D01*
X84017468Y-54474192D01*
X83996078Y-54499096D01*
X83974693Y-54523964D01*
X83953309Y-54548801D01*
X83931929Y-54573601D01*
X83910550Y-54598369D01*
X83889177Y-54623101D01*
X83867804Y-54647802D01*
X83846435Y-54672467D01*
X83825068Y-54697100D01*
X83803705Y-54721697D01*
X83782344Y-54746262D01*
X83760987Y-54770792D01*
X83739631Y-54795290D01*
X83718279Y-54819752D01*
X83696929Y-54844183D01*
X83675583Y-54868578D01*
X83654238Y-54892942D01*
X83632898Y-54917270D01*
X83611559Y-54941566D01*
X83590225Y-54965827D01*
X83568891Y-54990057D01*
X83547562Y-55014251D01*
X83526234Y-55038414D01*
X83504910Y-55062541D01*
X83483588Y-55086638D01*
X83462270Y-55110698D01*
X83440953Y-55134728D01*
X83419641Y-55158722D01*
X83398329Y-55182685D01*
X83377023Y-55206613D01*
X83355717Y-55230510D01*
X83334415Y-55254371D01*
X83313115Y-55278202D01*
X83291819Y-55301997D01*
X83270524Y-55325761D01*
X83249234Y-55349491D01*
X83227944Y-55373189D01*
X83206660Y-55396852D01*
X83185376Y-55420485D01*
X83164096Y-55444082D01*
X83142818Y-55467649D01*
X83121544Y-55491181D01*
X83100271Y-55514682D01*
X83079002Y-55538148D01*
X83057735Y-55561583D01*
X83036471Y-55584984D01*
X83015209Y-55608354D01*
X82993952Y-55631689D01*
X82972695Y-55654994D01*
X82951442Y-55678264D01*
X82930191Y-55701503D01*
X82908944Y-55724708D01*
X82887698Y-55747882D01*
X82866456Y-55771022D01*
X82845216Y-55794131D01*
X82823979Y-55817206D01*
X82802744Y-55840251D01*
X82781513Y-55863261D01*
X82760283Y-55886240D01*
X82739058Y-55909186D01*
X82717833Y-55932100D01*
X82696613Y-55954981D01*
X82675393Y-55977832D01*
X82654178Y-56000648D01*
X82632964Y-56023434D01*
X82611755Y-56046186D01*
X82590546Y-56068907D01*
X82569341Y-56091595D01*
X82548138Y-56114252D01*
X82526939Y-56136876D01*
X82505740Y-56159469D01*
X82484546Y-56182028D01*
X82463353Y-56204557D01*
X82442165Y-56227053D01*
X82420977Y-56249518D01*
X82399793Y-56271950D01*
X82378611Y-56294351D01*
X82357432Y-56316719D01*
X82336255Y-56339057D01*
X82315082Y-56361362D01*
X82293909Y-56383636D01*
X82272741Y-56405877D01*
X82251574Y-56428088D01*
X82230411Y-56450265D01*
X82209250Y-56472412D01*
X82188092Y-56494527D01*
X82166935Y-56516611D01*
X82145782Y-56538662D01*
X82124631Y-56560683D01*
X82103483Y-56582671D01*
X82082337Y-56604629D01*
X82061194Y-56626554D01*
X82040053Y-56648449D01*
X82018915Y-56670312D01*
X81997779Y-56692144D01*
X81976647Y-56713943D01*
X81955515Y-56735713D01*
X81934388Y-56757450D01*
X81913262Y-56779157D01*
X81892139Y-56800831D01*
X81871018Y-56822476D01*
X81849901Y-56844088D01*
X81828785Y-56865670D01*
X81807672Y-56887220D01*
X81786561Y-56908740D01*
X81765454Y-56930227D01*
X81744348Y-56951685D01*
X81723245Y-56973110D01*
X81702144Y-56994506D01*
X81681046Y-57015869D01*
X81659950Y-57037203D01*
X81638858Y-57058504D01*
X81617766Y-57079776D01*
X81596679Y-57101016D01*
X81575592Y-57122226D01*
X81554509Y-57143404D01*
X81533428Y-57164553D01*
X81512350Y-57185669D01*
X81491273Y-57206756D01*
X81470200Y-57227811D01*
X81449129Y-57248837D01*
X81428060Y-57269831D01*
X81406993Y-57290795D01*
X81385930Y-57311728D01*
X81364868Y-57332631D01*
X81343810Y-57353502D01*
X81322752Y-57374344D01*
X81301699Y-57395154D01*
X81280646Y-57415935D01*
X81259597Y-57436685D01*
X81238549Y-57457405D01*
X81217505Y-57478093D01*
X81196462Y-57498753D01*
X81175423Y-57519381D01*
X81154385Y-57539979D01*
X81133350Y-57560546D01*
X81112316Y-57581085D01*
X81091286Y-57601591D01*
X81070258Y-57622069D01*
X81049232Y-57642515D01*
X81028208Y-57662932D01*
X81007188Y-57683318D01*
X80986168Y-57703675D01*
X80965152Y-57724001D01*
X80944138Y-57744298D01*
X80923126Y-57764564D01*
X80902116Y-57784800D01*
X80881110Y-57805006D01*
X80860104Y-57825183D01*
X80839102Y-57845329D01*
X80818101Y-57865446D01*
X80797104Y-57885532D01*
X80776107Y-57905589D01*
X80755114Y-57925615D01*
X80734123Y-57945613D01*
X80713134Y-57965579D01*
X80692147Y-57985517D01*
X80671163Y-58005425D01*
X80650181Y-58025303D01*
X80629201Y-58045151D01*
X80608223Y-58064970D01*
X80587248Y-58084759D01*
X80566275Y-58104519D01*
X80545304Y-58124248D01*
X80524335Y-58143949D01*
X80503369Y-58163619D01*
X80482405Y-58183261D01*
X80461443Y-58202872D01*
X80440483Y-58222455D01*
X80419526Y-58242008D01*
X80398570Y-58261532D01*
X80377618Y-58281026D01*
X80356666Y-58300491D01*
X80335718Y-58319926D01*
X80314771Y-58339332D01*
X80293827Y-58358709D01*
X80272884Y-58378057D01*
X80251945Y-58397375D01*
X80231007Y-58416665D01*
X80210071Y-58435924D01*
X80189137Y-58455155D01*
X80168207Y-58474357D01*
X80147277Y-58493530D01*
X80126350Y-58512673D01*
X80105425Y-58531788D01*
X80084503Y-58550873D01*
X80063581Y-58569930D01*
X80042663Y-58588957D01*
X80021746Y-58607956D01*
X80000833Y-58626925D01*
X79979920Y-58645866D01*
X79959010Y-58664777D01*
X79938102Y-58683661D01*
X79917196Y-58702515D01*
X79896292Y-58721340D01*
X79875391Y-58740136D01*
X79854491Y-58758905D01*
X79833594Y-58777643D01*
X79812698Y-58796354D01*
X79791805Y-58815035D01*
X79770913Y-58833688D01*
X79750024Y-58852312D01*
X79729136Y-58870908D01*
X79708252Y-58889475D01*
X79687368Y-58908014D01*
X79666487Y-58926524D01*
X79645608Y-58945006D01*
X79624731Y-58963458D01*
X79603856Y-58981883D01*
X79582983Y-59000279D01*
X79562112Y-59018647D01*
X79541243Y-59036986D01*
X79520376Y-59055297D01*
X79499511Y-59073579D01*
X79478647Y-59091834D01*
X79457787Y-59110059D01*
X79436927Y-59128257D01*
X79416071Y-59146426D01*
X79395215Y-59164568D01*
X79374362Y-59182680D01*
X79353511Y-59200765D01*
X79332662Y-59218822D01*
X79311814Y-59236850D01*
X79290969Y-59254850D01*
X79270125Y-59272823D01*
X79249284Y-59290767D01*
X79228444Y-59308683D01*
X79207607Y-59326571D01*
X79186770Y-59344432D01*
X79165937Y-59362264D01*
X79145105Y-59380068D01*
X79124275Y-59397844D01*
X79103446Y-59415593D01*
X79082620Y-59433313D01*
X79061796Y-59451006D01*
X79040973Y-59468671D01*
X79020152Y-59486308D01*
X78999334Y-59503917D01*
X78978517Y-59521499D01*
X78957702Y-59539052D01*
X78936888Y-59556578D01*
X78916077Y-59574077D01*
X78895267Y-59591548D01*
X78874460Y-59608990D01*
X78853654Y-59626406D01*
X78832850Y-59643794D01*
X78812047Y-59661154D01*
X78791247Y-59678487D01*
X78770448Y-59695792D01*
X78749652Y-59713069D01*
X78728856Y-59730320D01*
X78708063Y-59747542D01*
X78687271Y-59764738D01*
X78666482Y-59781906D01*
X78645694Y-59799046D01*
X78624908Y-59816159D01*
X78604123Y-59833245D01*
X78583341Y-59850303D01*
X78562559Y-59867335D01*
X78541780Y-59884338D01*
X78521003Y-59901315D01*
X78500227Y-59918265D01*
X78479453Y-59935187D01*
X78458681Y-59952082D01*
X78437910Y-59968950D01*
X78417141Y-59985790D01*
X78396374Y-60002604D01*
X78375609Y-60019390D01*
X78354844Y-60036150D01*
X78334083Y-60052882D01*
X78313322Y-60069588D01*
X78292563Y-60086266D01*
X78271806Y-60102917D01*
X78251051Y-60119541D01*
X78230297Y-60136139D01*
X78209545Y-60152709D01*
X78188794Y-60169253D01*
X78168045Y-60185770D01*
X78147298Y-60202260D01*
X78126552Y-60218723D01*
X78105808Y-60235159D01*
X78085066Y-60251569D01*
X78064325Y-60267951D01*
X78043586Y-60284307D01*
X78022848Y-60300637D01*
X78002112Y-60316939D01*
X77981377Y-60333215D01*
X77960645Y-60349464D01*
X77939913Y-60365687D01*
X77919183Y-60381883D01*
X77898455Y-60398052D01*
X77877728Y-60414195D01*
X77857003Y-60430312D01*
X77836280Y-60446401D01*
X77815558Y-60462465D01*
X77794837Y-60478501D01*
X77774118Y-60494512D01*
X77753401Y-60510496D01*
X77732684Y-60526453D01*
X77711970Y-60542384D01*
X77691257Y-60558289D01*
X77670545Y-60574168D01*
X77649835Y-60590020D01*
X77629127Y-60605845D01*
X77608419Y-60621645D01*
X77587714Y-60637418D01*
X77567010Y-60653165D01*
X77546307Y-60668886D01*
X77525605Y-60684580D01*
X77504906Y-60700249D01*
X77484207Y-60715891D01*
X77463510Y-60731507D01*
X77442814Y-60747097D01*
X77422120Y-60762661D01*
X77401427Y-60778199D01*
X77380736Y-60793711D01*
X77360046Y-60809196D01*
X77339357Y-60824656D01*
X77318670Y-60840090D01*
X77297984Y-60855498D01*
X77277299Y-60870880D01*
X77256616Y-60886235D01*
X77235934Y-60901565D01*
X77215254Y-60916870D01*
X77194575Y-60932148D01*
X77173897Y-60947400D01*
X77153220Y-60962627D01*
X77132545Y-60977828D01*
X77111871Y-60993003D01*
X77091198Y-61008152D01*
X77070527Y-61023276D01*
X77049857Y-61038373D01*
X77029188Y-61053446D01*
X77008521Y-61068492D01*
X76987855Y-61083513D01*
X76967190Y-61098508D01*
X76946526Y-61113477D01*
X76925864Y-61128421D01*
X76905203Y-61143340D01*
X76884542Y-61158233D01*
X76863884Y-61173100D01*
X76843226Y-61187942D01*
X76822570Y-61202758D01*
X76801915Y-61217549D01*
X76781261Y-61232314D01*
X76760608Y-61247054D01*
X76739957Y-61261769D01*
X76719306Y-61276458D01*
X76698657Y-61291122D01*
X76678009Y-61305760D01*
X76657362Y-61320373D01*
X76636717Y-61334961D01*
X76616072Y-61349524D01*
X76595429Y-61364061D01*
X76574787Y-61378573D01*
X76554145Y-61393060D01*
X76533505Y-61407521D01*
X76512866Y-61421958D01*
X76492229Y-61436369D01*
X76471592Y-61450755D01*
X76450956Y-61465116D01*
X76430321Y-61479452D01*
X76409688Y-61493762D01*
X76389055Y-61508048D01*
X76368424Y-61522309D01*
X76347794Y-61536544D01*
X76327165Y-61550755D01*
X76306536Y-61564940D01*
X76285909Y-61579101D01*
X76265283Y-61593237D01*
X76244658Y-61607347D01*
X76224033Y-61621433D01*
X76203410Y-61635494D01*
X76182788Y-61649530D01*
X76162167Y-61663541D01*
X76141547Y-61677528D01*
X76120928Y-61691489D01*
X76100309Y-61705426D01*
X76079692Y-61719338D01*
X76059075Y-61733225D01*
X76038460Y-61747087D01*
X76017845Y-61760925D01*
X75997232Y-61774738D01*
X75976619Y-61788526D01*
X75956008Y-61802290D01*
X75935397Y-61816029D01*
X75914787Y-61829743D01*
X75894178Y-61843433D01*
X75873570Y-61857098D01*
X75852962Y-61870739D01*
X75832356Y-61884355D01*
X75811750Y-61897947D01*
X75791146Y-61911514D01*
X75770541Y-61925057D01*
X75749939Y-61938574D01*
X75729336Y-61952068D01*
X75708735Y-61965537D01*
X75688134Y-61978982D01*
X75667535Y-61992402D01*
X75646935Y-62005799D01*
X75626337Y-62019170D01*
X75605740Y-62032518D01*
X75585143Y-62045840D01*
X75564547Y-62059139D01*
X75543952Y-62072413D01*
X75523358Y-62085664D01*
X75502764Y-62098889D01*
X75482171Y-62112091D01*
X75461579Y-62125268D01*
X75440988Y-62138422D01*
X75420397Y-62151550D01*
X75399807Y-62164656D01*
X75379218Y-62177736D01*
X75358629Y-62190793D01*
X75338041Y-62203825D01*
X75317454Y-62216834D01*
X75296867Y-62229818D01*
X75276281Y-62242778D01*
X75255696Y-62255714D01*
X75235111Y-62268627D01*
X75214527Y-62281515D01*
X75193943Y-62294379D01*
X75173361Y-62307219D01*
X75152778Y-62320036D01*
X75132197Y-62332828D01*
X75111616Y-62345597D01*
X75091036Y-62358341D01*
X75070456Y-62371062D01*
X75049877Y-62383759D01*
X75029298Y-62396432D01*
X75008720Y-62409081D01*
X74988142Y-62421707D01*
X74967565Y-62434308D01*
X74946988Y-62446887D01*
X74926413Y-62459440D01*
X74905837Y-62471971D01*
X74885262Y-62484478D01*
X74864687Y-62496961D01*
X74844113Y-62509420D01*
X74823539Y-62521856D01*
X74802967Y-62534268D01*
X74782394Y-62546656D01*
X74761822Y-62559021D01*
X74741250Y-62571362D01*
X74720679Y-62583679D01*
X74700107Y-62595974D01*
X74679538Y-62608244D01*
X74658967Y-62620491D01*
X74638398Y-62632714D01*
X74617828Y-62644915D01*
X74597260Y-62657091D01*
X74576691Y-62669244D01*
X74556123Y-62681374D01*
X74535555Y-62693480D01*
X74514988Y-62705563D01*
X74494420Y-62717622D01*
X74473854Y-62729658D01*
X74453287Y-62741671D01*
X74432722Y-62753660D01*
X74412155Y-62765626D01*
X74391590Y-62777569D01*
X74371025Y-62789489D01*
X74350460Y-62801384D01*
X74329895Y-62813258D01*
X74309331Y-62825107D01*
X74288766Y-62836934D01*
X74268203Y-62848737D01*
X74247639Y-62860517D01*
X74227076Y-62872273D01*
X74206512Y-62884008D01*
X74185950Y-62895718D01*
X74165387Y-62907406D01*
X74144825Y-62919069D01*
X74124262Y-62930711D01*
X74103700Y-62942329D01*
X74083138Y-62953924D01*
X74062576Y-62965496D01*
X74042014Y-62977046D01*
X74021453Y-62988571D01*
X74000891Y-63000075D01*
X73980330Y-63011554D01*
X73959768Y-63023012D01*
X73939208Y-63034445D01*
X73918646Y-63045857D01*
X73898086Y-63057245D01*
X73877525Y-63068611D01*
X73856965Y-63079953D01*
X73836403Y-63091273D01*
X73815843Y-63102569D01*
X73795282Y-63113844D01*
X73774722Y-63125095D01*
X73754161Y-63136323D01*
X73733601Y-63147528D01*
X73713040Y-63158712D01*
X73692480Y-63169871D01*
X73671919Y-63181009D01*
X73651359Y-63192123D01*
X73630798Y-63203215D01*
X73610238Y-63214284D01*
X73589676Y-63225331D01*
X73569117Y-63236354D01*
X73548555Y-63247356D01*
X73527995Y-63258334D01*
X73507433Y-63269290D01*
X73486873Y-63280223D01*
X73466311Y-63291135D01*
X73445751Y-63302022D01*
X73425188Y-63312888D01*
X73404628Y-63323731D01*
X73384065Y-63334552D01*
X73363504Y-63345349D01*
X73342942Y-63356125D01*
X73322380Y-63366878D01*
X73301817Y-63377609D01*
X73281256Y-63388317D01*
X73260692Y-63399003D01*
X73240130Y-63409665D01*
X73219566Y-63420307D01*
X73199004Y-63430925D01*
X73178439Y-63441521D01*
X73157876Y-63452094D01*
X73137311Y-63462646D01*
X73116748Y-63473175D01*
X73096182Y-63483682D01*
X73075618Y-63494166D01*
X73055052Y-63504629D01*
X73034488Y-63515068D01*
X73013921Y-63525486D01*
X72993356Y-63535881D01*
X72972788Y-63546254D01*
X72952223Y-63556605D01*
X72931655Y-63566934D01*
X72911088Y-63577240D01*
X72890519Y-63587525D01*
X72869952Y-63597786D01*
X72849382Y-63608027D01*
X72828814Y-63618244D01*
X72808244Y-63628440D01*
X72787675Y-63638613D01*
X72767104Y-63648765D01*
X72746534Y-63658894D01*
X72725962Y-63669002D01*
X72705391Y-63679087D01*
X72684818Y-63689151D01*
X72664247Y-63699192D01*
X72643673Y-63709211D01*
X72623100Y-63719208D01*
X72602525Y-63729184D01*
X72581952Y-63739137D01*
X72561375Y-63749069D01*
X72540801Y-63758978D01*
X72520224Y-63768866D01*
X72499648Y-63778731D01*
X72479069Y-63788575D01*
X72458493Y-63798396D01*
X72437913Y-63808197D01*
X72417335Y-63817974D01*
X72396754Y-63827731D01*
X72376175Y-63837465D01*
X72355593Y-63847178D01*
X72335013Y-63856868D01*
X72314429Y-63866538D01*
X72293848Y-63876185D01*
X72273263Y-63885811D01*
X72252680Y-63895414D01*
X72232094Y-63904996D01*
X72211509Y-63914556D01*
X72190922Y-63924095D01*
X72170336Y-63933611D01*
X72149747Y-63943107D01*
X72129160Y-63952580D01*
X72087980Y-63971462D01*
X72046798Y-63990257D01*
X72005612Y-64008966D01*
X71964423Y-64027589D01*
X71923231Y-64046126D01*
X71882036Y-64064576D01*
X71840836Y-64082940D01*
X71799634Y-64101219D01*
X71758427Y-64119411D01*
X71717217Y-64137518D01*
X71676003Y-64155539D01*
X71634785Y-64173475D01*
X71593563Y-64191325D01*
X71552337Y-64209090D01*
X71511107Y-64226769D01*
X71469872Y-64244364D01*
X71428633Y-64261873D01*
X71387390Y-64279298D01*
X71346142Y-64296637D01*
X71304889Y-64313892D01*
X71263632Y-64331062D01*
X71222370Y-64348147D01*
X71181103Y-64365148D01*
X71139830Y-64382065D01*
X71098553Y-64398897D01*
X71057271Y-64415645D01*
X71015983Y-64432309D01*
X70974691Y-64448889D01*
X70933392Y-64465385D01*
X70892088Y-64481797D01*
X70850779Y-64498125D01*
X70809463Y-64514369D01*
X70768142Y-64530530D01*
X70726815Y-64546607D01*
X70685483Y-64562601D01*
X70644143Y-64578512D01*
X70602798Y-64594339D01*
X70561447Y-64610083D01*
X70520089Y-64625743D01*
X70478725Y-64641321D01*
X70437354Y-64656816D01*
X70395976Y-64672228D01*
X70354592Y-64687557D01*
X70313201Y-64702804D01*
X70271803Y-64717967D01*
X70230398Y-64733048D01*
X70188986Y-64748047D01*
X70147566Y-64762963D01*
X70106139Y-64777797D01*
X70064705Y-64792549D01*
X70023264Y-64807218D01*
X69981814Y-64821806D01*
X69940357Y-64836311D01*
X69898892Y-64850734D01*
X69857420Y-64865076D01*
X69815939Y-64879336D01*
X69774450Y-64893513D01*
X69732953Y-64907610D01*
X69691448Y-64921624D01*
X69649934Y-64935557D01*
X69608412Y-64949409D01*
X69566881Y-64963179D01*
X69525342Y-64976867D01*
X69483793Y-64990475D01*
X69442236Y-65004001D01*
X69400670Y-65017446D01*
X69359094Y-65030810D01*
X69317510Y-65044093D01*
X69275916Y-65057295D01*
X69234312Y-65070416D01*
X69192700Y-65083457D01*
X69151077Y-65096416D01*
X69109445Y-65109295D01*
X69067803Y-65122093D01*
X69026151Y-65134811D01*
X68984489Y-65147448D01*
X68942817Y-65160005D01*
X68901134Y-65172481D01*
X68859441Y-65184877D01*
X68817738Y-65197192D01*
X68776024Y-65209428D01*
X68734300Y-65221583D01*
X68692564Y-65233658D01*
X68650818Y-65245653D01*
X68609061Y-65257568D01*
X68567292Y-65269403D01*
X68525513Y-65281158D01*
X68483722Y-65292833D01*
X68441920Y-65304428D01*
X68400106Y-65315944D01*
X68358280Y-65327380D01*
X68316443Y-65338736D01*
X68274593Y-65350012D01*
X68232732Y-65361209D01*
X68190859Y-65372327D01*
X68148973Y-65383365D01*
X68107075Y-65394323D01*
X68065165Y-65405203D01*
X68023242Y-65416002D01*
X67981306Y-65426723D01*
X67939358Y-65437364D01*
X67897396Y-65447926D01*
X67855422Y-65458409D01*
X67813435Y-65468813D01*
X67771434Y-65479138D01*
X67729420Y-65489383D01*
X67687392Y-65499550D01*
X67645351Y-65509638D01*
X67603296Y-65519646D01*
X67561228Y-65529576D01*
X67519145Y-65539427D01*
X67477048Y-65549199D01*
X67434937Y-65558893D01*
X67392812Y-65568508D01*
X67350673Y-65578043D01*
X67308519Y-65587501D01*
X67266350Y-65596879D01*
X67224166Y-65606179D01*
X67181968Y-65615401D01*
X67139754Y-65624543D01*
X67097525Y-65633608D01*
X67055281Y-65642594D01*
X67013022Y-65651501D01*
X66970747Y-65660330D01*
X66928457Y-65669080D01*
X66886151Y-65677752D01*
X66843828Y-65686346D01*
X66801490Y-65694862D01*
X66759136Y-65703299D01*
X66716766Y-65711658D01*
X66674379Y-65719938D01*
X66631975Y-65728140D01*
X66589555Y-65736265D01*
X66547118Y-65744310D01*
X66504665Y-65752278D01*
X66462194Y-65760168D01*
X66419706Y-65767979D01*
X66377201Y-65775713D01*
X66334678Y-65783368D01*
X66292138Y-65790945D01*
X66249581Y-65798444D01*
X66207005Y-65805865D01*
X66164412Y-65813208D01*
X66121800Y-65820473D01*
X66079170Y-65827660D01*
X66036522Y-65834769D01*
X65993856Y-65841800D01*
X65951171Y-65848753D01*
X65908467Y-65855628D01*
X65865744Y-65862426D01*
X65823003Y-65869145D01*
X65780242Y-65875786D01*
X65737462Y-65882350D01*
X65694662Y-65888835D01*
X65651843Y-65895243D01*
X65609005Y-65901572D01*
X65566146Y-65907824D01*
X65523268Y-65913998D01*
X65480369Y-65920094D01*
X65437451Y-65926112D01*
X65394512Y-65932052D01*
X65351552Y-65937915D01*
X65308572Y-65943699D01*
X65265571Y-65949406D01*
X65222549Y-65955035D01*
X65179506Y-65960585D01*
X65136442Y-65966058D01*
X65093356Y-65971454D01*
X65050249Y-65976771D01*
X65007120Y-65982010D01*
X64963970Y-65987172D01*
X64920797Y-65992255D01*
X64877602Y-65997261D01*
X64834386Y-66002189D01*
X64791146Y-66007039D01*
X64747885Y-66011810D01*
X64704600Y-66016504D01*
X64661293Y-66021120D01*
X64617963Y-66025659D01*
X64574610Y-66030119D01*
X64531233Y-66034501D01*
X64487833Y-66038805D01*
X64444410Y-66043031D01*
X64400962Y-66047179D01*
X64357491Y-66051249D01*
X64313996Y-66055241D01*
X64270476Y-66059155D01*
X64226933Y-66062991D01*
X64183364Y-66066749D01*
X64139771Y-66070429D01*
X64096154Y-66074030D01*
X64052511Y-66077554D01*
X64008843Y-66080999D01*
X63965150Y-66084366D01*
X63921431Y-66087655D01*
X63877687Y-66090865D01*
X63833917Y-66093997D01*
X63790121Y-66097051D01*
X63746299Y-66100027D01*
X63702451Y-66102924D01*
X63658576Y-66105743D01*
X63614675Y-66108484D01*
X63570747Y-66111146D01*
X63526792Y-66113729D01*
X63482810Y-66116234D01*
X63438801Y-66118661D01*
X63394764Y-66121009D01*
X63350700Y-66123278D01*
X63306607Y-66125469D01*
X63262487Y-66127581D01*
X63218339Y-66129615D01*
X63174163Y-66131569D01*
X63129958Y-66133445D01*
X63085725Y-66135243D01*
X63041462Y-66136961D01*
X62997171Y-66138600D01*
X62952851Y-66140161D01*
X62908501Y-66141642D01*
X62864122Y-66143045D01*
X62819713Y-66144368D01*
X62775274Y-66145613D01*
X62730805Y-66146778D01*
X62686306Y-66147864D01*
X62641777Y-66148871D01*
X62597217Y-66149798D01*
X62552626Y-66150647D01*
X62508005Y-66151415D01*
X62463352Y-66152105D01*
X62418668Y-66152715D01*
X62373952Y-66153245D01*
X62329205Y-66153696D01*
X62284425Y-66154067D01*
X62239614Y-66154359D01*
X62194770Y-66154571D01*
X62149894Y-66154703D01*
X62104985Y-66154755D01*
X62060044Y-66154727D01*
X62015069Y-66154619D01*
X61970061Y-66154431D01*
X61925020Y-66154164D01*
X61879945Y-66153816D01*
X61834836Y-66153387D01*
X61789693Y-66152879D01*
X61744516Y-66152290D01*
X61699305Y-66151621D01*
X61654058Y-66150871D01*
X61608777Y-66150041D01*
X61563461Y-66149130D01*
X61518110Y-66148139D01*
X61472723Y-66147067D01*
X61427301Y-66145914D01*
X61381842Y-66144680D01*
X61336348Y-66143365D01*
X61290817Y-66141969D01*
X61245249Y-66140492D01*
X61199645Y-66138934D01*
X61154004Y-66137294D01*
X61108326Y-66135574D01*
X61062610Y-66133771D01*
X61016857Y-66131888D01*
X60971066Y-66129923D01*
X60925237Y-66127876D01*
X60879369Y-66125747D01*
X60833463Y-66123537D01*
X60787518Y-66121244D01*
X60741535Y-66118870D01*
X60695512Y-66116414D01*
X60649450Y-66113875D01*
X60603347Y-66111254D01*
X60557206Y-66108551D01*
X60511024Y-66105766D01*
X60464801Y-66102897D01*
X60418538Y-66099947D01*
X60372234Y-66096913D01*
X60325889Y-66093797D01*
X60279503Y-66090598D01*
X60233075Y-66087316D01*
X60186605Y-66083951D01*
X60140093Y-66080502D01*
X60093539Y-66076970D01*
X60046942Y-66073355D01*
X60000303Y-66069657D01*
X59953620Y-66065874D01*
X59906894Y-66062008D01*
X59860125Y-66058059D01*
X59813311Y-66054025D01*
X59766454Y-66049907D01*
X59719552Y-66045705D01*
X59672605Y-66041419D01*
X59625613Y-66037049D01*
X59578577Y-66032594D01*
X59531494Y-66028054D01*
X59484366Y-66023430D01*
X59437192Y-66018720D01*
X59389972Y-66013926D01*
X59342705Y-66009047D01*
X59295392Y-66004083D01*
X59248031Y-65999033D01*
X59200623Y-65993898D01*
X59153167Y-65988677D01*
X59105663Y-65983371D01*
X59058111Y-65977978D01*
X59010510Y-65972500D01*
X58962860Y-65966936D01*
X58915161Y-65961285D01*
X58867413Y-65955548D01*
X58819615Y-65949725D01*
X58771767Y-65943815D01*
X58723868Y-65937818D01*
X58675919Y-65931734D01*
X58627918Y-65925564D01*
X58579867Y-65919306D01*
X58531763Y-65912960D01*
X58483608Y-65906527D01*
X58435400Y-65900007D01*
X58387140Y-65893399D01*
X58338827Y-65886703D01*
X58290460Y-65879919D01*
X58242040Y-65873046D01*
X58193566Y-65866085D01*
X58145038Y-65859036D01*
X58096454Y-65851898D01*
X58047816Y-65844671D01*
X57999123Y-65837355D01*
X57950374Y-65829950D01*
X57901569Y-65822455D01*
X57852707Y-65814871D01*
X57803789Y-65807197D01*
X57754813Y-65799433D01*
X57705780Y-65791580D01*
X57656689Y-65783636D01*
X57607540Y-65775601D01*
X57558333Y-65767476D01*
X57509066Y-65759261D01*
X57459740Y-65750954D01*
X57410354Y-65742556D01*
X57360907Y-65734067D01*
X57311401Y-65725487D01*
X57261833Y-65716814D01*
X57212204Y-65708050D01*
X57162513Y-65699194D01*
X57112760Y-65690246D01*
X57062944Y-65681205D01*
X57013065Y-65672071D01*
X56963123Y-65662845D01*
X56913116Y-65653525D01*
X56863046Y-65644112D01*
X56812910Y-65634606D01*
X56762710Y-65625005D01*
X56712443Y-65615311D01*
X56662111Y-65605523D01*
X56611712Y-65595641D01*
X56561246Y-65585663D01*
X56510712Y-65575591D01*
X56460111Y-65565424D01*
X56409441Y-65555162D01*
X56358702Y-65544804D01*
X56307893Y-65534351D01*
X56257015Y-65523801D01*
X56206066Y-65513155D01*
X56155046Y-65502413D01*
X56103955Y-65491574D01*
X56052792Y-65480638D01*
X56001556Y-65469605D01*
X55950248Y-65458474D01*
X55898866Y-65447246D01*
X55847409Y-65435920D01*
X55795878Y-65424495D01*
X55744272Y-65412972D01*
X55692590Y-65401350D01*
X55640832Y-65389629D01*
X55588997Y-65377809D01*
X55537085Y-65365889D01*
X55485094Y-65353869D01*
X55433025Y-65341748D01*
X55380876Y-65329528D01*
X55328648Y-65317206D01*
X55276339Y-65304784D01*
X55223949Y-65292260D01*
X55171478Y-65279634D01*
X55118924Y-65266907D01*
X55066287Y-65254077D01*
X55013566Y-65241144D01*
X54960761Y-65228108D01*
X54907870Y-65214970D01*
X54854895Y-65201727D01*
X54801832Y-65188380D01*
X54748683Y-65174930D01*
X54695446Y-65161374D01*
X54642120Y-65147714D01*
X54588705Y-65133948D01*
X54535199Y-65120076D01*
X54481604Y-65106099D01*
X54427916Y-65092015D01*
X54374136Y-65077824D01*
X54320263Y-65063525D01*
X54266296Y-65049120D01*
X54212235Y-65034606D01*
X54158078Y-65019984D01*
X54103824Y-65005253D01*
X54049474Y-64990413D01*
X53995025Y-64975463D01*
X53940477Y-64960403D01*
X53885829Y-64945233D01*
X53831081Y-64929952D01*
X53776231Y-64914560D01*
X53721278Y-64899056D01*
X53666222Y-64883439D01*
X53611061Y-64867710D01*
X53555795Y-64851868D01*
X53500423Y-64835912D01*
X53444943Y-64819842D01*
X53389354Y-64803657D01*
X53333656Y-64787358D01*
X53277847Y-64770942D01*
X53221927Y-64754411D01*
X53165894Y-64737763D01*
X53109747Y-64720998D01*
X53053485Y-64704115D01*
X52997107Y-64687113D01*
X52940612Y-64669993D01*
X52883998Y-64652754D01*
X52827264Y-64635395D01*
X52770410Y-64617915D01*
X52713433Y-64600314D01*
X52656333Y-64582591D01*
X52599108Y-64564746D01*
X52541757Y-64546778D01*
X52484278Y-64528686D01*
X52426671Y-64510470D01*
X52368933Y-64492128D01*
X52311063Y-64473662D01*
X52253061Y-64455069D01*
X52194924Y-64436348D01*
X52136650Y-64417501D01*
X52078239Y-64398524D01*
X52019689Y-64379419D01*
X51960997Y-64360183D01*
X51902163Y-64340817D01*
X51843185Y-64321319D01*
X51784061Y-64301688D01*
X51724789Y-64281925D01*
X51665368Y-64262027D01*
X51605796Y-64241995D01*
X51546070Y-64221827D01*
X51486189Y-64201522D01*
X51426151Y-64181079D01*
X51365954Y-64160498D01*
X51305596Y-64139778D01*
X51245074Y-64118917D01*
X51184387Y-64097914D01*
X51123533Y-64076770D01*
X51062509Y-64055481D01*
X51001313Y-64034048D01*
X50939943Y-64012470D01*
X50878395Y-63990744D01*
X50816669Y-63968871D01*
X50754760Y-63946848D01*
X50692667Y-63924675D01*
X50630387Y-63902351D01*
X50567918Y-63879873D01*
X50505255Y-63857242D01*
X50442398Y-63834455D01*
X50379341Y-63811511D01*
X50316084Y-63788409D01*
X50252621Y-63765147D01*
X50188951Y-63741724D01*
X50125070Y-63718138D01*
X50060975Y-63694388D01*
X49996661Y-63670473D01*
X49932126Y-63646389D01*
X49867366Y-63622137D01*
X49802377Y-63597713D01*
X49737155Y-63573117D01*
X49671696Y-63548346D01*
X49605996Y-63523398D01*
X49540050Y-63498272D01*
X49473855Y-63472965D01*
X49407405Y-63447476D01*
X49340696Y-63421802D01*
X49273723Y-63395940D01*
X49206481Y-63369889D01*
X49138965Y-63343647D01*
X49071169Y-63317210D01*
X49003088Y-63290576D01*
X48934716Y-63263743D01*
X48866046Y-63236707D01*
X48797074Y-63209466D01*
X48727792Y-63182018D01*
X48658194Y-63154358D01*
X48588272Y-63126484D01*
X48518020Y-63098392D01*
X48447429Y-63070079D01*
X48376493Y-63041541D01*
X48305202Y-63012775D01*
X48233550Y-62983777D01*
X48161525Y-62954542D01*
X48089120Y-62925067D01*
X48016325Y-62895347D01*
X47943129Y-62865377D01*
X47869523Y-62835153D01*
X47795494Y-62804669D01*
X47721032Y-62773921D01*
X47646124Y-62742903D01*
X47570757Y-62711608D01*
X47494918Y-62680031D01*
X47418594Y-62648165D01*
X47341768Y-62616004D01*
X47264426Y-62583540D01*
X47186550Y-62550766D01*
X47108124Y-62517673D01*
X47029128Y-62484255D01*
X46949543Y-62450500D01*
X46869349Y-62416400D01*
X46788522Y-62381945D01*
X46707039Y-62347124D01*
X46624876Y-62311925D01*
X46542004Y-62276336D01*
X46458395Y-62240344D01*
X46374018Y-62203935D01*
X46288840Y-62167094D01*
X46202824Y-62129803D01*
X46115932Y-62092047D01*
X46028122Y-62053804D01*
X45939347Y-62015055D01*
X45849559Y-61975776D01*
X45758701Y-61935943D01*
X45666715Y-61895529D01*
X45573534Y-61854503D01*
X45479086Y-61812832D01*
X45383290Y-61770480D01*
X45286056Y-61727405D01*
X45187281Y-61683562D01*
X45086852Y-61638897D01*
X44984639Y-61593352D01*
X44880493Y-61546859D01*
X44774243Y-61499341D01*
X44665689Y-61450705D01*
X44554597Y-61400846D01*
X44440688Y-61349637D01*
X44323625Y-61296923D01*
X44202996Y-61242516D01*
X44078284Y-61186183D01*
X43948830Y-61127621D01*
X43813767Y-61066437D01*
X43671912Y-61002090D01*
X43521575Y-60933810D01*
X43360184Y-60860426D01*
X43183449Y-60779982D01*
X42983123Y-60688718D01*
X42738597Y-60577241D01*
X42587155Y-60508180D01*
X42408838Y-60426864D01*
X42231069Y-60345820D01*
X42053852Y-60265071D01*
X41877189Y-60184638D01*
X41789066Y-60144548D01*
X41701082Y-60104545D01*
X41613237Y-60064633D01*
X41525533Y-60024814D01*
X41437968Y-59985091D01*
X41350544Y-59945467D01*
X41263260Y-59905945D01*
X41176118Y-59866528D01*
X41089116Y-59827218D01*
X41002257Y-59788018D01*
X40915539Y-59748931D01*
X40828963Y-59709960D01*
X40742529Y-59671108D01*
X40656238Y-59632377D01*
X40570090Y-59593770D01*
X40484086Y-59555291D01*
X40398224Y-59516941D01*
X40312507Y-59478724D01*
X40226934Y-59440643D01*
X40141505Y-59402700D01*
X40056220Y-59364899D01*
X39971081Y-59327241D01*
X39886087Y-59289730D01*
X39801238Y-59252369D01*
X39758868Y-59233745D01*
X39716535Y-59215160D01*
X39674239Y-59196614D01*
X39631978Y-59178107D01*
X39589755Y-59159639D01*
X39547568Y-59141211D01*
X39505418Y-59122824D01*
X39463304Y-59104477D01*
X39421227Y-59086171D01*
X39379187Y-59067906D01*
X39337184Y-59049683D01*
X39295217Y-59031502D01*
X39253288Y-59013363D01*
X39211395Y-58995267D01*
X39169539Y-58977214D01*
X39127720Y-58959204D01*
X39085939Y-58941238D01*
X39044194Y-58923316D01*
X39002486Y-58905439D01*
X38960816Y-58887606D01*
X38919182Y-58869819D01*
X38877586Y-58852077D01*
X38836027Y-58834381D01*
X38794506Y-58816731D01*
X38753021Y-58799127D01*
X38711574Y-58781571D01*
X38670164Y-58764062D01*
X38628792Y-58746600D01*
X38587457Y-58729187D01*
X38546160Y-58711822D01*
X38504900Y-58694505D01*
X38463678Y-58677237D01*
X38422493Y-58660019D01*
X38381346Y-58642851D01*
X38340236Y-58625732D01*
X38299164Y-58608665D01*
X38258130Y-58591647D01*
X38217134Y-58574681D01*
X38176175Y-58557767D01*
X38135255Y-58540904D01*
X38094372Y-58524094D01*
X38053527Y-58507336D01*
X38012720Y-58490631D01*
X37971951Y-58473979D01*
X37931220Y-58457381D01*
X37890527Y-58440837D01*
X37849872Y-58424347D01*
X37809255Y-58407911D01*
X37768676Y-58391531D01*
X37728136Y-58375206D01*
X37687634Y-58358937D01*
X37647169Y-58342724D01*
X37606744Y-58326567D01*
X37566356Y-58310467D01*
X37526007Y-58294424D01*
X37485697Y-58278439D01*
X37445424Y-58262511D01*
X37405191Y-58246642D01*
X37364995Y-58230831D01*
X37324839Y-58215079D01*
X37284720Y-58199387D01*
X37244641Y-58183753D01*
X37204600Y-58168180D01*
X37164598Y-58152667D01*
X37124634Y-58137215D01*
X37084709Y-58121824D01*
X37044823Y-58106494D01*
X37004976Y-58091226D01*
X36965168Y-58076019D01*
X36925399Y-58060876D01*
X36885668Y-58045795D01*
X36845977Y-58030777D01*
X36806324Y-58015822D01*
X36766711Y-58000931D01*
X36727136Y-57986105D01*
X36687601Y-57971343D01*
X36648105Y-57956646D01*
X36608648Y-57942014D01*
X36569230Y-57927448D01*
X36529851Y-57912947D01*
X36490512Y-57898513D01*
X36451212Y-57884145D01*
X36411951Y-57869845D01*
X36372730Y-57855612D01*
X36333548Y-57841446D01*
X36294406Y-57827349D01*
X36255303Y-57813319D01*
X36216240Y-57799359D01*
X36177216Y-57785468D01*
X36138232Y-57771646D01*
X36099287Y-57757894D01*
X36060382Y-57744212D01*
X36021517Y-57730600D01*
X35982692Y-57717060D01*
X35943906Y-57703590D01*
X35905160Y-57690193D01*
X35866454Y-57676867D01*
X35827788Y-57663613D01*
X35789162Y-57650432D01*
X35750576Y-57637324D01*
X35712030Y-57624289D01*
X35673524Y-57611328D01*
X35635057Y-57598441D01*
X35596631Y-57585628D01*
X35558245Y-57572890D01*
X35519900Y-57560227D01*
X35481594Y-57547639D01*
X35443329Y-57535128D01*
X35405104Y-57522692D01*
X35366919Y-57510333D01*
X35328775Y-57498051D01*
X35290671Y-57485845D01*
X35252607Y-57473718D01*
X35214584Y-57461668D01*
X35176601Y-57449697D01*
X35138659Y-57437804D01*
X35100758Y-57425990D01*
X35062897Y-57414255D01*
X35025076Y-57402600D01*
X34987297Y-57391025D01*
X34949558Y-57379531D01*
X34911859Y-57368117D01*
X34874202Y-57356784D01*
X34836585Y-57345532D01*
X34799009Y-57334363D01*
X34761474Y-57323275D01*
X34723980Y-57312270D01*
X34686527Y-57301347D01*
X34649115Y-57290508D01*
X34611744Y-57279753D01*
X34574414Y-57269081D01*
X34537125Y-57258493D01*
X34499877Y-57247990D01*
X34462671Y-57237572D01*
X34425505Y-57227240D01*
X34388381Y-57216992D01*
X34351298Y-57206831D01*
X34314256Y-57196756D01*
X34277256Y-57186768D01*
X34240297Y-57176867D01*
X34203379Y-57167053D01*
X34166503Y-57157328D01*
X34129668Y-57147690D01*
X34092875Y-57138140D01*
X34056124Y-57128680D01*
X34019414Y-57119308D01*
X33982745Y-57110026D01*
X33946119Y-57100834D01*
X33909534Y-57091732D01*
X33872990Y-57082721D01*
X33836489Y-57073800D01*
X33800029Y-57064971D01*
X33763611Y-57056234D01*
X33745418Y-57051899D01*
X33727235Y-57047588D01*
X33709063Y-57043300D01*
X33690901Y-57039035D01*
X33672750Y-57034793D01*
X33654609Y-57030574D01*
X33636478Y-57026379D01*
X33618359Y-57022207D01*
X33600249Y-57018058D01*
X33582150Y-57013933D01*
X33564062Y-57009831D01*
X33545984Y-57005752D01*
X33527917Y-57001697D01*
X33509860Y-56997666D01*
X33491814Y-56993658D01*
X33473778Y-56989674D01*
X33455753Y-56985713D01*
X33437738Y-56981777D01*
X33419734Y-56977864D01*
X33401741Y-56973975D01*
X33383758Y-56970109D01*
X33365785Y-56966268D01*
X33347823Y-56962451D01*
X33329872Y-56958657D01*
X33311931Y-56954888D01*
X33294001Y-56951143D01*
X33276082Y-56947422D01*
X33258173Y-56943725D01*
X33240274Y-56940052D01*
X33222387Y-56936404D01*
X33204509Y-56932780D01*
X33186643Y-56929180D01*
X33168787Y-56925605D01*
X33150941Y-56922054D01*
X33133107Y-56918527D01*
X33115283Y-56915025D01*
X33097469Y-56911548D01*
X33079666Y-56908095D01*
X33061874Y-56904667D01*
X33044092Y-56901264D01*
X33026322Y-56897885D01*
X33008561Y-56894532D01*
X32990812Y-56891203D01*
X32973073Y-56887899D01*
X32955344Y-56884620D01*
X32937627Y-56881366D01*
X32919920Y-56878136D01*
X32902223Y-56874932D01*
X32884538Y-56871753D01*
X32866863Y-56868600D01*
X32849199Y-56865471D01*
X32831545Y-56862368D01*
X32813902Y-56859289D01*
X32796270Y-56856237D01*
X32778649Y-56853209D01*
X32761038Y-56850207D01*
X32743438Y-56847231D01*
X32725849Y-56844280D01*
X32708270Y-56841354D01*
X32690702Y-56838454D01*
X32673145Y-56835580D01*
X32655599Y-56832731D01*
X32638063Y-56829908D01*
X32620538Y-56827111D01*
X32603024Y-56824340D01*
X32585521Y-56821595D01*
X32568028Y-56818875D01*
X32550546Y-56816181D01*
X32533075Y-56813514D01*
X32515615Y-56810872D01*
X32498165Y-56808257D01*
X32480726Y-56805667D01*
X32463298Y-56803104D01*
X32445881Y-56800567D01*
X32428475Y-56798056D01*
X32411079Y-56795571D01*
X32393694Y-56793113D01*
X32376320Y-56790681D01*
X32358957Y-56788276D01*
X32341605Y-56785897D01*
X32324263Y-56783545D01*
X32306933Y-56781219D01*
X32289613Y-56778920D01*
X32272304Y-56776647D01*
X32255006Y-56774401D01*
X32237718Y-56772182D01*
X32220442Y-56769990D01*
X32203176Y-56767824D01*
X32185921Y-56765685D01*
X32168677Y-56763573D01*
X32151444Y-56761488D01*
X32134222Y-56759431D01*
X32117011Y-56757400D01*
X32099810Y-56755396D01*
X32082621Y-56753419D01*
X32065442Y-56751470D01*
X32048274Y-56749548D01*
X32031117Y-56747653D01*
X32013971Y-56745785D01*
X31996836Y-56743945D01*
X31979712Y-56742132D01*
X31962599Y-56740346D01*
X31945497Y-56738588D01*
X31928405Y-56736858D01*
X31911325Y-56735155D01*
X31894255Y-56733480D01*
X31877197Y-56731832D01*
X31860149Y-56730212D01*
X31843112Y-56728620D01*
X31826086Y-56727055D01*
X31809072Y-56725519D01*
X31792068Y-56724010D01*
X31775075Y-56722529D01*
X31758093Y-56721076D01*
X31741122Y-56719651D01*
X31724162Y-56718255D01*
X31707213Y-56716886D01*
X31690275Y-56715545D01*
X31673348Y-56714233D01*
X31656432Y-56712949D01*
X31639527Y-56711693D01*
X31622633Y-56710466D01*
X31605750Y-56709266D01*
X31588878Y-56708096D01*
X31572017Y-56706953D01*
X31555167Y-56705839D01*
X31538328Y-56704754D01*
X31521500Y-56703697D01*
X31504683Y-56702669D01*
X31487877Y-56701670D01*
X31471083Y-56700699D01*
X31454299Y-56699757D01*
X31437526Y-56698844D01*
X31420765Y-56697960D01*
X31404014Y-56697104D01*
X31387274Y-56696278D01*
X31370546Y-56695480D01*
X31353829Y-56694712D01*
X31337122Y-56693972D01*
X31320427Y-56693262D01*
X31303743Y-56692581D01*
X31287070Y-56691929D01*
X31270408Y-56691306D01*
X31253757Y-56690713D01*
X31237118Y-56690148D01*
X31220489Y-56689614D01*
X31203871Y-56689108D01*
X31187265Y-56688632D01*
X31170670Y-56688186D01*
X31154086Y-56687769D01*
X31137513Y-56687382D01*
X31120951Y-56687024D01*
X31104400Y-56686696D01*
X31087861Y-56686398D01*
X31071332Y-56686130D01*
X31054815Y-56685891D01*
X31038309Y-56685682D01*
X31021814Y-56685503D01*
X31005330Y-56685354D01*
X30988857Y-56685236D01*
X30972396Y-56685147D01*
X30955946Y-56685088D01*
X30939507Y-56685059D01*
X30923079Y-56685060D01*
X30906662Y-56685092D01*
X30890257Y-56685154D01*
X30873862Y-56685246D01*
X30857479Y-56685369D01*
X30841107Y-56685522D01*
X30824747Y-56685705D01*
X30808397Y-56685919D01*
X30792059Y-56686163D01*
X30775732Y-56686438D01*
X30759416Y-56686744D01*
X30743112Y-56687080D01*
X30726819Y-56687447D01*
X30710537Y-56687844D01*
X30694266Y-56688273D01*
X30678006Y-56688732D01*
X30661758Y-56689222D01*
X30645521Y-56689743D01*
X30629295Y-56690295D01*
X30613081Y-56690878D01*
X30596878Y-56691491D01*
X30580686Y-56692137D01*
X30564505Y-56692813D01*
X30548336Y-56693520D01*
X30532178Y-56694259D01*
X30516031Y-56695028D01*
X30499896Y-56695830D01*
X30483772Y-56696662D01*
X30467659Y-56697526D01*
X30451558Y-56698421D01*
X30435467Y-56699348D01*
X30419389Y-56700306D01*
X30403321Y-56701296D01*
X30387265Y-56702318D01*
X30371220Y-56703371D01*
X30355187Y-56704456D01*
X30339165Y-56705573D01*
X30323154Y-56706721D01*
X30307155Y-56707901D01*
X30291167Y-56709113D01*
X30275190Y-56710357D01*
X30259225Y-56711634D01*
X30243271Y-56712942D01*
X30227328Y-56714282D01*
X30211397Y-56715654D01*
X30195477Y-56717058D01*
X30179569Y-56718495D01*
X30163672Y-56719964D01*
X30147786Y-56721465D01*
X30131912Y-56722998D01*
X30116049Y-56724564D01*
X30100198Y-56726162D01*
X30084358Y-56727792D01*
X30068530Y-56729455D01*
X30052713Y-56731151D01*
X30036907Y-56732879D01*
X30021113Y-56734640D01*
X30005330Y-56736434D01*
X29989559Y-56738260D01*
X29973799Y-56740119D01*
X29958050Y-56742011D01*
X29942313Y-56743935D01*
X29926588Y-56745893D01*
X29910874Y-56747883D01*
X29895171Y-56749907D01*
X29879480Y-56751963D01*
X29863801Y-56754053D01*
X29848133Y-56756175D01*
X29832476Y-56758331D01*
X29816831Y-56760520D01*
X29801197Y-56762742D01*
X29785575Y-56764998D01*
X29769965Y-56767287D01*
X29754366Y-56769609D01*
X29738778Y-56771964D01*
X29723202Y-56774354D01*
X29707638Y-56776776D01*
X29692085Y-56779232D01*
X29676543Y-56781722D01*
X29661013Y-56784246D01*
X29645495Y-56786803D01*
X29629988Y-56789393D01*
X29614493Y-56792018D01*
X29599009Y-56794676D01*
X29583537Y-56797369D01*
X29568076Y-56800095D01*
X29552627Y-56802855D01*
X29537190Y-56805649D01*
X29521764Y-56808477D01*
X29506350Y-56811339D01*
X29490947Y-56814236D01*
X29475556Y-56817166D01*
X29460177Y-56820131D01*
X29444809Y-56823130D01*
X29429452Y-56826163D01*
X29414108Y-56829231D01*
X29398775Y-56832333D01*
X29383453Y-56835469D01*
X29368143Y-56838640D01*
X29352845Y-56841846D01*
X29337559Y-56845086D01*
X29322284Y-56848360D01*
X29307020Y-56851670D01*
X29291769Y-56855013D01*
X29276529Y-56858392D01*
X29261301Y-56861806D01*
X29246084Y-56865254D01*
X29230879Y-56868737D01*
X29215686Y-56872255D01*
X29200504Y-56875808D01*
X29185334Y-56879396D01*
X29170176Y-56883019D01*
X29155029Y-56886678D01*
X29139894Y-56890371D01*
X29124771Y-56894099D01*
X29109659Y-56897863D01*
X29094560Y-56901662D01*
X29079471Y-56905496D01*
X29064395Y-56909366D01*
X29049330Y-56913271D01*
X29034277Y-56917212D01*
X29019236Y-56921188D01*
X29004207Y-56925199D01*
X28989189Y-56929246D01*
X28974183Y-56933329D01*
X28959188Y-56937447D01*
X28944206Y-56941602D01*
X28929235Y-56945791D01*
X28914276Y-56950017D01*
X28899329Y-56954279D01*
X28884393Y-56958576D01*
X28869470Y-56962909D01*
X28854558Y-56967278D01*
X28839657Y-56971684D01*
X28824769Y-56976125D01*
X28809892Y-56980602D01*
X28795028Y-56985116D01*
X28780175Y-56989666D01*
X28765333Y-56994252D01*
X28750504Y-56998874D01*
X28735686Y-57003533D01*
X28720881Y-57008228D01*
X28706087Y-57012959D01*
X28691304Y-57017727D01*
X28676534Y-57022531D01*
X28661776Y-57027372D01*
X28647029Y-57032250D01*
X28632294Y-57037164D01*
X28617571Y-57042115D01*
X28602860Y-57047102D01*
X28588161Y-57052126D01*
X28573473Y-57057187D01*
X28558798Y-57062285D01*
X28544134Y-57067420D01*
X28529482Y-57072592D01*
X28514842Y-57077801D01*
X28500214Y-57083047D01*
X28485598Y-57088329D01*
X28470994Y-57093649D01*
X28456401Y-57099006D01*
X28441821Y-57104401D01*
X28427252Y-57109832D01*
X28412696Y-57115301D01*
X28398151Y-57120807D01*
X28383618Y-57126351D01*
X28369097Y-57131932D01*
X28354588Y-57137550D01*
X28340091Y-57143206D01*
X28325606Y-57148900D01*
X28311133Y-57154631D01*
X28296672Y-57160400D01*
X28282222Y-57166206D01*
X28267785Y-57172051D01*
X28253360Y-57177933D01*
X28238946Y-57183852D01*
X28224545Y-57189810D01*
X28210155Y-57195806D01*
X28195778Y-57201839D01*
X28181412Y-57207911D01*
X28167058Y-57214020D01*
X28152717Y-57220168D01*
X28138387Y-57226354D01*
X28124070Y-57232577D01*
X28109764Y-57238840D01*
X28095471Y-57245140D01*
X28081189Y-57251479D01*
X28066919Y-57257856D01*
X28052662Y-57264271D01*
X28038416Y-57270725D01*
X28024183Y-57277218D01*
X28009961Y-57283748D01*
X27995752Y-57290318D01*
X27981555Y-57296926D01*
X27967369Y-57303573D01*
X27953196Y-57310258D01*
X27939035Y-57316982D01*
X27924885Y-57323745D01*
X27910748Y-57330547D01*
X27896623Y-57337388D01*
X27882510Y-57344267D01*
X27868409Y-57351186D01*
X27854321Y-57358143D01*
X27840244Y-57365140D01*
X27826179Y-57372176D01*
X27812127Y-57379250D01*
X27798086Y-57386364D01*
X27784058Y-57393518D01*
X27770042Y-57400710D01*
X27756037Y-57407942D01*
X27742045Y-57415213D01*
X27728065Y-57422524D01*
X27714098Y-57429874D01*
X27700142Y-57437263D01*
X27686199Y-57444692D01*
X27672267Y-57452161D01*
X27658348Y-57459669D01*
X27644441Y-57467217D01*
X27630546Y-57474805D01*
X27616663Y-57482432D01*
X27602792Y-57490100D01*
X27588934Y-57497807D01*
X27575088Y-57505554D01*
X27561254Y-57513340D01*
X27547432Y-57521167D01*
X27533622Y-57529034D01*
X27519824Y-57536941D01*
X27506039Y-57544888D01*
X27492266Y-57552875D01*
X27478505Y-57560903D01*
X27464756Y-57568970D01*
X27451019Y-57577078D01*
X27437295Y-57585226D01*
X27423583Y-57593415D01*
X27409883Y-57601644D01*
X27396195Y-57609913D01*
X27382520Y-57618223D01*
X27368857Y-57626574D01*
X27355206Y-57634965D01*
X27341567Y-57643397D01*
X27327940Y-57651869D01*
X27314326Y-57660382D01*
X27300724Y-57668936D01*
X27287134Y-57677531D01*
X27273557Y-57686167D01*
X27259992Y-57694843D01*
X27246439Y-57703561D01*
X27232898Y-57712319D01*
X27219370Y-57721118D01*
X27205854Y-57729959D01*
X27192350Y-57738841D01*
X27178859Y-57747763D01*
X27165379Y-57756727D01*
X27151913Y-57765733D01*
X27138458Y-57774779D01*
X27125016Y-57783867D01*
X27111586Y-57792996D01*
X27098168Y-57802167D01*
X27084763Y-57811379D01*
X27071370Y-57820633D01*
X27057990Y-57829928D01*
X27044621Y-57839265D01*
X27031265Y-57848644D01*
X27017922Y-57858064D01*
X27004591Y-57867526D01*
X26991272Y-57877030D01*
X26977965Y-57886575D01*
X26964671Y-57896163D01*
X26951389Y-57905792D01*
X26938120Y-57915463D01*
X26924863Y-57925176D01*
X26911619Y-57934932D01*
X26898386Y-57944729D01*
X26885167Y-57954569D01*
X26871959Y-57964450D01*
X26858764Y-57974374D01*
X26845582Y-57984340D01*
X26832411Y-57994349D01*
X26819254Y-58004400D01*
X26806108Y-58014493D01*
X26792975Y-58024629D01*
X26779855Y-58034807D01*
X26766747Y-58045028D01*
X26753651Y-58055291D01*
X26740568Y-58065597D01*
X26727497Y-58075945D01*
X26714439Y-58086337D01*
X26701393Y-58096770D01*
X26688360Y-58107247D01*
X26675339Y-58117767D01*
X26662331Y-58128329D01*
X26649335Y-58138935D01*
X26636351Y-58149583D01*
X26623380Y-58160275D01*
X26610422Y-58171009D01*
X26597476Y-58181787D01*
X26584542Y-58192607D01*
X26571621Y-58203471D01*
X26558713Y-58214378D01*
X26545817Y-58225329D01*
X26532933Y-58236322D01*
X26520062Y-58247359D01*
X26507204Y-58258440D01*
X26494358Y-58269564D01*
X26481525Y-58280731D01*
X26468704Y-58291942D01*
X26455896Y-58303197D01*
X26443100Y-58314495D01*
X26430317Y-58325837D01*
X26417546Y-58337222D01*
X26404788Y-58348652D01*
X26392042Y-58360125D01*
X26379310Y-58371642D01*
X26366589Y-58383203D01*
X26353881Y-58394807D01*
X26341186Y-58406456D01*
X26328503Y-58418149D01*
X26315833Y-58429886D01*
X26303176Y-58441667D01*
X26290531Y-58453492D01*
X26277899Y-58465361D01*
X26265279Y-58477275D01*
X26252672Y-58489233D01*
X26240078Y-58501235D01*
X26227496Y-58513282D01*
X26214927Y-58525373D01*
X26202370Y-58537508D01*
X26189826Y-58549688D01*
X26177295Y-58561912D01*
X26164777Y-58574182D01*
X26152271Y-58586495D01*
X26139777Y-58598854D01*
X26127297Y-58611257D01*
X26114829Y-58623705D01*
X26102373Y-58636198D01*
X26089931Y-58648735D01*
X26077501Y-58661318D01*
X26065083Y-58673945D01*
X26052679Y-58686618D01*
X26040287Y-58699335D01*
X26027907Y-58712098D01*
X26015541Y-58724905D01*
X26003187Y-58737758D01*
X25990846Y-58750656D01*
X25978517Y-58763600D01*
X25966202Y-58776588D01*
X25953899Y-58789622D01*
X25941608Y-58802701D01*
X25929331Y-58815826D01*
X25917066Y-58828996D01*
X25904814Y-58842212D01*
X25892575Y-58855474D01*
X25880348Y-58868781D01*
X25868134Y-58882133D01*
X25855933Y-58895531D01*
X25843745Y-58908975D01*
X25831569Y-58922465D01*
X25819406Y-58936001D01*
X25807256Y-58949582D01*
X25795119Y-58963210D01*
X25782995Y-58976883D01*
X25770883Y-58990603D01*
X25758784Y-59004368D01*
X25746698Y-59018180D01*
X25734624Y-59032037D01*
X25722564Y-59045941D01*
X25710516Y-59059891D01*
X25698481Y-59073887D01*
X25686459Y-59087930D01*
X25674450Y-59102019D01*
X25662454Y-59116154D01*
X25650470Y-59130336D01*
X25638499Y-59144565D01*
X25626541Y-59158839D01*
X25614596Y-59173161D01*
X25602664Y-59187529D01*
X25590745Y-59201944D01*
X25578838Y-59216405D01*
X25566944Y-59230913D01*
X25555063Y-59245468D01*
X25543196Y-59260070D01*
X25531340Y-59274719D01*
X25519498Y-59289414D01*
X25507669Y-59304157D01*
X25495853Y-59318946D01*
X25484049Y-59333783D01*
X25472258Y-59348667D01*
X25460481Y-59363598D01*
X25448716Y-59378576D01*
X25436964Y-59393601D01*
X25425225Y-59408674D01*
X25413499Y-59423794D01*
X25401786Y-59438961D01*
X25390085Y-59454176D01*
X25378398Y-59469438D01*
X25366724Y-59484748D01*
X25355062Y-59500105D01*
X25343414Y-59515510D01*
X25331778Y-59530962D01*
X25320156Y-59546462D01*
X25308546Y-59562010D01*
X25296949Y-59577606D01*
X25285366Y-59593249D01*
X25273795Y-59608940D01*
X25262237Y-59624679D01*
X25250692Y-59640467D01*
X25239160Y-59656302D01*
X25227642Y-59672185D01*
X25216136Y-59688116D01*
X25204643Y-59704095D01*
X25193163Y-59720123D01*
X25181696Y-59736198D01*
X25170243Y-59752322D01*
X25158802Y-59768494D01*
X25147374Y-59784715D01*
X25135959Y-59800984D01*
X25124558Y-59817301D01*
X25113169Y-59833667D01*
X25101793Y-59850081D01*
X25090431Y-59866544D01*
X25079081Y-59883055D01*
X25067745Y-59899615D01*
X25056421Y-59916224D01*
X25045111Y-59932882D01*
X25033814Y-59949588D01*
X25022529Y-59966343D01*
X25011258Y-59983147D01*
X25000000Y-60000000D01*
M02*
