G04 #@! TF.GenerationSoftware,KiCad,Pcbnew,9.0.2-2.fc42*
G04 #@! TF.CreationDate,2025-06-29T00:33:01+02:00*
G04 #@! TF.ProjectId,hack_solder,6861636b-5f73-46f6-9c64-65722e6b6963,rev?*
G04 #@! TF.SameCoordinates,Original*
G04 #@! TF.FileFunction,Copper,L2,Bot*
G04 #@! TF.FilePolarity,Positive*
%FSLAX46Y46*%
G04 Gerber Fmt 4.6, Leading zero omitted, Abs format (unit mm)*
G04 Created by KiCad (PCBNEW 9.0.2-2.fc42) date 2025-06-29 00:33:01*
%MOMM*%
%LPD*%
G01*
G04 APERTURE LIST*
G04 Aperture macros list*
%AMRoundRect*
0 Rectangle with rounded corners*
0 $1 Rounding radius*
0 $2 $3 $4 $5 $6 $7 $8 $9 X,Y pos of 4 corners*
0 Add a 4 corners polygon primitive as box body*
4,1,4,$2,$3,$4,$5,$6,$7,$8,$9,$2,$3,0*
0 Add four circle primitives for the rounded corners*
1,1,$1+$1,$2,$3*
1,1,$1+$1,$4,$5*
1,1,$1+$1,$6,$7*
1,1,$1+$1,$8,$9*
0 Add four rect primitives between the rounded corners*
20,1,$1+$1,$2,$3,$4,$5,0*
20,1,$1+$1,$4,$5,$6,$7,0*
20,1,$1+$1,$6,$7,$8,$9,0*
20,1,$1+$1,$8,$9,$2,$3,0*%
G04 Aperture macros list end*
G04 #@! TA.AperFunction,ComponentPad*
%ADD10C,1.440000*%
G04 #@! TD*
G04 #@! TA.AperFunction,ComponentPad*
%ADD11C,7.000000*%
G04 #@! TD*
G04 #@! TA.AperFunction,ComponentPad*
%ADD12C,1.600000*%
G04 #@! TD*
G04 #@! TA.AperFunction,ComponentPad*
%ADD13C,1.500000*%
G04 #@! TD*
G04 #@! TA.AperFunction,ComponentPad*
%ADD14C,2.000000*%
G04 #@! TD*
G04 #@! TA.AperFunction,ComponentPad*
%ADD15R,1.800000X1.100000*%
G04 #@! TD*
G04 #@! TA.AperFunction,ComponentPad*
%ADD16RoundRect,0.275000X-0.625000X0.275000X-0.625000X-0.275000X0.625000X-0.275000X0.625000X0.275000X0*%
G04 #@! TD*
G04 #@! TA.AperFunction,ComponentPad*
%ADD17R,1.100000X1.800000*%
G04 #@! TD*
G04 #@! TA.AperFunction,ComponentPad*
%ADD18RoundRect,0.275000X-0.275000X-0.625000X0.275000X-0.625000X0.275000X0.625000X-0.275000X0.625000X0*%
G04 #@! TD*
G04 #@! TA.AperFunction,ComponentPad*
%ADD19R,1.700000X1.700000*%
G04 #@! TD*
G04 #@! TA.AperFunction,ComponentPad*
%ADD20C,1.700000*%
G04 #@! TD*
G04 #@! TA.AperFunction,ComponentPad*
%ADD21R,1.800000X1.800000*%
G04 #@! TD*
G04 #@! TA.AperFunction,ComponentPad*
%ADD22C,1.800000*%
G04 #@! TD*
G04 #@! TA.AperFunction,ViaPad*
%ADD23C,0.600000*%
G04 #@! TD*
G04 #@! TA.AperFunction,Conductor*
%ADD24C,0.200000*%
G04 #@! TD*
G04 APERTURE END LIST*
D10*
G04 #@! TO.P,RV1,1,1*
G04 #@! TO.N,unconnected-(RV1-Pad1)*
X27060000Y-52540000D03*
G04 #@! TO.P,RV1,2,2*
G04 #@! TO.N,Net-(J1-Pin_2)*
X29600000Y-50000000D03*
G04 #@! TO.P,RV1,3,3*
G04 #@! TO.N,Net-(D1-A)*
X27060000Y-47460000D03*
G04 #@! TD*
D11*
G04 #@! TO.P,REF\u002A\u002A,1*
G04 #@! TO.N,N/C*
X16500000Y-34500000D03*
G04 #@! TD*
D12*
G04 #@! TO.P,R3,1*
G04 #@! TO.N,Net-(Q2-C)*
X65500000Y-46000000D03*
G04 #@! TO.P,R3,2*
G04 #@! TO.N,Net-(Q1-B)*
X65500000Y-53620000D03*
G04 #@! TD*
D13*
G04 #@! TO.P,R2,1*
G04 #@! TO.N,Net-(Q1-C)*
X18050000Y-65000000D03*
G04 #@! TO.P,R2,2*
G04 #@! TO.N,Net-(BT1--)*
X14650000Y-65000000D03*
G04 #@! TD*
D14*
G04 #@! TO.P,SW1,1,1*
G04 #@! TO.N,Net-(R6-Pad1)*
X21000000Y-52000000D03*
X14500000Y-52000000D03*
G04 #@! TO.P,SW1,2,2*
G04 #@! TO.N,Net-(J1-Pin_2)*
X21000000Y-47500000D03*
X14500000Y-47500000D03*
G04 #@! TD*
D15*
G04 #@! TO.P,Q3,1,C*
G04 #@! TO.N,Net-(D1-K)*
X19830000Y-56730000D03*
D16*
G04 #@! TO.P,Q3,2,B*
G04 #@! TO.N,Net-(Q1-C)*
X21900000Y-58000000D03*
G04 #@! TO.P,Q3,3,E*
G04 #@! TO.N,Net-(Q3-E)*
X19830000Y-59270000D03*
G04 #@! TD*
D12*
G04 #@! TO.P,R1,1*
G04 #@! TO.N,Net-(J1-Pin_2)*
X65611846Y-42388154D03*
G04 #@! TO.P,R1,2*
G04 #@! TO.N,Net-(Q2-C)*
X71000000Y-37000000D03*
G04 #@! TD*
G04 #@! TO.P,R4,1*
G04 #@! TO.N,Net-(Q2-B)*
X71000000Y-62500000D03*
G04 #@! TO.P,R4,2*
G04 #@! TO.N,Net-(Q1-C)*
X65611846Y-57111846D03*
G04 #@! TD*
D17*
G04 #@! TO.P,Q2,1,C*
G04 #@! TO.N,Net-(Q2-C)*
X33460000Y-45900000D03*
D18*
G04 #@! TO.P,Q2,2,B*
G04 #@! TO.N,Net-(Q2-B)*
X34730000Y-43830000D03*
G04 #@! TO.P,Q2,3,E*
G04 #@! TO.N,Net-(BT1--)*
X36000000Y-45900000D03*
G04 #@! TD*
D19*
G04 #@! TO.P,J1,1,Pin_1*
G04 #@! TO.N,Net-(BT1-+)*
X36050000Y-49800000D03*
D20*
G04 #@! TO.P,J1,2,Pin_2*
G04 #@! TO.N,Net-(J1-Pin_2)*
X33510000Y-49800000D03*
G04 #@! TD*
D21*
G04 #@! TO.P,D1,1,K*
G04 #@! TO.N,Net-(D1-K)*
X77460000Y-46000000D03*
D22*
G04 #@! TO.P,D1,2,A*
G04 #@! TO.N,Net-(D1-A)*
X80000000Y-46000000D03*
G04 #@! TD*
D15*
G04 #@! TO.P,Q1,1,C*
G04 #@! TO.N,Net-(Q1-C)*
X19830000Y-40730000D03*
D16*
G04 #@! TO.P,Q1,2,B*
G04 #@! TO.N,Net-(Q1-B)*
X21900000Y-42000000D03*
G04 #@! TO.P,Q1,3,E*
G04 #@! TO.N,Net-(BT1--)*
X19830000Y-43270000D03*
G04 #@! TD*
D12*
G04 #@! TO.P,R5,1*
G04 #@! TO.N,Net-(D1-A)*
X63550000Y-36950000D03*
G04 #@! TO.P,R5,2*
G04 #@! TO.N,Net-(Q1-C)*
X55930000Y-36950000D03*
G04 #@! TD*
G04 #@! TO.P,R6,1*
G04 #@! TO.N,Net-(R6-Pad1)*
X55880000Y-62900000D03*
G04 #@! TO.P,R6,2*
G04 #@! TO.N,Net-(Q2-B)*
X63500000Y-62900000D03*
G04 #@! TD*
G04 #@! TO.P,R7,1*
G04 #@! TO.N,Net-(BT1--)*
X38050000Y-55000000D03*
G04 #@! TO.P,R7,2*
G04 #@! TO.N,Net-(Q3-E)*
X30430000Y-55000000D03*
G04 #@! TD*
D23*
G04 #@! TO.N,Net-(BT1-+)*
X38000000Y-47850000D03*
X44625000Y-39975000D03*
G04 #@! TO.N,Net-(BT1--)*
X31900000Y-48800000D03*
X28000000Y-49400000D03*
X40700000Y-54400000D03*
X28550000Y-50700000D03*
G04 #@! TO.N,Net-(D1-A)*
X36800000Y-48000000D03*
X60850000Y-36950000D03*
G04 #@! TO.N,Net-(J1-Pin_2)*
X58950000Y-43900000D03*
G04 #@! TO.N,Net-(Q1-B)*
X24200000Y-50750000D03*
X22250000Y-44350000D03*
X34150000Y-54800000D03*
G04 #@! TO.N,Net-(Q2-B)*
X29675000Y-46425000D03*
X58900000Y-51900000D03*
G04 #@! TO.N,Net-(Q2-C)*
X63225000Y-53625000D03*
X30100000Y-44150000D03*
X27350000Y-44400000D03*
X33300000Y-53450000D03*
X32250000Y-51850000D03*
G04 #@! TO.N,Net-(Q3-E)*
X26600000Y-57300000D03*
G04 #@! TO.N,Net-(R6-Pad1)*
X31350000Y-53350000D03*
X29700000Y-51850000D03*
G04 #@! TD*
D24*
G04 #@! TO.N,Net-(BT1-+)*
X38000000Y-47850000D02*
X38000000Y-46600000D01*
X44625000Y-39975000D02*
X44650000Y-39950000D01*
X38000000Y-46600000D02*
X44625000Y-39975000D01*
G04 #@! TO.N,Net-(BT1--)*
X14650000Y-56950000D02*
X13101000Y-55401000D01*
X34399000Y-47101000D02*
X36000000Y-45500000D01*
X14950000Y-43350000D02*
X20150000Y-43350000D01*
X14650000Y-65000000D02*
X14650000Y-56950000D01*
X13101000Y-43449000D02*
X13200000Y-43350000D01*
X28126248Y-43426248D02*
X31801000Y-47101000D01*
X28000000Y-50150000D02*
X28550000Y-50700000D01*
X38050000Y-55000000D02*
X40100000Y-55000000D01*
X34399000Y-47101000D02*
X32700000Y-48800000D01*
X20386248Y-43426248D02*
X28126248Y-43426248D01*
X20230000Y-43270000D02*
X20386248Y-43426248D01*
X40100000Y-55000000D02*
X40700000Y-54400000D01*
X32700000Y-48800000D02*
X31900000Y-48800000D01*
X31801000Y-47101000D02*
X34399000Y-47101000D01*
X13200000Y-43350000D02*
X14950000Y-43350000D01*
X28000000Y-49400000D02*
X28000000Y-50150000D01*
X13101000Y-55401000D02*
X13101000Y-43449000D01*
X20150000Y-43350000D02*
X20230000Y-43270000D01*
G04 #@! TO.N,Net-(D1-A)*
X36800000Y-46950057D02*
X44415628Y-39334429D01*
X66450000Y-36950000D02*
X63550000Y-36950000D01*
X36800000Y-48000000D02*
X36800000Y-46950057D01*
X44415628Y-39334429D02*
X58465571Y-39334429D01*
X58465571Y-39334429D02*
X60850000Y-36950000D01*
X73901000Y-40699000D02*
X72050000Y-42550000D01*
X80000000Y-46000000D02*
X74699000Y-40699000D01*
X74699000Y-40699000D02*
X73901000Y-40699000D01*
X72050000Y-42550000D02*
X66450000Y-36950000D01*
G04 #@! TO.N,Net-(D1-K)*
X20230000Y-56730000D02*
X20510000Y-56450000D01*
X20510000Y-56450000D02*
X28500000Y-56450000D01*
X70941000Y-52519000D02*
X77460000Y-46000000D01*
X30831000Y-52519000D02*
X70941000Y-52519000D01*
X28500000Y-54850000D02*
X30831000Y-52519000D01*
X28500000Y-56450000D02*
X28500000Y-54850000D01*
G04 #@! TO.N,Net-(J1-Pin_2)*
X14500000Y-47500000D02*
X21000000Y-47500000D01*
X34661000Y-48649000D02*
X33510000Y-49800000D01*
X58950000Y-43900000D02*
X54201000Y-48649000D01*
X54201000Y-48649000D02*
X34661000Y-48649000D01*
G04 #@! TO.N,Net-(Q1-B)*
X64320000Y-54800000D02*
X44450000Y-54800000D01*
X24200000Y-46300000D02*
X22250000Y-44350000D01*
X44450000Y-54800000D02*
X43101000Y-53451000D01*
X65500000Y-53620000D02*
X64320000Y-54800000D01*
X35499000Y-53451000D02*
X34150000Y-54800000D01*
X43101000Y-53451000D02*
X35499000Y-53451000D01*
X24200000Y-50750000D02*
X24200000Y-46300000D01*
G04 #@! TO.N,Net-(Q2-B)*
X33982240Y-51900000D02*
X58900000Y-51900000D01*
X29675000Y-47592760D02*
X33982240Y-51900000D01*
X63500000Y-62900000D02*
X70600000Y-62900000D01*
X70600000Y-62900000D02*
X71000000Y-62500000D01*
X29675000Y-46425000D02*
X29675000Y-47592760D01*
G04 #@! TO.N,Net-(Q2-C)*
X71000000Y-37000000D02*
X69849000Y-35849000D01*
X63225000Y-53625000D02*
X63250000Y-53650000D01*
X62449000Y-36493950D02*
X62449000Y-42949000D01*
X69849000Y-35849000D02*
X63093950Y-35849000D01*
X62449000Y-42949000D02*
X65500000Y-46000000D01*
X27350000Y-44400000D02*
X27350000Y-45834860D01*
X62650000Y-53050000D02*
X63225000Y-53625000D01*
X32250000Y-50734860D02*
X32250000Y-51850000D01*
X33300000Y-53450000D02*
X33700000Y-53050000D01*
X31450000Y-45500000D02*
X30100000Y-44150000D01*
X27350000Y-45834860D02*
X32250000Y-50734860D01*
X63093950Y-35849000D02*
X62449000Y-36493950D01*
X33460000Y-45500000D02*
X31450000Y-45500000D01*
X33700000Y-53050000D02*
X62650000Y-53050000D01*
G04 #@! TO.N,Net-(Q3-E)*
X20230000Y-59270000D02*
X24630000Y-59270000D01*
X24630000Y-59270000D02*
X26600000Y-57300000D01*
G04 #@! TO.N,Net-(R6-Pad1)*
X21649000Y-51351000D02*
X21000000Y-52000000D01*
X29700000Y-51850000D02*
X29201000Y-51351000D01*
X49080000Y-56100000D02*
X34100000Y-56100000D01*
X34100000Y-56100000D02*
X31350000Y-53350000D01*
X55880000Y-62900000D02*
X49080000Y-56100000D01*
X29201000Y-51351000D02*
X21649000Y-51351000D01*
X14500000Y-52000000D02*
X21000000Y-52000000D01*
G04 #@! TD*
M02*
