%TF.GenerationSoftware,KiCad,Pcbnew,9.0.2-2.fc42*%
%TF.CreationDate,2025-06-29T00:33:01+02:00*%
%TF.ProjectId,hack_solder,6861636b-5f73-46f6-9c64-65722e6b6963,rev?*%
%TF.SameCoordinates,Original*%
%TF.FileFunction,Drillmap*%
%TF.FilePolarity,Positive*%
%FSLAX45Y45*%
G04 Gerber Fmt 4.5, Leading zero omitted, Abs format (unit mm)*
G04 Created by KiCad (PCBNEW 9.0.2-2.fc42) date 2025-06-29 00:33:01*
%MOMM*%
%LPD*%
G01*
G04 APERTURE LIST*
%ADD10C,0.050000*%
%ADD11C,0.200000*%
G04 APERTURE END LIST*
D10*
X1250000Y-3500000D02*
X1250000Y-5000000D01*
X2500000Y-6000000D02*
X2496547Y-6005450D01*
X2493100Y-6010888D01*
X2489667Y-6016298D01*
X2486241Y-6021695D01*
X2482829Y-6027065D01*
X2479423Y-6032422D01*
X2476032Y-6037753D01*
X2472647Y-6043070D01*
X2469276Y-6048361D01*
X2465911Y-6053639D01*
X2462561Y-6058890D01*
X2459216Y-6064130D01*
X2455886Y-6069342D01*
X2452561Y-6074542D01*
X2449251Y-6079716D01*
X2445946Y-6084878D01*
X2442655Y-6090013D01*
X2439370Y-6095137D01*
X2436099Y-6100234D01*
X2432834Y-6105319D01*
X2429583Y-6110379D01*
X2426337Y-6115427D01*
X2423105Y-6120449D01*
X2419878Y-6125459D01*
X2416665Y-6130443D01*
X2413458Y-6135416D01*
X2410265Y-6140364D01*
X2407076Y-6145299D01*
X2403902Y-6150210D01*
X2400732Y-6155109D01*
X2397577Y-6159984D01*
X2394426Y-6164846D01*
X2391289Y-6169684D01*
X2388158Y-6174511D01*
X2385039Y-6179313D01*
X2381926Y-6184103D01*
X2378826Y-6188869D01*
X2375731Y-6193624D01*
X2372650Y-6198355D01*
X2369574Y-6203074D01*
X2366510Y-6207769D01*
X2363452Y-6212453D01*
X2360407Y-6217113D01*
X2357367Y-6221762D01*
X2354339Y-6226388D01*
X2351317Y-6231002D01*
X2348308Y-6235593D01*
X2345303Y-6240173D01*
X2342312Y-6244729D01*
X2339325Y-6249275D01*
X2336351Y-6253797D01*
X2333382Y-6258309D01*
X2330425Y-6262797D01*
X2327474Y-6267275D01*
X2324535Y-6271730D01*
X2321600Y-6276174D01*
X2318679Y-6280596D01*
X2315761Y-6285006D01*
X2312857Y-6289395D01*
X2309957Y-6293772D01*
X2307069Y-6298128D01*
X2304186Y-6302472D01*
X2301315Y-6306795D01*
X2298449Y-6311107D01*
X2295595Y-6315397D01*
X2292746Y-6319677D01*
X2289909Y-6323934D01*
X2287076Y-6328182D01*
X2284255Y-6332407D01*
X2281439Y-6336623D01*
X2278635Y-6340816D01*
X2275835Y-6345000D01*
X2273047Y-6349162D01*
X2270264Y-6353314D01*
X2267493Y-6357445D01*
X2264725Y-6361565D01*
X2261970Y-6365665D01*
X2259219Y-6369754D01*
X2256480Y-6373822D01*
X2253745Y-6377881D01*
X2251021Y-6381918D01*
X2248302Y-6385946D01*
X2245595Y-6389953D01*
X2242891Y-6393950D01*
X2240199Y-6397926D01*
X2237512Y-6401893D01*
X2234836Y-6405840D01*
X2232164Y-6409776D01*
X2229503Y-6413692D01*
X2226847Y-6417599D01*
X2224201Y-6421485D01*
X2221560Y-6425362D01*
X2218930Y-6429219D01*
X2216305Y-6433066D01*
X2213690Y-6436894D01*
X2211079Y-6440712D01*
X2208480Y-6444510D01*
X2205884Y-6448298D01*
X2203300Y-6452068D01*
X2200719Y-6455827D01*
X2198150Y-6459568D01*
X2195584Y-6463299D01*
X2193030Y-6467010D01*
X2190479Y-6470712D01*
X2187939Y-6474396D01*
X2185403Y-6478070D01*
X2182878Y-6481724D01*
X2180356Y-6485370D01*
X2177845Y-6488997D01*
X2175339Y-6492614D01*
X2172842Y-6496213D01*
X2170350Y-6499803D01*
X2167868Y-6503374D01*
X2165390Y-6506936D01*
X2162922Y-6510480D01*
X2160459Y-6514014D01*
X2158005Y-6517531D01*
X2155556Y-6521038D01*
X2153116Y-6524527D01*
X2150681Y-6528007D01*
X2148256Y-6531469D01*
X2145834Y-6534922D01*
X2143423Y-6538357D01*
X2141015Y-6541783D01*
X2138618Y-6545192D01*
X2136224Y-6548591D01*
X2133840Y-6551973D01*
X2131460Y-6555346D01*
X2129090Y-6558702D01*
X2126724Y-6562049D01*
X2124367Y-6565378D01*
X2122014Y-6568699D01*
X2119671Y-6572003D01*
X2117332Y-6575298D01*
X2115003Y-6578575D01*
X2112677Y-6581844D01*
X2110360Y-6585096D01*
X2108048Y-6588340D01*
X2105745Y-6591566D01*
X2103445Y-6594784D01*
X2101156Y-6597985D01*
X2098869Y-6601178D01*
X2096593Y-6604354D01*
X2094319Y-6607522D01*
X2092056Y-6610673D01*
X2089796Y-6613815D01*
X2087545Y-6616942D01*
X2085298Y-6620059D01*
X2083060Y-6623161D01*
X2080825Y-6626254D01*
X2078600Y-6629331D01*
X2076378Y-6632400D01*
X2074166Y-6635452D01*
X2071957Y-6638497D01*
X2069757Y-6641525D01*
X2067561Y-6644545D01*
X2065373Y-6647550D01*
X2063190Y-6650546D01*
X2061015Y-6653526D01*
X2058843Y-6656499D01*
X2056681Y-6659455D01*
X2054522Y-6662404D01*
X2052372Y-6665337D01*
X2050225Y-6668262D01*
X2048087Y-6671172D01*
X2045952Y-6674073D01*
X2043827Y-6676960D01*
X2041704Y-6679838D01*
X2039591Y-6682701D01*
X2037480Y-6685556D01*
X2035379Y-6688397D01*
X2033280Y-6691229D01*
X2031191Y-6694046D01*
X2029104Y-6696856D01*
X2027026Y-6699650D01*
X2024952Y-6702437D01*
X2022886Y-6705209D01*
X2020823Y-6707974D01*
X2018769Y-6710723D01*
X2016718Y-6713465D01*
X2014675Y-6716193D01*
X2012636Y-6718912D01*
X2010605Y-6721617D01*
X2008577Y-6724315D01*
X2006557Y-6726998D01*
X2004541Y-6729674D01*
X2002533Y-6732335D01*
X2000528Y-6734989D01*
X1998531Y-6737629D01*
X1996538Y-6740261D01*
X1994553Y-6742879D01*
X1992570Y-6745489D01*
X1990596Y-6748086D01*
X1988625Y-6750675D01*
X1986662Y-6753251D01*
X1984703Y-6755819D01*
X1982751Y-6758373D01*
X1980802Y-6760919D01*
X1978861Y-6763453D01*
X1976924Y-6765978D01*
X1974994Y-6768491D01*
X1973067Y-6770996D01*
X1971148Y-6773487D01*
X1969232Y-6775971D01*
X1967324Y-6778442D01*
X1965419Y-6780906D01*
X1963522Y-6783356D01*
X1961628Y-6785799D01*
X1959741Y-6788229D01*
X1957858Y-6790652D01*
X1955982Y-6793061D01*
X1954109Y-6795464D01*
X1952244Y-6797853D01*
X1950382Y-6800236D01*
X1948527Y-6802605D01*
X1946675Y-6804968D01*
X1944831Y-6807318D01*
X1942990Y-6809660D01*
X1941156Y-6811990D01*
X1939325Y-6814313D01*
X1937502Y-6816624D01*
X1935681Y-6818927D01*
X1933868Y-6821218D01*
X1932058Y-6823502D01*
X1930255Y-6825773D01*
X1928455Y-6828038D01*
X1926662Y-6830290D01*
X1924872Y-6832536D01*
X1923090Y-6834769D01*
X1921310Y-6836995D01*
X1919537Y-6839209D01*
X1917768Y-6841417D01*
X1916005Y-6843612D01*
X1914245Y-6845801D01*
X1912493Y-6847977D01*
X1910743Y-6850147D01*
X1909000Y-6852305D01*
X1907260Y-6854456D01*
X1905527Y-6856595D01*
X1903797Y-6858728D01*
X1902074Y-6860849D01*
X1900353Y-6862964D01*
X1898640Y-6865066D01*
X1896929Y-6867162D01*
X1895225Y-6869247D01*
X1893524Y-6871325D01*
X1891830Y-6873391D01*
X1890139Y-6875451D01*
X1888454Y-6877500D01*
X1886772Y-6879542D01*
X1885097Y-6881573D01*
X1883424Y-6883597D01*
X1881759Y-6885610D01*
X1880096Y-6887617D01*
X1878439Y-6889612D01*
X1876785Y-6891601D01*
X1875138Y-6893579D01*
X1873494Y-6895551D01*
X1871856Y-6897511D01*
X1870221Y-6899465D01*
X1868593Y-6901409D01*
X1866967Y-6903346D01*
X1865347Y-6905272D01*
X1863730Y-6907192D01*
X1862120Y-6909101D01*
X1860512Y-6911004D01*
X1858911Y-6912896D01*
X1857312Y-6914782D01*
X1855720Y-6916657D01*
X1854131Y-6918526D01*
X1852547Y-6920385D01*
X1850967Y-6922238D01*
X1849392Y-6924080D01*
X1847820Y-6925916D01*
X1846255Y-6927741D01*
X1844692Y-6929561D01*
X1843135Y-6931370D01*
X1841581Y-6933173D01*
X1840033Y-6934966D01*
X1838487Y-6936753D01*
X1836948Y-6938529D01*
X1835411Y-6940300D01*
X1833881Y-6942060D01*
X1832353Y-6943815D01*
X1830831Y-6945560D01*
X1829311Y-6947298D01*
X1827798Y-6949027D01*
X1826287Y-6950750D01*
X1824782Y-6952463D01*
X1823279Y-6954170D01*
X1821783Y-6955867D01*
X1820288Y-6957559D01*
X1818800Y-6959241D01*
X1817315Y-6960917D01*
X1815835Y-6962583D01*
X1814357Y-6964243D01*
X1812886Y-6965894D01*
X1811417Y-6967539D01*
X1809954Y-6969175D01*
X1808493Y-6970805D01*
X1807038Y-6972425D01*
X1805585Y-6974040D01*
X1804139Y-6975645D01*
X1802694Y-6977245D01*
X1801255Y-6978836D01*
X1799819Y-6980421D01*
X1798389Y-6981996D01*
X1796960Y-6983566D01*
X1795538Y-6985127D01*
X1794117Y-6986682D01*
X1792703Y-6988228D01*
X1791290Y-6989769D01*
X1789884Y-6991300D01*
X1788479Y-6992826D01*
X1787081Y-6994343D01*
X1785684Y-6995854D01*
X1784293Y-6997357D01*
X1782904Y-6998854D01*
X1781521Y-7000342D01*
X1780140Y-7001825D01*
X1778765Y-7003299D01*
X1777392Y-7004768D01*
X1776024Y-7006228D01*
X1774659Y-7007683D01*
X1773299Y-7009128D01*
X1771941Y-7010569D01*
X1770589Y-7012001D01*
X1769239Y-7013428D01*
X1767894Y-7014846D01*
X1766551Y-7016259D01*
X1765214Y-7017663D01*
X1763879Y-7019062D01*
X1762549Y-7020453D01*
X1761222Y-7021839D01*
X1759899Y-7023216D01*
X1758579Y-7024588D01*
X1757264Y-7025951D01*
X1755952Y-7027310D01*
X1754644Y-7028660D01*
X1753339Y-7030005D01*
X1752039Y-7031342D01*
X1750740Y-7032674D01*
X1749448Y-7033998D01*
X1748157Y-7035317D01*
X1746871Y-7036627D01*
X1745588Y-7037933D01*
X1744309Y-7039230D01*
X1743033Y-7040523D01*
X1741762Y-7041808D01*
X1740492Y-7043087D01*
X1739228Y-7044359D01*
X1737966Y-7045626D01*
X1736709Y-7046885D01*
X1735454Y-7048139D01*
X1734204Y-7049385D01*
X1732956Y-7050627D01*
X1731713Y-7051860D01*
X1730472Y-7053089D01*
X1729236Y-7054310D01*
X1728001Y-7055526D01*
X1726772Y-7056735D01*
X1725545Y-7057939D01*
X1724323Y-7059135D01*
X1723102Y-7060327D01*
X1721887Y-7061511D01*
X1720674Y-7062690D01*
X1719465Y-7063862D01*
X1718258Y-7065029D01*
X1717056Y-7066189D01*
X1715856Y-7067344D01*
X1714661Y-7068491D01*
X1713468Y-7069634D01*
X1712280Y-7070770D01*
X1711093Y-7071901D01*
X1709911Y-7073025D01*
X1708731Y-7074144D01*
X1707556Y-7075256D01*
X1706383Y-7076364D01*
X1705214Y-7077464D01*
X1704047Y-7078560D01*
X1702885Y-7079649D01*
X1701725Y-7080733D01*
X1700569Y-7081810D01*
X1699415Y-7082883D01*
X1698266Y-7083948D01*
X1697119Y-7085009D01*
X1695976Y-7086064D01*
X1694835Y-7087114D01*
X1693699Y-7088156D01*
X1692564Y-7089195D01*
X1691434Y-7090227D01*
X1690306Y-7091254D01*
X1689182Y-7092275D01*
X1688060Y-7093291D01*
X1686943Y-7094300D01*
X1685827Y-7095305D01*
X1684716Y-7096304D01*
X1683607Y-7097298D01*
X1682502Y-7098285D01*
X1681399Y-7099269D01*
X1680300Y-7100245D01*
X1679203Y-7101218D01*
X1678110Y-7102183D01*
X1677019Y-7103145D01*
X1675932Y-7104100D01*
X1674847Y-7105051D01*
X1673767Y-7105995D01*
X1672688Y-7106936D01*
X1671614Y-7107870D01*
X1670541Y-7108799D01*
X1669472Y-7109723D01*
X1668405Y-7110642D01*
X1667343Y-7111555D01*
X1666282Y-7112464D01*
X1665225Y-7113367D01*
X1664170Y-7114265D01*
X1663120Y-7115158D01*
X1662070Y-7116046D01*
X1661026Y-7116928D01*
X1659982Y-7117806D01*
X1658943Y-7118678D01*
X1657906Y-7119546D01*
X1656872Y-7120408D01*
X1655841Y-7121266D01*
X1654813Y-7122118D01*
X1653787Y-7122966D01*
X1652765Y-7123808D01*
X1651745Y-7124646D01*
X1650729Y-7125478D01*
X1649714Y-7126307D01*
X1648704Y-7127129D01*
X1647695Y-7127948D01*
X1646690Y-7128760D01*
X1645687Y-7129569D01*
X1644687Y-7130372D01*
X1643689Y-7131171D01*
X1642696Y-7131965D01*
X1641703Y-7132755D01*
X1640715Y-7133538D01*
X1639728Y-7134319D01*
X1638746Y-7135093D01*
X1637764Y-7135864D01*
X1636787Y-7136629D01*
X1635811Y-7137390D01*
X1634839Y-7138146D01*
X1633869Y-7138898D01*
X1632902Y-7139645D01*
X1631937Y-7140388D01*
X1630976Y-7141125D01*
X1630016Y-7141859D01*
X1629061Y-7142587D01*
X1628106Y-7143312D01*
X1627156Y-7144031D01*
X1626207Y-7144747D01*
X1625261Y-7145457D01*
X1624317Y-7146163D01*
X1623377Y-7146865D01*
X1622439Y-7147562D01*
X1621504Y-7148255D01*
X1620570Y-7148944D01*
X1619641Y-7149627D01*
X1618712Y-7150308D01*
X1617788Y-7150982D01*
X1616865Y-7151654D01*
X1615945Y-7152320D01*
X1615027Y-7152983D01*
X1614113Y-7153641D01*
X1613200Y-7154295D01*
X1612290Y-7154944D01*
X1611382Y-7155590D01*
X1610478Y-7156230D01*
X1609575Y-7156868D01*
X1608675Y-7157500D01*
X1607777Y-7158129D01*
X1606883Y-7158752D01*
X1605990Y-7159373D01*
X1605100Y-7159988D01*
X1604212Y-7160601D01*
X1603327Y-7161208D01*
X1602444Y-7161812D01*
X1601564Y-7162411D01*
X1600686Y-7163007D01*
X1599811Y-7163598D01*
X1598937Y-7164186D01*
X1598067Y-7164769D01*
X1597198Y-7165349D01*
X1596333Y-7165923D01*
X1595469Y-7166495D01*
X1594608Y-7167062D01*
X1593749Y-7167626D01*
X1592893Y-7168185D01*
X1592038Y-7168741D01*
X1591187Y-7169293D01*
X1590337Y-7169841D01*
X1589490Y-7170384D01*
X1588645Y-7170925D01*
X1587803Y-7171460D01*
X1586962Y-7171993D01*
X1586125Y-7172521D01*
X1585288Y-7173046D01*
X1584456Y-7173567D01*
X1583624Y-7174085D01*
X1582796Y-7174598D01*
X1581969Y-7175108D01*
X1581145Y-7175613D01*
X1580322Y-7176116D01*
X1579503Y-7176614D01*
X1578685Y-7177109D01*
X1577870Y-7177600D01*
X1577056Y-7178087D01*
X1576246Y-7178571D01*
X1575436Y-7179051D01*
X1574630Y-7179528D01*
X1573825Y-7180001D01*
X1573024Y-7180470D01*
X1572223Y-7180936D01*
X1571426Y-7181397D01*
X1570629Y-7181856D01*
X1569836Y-7182311D01*
X1569044Y-7182763D01*
X1568255Y-7183210D01*
X1567468Y-7183655D01*
X1566683Y-7184096D01*
X1565900Y-7184534D01*
X1565119Y-7184967D01*
X1564340Y-7185398D01*
X1563564Y-7185825D01*
X1562789Y-7186249D01*
X1562017Y-7186669D01*
X1561246Y-7187086D01*
X1560478Y-7187499D01*
X1559711Y-7187909D01*
X1558948Y-7188316D01*
X1558185Y-7188719D01*
X1557425Y-7189119D01*
X1556667Y-7189516D01*
X1555911Y-7189909D01*
X1555157Y-7190299D01*
X1554405Y-7190686D01*
X1553654Y-7191070D01*
X1552907Y-7191450D01*
X1552160Y-7191827D01*
X1551417Y-7192200D01*
X1550674Y-7192571D01*
X1549934Y-7192938D01*
X1549196Y-7193302D01*
X1548460Y-7193663D01*
X1547725Y-7194021D01*
X1546993Y-7194375D01*
X1546263Y-7194727D01*
X1545535Y-7195075D01*
X1544808Y-7195420D01*
X1544083Y-7195761D01*
X1543360Y-7196101D01*
X1542640Y-7196436D01*
X1541921Y-7196769D01*
X1541204Y-7197098D01*
X1540488Y-7197425D01*
X1539776Y-7197748D01*
X1539064Y-7198069D01*
X1538355Y-7198386D01*
X1537646Y-7198700D01*
X1536941Y-7199011D01*
X1536237Y-7199320D01*
X1535535Y-7199625D01*
X1534834Y-7199927D01*
X1534136Y-7200227D01*
X1533439Y-7200523D01*
X1532745Y-7200816D01*
X1532051Y-7201107D01*
X1531360Y-7201395D01*
X1530670Y-7201679D01*
X1529983Y-7201961D01*
X1529297Y-7202240D01*
X1528613Y-7202516D01*
X1527930Y-7202789D01*
X1527250Y-7203059D01*
X1526571Y-7203327D01*
X1525894Y-7203591D01*
X1525218Y-7203853D01*
X1524545Y-7204112D01*
X1523873Y-7204368D01*
X1523203Y-7204622D01*
X1522534Y-7204872D01*
X1521867Y-7205120D01*
X1521202Y-7205365D01*
X1520539Y-7205607D01*
X1519877Y-7205847D01*
X1519217Y-7206084D01*
X1518558Y-7206318D01*
X1517902Y-7206549D01*
X1517247Y-7206778D01*
X1516594Y-7207004D01*
X1515941Y-7207227D01*
X1515292Y-7207447D01*
X1514643Y-7207665D01*
X1513996Y-7207881D01*
X1513351Y-7208093D01*
X1512708Y-7208303D01*
X1512065Y-7208511D01*
X1511425Y-7208715D01*
X1510786Y-7208917D01*
X1510149Y-7209117D01*
X1509513Y-7209314D01*
X1508880Y-7209508D01*
X1508247Y-7209700D01*
X1507616Y-7209889D01*
X1506987Y-7210076D01*
X1506359Y-7210260D01*
X1505733Y-7210441D01*
X1505108Y-7210620D01*
X1504485Y-7210797D01*
X1503863Y-7210971D01*
X1503243Y-7211142D01*
X1502625Y-7211311D01*
X1502007Y-7211478D01*
X1501392Y-7211642D01*
X1500778Y-7211803D01*
X1500165Y-7211962D01*
X1499554Y-7212119D01*
X1498945Y-7212273D01*
X1498336Y-7212425D01*
X1497730Y-7212574D01*
X1497124Y-7212721D01*
X1496521Y-7212866D01*
X1495918Y-7213008D01*
X1495317Y-7213147D01*
X1494718Y-7213285D01*
X1494120Y-7213420D01*
X1493523Y-7213552D01*
X1492928Y-7213682D01*
X1492334Y-7213810D01*
X1491742Y-7213936D01*
X1491151Y-7214059D01*
X1490561Y-7214180D01*
X1489973Y-7214298D01*
X1489386Y-7214414D01*
X1488800Y-7214528D01*
X1488217Y-7214640D01*
X1487634Y-7214749D01*
X1487052Y-7214856D01*
X1486472Y-7214961D01*
X1485894Y-7215063D01*
X1485316Y-7215163D01*
X1484740Y-7215261D01*
X1484165Y-7215357D01*
X1483592Y-7215450D01*
X1483020Y-7215541D01*
X1482449Y-7215630D01*
X1481880Y-7215717D01*
X1481312Y-7215801D01*
X1480745Y-7215883D01*
X1480179Y-7215963D01*
X1479615Y-7216041D01*
X1479052Y-7216117D01*
X1478490Y-7216190D01*
X1477930Y-7216262D01*
X1477370Y-7216331D01*
X1476812Y-7216398D01*
X1476255Y-7216462D01*
X1475700Y-7216525D01*
X1475145Y-7216585D01*
X1474593Y-7216644D01*
X1474040Y-7216700D01*
X1473490Y-7216754D01*
X1472940Y-7216806D01*
X1472392Y-7216855D01*
X1471845Y-7216903D01*
X1471299Y-7216949D01*
X1470754Y-7216992D01*
X1470211Y-7217033D01*
X1469668Y-7217073D01*
X1469127Y-7217110D01*
X1468587Y-7217145D01*
X1468048Y-7217178D01*
X1467511Y-7217209D01*
X1466974Y-7217238D01*
X1466438Y-7217264D01*
X1465904Y-7217289D01*
X1465371Y-7217312D01*
X1464839Y-7217332D01*
X1464308Y-7217351D01*
X1463778Y-7217367D01*
X1463249Y-7217382D01*
X1462722Y-7217394D01*
X1462195Y-7217405D01*
X1461670Y-7217413D01*
X1461145Y-7217420D01*
X1460622Y-7217424D01*
X1460099Y-7217426D01*
X1459578Y-7217427D01*
X1459058Y-7217425D01*
X1458539Y-7217421D01*
X1458021Y-7217416D01*
X1457504Y-7217408D01*
X1456988Y-7217399D01*
X1456473Y-7217387D01*
X1455959Y-7217373D01*
X1455446Y-7217358D01*
X1454934Y-7217340D01*
X1454423Y-7217321D01*
X1453913Y-7217299D01*
X1453404Y-7217276D01*
X1452896Y-7217251D01*
X1452389Y-7217223D01*
X1451883Y-7217194D01*
X1451378Y-7217163D01*
X1450874Y-7217130D01*
X1450371Y-7217095D01*
X1449869Y-7217058D01*
X1449368Y-7217019D01*
X1448867Y-7216978D01*
X1448368Y-7216935D01*
X1447870Y-7216890D01*
X1447372Y-7216843D01*
X1446876Y-7216795D01*
X1446380Y-7216744D01*
X1445885Y-7216692D01*
X1445392Y-7216637D01*
X1444899Y-7216581D01*
X1444407Y-7216523D01*
X1443916Y-7216463D01*
X1443426Y-7216401D01*
X1442936Y-7216337D01*
X1442448Y-7216271D01*
X1441960Y-7216203D01*
X1441474Y-7216134D01*
X1440988Y-7216062D01*
X1440503Y-7215989D01*
X1440018Y-7215914D01*
X1439535Y-7215836D01*
X1439053Y-7215757D01*
X1438571Y-7215676D01*
X1438090Y-7215594D01*
X1437610Y-7215509D01*
X1437131Y-7215422D01*
X1436653Y-7215334D01*
X1436175Y-7215243D01*
X1435699Y-7215151D01*
X1435223Y-7215057D01*
X1434748Y-7214961D01*
X1434273Y-7214863D01*
X1433800Y-7214763D01*
X1433327Y-7214661D01*
X1432855Y-7214558D01*
X1432384Y-7214452D01*
X1431913Y-7214345D01*
X1431443Y-7214236D01*
X1430974Y-7214125D01*
X1430506Y-7214012D01*
X1430039Y-7213897D01*
X1429572Y-7213780D01*
X1429106Y-7213662D01*
X1428641Y-7213541D01*
X1428176Y-7213419D01*
X1427712Y-7213295D01*
X1427249Y-7213168D01*
X1426787Y-7213040D01*
X1426325Y-7212911D01*
X1425864Y-7212779D01*
X1425404Y-7212645D01*
X1424945Y-7212510D01*
X1424486Y-7212372D01*
X1424027Y-7212233D01*
X1423570Y-7212092D01*
X1423113Y-7211949D01*
X1422657Y-7211804D01*
X1422202Y-7211657D01*
X1421293Y-7211358D01*
X1420386Y-7211051D01*
X1419482Y-7210737D01*
X1418581Y-7210415D01*
X1417682Y-7210085D01*
X1416786Y-7209748D01*
X1415892Y-7209403D01*
X1415001Y-7209051D01*
X1414112Y-7208691D01*
X1413225Y-7208323D01*
X1412341Y-7207947D01*
X1411459Y-7207564D01*
X1410579Y-7207173D01*
X1409702Y-7206774D01*
X1408827Y-7206368D01*
X1407953Y-7205954D01*
X1407082Y-7205531D01*
X1406214Y-7205101D01*
X1405347Y-7204664D01*
X1404482Y-7204218D01*
X1403619Y-7203764D01*
X1402759Y-7203302D01*
X1401900Y-7202832D01*
X1401043Y-7202355D01*
X1400188Y-7201869D01*
X1399336Y-7201375D01*
X1398485Y-7200872D01*
X1397635Y-7200362D01*
X1396788Y-7199843D01*
X1395943Y-7199316D01*
X1395099Y-7198781D01*
X1394257Y-7198238D01*
X1393417Y-7197686D01*
X1392578Y-7197125D01*
X1391741Y-7196556D01*
X1390906Y-7195979D01*
X1390073Y-7195393D01*
X1389241Y-7194798D01*
X1388411Y-7194195D01*
X1387582Y-7193583D01*
X1386755Y-7192962D01*
X1385930Y-7192332D01*
X1385106Y-7191694D01*
X1384284Y-7191046D01*
X1383463Y-7190390D01*
X1382644Y-7189725D01*
X1381826Y-7189050D01*
X1381010Y-7188366D01*
X1380195Y-7187673D01*
X1379382Y-7186971D01*
X1378570Y-7186260D01*
X1377759Y-7185539D01*
X1376950Y-7184808D01*
X1376143Y-7184068D01*
X1375337Y-7183319D01*
X1374532Y-7182560D01*
X1373728Y-7181791D01*
X1372926Y-7181012D01*
X1372125Y-7180224D01*
X1371326Y-7179426D01*
X1370528Y-7178617D01*
X1369731Y-7177799D01*
X1368936Y-7176970D01*
X1368142Y-7176132D01*
X1367349Y-7175283D01*
X1366557Y-7174424D01*
X1365767Y-7173554D01*
X1364978Y-7172674D01*
X1364191Y-7171783D01*
X1363405Y-7170882D01*
X1362620Y-7169970D01*
X1361836Y-7169047D01*
X1361054Y-7168114D01*
X1360273Y-7167169D01*
X1359493Y-7166214D01*
X1358714Y-7165247D01*
X1357937Y-7164269D01*
X1357161Y-7163280D01*
X1356386Y-7162279D01*
X1355613Y-7161268D01*
X1354841Y-7160244D01*
X1354070Y-7159209D01*
X1353300Y-7158163D01*
X1352532Y-7157104D01*
X1351765Y-7156034D01*
X1350999Y-7154952D01*
X1350235Y-7153858D01*
X1349472Y-7152751D01*
X1348710Y-7151633D01*
X1347950Y-7150502D01*
X1347190Y-7149359D01*
X1346433Y-7148203D01*
X1345676Y-7147035D01*
X1344921Y-7145854D01*
X1344167Y-7144660D01*
X1343415Y-7143453D01*
X1342664Y-7142234D01*
X1341914Y-7141001D01*
X1341165Y-7139755D01*
X1340419Y-7138496D01*
X1339673Y-7137224D01*
X1338929Y-7135938D01*
X1338186Y-7134639D01*
X1337445Y-7133326D01*
X1336705Y-7131999D01*
X1335966Y-7130659D01*
X1335229Y-7129304D01*
X1334494Y-7127936D01*
X1333760Y-7126553D01*
X1333027Y-7125156D01*
X1332296Y-7123744D01*
X1331566Y-7122319D01*
X1330838Y-7120878D01*
X1330112Y-7119423D01*
X1329387Y-7117953D01*
X1328664Y-7116468D01*
X1327942Y-7114968D01*
X1327222Y-7113453D01*
X1326503Y-7111923D01*
X1325786Y-7110377D01*
X1325071Y-7108816D01*
X1324357Y-7107239D01*
X1323646Y-7105647D01*
X1322935Y-7104039D01*
X1322227Y-7102414D01*
X1321520Y-7100774D01*
X1320815Y-7099118D01*
X1320112Y-7097445D01*
X1319411Y-7095756D01*
X1318711Y-7094050D01*
X1318013Y-7092328D01*
X1317317Y-7090589D01*
X1316623Y-7088833D01*
X1315931Y-7087060D01*
X1315241Y-7085270D01*
X1314552Y-7083463D01*
X1313866Y-7081638D01*
X1313181Y-7079796D01*
X1312499Y-7077936D01*
X1311819Y-7076059D01*
X1311140Y-7074163D01*
X1310464Y-7072249D01*
X1309790Y-7070318D01*
X1309117Y-7068368D01*
X1308447Y-7066399D01*
X1307779Y-7064412D01*
X1307114Y-7062407D01*
X1306450Y-7060382D01*
X1305789Y-7058339D01*
X1305130Y-7056276D01*
X1304473Y-7054195D01*
X1303819Y-7052094D01*
X1303166Y-7049973D01*
X1302516Y-7047833D01*
X1301869Y-7045673D01*
X1301224Y-7043493D01*
X1300581Y-7041293D01*
X1299941Y-7039073D01*
X1299303Y-7036833D01*
X1298668Y-7034572D01*
X1298035Y-7032290D01*
X1297405Y-7029988D01*
X1296777Y-7027664D01*
X1296152Y-7025320D01*
X1295530Y-7022955D01*
X1294910Y-7020568D01*
X1294293Y-7018159D01*
X1293679Y-7015729D01*
X1293067Y-7013277D01*
X1292458Y-7010803D01*
X1291852Y-7008307D01*
X1291249Y-7005789D01*
X1290649Y-7003248D01*
X1290051Y-7000685D01*
X1289457Y-6998099D01*
X1288865Y-6995490D01*
X1288277Y-6992858D01*
X1287691Y-6990202D01*
X1287109Y-6987524D01*
X1286529Y-6984821D01*
X1285953Y-6982095D01*
X1285380Y-6979345D01*
X1284809Y-6976572D01*
X1284243Y-6973773D01*
X1283679Y-6970951D01*
X1283119Y-6968104D01*
X1282562Y-6965232D01*
X1282008Y-6962335D01*
X1281457Y-6959414D01*
X1280910Y-6956467D01*
X1280367Y-6953494D01*
X1279827Y-6950496D01*
X1279290Y-6947472D01*
X1278757Y-6944422D01*
X1278228Y-6941347D01*
X1277702Y-6938244D01*
X1277179Y-6935116D01*
X1276661Y-6931960D01*
X1276146Y-6928778D01*
X1275635Y-6925569D01*
X1275127Y-6922332D01*
X1274624Y-6919068D01*
X1274124Y-6915777D01*
X1273628Y-6912458D01*
X1273136Y-6909110D01*
X1272648Y-6905735D01*
X1272164Y-6902331D01*
X1271684Y-6898898D01*
X1271208Y-6895437D01*
X1270736Y-6891947D01*
X1270268Y-6888428D01*
X1269805Y-6884879D01*
X1269346Y-6881301D01*
X1268890Y-6877692D01*
X1268440Y-6874054D01*
X1267993Y-6870386D01*
X1267551Y-6866687D01*
X1267113Y-6862958D01*
X1266680Y-6859198D01*
X1266251Y-6855407D01*
X1265827Y-6851584D01*
X1265407Y-6847730D01*
X1264992Y-6843844D01*
X1264582Y-6839927D01*
X1264176Y-6835977D01*
X1263775Y-6831995D01*
X1263379Y-6827981D01*
X1262987Y-6823933D01*
X1262601Y-6819853D01*
X1262219Y-6815739D01*
X1261842Y-6811592D01*
X1261470Y-6807410D01*
X1261104Y-6803195D01*
X1260742Y-6798946D01*
X1260385Y-6794663D01*
X1260034Y-6790344D01*
X1259687Y-6785991D01*
X1259346Y-6781602D01*
X1259011Y-6777178D01*
X1258680Y-6772719D01*
X1258355Y-6768223D01*
X1258035Y-6763691D01*
X1257721Y-6759123D01*
X1257412Y-6754518D01*
X1257109Y-6749876D01*
X1256812Y-6745197D01*
X1256520Y-6740481D01*
X1256233Y-6735726D01*
X1255953Y-6730934D01*
X1255678Y-6726103D01*
X1255409Y-6721234D01*
X1255146Y-6716326D01*
X1254889Y-6711378D01*
X1254637Y-6706391D01*
X1254392Y-6701365D01*
X1254153Y-6696298D01*
X1253920Y-6691192D01*
X1253693Y-6686044D01*
X1253473Y-6680856D01*
X1253258Y-6675627D01*
X1253050Y-6670356D01*
X1252849Y-6665043D01*
X1252653Y-6659689D01*
X1252464Y-6654291D01*
X1252282Y-6648852D01*
X1252106Y-6643369D01*
X1251937Y-6637843D01*
X1251775Y-6632273D01*
X1251619Y-6626659D01*
X1251470Y-6621001D01*
X1251328Y-6615298D01*
X1251193Y-6609550D01*
X1251065Y-6603757D01*
X1250943Y-6597918D01*
X1250829Y-6592033D01*
X1250722Y-6586102D01*
X1250622Y-6580124D01*
X1250529Y-6574099D01*
X1250444Y-6568027D01*
X1250366Y-6561907D01*
X1250295Y-6555738D01*
X1250232Y-6549521D01*
X1250176Y-6543255D01*
X1250128Y-6536940D01*
X1250087Y-6530576D01*
X1250054Y-6524161D01*
X1250029Y-6517695D01*
X1250011Y-6511179D01*
X1250002Y-6504612D01*
X1250000Y-6500000D01*
X2500000Y-4000000D02*
X2496547Y-3994550D01*
X2493100Y-3989112D01*
X2489667Y-3983702D01*
X2486241Y-3978305D01*
X2482829Y-3972935D01*
X2479423Y-3967578D01*
X2476032Y-3962247D01*
X2472647Y-3956930D01*
X2469276Y-3951639D01*
X2465911Y-3946361D01*
X2462561Y-3941109D01*
X2459216Y-3935870D01*
X2455886Y-3930658D01*
X2452561Y-3925458D01*
X2449251Y-3920284D01*
X2445946Y-3915122D01*
X2442655Y-3909986D01*
X2439370Y-3904863D01*
X2436099Y-3899766D01*
X2432834Y-3894680D01*
X2429583Y-3889621D01*
X2426337Y-3884573D01*
X2423105Y-3879551D01*
X2419878Y-3874541D01*
X2416665Y-3869557D01*
X2413458Y-3864584D01*
X2410265Y-3859636D01*
X2407076Y-3854700D01*
X2403902Y-3849790D01*
X2400732Y-3844891D01*
X2397577Y-3840016D01*
X2394426Y-3835154D01*
X2391289Y-3830316D01*
X2388158Y-3825489D01*
X2385039Y-3820687D01*
X2381926Y-3815897D01*
X2378826Y-3811131D01*
X2375731Y-3806376D01*
X2372650Y-3801645D01*
X2369574Y-3796926D01*
X2366510Y-3792231D01*
X2363452Y-3787547D01*
X2360407Y-3782886D01*
X2357367Y-3778237D01*
X2354339Y-3773612D01*
X2351317Y-3768998D01*
X2348308Y-3764407D01*
X2345303Y-3759827D01*
X2342312Y-3755270D01*
X2339325Y-3750725D01*
X2336351Y-3746202D01*
X2333382Y-3741691D01*
X2330425Y-3737202D01*
X2327474Y-3732725D01*
X2324535Y-3728270D01*
X2321600Y-3723826D01*
X2318679Y-3719404D01*
X2315761Y-3714994D01*
X2312857Y-3710605D01*
X2309957Y-3706228D01*
X2307069Y-3701872D01*
X2304186Y-3697528D01*
X2301315Y-3693205D01*
X2298449Y-3688893D01*
X2295595Y-3684603D01*
X2292746Y-3680323D01*
X2289909Y-3676066D01*
X2287076Y-3671818D01*
X2284255Y-3667593D01*
X2281439Y-3663377D01*
X2278635Y-3659183D01*
X2275835Y-3655000D01*
X2273047Y-3650838D01*
X2270264Y-3646686D01*
X2267493Y-3642555D01*
X2264725Y-3638435D01*
X2261970Y-3634335D01*
X2259219Y-3630246D01*
X2256480Y-3626177D01*
X2253745Y-3622119D01*
X2251021Y-3618082D01*
X2248302Y-3614054D01*
X2245595Y-3610047D01*
X2242891Y-3606050D01*
X2240199Y-3602073D01*
X2237512Y-3598107D01*
X2234836Y-3594160D01*
X2232164Y-3590224D01*
X2229503Y-3586308D01*
X2226847Y-3582401D01*
X2224201Y-3578515D01*
X2221560Y-3574638D01*
X2218930Y-3570781D01*
X2216305Y-3566934D01*
X2213690Y-3563106D01*
X2211079Y-3559288D01*
X2208480Y-3555490D01*
X2205884Y-3551701D01*
X2203300Y-3547932D01*
X2200719Y-3544173D01*
X2198150Y-3540432D01*
X2195584Y-3536701D01*
X2193030Y-3532990D01*
X2190479Y-3529287D01*
X2187939Y-3525604D01*
X2185403Y-3521930D01*
X2182878Y-3518275D01*
X2180356Y-3514630D01*
X2177845Y-3511003D01*
X2175339Y-3507385D01*
X2172842Y-3503787D01*
X2170350Y-3500197D01*
X2167868Y-3496626D01*
X2165390Y-3493064D01*
X2162922Y-3489520D01*
X2160459Y-3485986D01*
X2158005Y-3482469D01*
X2155556Y-3478962D01*
X2153116Y-3475473D01*
X2150681Y-3471993D01*
X2148256Y-3468531D01*
X2145834Y-3465078D01*
X2143423Y-3461643D01*
X2141015Y-3458217D01*
X2138618Y-3454808D01*
X2136224Y-3451409D01*
X2133840Y-3448027D01*
X2131460Y-3444653D01*
X2129090Y-3441298D01*
X2126724Y-3437951D01*
X2124367Y-3434621D01*
X2122014Y-3431301D01*
X2119671Y-3427997D01*
X2117332Y-3424702D01*
X2115003Y-3421425D01*
X2112677Y-3418156D01*
X2110360Y-3414904D01*
X2108048Y-3411660D01*
X2105745Y-3408434D01*
X2103445Y-3405216D01*
X2101156Y-3402015D01*
X2098869Y-3398822D01*
X2096593Y-3395646D01*
X2094319Y-3392478D01*
X2092056Y-3389327D01*
X2089796Y-3386185D01*
X2087545Y-3383058D01*
X2085298Y-3379941D01*
X2083060Y-3376839D01*
X2080825Y-3373746D01*
X2078600Y-3370669D01*
X2076378Y-3367600D01*
X2074166Y-3364548D01*
X2071957Y-3361503D01*
X2069757Y-3358475D01*
X2067561Y-3355455D01*
X2065373Y-3352450D01*
X2063190Y-3349454D01*
X2061015Y-3346474D01*
X2058843Y-3343501D01*
X2056681Y-3340545D01*
X2054522Y-3337596D01*
X2052372Y-3334663D01*
X2050225Y-3331738D01*
X2048087Y-3328828D01*
X2045952Y-3325927D01*
X2043827Y-3323040D01*
X2041704Y-3320162D01*
X2039591Y-3317299D01*
X2037480Y-3314443D01*
X2035379Y-3311603D01*
X2033280Y-3308771D01*
X2031191Y-3305954D01*
X2029104Y-3303144D01*
X2027026Y-3300349D01*
X2024952Y-3297563D01*
X2022886Y-3294791D01*
X2020823Y-3292026D01*
X2018769Y-3289277D01*
X2016718Y-3286535D01*
X2014675Y-3283807D01*
X2012636Y-3281088D01*
X2010605Y-3278382D01*
X2008577Y-3275685D01*
X2006557Y-3273002D01*
X2004541Y-3270326D01*
X2002533Y-3267665D01*
X2000528Y-3265011D01*
X1998531Y-3262371D01*
X1996538Y-3259739D01*
X1994553Y-3257121D01*
X1992570Y-3254510D01*
X1990596Y-3251914D01*
X1988625Y-3249325D01*
X1986662Y-3246749D01*
X1984703Y-3244181D01*
X1982751Y-3241627D01*
X1980802Y-3239080D01*
X1978861Y-3236547D01*
X1976924Y-3234022D01*
X1974994Y-3231509D01*
X1973067Y-3229004D01*
X1971148Y-3226513D01*
X1969232Y-3224029D01*
X1967324Y-3221558D01*
X1965419Y-3219094D01*
X1963522Y-3216644D01*
X1961628Y-3214201D01*
X1959741Y-3211771D01*
X1957858Y-3209348D01*
X1955982Y-3206939D01*
X1954109Y-3204536D01*
X1952244Y-3202146D01*
X1950382Y-3199764D01*
X1948527Y-3197394D01*
X1946675Y-3195032D01*
X1944831Y-3192682D01*
X1942990Y-3190339D01*
X1941156Y-3188010D01*
X1939325Y-3185686D01*
X1937502Y-3183376D01*
X1935681Y-3181073D01*
X1933868Y-3178782D01*
X1932058Y-3176498D01*
X1930255Y-3174226D01*
X1928455Y-3171962D01*
X1926662Y-3169710D01*
X1924872Y-3167464D01*
X1923090Y-3165231D01*
X1921310Y-3163005D01*
X1919537Y-3160790D01*
X1917768Y-3158583D01*
X1916005Y-3156388D01*
X1914245Y-3154199D01*
X1912493Y-3152023D01*
X1910743Y-3149853D01*
X1909000Y-3147695D01*
X1907260Y-3145544D01*
X1905527Y-3143404D01*
X1903797Y-3141272D01*
X1902074Y-3139151D01*
X1900353Y-3137036D01*
X1898640Y-3134934D01*
X1896929Y-3132837D01*
X1895225Y-3130753D01*
X1893524Y-3128675D01*
X1891830Y-3126609D01*
X1890139Y-3124549D01*
X1888454Y-3122500D01*
X1886772Y-3120458D01*
X1885097Y-3118427D01*
X1883424Y-3116403D01*
X1881759Y-3114390D01*
X1880096Y-3112383D01*
X1878439Y-3110388D01*
X1876785Y-3108399D01*
X1875138Y-3106421D01*
X1873494Y-3104449D01*
X1871856Y-3102489D01*
X1870221Y-3100535D01*
X1868593Y-3098591D01*
X1866967Y-3096654D01*
X1865347Y-3094728D01*
X1863730Y-3092808D01*
X1862120Y-3090899D01*
X1860512Y-3088996D01*
X1858911Y-3087104D01*
X1857312Y-3085218D01*
X1855720Y-3083343D01*
X1854131Y-3081473D01*
X1852547Y-3079615D01*
X1850967Y-3077762D01*
X1849392Y-3075920D01*
X1847820Y-3074084D01*
X1846255Y-3072259D01*
X1844692Y-3070439D01*
X1843135Y-3068630D01*
X1841581Y-3066827D01*
X1840033Y-3065034D01*
X1838487Y-3063247D01*
X1836948Y-3061471D01*
X1835411Y-3059700D01*
X1833881Y-3057939D01*
X1832353Y-3056185D01*
X1830831Y-3054440D01*
X1829311Y-3052701D01*
X1827798Y-3050973D01*
X1826287Y-3049250D01*
X1824782Y-3047537D01*
X1823279Y-3045830D01*
X1821783Y-3044133D01*
X1820288Y-3042441D01*
X1818800Y-3040759D01*
X1817315Y-3039083D01*
X1815835Y-3037417D01*
X1814357Y-3035757D01*
X1812886Y-3034106D01*
X1811417Y-3032460D01*
X1809954Y-3030825D01*
X1808493Y-3029195D01*
X1807038Y-3027575D01*
X1805585Y-3025960D01*
X1804139Y-3024354D01*
X1802694Y-3022755D01*
X1801255Y-3021164D01*
X1799819Y-3019579D01*
X1798389Y-3018004D01*
X1796960Y-3016434D01*
X1795538Y-3014873D01*
X1794117Y-3013318D01*
X1792703Y-3011772D01*
X1791290Y-3010231D01*
X1789884Y-3008700D01*
X1788479Y-3007174D01*
X1787081Y-3005657D01*
X1785684Y-3004145D01*
X1784293Y-3002643D01*
X1782904Y-3001146D01*
X1781521Y-2999658D01*
X1780140Y-2998175D01*
X1778765Y-2996701D01*
X1777392Y-2995232D01*
X1776024Y-2993772D01*
X1774659Y-2992317D01*
X1773299Y-2990871D01*
X1771941Y-2989431D01*
X1770589Y-2987999D01*
X1769239Y-2986572D01*
X1767894Y-2985154D01*
X1766551Y-2983741D01*
X1765214Y-2982337D01*
X1763879Y-2980938D01*
X1762549Y-2979547D01*
X1761222Y-2978161D01*
X1759899Y-2976784D01*
X1758579Y-2975412D01*
X1757264Y-2974049D01*
X1755952Y-2972690D01*
X1754644Y-2971340D01*
X1753339Y-2969995D01*
X1752039Y-2968658D01*
X1750740Y-2967326D01*
X1749448Y-2966002D01*
X1748157Y-2964683D01*
X1746871Y-2963373D01*
X1745588Y-2962067D01*
X1744309Y-2960770D01*
X1743033Y-2959477D01*
X1741762Y-2958192D01*
X1740492Y-2956913D01*
X1739228Y-2955641D01*
X1737966Y-2954374D01*
X1736709Y-2953115D01*
X1735454Y-2951861D01*
X1734204Y-2950615D01*
X1732956Y-2949373D01*
X1731713Y-2948140D01*
X1730472Y-2946911D01*
X1729236Y-2945690D01*
X1728001Y-2944474D01*
X1726772Y-2943265D01*
X1725545Y-2942061D01*
X1724323Y-2940865D01*
X1723102Y-2939673D01*
X1721887Y-2938489D01*
X1720674Y-2937310D01*
X1719465Y-2936138D01*
X1718258Y-2934971D01*
X1717056Y-2933811D01*
X1715856Y-2932656D01*
X1714661Y-2931509D01*
X1713468Y-2930366D01*
X1712280Y-2929230D01*
X1711093Y-2928099D01*
X1709911Y-2926975D01*
X1708731Y-2925856D01*
X1707556Y-2924744D01*
X1706383Y-2923636D01*
X1705214Y-2922536D01*
X1704047Y-2921440D01*
X1702885Y-2920351D01*
X1701725Y-2919267D01*
X1700569Y-2918190D01*
X1699415Y-2917117D01*
X1698266Y-2916052D01*
X1697119Y-2914990D01*
X1695976Y-2913936D01*
X1694835Y-2912886D01*
X1693699Y-2911843D01*
X1692564Y-2910805D01*
X1691434Y-2909773D01*
X1690306Y-2908746D01*
X1689182Y-2907725D01*
X1688060Y-2906709D01*
X1686943Y-2905700D01*
X1685827Y-2904695D01*
X1684716Y-2903696D01*
X1683607Y-2902702D01*
X1682502Y-2901715D01*
X1681399Y-2900731D01*
X1680300Y-2899755D01*
X1679203Y-2898782D01*
X1678110Y-2897817D01*
X1677019Y-2896855D01*
X1675932Y-2895900D01*
X1674847Y-2894949D01*
X1673767Y-2894004D01*
X1672688Y-2893064D01*
X1671614Y-2892130D01*
X1670541Y-2891200D01*
X1669472Y-2890277D01*
X1668405Y-2889358D01*
X1667343Y-2888445D01*
X1666282Y-2887536D01*
X1665225Y-2886633D01*
X1664170Y-2885735D01*
X1663120Y-2884842D01*
X1662070Y-2883954D01*
X1661026Y-2883072D01*
X1659982Y-2882194D01*
X1658943Y-2881322D01*
X1657906Y-2880454D01*
X1656872Y-2879592D01*
X1655841Y-2878734D01*
X1654813Y-2877882D01*
X1653787Y-2877034D01*
X1652765Y-2876192D01*
X1651745Y-2875354D01*
X1650729Y-2874521D01*
X1649714Y-2873693D01*
X1648704Y-2872871D01*
X1647695Y-2872052D01*
X1646690Y-2871240D01*
X1645687Y-2870431D01*
X1644687Y-2869628D01*
X1643689Y-2868828D01*
X1642696Y-2868035D01*
X1641703Y-2867245D01*
X1640715Y-2866461D01*
X1639728Y-2865681D01*
X1638746Y-2864907D01*
X1637764Y-2864136D01*
X1636787Y-2863371D01*
X1635811Y-2862610D01*
X1634839Y-2861854D01*
X1633869Y-2861102D01*
X1632902Y-2860355D01*
X1631937Y-2859612D01*
X1630976Y-2858875D01*
X1630016Y-2858141D01*
X1629061Y-2857413D01*
X1628106Y-2856688D01*
X1627156Y-2855969D01*
X1626207Y-2855253D01*
X1625261Y-2854543D01*
X1624317Y-2853837D01*
X1623377Y-2853135D01*
X1622439Y-2852437D01*
X1621504Y-2851745D01*
X1620570Y-2851056D01*
X1619641Y-2850372D01*
X1618712Y-2849692D01*
X1617788Y-2849017D01*
X1616865Y-2848346D01*
X1615945Y-2847680D01*
X1615027Y-2847017D01*
X1614113Y-2846359D01*
X1613200Y-2845705D01*
X1612290Y-2845056D01*
X1611382Y-2844410D01*
X1610478Y-2843770D01*
X1609575Y-2843132D01*
X1608675Y-2842500D01*
X1607777Y-2841871D01*
X1606883Y-2841247D01*
X1605990Y-2840627D01*
X1605100Y-2840011D01*
X1604212Y-2839399D01*
X1603327Y-2838792D01*
X1602444Y-2838188D01*
X1601564Y-2837589D01*
X1600686Y-2836993D01*
X1599811Y-2836402D01*
X1598937Y-2835814D01*
X1598067Y-2835231D01*
X1597198Y-2834651D01*
X1596333Y-2834076D01*
X1595469Y-2833505D01*
X1594608Y-2832938D01*
X1593749Y-2832374D01*
X1592893Y-2831815D01*
X1592038Y-2831259D01*
X1591187Y-2830707D01*
X1590337Y-2830159D01*
X1589490Y-2829616D01*
X1588645Y-2829075D01*
X1587803Y-2828539D01*
X1586962Y-2828007D01*
X1586125Y-2827479D01*
X1585288Y-2826953D01*
X1584456Y-2826433D01*
X1583624Y-2825915D01*
X1582796Y-2825402D01*
X1581969Y-2824892D01*
X1581145Y-2824387D01*
X1580322Y-2823884D01*
X1579503Y-2823386D01*
X1578685Y-2822891D01*
X1577870Y-2822400D01*
X1577056Y-2821912D01*
X1576246Y-2821429D01*
X1575436Y-2820949D01*
X1574630Y-2820472D01*
X1573825Y-2819999D01*
X1573024Y-2819530D01*
X1572223Y-2819064D01*
X1571426Y-2818602D01*
X1570629Y-2818144D01*
X1569836Y-2817689D01*
X1569044Y-2817237D01*
X1568255Y-2816789D01*
X1567468Y-2816345D01*
X1566683Y-2815904D01*
X1565900Y-2815466D01*
X1565119Y-2815033D01*
X1564340Y-2814602D01*
X1563564Y-2814175D01*
X1562789Y-2813751D01*
X1562017Y-2813331D01*
X1561246Y-2812914D01*
X1560478Y-2812501D01*
X1559711Y-2812090D01*
X1558948Y-2811684D01*
X1558185Y-2811280D01*
X1557425Y-2810881D01*
X1556667Y-2810484D01*
X1555911Y-2810091D01*
X1555157Y-2809700D01*
X1554405Y-2809314D01*
X1553654Y-2808930D01*
X1552907Y-2808550D01*
X1552160Y-2808173D01*
X1551417Y-2807800D01*
X1550674Y-2807429D01*
X1549934Y-2807062D01*
X1549196Y-2806698D01*
X1548460Y-2806337D01*
X1547725Y-2805979D01*
X1546993Y-2805625D01*
X1546263Y-2805273D01*
X1545535Y-2804925D01*
X1544808Y-2804580D01*
X1544083Y-2804238D01*
X1543360Y-2803899D01*
X1542640Y-2803564D01*
X1541921Y-2803231D01*
X1541204Y-2802902D01*
X1540488Y-2802575D01*
X1539776Y-2802252D01*
X1539064Y-2801931D01*
X1538355Y-2801614D01*
X1537646Y-2801300D01*
X1536941Y-2800989D01*
X1536237Y-2800680D01*
X1535535Y-2800375D01*
X1534834Y-2800073D01*
X1534136Y-2799773D01*
X1533439Y-2799477D01*
X1532745Y-2799183D01*
X1532051Y-2798893D01*
X1531360Y-2798605D01*
X1530670Y-2798320D01*
X1529983Y-2798039D01*
X1529297Y-2797760D01*
X1528613Y-2797484D01*
X1527930Y-2797211D01*
X1527250Y-2796941D01*
X1526571Y-2796673D01*
X1525894Y-2796408D01*
X1525218Y-2796147D01*
X1524545Y-2795888D01*
X1523873Y-2795632D01*
X1523203Y-2795378D01*
X1522534Y-2795128D01*
X1521867Y-2794880D01*
X1521202Y-2794635D01*
X1520539Y-2794393D01*
X1519877Y-2794153D01*
X1519217Y-2793916D01*
X1518558Y-2793682D01*
X1517902Y-2793451D01*
X1517247Y-2793222D01*
X1516594Y-2792996D01*
X1515941Y-2792773D01*
X1515292Y-2792553D01*
X1514643Y-2792335D01*
X1513996Y-2792119D01*
X1513351Y-2791907D01*
X1512708Y-2791697D01*
X1512065Y-2791489D01*
X1511425Y-2791285D01*
X1510786Y-2791083D01*
X1510149Y-2790883D01*
X1509513Y-2790686D01*
X1508880Y-2790492D01*
X1508247Y-2790300D01*
X1507616Y-2790111D01*
X1506987Y-2789924D01*
X1506359Y-2789740D01*
X1505733Y-2789559D01*
X1505108Y-2789380D01*
X1504485Y-2789203D01*
X1503863Y-2789029D01*
X1503243Y-2788858D01*
X1502625Y-2788689D01*
X1502007Y-2788522D01*
X1501392Y-2788358D01*
X1500778Y-2788197D01*
X1500165Y-2788038D01*
X1499554Y-2787881D01*
X1498945Y-2787727D01*
X1498336Y-2787575D01*
X1497730Y-2787426D01*
X1497124Y-2787279D01*
X1496521Y-2787134D01*
X1495918Y-2786992D01*
X1495317Y-2786853D01*
X1494718Y-2786715D01*
X1494120Y-2786580D01*
X1493523Y-2786448D01*
X1492928Y-2786318D01*
X1492334Y-2786190D01*
X1491742Y-2786064D01*
X1491151Y-2785941D01*
X1490561Y-2785820D01*
X1489973Y-2785702D01*
X1489386Y-2785586D01*
X1488800Y-2785472D01*
X1488217Y-2785360D01*
X1487634Y-2785251D01*
X1487052Y-2785144D01*
X1486472Y-2785039D01*
X1485894Y-2784937D01*
X1485316Y-2784837D01*
X1484740Y-2784739D01*
X1484165Y-2784643D01*
X1483592Y-2784550D01*
X1483020Y-2784459D01*
X1482449Y-2784370D01*
X1481880Y-2784283D01*
X1481312Y-2784199D01*
X1480745Y-2784117D01*
X1480179Y-2784037D01*
X1479615Y-2783959D01*
X1479052Y-2783883D01*
X1478490Y-2783810D01*
X1477930Y-2783738D01*
X1477370Y-2783669D01*
X1476812Y-2783602D01*
X1476255Y-2783538D01*
X1475700Y-2783475D01*
X1475145Y-2783415D01*
X1474593Y-2783356D01*
X1474040Y-2783300D01*
X1473490Y-2783246D01*
X1472940Y-2783194D01*
X1472392Y-2783145D01*
X1471845Y-2783097D01*
X1471299Y-2783051D01*
X1470754Y-2783008D01*
X1470211Y-2782967D01*
X1469668Y-2782927D01*
X1469127Y-2782890D01*
X1468587Y-2782855D01*
X1468048Y-2782822D01*
X1467511Y-2782791D01*
X1466974Y-2782762D01*
X1466438Y-2782736D01*
X1465904Y-2782711D01*
X1465371Y-2782688D01*
X1464839Y-2782668D01*
X1464308Y-2782649D01*
X1463778Y-2782633D01*
X1463249Y-2782618D01*
X1462722Y-2782606D01*
X1462195Y-2782595D01*
X1461670Y-2782587D01*
X1461145Y-2782580D01*
X1460622Y-2782576D01*
X1460099Y-2782574D01*
X1459578Y-2782573D01*
X1459058Y-2782575D01*
X1458539Y-2782579D01*
X1458021Y-2782584D01*
X1457504Y-2782592D01*
X1456988Y-2782601D01*
X1456473Y-2782613D01*
X1455959Y-2782627D01*
X1455446Y-2782642D01*
X1454934Y-2782660D01*
X1454423Y-2782679D01*
X1453913Y-2782701D01*
X1453404Y-2782724D01*
X1452896Y-2782749D01*
X1452389Y-2782777D01*
X1451883Y-2782806D01*
X1451378Y-2782837D01*
X1450874Y-2782870D01*
X1450371Y-2782905D01*
X1449869Y-2782942D01*
X1449368Y-2782981D01*
X1448867Y-2783022D01*
X1448368Y-2783065D01*
X1447870Y-2783110D01*
X1447372Y-2783157D01*
X1446876Y-2783205D01*
X1446380Y-2783256D01*
X1445885Y-2783308D01*
X1445392Y-2783363D01*
X1444899Y-2783419D01*
X1444407Y-2783477D01*
X1443916Y-2783537D01*
X1443426Y-2783599D01*
X1442936Y-2783663D01*
X1442448Y-2783729D01*
X1441960Y-2783797D01*
X1441474Y-2783866D01*
X1440988Y-2783938D01*
X1440503Y-2784011D01*
X1440018Y-2784086D01*
X1439535Y-2784164D01*
X1439053Y-2784243D01*
X1438571Y-2784324D01*
X1438090Y-2784406D01*
X1437610Y-2784491D01*
X1437131Y-2784578D01*
X1436653Y-2784666D01*
X1436175Y-2784757D01*
X1435699Y-2784849D01*
X1435223Y-2784943D01*
X1434748Y-2785039D01*
X1434273Y-2785137D01*
X1433800Y-2785237D01*
X1433327Y-2785339D01*
X1432855Y-2785442D01*
X1432384Y-2785548D01*
X1431913Y-2785655D01*
X1431443Y-2785764D01*
X1430974Y-2785875D01*
X1430506Y-2785988D01*
X1430039Y-2786103D01*
X1429572Y-2786220D01*
X1429106Y-2786338D01*
X1428641Y-2786459D01*
X1428176Y-2786581D01*
X1427712Y-2786705D01*
X1427249Y-2786832D01*
X1426787Y-2786960D01*
X1426325Y-2787089D01*
X1425864Y-2787221D01*
X1425404Y-2787355D01*
X1424945Y-2787490D01*
X1424486Y-2787628D01*
X1424027Y-2787767D01*
X1423570Y-2787908D01*
X1423113Y-2788051D01*
X1422657Y-2788196D01*
X1422202Y-2788343D01*
X1421293Y-2788642D01*
X1420386Y-2788949D01*
X1419482Y-2789263D01*
X1418581Y-2789585D01*
X1417682Y-2789915D01*
X1416786Y-2790252D01*
X1415892Y-2790597D01*
X1415001Y-2790949D01*
X1414112Y-2791309D01*
X1413225Y-2791677D01*
X1412341Y-2792053D01*
X1411459Y-2792436D01*
X1410579Y-2792827D01*
X1409702Y-2793226D01*
X1408827Y-2793632D01*
X1407953Y-2794046D01*
X1407082Y-2794469D01*
X1406214Y-2794899D01*
X1405347Y-2795336D01*
X1404482Y-2795782D01*
X1403619Y-2796236D01*
X1402759Y-2796698D01*
X1401900Y-2797168D01*
X1401043Y-2797645D01*
X1400188Y-2798131D01*
X1399336Y-2798625D01*
X1398485Y-2799128D01*
X1397635Y-2799638D01*
X1396788Y-2800157D01*
X1395943Y-2800683D01*
X1395099Y-2801219D01*
X1394257Y-2801762D01*
X1393417Y-2802314D01*
X1392578Y-2802875D01*
X1391741Y-2803444D01*
X1390906Y-2804021D01*
X1390073Y-2804607D01*
X1389241Y-2805202D01*
X1388411Y-2805805D01*
X1387582Y-2806417D01*
X1386755Y-2807038D01*
X1385930Y-2807667D01*
X1385106Y-2808306D01*
X1384284Y-2808953D01*
X1383463Y-2809610D01*
X1382644Y-2810275D01*
X1381826Y-2810950D01*
X1381010Y-2811634D01*
X1380195Y-2812327D01*
X1379382Y-2813029D01*
X1378570Y-2813740D01*
X1377759Y-2814461D01*
X1376950Y-2815192D01*
X1376143Y-2815932D01*
X1375337Y-2816681D01*
X1374532Y-2817440D01*
X1373728Y-2818209D01*
X1372926Y-2818988D01*
X1372125Y-2819776D01*
X1371326Y-2820574D01*
X1370528Y-2821383D01*
X1369731Y-2822201D01*
X1368936Y-2823029D01*
X1368142Y-2823868D01*
X1367349Y-2824717D01*
X1366557Y-2825576D01*
X1365767Y-2826446D01*
X1364978Y-2827326D01*
X1364191Y-2828217D01*
X1363405Y-2829118D01*
X1362620Y-2830030D01*
X1361836Y-2830953D01*
X1361054Y-2831886D01*
X1360273Y-2832831D01*
X1359493Y-2833786D01*
X1358714Y-2834753D01*
X1357937Y-2835731D01*
X1357161Y-2836720D01*
X1356386Y-2837720D01*
X1355613Y-2838732D01*
X1354841Y-2839756D01*
X1354070Y-2840791D01*
X1353300Y-2841837D01*
X1352532Y-2842896D01*
X1351765Y-2843966D01*
X1350999Y-2845048D01*
X1350235Y-2846142D01*
X1349472Y-2847249D01*
X1348710Y-2848367D01*
X1347950Y-2849498D01*
X1347190Y-2850641D01*
X1346433Y-2851797D01*
X1345676Y-2852965D01*
X1344921Y-2854146D01*
X1344167Y-2855340D01*
X1343415Y-2856547D01*
X1342664Y-2857766D01*
X1341914Y-2858999D01*
X1341165Y-2860244D01*
X1340419Y-2861503D01*
X1339673Y-2862776D01*
X1338929Y-2864062D01*
X1338186Y-2865361D01*
X1337445Y-2866674D01*
X1336705Y-2868001D01*
X1335966Y-2869341D01*
X1335229Y-2870696D01*
X1334494Y-2872064D01*
X1333760Y-2873447D01*
X1333027Y-2874844D01*
X1332296Y-2876255D01*
X1331566Y-2877681D01*
X1330838Y-2879122D01*
X1330112Y-2880577D01*
X1329387Y-2882047D01*
X1328664Y-2883532D01*
X1327942Y-2885032D01*
X1327222Y-2886547D01*
X1326503Y-2888077D01*
X1325786Y-2889623D01*
X1325071Y-2891184D01*
X1324357Y-2892761D01*
X1323646Y-2894353D01*
X1322935Y-2895961D01*
X1322227Y-2897585D01*
X1321520Y-2899226D01*
X1320815Y-2900882D01*
X1320112Y-2902555D01*
X1319411Y-2904244D01*
X1318711Y-2905949D01*
X1318013Y-2907672D01*
X1317317Y-2909411D01*
X1316623Y-2911167D01*
X1315931Y-2912940D01*
X1315241Y-2914730D01*
X1314552Y-2916537D01*
X1313866Y-2918362D01*
X1313181Y-2920204D01*
X1312499Y-2922064D01*
X1311819Y-2923941D01*
X1311140Y-2925837D01*
X1310464Y-2927750D01*
X1309790Y-2929682D01*
X1309117Y-2931632D01*
X1308447Y-2933601D01*
X1307779Y-2935587D01*
X1307114Y-2937593D01*
X1306450Y-2939618D01*
X1305789Y-2941661D01*
X1305130Y-2943723D01*
X1304473Y-2945805D01*
X1303819Y-2947906D01*
X1303166Y-2950027D01*
X1302516Y-2952167D01*
X1301869Y-2954327D01*
X1301224Y-2956507D01*
X1300581Y-2958707D01*
X1299941Y-2960927D01*
X1299303Y-2963167D01*
X1298668Y-2965428D01*
X1298035Y-2967710D01*
X1297405Y-2970012D01*
X1296777Y-2972335D01*
X1296152Y-2974680D01*
X1295530Y-2977045D01*
X1294910Y-2979432D01*
X1294293Y-2981841D01*
X1293679Y-2984271D01*
X1293067Y-2986723D01*
X1292458Y-2989197D01*
X1291852Y-2991693D01*
X1291249Y-2994211D01*
X1290649Y-2996752D01*
X1290051Y-2999315D01*
X1289457Y-3001901D01*
X1288865Y-3004510D01*
X1288277Y-3007142D01*
X1287691Y-3009798D01*
X1287109Y-3012476D01*
X1286529Y-3015179D01*
X1285953Y-3017905D01*
X1285380Y-3020654D01*
X1284809Y-3023428D01*
X1284243Y-3026226D01*
X1283679Y-3029049D01*
X1283119Y-3031896D01*
X1282562Y-3034768D01*
X1282008Y-3037665D01*
X1281457Y-3040586D01*
X1280910Y-3043533D01*
X1280367Y-3046506D01*
X1279827Y-3049504D01*
X1279290Y-3052528D01*
X1278757Y-3055577D01*
X1278228Y-3058653D01*
X1277702Y-3061755D01*
X1277179Y-3064884D01*
X1276661Y-3068040D01*
X1276146Y-3071222D01*
X1275635Y-3074431D01*
X1275127Y-3077668D01*
X1274624Y-3080931D01*
X1274124Y-3084223D01*
X1273628Y-3087542D01*
X1273136Y-3090890D01*
X1272648Y-3094265D01*
X1272164Y-3097669D01*
X1271684Y-3101101D01*
X1271208Y-3104563D01*
X1270736Y-3108053D01*
X1270268Y-3111572D01*
X1269805Y-3115121D01*
X1269346Y-3118699D01*
X1268890Y-3122307D01*
X1268440Y-3125946D01*
X1267993Y-3129614D01*
X1267551Y-3133313D01*
X1267113Y-3137042D01*
X1266680Y-3140802D01*
X1266251Y-3144593D01*
X1265827Y-3148416D01*
X1265407Y-3152270D01*
X1264992Y-3156155D01*
X1264582Y-3160073D01*
X1264176Y-3164023D01*
X1263775Y-3168005D01*
X1263379Y-3172019D01*
X1262987Y-3176067D01*
X1262601Y-3180147D01*
X1262219Y-3184261D01*
X1261842Y-3188408D01*
X1261470Y-3192589D01*
X1261104Y-3196804D01*
X1260742Y-3201054D01*
X1260385Y-3205337D01*
X1260034Y-3209656D01*
X1259687Y-3214009D01*
X1259346Y-3218398D01*
X1259011Y-3222821D01*
X1258680Y-3227281D01*
X1258355Y-3231777D01*
X1258035Y-3236308D01*
X1257721Y-3240877D01*
X1257412Y-3245482D01*
X1257109Y-3250123D01*
X1256812Y-3254803D01*
X1256520Y-3259519D01*
X1256233Y-3264274D01*
X1255953Y-3269066D01*
X1255678Y-3273897D01*
X1255409Y-3278766D01*
X1255146Y-3283674D01*
X1254889Y-3288622D01*
X1254637Y-3293608D01*
X1254392Y-3298635D01*
X1254153Y-3303701D01*
X1253920Y-3308808D01*
X1253693Y-3313956D01*
X1253473Y-3319144D01*
X1253258Y-3324373D01*
X1253050Y-3329644D01*
X1252849Y-3334957D01*
X1252653Y-3340311D01*
X1252464Y-3345708D01*
X1252282Y-3351148D01*
X1252106Y-3356631D01*
X1251937Y-3362157D01*
X1251775Y-3367727D01*
X1251619Y-3373341D01*
X1251470Y-3378999D01*
X1251328Y-3384702D01*
X1251193Y-3390450D01*
X1251065Y-3396243D01*
X1250943Y-3402082D01*
X1250829Y-3407967D01*
X1250722Y-3413898D01*
X1250622Y-3419876D01*
X1250529Y-3425901D01*
X1250444Y-3431973D01*
X1250366Y-3438093D01*
X1250295Y-3444262D01*
X1250232Y-3450479D01*
X1250176Y-3456744D01*
X1250128Y-3463060D01*
X1250087Y-3469424D01*
X1250054Y-3475839D01*
X1250029Y-3482305D01*
X1250011Y-3488821D01*
X1250002Y-3495388D01*
X1250000Y-3500000D01*
X8750000Y-5000000D02*
X8747812Y-4996923D01*
X8745625Y-4993849D01*
X8743438Y-4990780D01*
X8741251Y-4987714D01*
X8739064Y-4984652D01*
X8736878Y-4981594D01*
X8734692Y-4978540D01*
X8732506Y-4975489D01*
X8730321Y-4972443D01*
X8728136Y-4969400D01*
X8725951Y-4966362D01*
X8723767Y-4963327D01*
X8721583Y-4960296D01*
X8719399Y-4957269D01*
X8717216Y-4954246D01*
X8715033Y-4951227D01*
X8712850Y-4948211D01*
X8710667Y-4945200D01*
X8708485Y-4942192D01*
X8706304Y-4939188D01*
X8704122Y-4936188D01*
X8701941Y-4933192D01*
X8699760Y-4930199D01*
X8697579Y-4927211D01*
X8695399Y-4924226D01*
X8693219Y-4921245D01*
X8691040Y-4918268D01*
X8688860Y-4915294D01*
X8686682Y-4912325D01*
X8684503Y-4909359D01*
X8682325Y-4906397D01*
X8680146Y-4903439D01*
X8677969Y-4900485D01*
X8675791Y-4897534D01*
X8673614Y-4894588D01*
X8671438Y-4891645D01*
X8669261Y-4888706D01*
X8667085Y-4885770D01*
X8664909Y-4882839D01*
X8662734Y-4879911D01*
X8660559Y-4876987D01*
X8658383Y-4874067D01*
X8656209Y-4871151D01*
X8654035Y-4868238D01*
X8651861Y-4865329D01*
X8649687Y-4862424D01*
X8647514Y-4859522D01*
X8645341Y-4856625D01*
X8643168Y-4853731D01*
X8640996Y-4850840D01*
X8638824Y-4847954D01*
X8636652Y-4845071D01*
X8634480Y-4842192D01*
X8632309Y-4839317D01*
X8630139Y-4836446D01*
X8627968Y-4833578D01*
X8625798Y-4830714D01*
X8623628Y-4827853D01*
X8621458Y-4824997D01*
X8619289Y-4822144D01*
X8617120Y-4819295D01*
X8614951Y-4816449D01*
X8612783Y-4813608D01*
X8610615Y-4810769D01*
X8608447Y-4807935D01*
X8606280Y-4805104D01*
X8604113Y-4802277D01*
X8601946Y-4799454D01*
X8599779Y-4796635D01*
X8597613Y-4793818D01*
X8595447Y-4791006D01*
X8593282Y-4788198D01*
X8591116Y-4785393D01*
X8588951Y-4782591D01*
X8586787Y-4779794D01*
X8584622Y-4777000D01*
X8582458Y-4774210D01*
X8580294Y-4771423D01*
X8578131Y-4768640D01*
X8575968Y-4765861D01*
X8573805Y-4763085D01*
X8571643Y-4760313D01*
X8569480Y-4757545D01*
X8567318Y-4754780D01*
X8565157Y-4752019D01*
X8562995Y-4749262D01*
X8560835Y-4746508D01*
X8558674Y-4743758D01*
X8556513Y-4741011D01*
X8554353Y-4738268D01*
X8552194Y-4735529D01*
X8550034Y-4732793D01*
X8547875Y-4730061D01*
X8545716Y-4727332D01*
X8543557Y-4724608D01*
X8541399Y-4721886D01*
X8539241Y-4719169D01*
X8537083Y-4716454D01*
X8534926Y-4713744D01*
X8532769Y-4711037D01*
X8530612Y-4708334D01*
X8528456Y-4705634D01*
X8526300Y-4702938D01*
X8524144Y-4700245D01*
X8521988Y-4697556D01*
X8519833Y-4694871D01*
X8517678Y-4692189D01*
X8515523Y-4689510D01*
X8513369Y-4686836D01*
X8511215Y-4684164D01*
X8509061Y-4681497D01*
X8506907Y-4678833D01*
X8504754Y-4676172D01*
X8502601Y-4673515D01*
X8500449Y-4670862D01*
X8498296Y-4668212D01*
X8496145Y-4665566D01*
X8493993Y-4662923D01*
X8491842Y-4660283D01*
X8489690Y-4657647D01*
X8487540Y-4655015D01*
X8485389Y-4652386D01*
X8483239Y-4649761D01*
X8481089Y-4647139D01*
X8478939Y-4644521D01*
X8476790Y-4641907D01*
X8474641Y-4639296D01*
X8472492Y-4636688D01*
X8470344Y-4634084D01*
X8468195Y-4631483D01*
X8466048Y-4628886D01*
X8463900Y-4626292D01*
X8461753Y-4623702D01*
X8459606Y-4621115D01*
X8457459Y-4618532D01*
X8455313Y-4615952D01*
X8453167Y-4613376D01*
X8451021Y-4610803D01*
X8448875Y-4608234D01*
X8446730Y-4605668D01*
X8444585Y-4603106D01*
X8442440Y-4600547D01*
X8440296Y-4597991D01*
X8438152Y-4595439D01*
X8436008Y-4592891D01*
X8433865Y-4590345D01*
X8431722Y-4587804D01*
X8429579Y-4585266D01*
X8427436Y-4582731D01*
X8425294Y-4580199D01*
X8423152Y-4577672D01*
X8421010Y-4575147D01*
X8418868Y-4572626D01*
X8416727Y-4570108D01*
X8414586Y-4567594D01*
X8412446Y-4565083D01*
X8410305Y-4562576D01*
X8408165Y-4560072D01*
X8406026Y-4557572D01*
X8403886Y-4555074D01*
X8401747Y-4552581D01*
X8399608Y-4550090D01*
X8397469Y-4547604D01*
X8395331Y-4545120D01*
X8393193Y-4542640D01*
X8391055Y-4540163D01*
X8388918Y-4537690D01*
X8386780Y-4535220D01*
X8384643Y-4532753D01*
X8382507Y-4530290D01*
X8380370Y-4527830D01*
X8378234Y-4525374D01*
X8376099Y-4522921D01*
X8373963Y-4520471D01*
X8371828Y-4518025D01*
X8369693Y-4515582D01*
X8367558Y-4513142D01*
X8365424Y-4510706D01*
X8363290Y-4508273D01*
X8361156Y-4505843D01*
X8359022Y-4503417D01*
X8356889Y-4500994D01*
X8354756Y-4498575D01*
X8352623Y-4496159D01*
X8350491Y-4493746D01*
X8348359Y-4491336D01*
X8346227Y-4488930D01*
X8344095Y-4486527D01*
X8341964Y-4484128D01*
X8339833Y-4481732D01*
X8337702Y-4479339D01*
X8335572Y-4476949D01*
X8333441Y-4474563D01*
X8331311Y-4472180D01*
X8329182Y-4469800D01*
X8327052Y-4467424D01*
X8324923Y-4465051D01*
X8322794Y-4462681D01*
X8320666Y-4460315D01*
X8318538Y-4457952D01*
X8316410Y-4455592D01*
X8314282Y-4453235D01*
X8312154Y-4450882D01*
X8310027Y-4448532D01*
X8307900Y-4446185D01*
X8305773Y-4443842D01*
X8303647Y-4441502D01*
X8301521Y-4439165D01*
X8299395Y-4436831D01*
X8297269Y-4434501D01*
X8295144Y-4432174D01*
X8293019Y-4429850D01*
X8290894Y-4427529D01*
X8288770Y-4425212D01*
X8286646Y-4422898D01*
X8284522Y-4420587D01*
X8282398Y-4418279D01*
X8280274Y-4415975D01*
X8278151Y-4413674D01*
X8276028Y-4411376D01*
X8273906Y-4409081D01*
X8271783Y-4406790D01*
X8269661Y-4404502D01*
X8267539Y-4402217D01*
X8265418Y-4399935D01*
X8263296Y-4397657D01*
X8261175Y-4395381D01*
X8259055Y-4393109D01*
X8256934Y-4390841D01*
X8254814Y-4388575D01*
X8252694Y-4386312D01*
X8250574Y-4384053D01*
X8248455Y-4381797D01*
X8246335Y-4379544D01*
X8244216Y-4377295D01*
X8242098Y-4375048D01*
X8239979Y-4372805D01*
X8237861Y-4370565D01*
X8235743Y-4368328D01*
X8233625Y-4366094D01*
X8231508Y-4363864D01*
X8229391Y-4361636D01*
X8227274Y-4359412D01*
X8225157Y-4357191D01*
X8223041Y-4354974D01*
X8220925Y-4352759D01*
X8218809Y-4350547D01*
X8216693Y-4348339D01*
X8214578Y-4346134D01*
X8212463Y-4343932D01*
X8210348Y-4341733D01*
X8208234Y-4339537D01*
X8206119Y-4337345D01*
X8204005Y-4335155D01*
X8201891Y-4332969D01*
X8199778Y-4330786D01*
X8197665Y-4328606D01*
X8195551Y-4326429D01*
X8193439Y-4324255D01*
X8191326Y-4322084D01*
X8189214Y-4319917D01*
X8187102Y-4317752D01*
X8184990Y-4315591D01*
X8182878Y-4313433D01*
X8180767Y-4311278D01*
X8178656Y-4309126D01*
X8176545Y-4306977D01*
X8174435Y-4304832D01*
X8172324Y-4302689D01*
X8170214Y-4300549D01*
X8168105Y-4298413D01*
X8165995Y-4296280D01*
X8163886Y-4294150D01*
X8161777Y-4292022D01*
X8159668Y-4289898D01*
X8157559Y-4287777D01*
X8155451Y-4285660D01*
X8153343Y-4283545D01*
X8151235Y-4281433D01*
X8149127Y-4279324D01*
X8147020Y-4277219D01*
X8144913Y-4275116D01*
X8142806Y-4273017D01*
X8140699Y-4270921D01*
X8138593Y-4268827D01*
X8136487Y-4266737D01*
X8134381Y-4264650D01*
X8132275Y-4262566D01*
X8130170Y-4260485D01*
X8128065Y-4258407D01*
X8125960Y-4256332D01*
X8123855Y-4254260D01*
X8121750Y-4252191D01*
X8119646Y-4250125D01*
X8117542Y-4248062D01*
X8115438Y-4246002D01*
X8113335Y-4243945D01*
X8111232Y-4241892D01*
X8109129Y-4239841D01*
X8107026Y-4237793D01*
X8104923Y-4235749D01*
X8102821Y-4233707D01*
X8100719Y-4231668D01*
X8098617Y-4229633D01*
X8096515Y-4227600D01*
X8094414Y-4225570D01*
X8092313Y-4223544D01*
X8090212Y-4221520D01*
X8088111Y-4219499D01*
X8086010Y-4217482D01*
X8083910Y-4215467D01*
X8081810Y-4213455D01*
X8079710Y-4211447D01*
X8077611Y-4209441D01*
X8075511Y-4207439D01*
X8073412Y-4205439D01*
X8071313Y-4203442D01*
X8069215Y-4201448D01*
X8067116Y-4199458D01*
X8065018Y-4197470D01*
X8062920Y-4195485D01*
X8060822Y-4193503D01*
X8058725Y-4191524D01*
X8056627Y-4189548D01*
X8054530Y-4187575D01*
X8052433Y-4185605D01*
X8050337Y-4183638D01*
X8048240Y-4181674D01*
X8046144Y-4179713D01*
X8044048Y-4177754D01*
X8041953Y-4175799D01*
X8039857Y-4173847D01*
X8037762Y-4171897D01*
X8035667Y-4169951D01*
X8033572Y-4168007D01*
X8031477Y-4166067D01*
X8029383Y-4164129D01*
X8027288Y-4162194D01*
X8025194Y-4160262D01*
X8023101Y-4158333D01*
X8021007Y-4156408D01*
X8018914Y-4154484D01*
X8016821Y-4152564D01*
X8014728Y-4150647D01*
X8012635Y-4148733D01*
X8010542Y-4146821D01*
X8008450Y-4144913D01*
X8006358Y-4143007D01*
X8004266Y-4141104D01*
X8002175Y-4139204D01*
X8000083Y-4137307D01*
X7997992Y-4135413D01*
X7995901Y-4133522D01*
X7993810Y-4131634D01*
X7991720Y-4129748D01*
X7989629Y-4127866D01*
X7987539Y-4125986D01*
X7985449Y-4124109D01*
X7983359Y-4122236D01*
X7981270Y-4120365D01*
X7979180Y-4118496D01*
X7977091Y-4116631D01*
X7975002Y-4114769D01*
X7972914Y-4112909D01*
X7970825Y-4111052D01*
X7968737Y-4109199D01*
X7966649Y-4107348D01*
X7964561Y-4105499D01*
X7962473Y-4103654D01*
X7960386Y-4101812D01*
X7958298Y-4099972D01*
X7956211Y-4098135D01*
X7954124Y-4096301D01*
X7952038Y-4094470D01*
X7949951Y-4092642D01*
X7947865Y-4090817D01*
X7945779Y-4088994D01*
X7943693Y-4087174D01*
X7941607Y-4085357D01*
X7939521Y-4083543D01*
X7937436Y-4081732D01*
X7935351Y-4079923D01*
X7933266Y-4078118D01*
X7931181Y-4076315D01*
X7929097Y-4074515D01*
X7927012Y-4072718D01*
X7924928Y-4070923D01*
X7922844Y-4069132D01*
X7920761Y-4067343D01*
X7918677Y-4065557D01*
X7916594Y-4063774D01*
X7914510Y-4061993D01*
X7912427Y-4060216D01*
X7910345Y-4058441D01*
X7908262Y-4056669D01*
X7906180Y-4054899D01*
X7904097Y-4053133D01*
X7902015Y-4051369D01*
X7899933Y-4049608D01*
X7897852Y-4047850D01*
X7895770Y-4046095D01*
X7893689Y-4044342D01*
X7891608Y-4042592D01*
X7889527Y-4040845D01*
X7887446Y-4039101D01*
X7885365Y-4037359D01*
X7883285Y-4035621D01*
X7881205Y-4033885D01*
X7879125Y-4032151D01*
X7877045Y-4030421D01*
X7874965Y-4028693D01*
X7872886Y-4026968D01*
X7870806Y-4025246D01*
X7868727Y-4023526D01*
X7866648Y-4021809D01*
X7864569Y-4020095D01*
X7862491Y-4018384D01*
X7860412Y-4016675D01*
X7858334Y-4014970D01*
X7856256Y-4013266D01*
X7854178Y-4011566D01*
X7852100Y-4009868D01*
X7850023Y-4008173D01*
X7847945Y-4006481D01*
X7845868Y-4004792D01*
X7843791Y-4003105D01*
X7841714Y-4001421D01*
X7839637Y-3999740D01*
X7837561Y-3998061D01*
X7835484Y-3996385D01*
X7833408Y-3994712D01*
X7831332Y-3993041D01*
X7829256Y-3991373D01*
X7827181Y-3989708D01*
X7825105Y-3988046D01*
X7823030Y-3986386D01*
X7820954Y-3984729D01*
X7818879Y-3983075D01*
X7816804Y-3981423D01*
X7814730Y-3979774D01*
X7812655Y-3978128D01*
X7810581Y-3976484D01*
X7808507Y-3974843D01*
X7806432Y-3973205D01*
X7804359Y-3971569D01*
X7802285Y-3969936D01*
X7800211Y-3968306D01*
X7798138Y-3966678D01*
X7796064Y-3965054D01*
X7793991Y-3963431D01*
X7791918Y-3961812D01*
X7789845Y-3960195D01*
X7787773Y-3958580D01*
X7785700Y-3956969D01*
X7783628Y-3955360D01*
X7781556Y-3953753D01*
X7779484Y-3952150D01*
X7777412Y-3950549D01*
X7775340Y-3948950D01*
X7773268Y-3947355D01*
X7771197Y-3945762D01*
X7769126Y-3944171D01*
X7767054Y-3942583D01*
X7764983Y-3940998D01*
X7762913Y-3939415D01*
X7760842Y-3937835D01*
X7758771Y-3936258D01*
X7756701Y-3934683D01*
X7754631Y-3933111D01*
X7752560Y-3931542D01*
X7750491Y-3929975D01*
X7748421Y-3928411D01*
X7746351Y-3926849D01*
X7744281Y-3925290D01*
X7742212Y-3923734D01*
X7740143Y-3922180D01*
X7738074Y-3920629D01*
X7736005Y-3919080D01*
X7733936Y-3917534D01*
X7731867Y-3915991D01*
X7729798Y-3914450D01*
X7727730Y-3912912D01*
X7725662Y-3911376D01*
X7723593Y-3909843D01*
X7721525Y-3908313D01*
X7719457Y-3906785D01*
X7717390Y-3905260D01*
X7715322Y-3903737D01*
X7713254Y-3902217D01*
X7711187Y-3900700D01*
X7709120Y-3899185D01*
X7707053Y-3897672D01*
X7704986Y-3896163D01*
X7702919Y-3894655D01*
X7700852Y-3893151D01*
X7698785Y-3891649D01*
X7696719Y-3890149D01*
X7694653Y-3888652D01*
X7692586Y-3887158D01*
X7690520Y-3885666D01*
X7688454Y-3884177D01*
X7686388Y-3882690D01*
X7684323Y-3881206D01*
X7682257Y-3879724D01*
X7680191Y-3878245D01*
X7678126Y-3876769D01*
X7676061Y-3875295D01*
X7673996Y-3873823D01*
X7671931Y-3872354D01*
X7669866Y-3870888D01*
X7667801Y-3869424D01*
X7665736Y-3867963D01*
X7663672Y-3866504D01*
X7661607Y-3865048D01*
X7659543Y-3863594D01*
X7657479Y-3862143D01*
X7655414Y-3860694D01*
X7653350Y-3859248D01*
X7651287Y-3857804D01*
X7649223Y-3856363D01*
X7647159Y-3854924D01*
X7645096Y-3853488D01*
X7643032Y-3852055D01*
X7640969Y-3850624D01*
X7638905Y-3849195D01*
X7636842Y-3847769D01*
X7634779Y-3846346D01*
X7632716Y-3844924D01*
X7630654Y-3843506D01*
X7628591Y-3842090D01*
X7626528Y-3840676D01*
X7624466Y-3839265D01*
X7622403Y-3837857D01*
X7620341Y-3836451D01*
X7618279Y-3835047D01*
X7616217Y-3833646D01*
X7614155Y-3832247D01*
X7612093Y-3830851D01*
X7610031Y-3829457D01*
X7607969Y-3828066D01*
X7605907Y-3826677D01*
X7603846Y-3825291D01*
X7601784Y-3823907D01*
X7599723Y-3822526D01*
X7597662Y-3821147D01*
X7595601Y-3819771D01*
X7593540Y-3818397D01*
X7591479Y-3817026D01*
X7589418Y-3815657D01*
X7587357Y-3814290D01*
X7585296Y-3812926D01*
X7583236Y-3811564D01*
X7581175Y-3810205D01*
X7579115Y-3808849D01*
X7577054Y-3807494D01*
X7574994Y-3806143D01*
X7572934Y-3804793D01*
X7570873Y-3803446D01*
X7568813Y-3802102D01*
X7566753Y-3800760D01*
X7564693Y-3799420D01*
X7562634Y-3798083D01*
X7560574Y-3796748D01*
X7558514Y-3795416D01*
X7556455Y-3794086D01*
X7554395Y-3792759D01*
X7552336Y-3791434D01*
X7550276Y-3790111D01*
X7548217Y-3788791D01*
X7546158Y-3787473D01*
X7544099Y-3786158D01*
X7542040Y-3784845D01*
X7539981Y-3783534D01*
X7537922Y-3782226D01*
X7535863Y-3780921D01*
X7533804Y-3779617D01*
X7531745Y-3778317D01*
X7529687Y-3777018D01*
X7527628Y-3775722D01*
X7525570Y-3774429D01*
X7523511Y-3773137D01*
X7521453Y-3771848D01*
X7519394Y-3770562D01*
X7517336Y-3769278D01*
X7515278Y-3767996D01*
X7513220Y-3766717D01*
X7511162Y-3765440D01*
X7509104Y-3764166D01*
X7507046Y-3762894D01*
X7504988Y-3761624D01*
X7502930Y-3760357D01*
X7500872Y-3759092D01*
X7498814Y-3757829D01*
X7496756Y-3756569D01*
X7494699Y-3755311D01*
X7492641Y-3754056D01*
X7490584Y-3752803D01*
X7488526Y-3751552D01*
X7486469Y-3750304D01*
X7484411Y-3749058D01*
X7482354Y-3747814D01*
X7480297Y-3746573D01*
X7478239Y-3745334D01*
X7476182Y-3744098D01*
X7474125Y-3742864D01*
X7472068Y-3741632D01*
X7470011Y-3740403D01*
X7467954Y-3739176D01*
X7465897Y-3737951D01*
X7463840Y-3736729D01*
X7461783Y-3735508D01*
X7459726Y-3734291D01*
X7457669Y-3733076D01*
X7455612Y-3731863D01*
X7453555Y-3730652D01*
X7451499Y-3729444D01*
X7449442Y-3728238D01*
X7447385Y-3727034D01*
X7445329Y-3725833D01*
X7443272Y-3724634D01*
X7441215Y-3723437D01*
X7439159Y-3722243D01*
X7437102Y-3721051D01*
X7435046Y-3719862D01*
X7432989Y-3718674D01*
X7430933Y-3717489D01*
X7428877Y-3716307D01*
X7426820Y-3715126D01*
X7424764Y-3713948D01*
X7422708Y-3712773D01*
X7420651Y-3711599D01*
X7418595Y-3710428D01*
X7416539Y-3709259D01*
X7414482Y-3708093D01*
X7412426Y-3706929D01*
X7410370Y-3705767D01*
X7408314Y-3704608D01*
X7406258Y-3703450D01*
X7404201Y-3702295D01*
X7402145Y-3701143D01*
X7400089Y-3699992D01*
X7398033Y-3698845D01*
X7395977Y-3697699D01*
X7393921Y-3696555D01*
X7391865Y-3695414D01*
X7389809Y-3694275D01*
X7387752Y-3693139D01*
X7385696Y-3692005D01*
X7383640Y-3690873D01*
X7381584Y-3689743D01*
X7379528Y-3688616D01*
X7377472Y-3687490D01*
X7375416Y-3686368D01*
X7373360Y-3685247D01*
X7371304Y-3684129D01*
X7369248Y-3683013D01*
X7367192Y-3681899D01*
X7365136Y-3680788D01*
X7363080Y-3679678D01*
X7361024Y-3678572D01*
X7358968Y-3677467D01*
X7356912Y-3676365D01*
X7354855Y-3675264D01*
X7352799Y-3674167D01*
X7350743Y-3673071D01*
X7348687Y-3671978D01*
X7346631Y-3670886D01*
X7344575Y-3669798D01*
X7342519Y-3668711D01*
X7340463Y-3667627D01*
X7338406Y-3666545D01*
X7336350Y-3665465D01*
X7334294Y-3664387D01*
X7332238Y-3663312D01*
X7330182Y-3662239D01*
X7328126Y-3661168D01*
X7326069Y-3660100D01*
X7324013Y-3659033D01*
X7321957Y-3657969D01*
X7319900Y-3656907D01*
X7317844Y-3655848D01*
X7315788Y-3654791D01*
X7313731Y-3653735D01*
X7311675Y-3652682D01*
X7309618Y-3651632D01*
X7307562Y-3650583D01*
X7305505Y-3649537D01*
X7303449Y-3648493D01*
X7301392Y-3647451D01*
X7299336Y-3646412D01*
X7297279Y-3645375D01*
X7295222Y-3644339D01*
X7293165Y-3643307D01*
X7291109Y-3642276D01*
X7289052Y-3641247D01*
X7286995Y-3640221D01*
X7284938Y-3639197D01*
X7282881Y-3638176D01*
X7280824Y-3637156D01*
X7278767Y-3636139D01*
X7276710Y-3635123D01*
X7274653Y-3634111D01*
X7272596Y-3633100D01*
X7270539Y-3632091D01*
X7268482Y-3631085D01*
X7266425Y-3630081D01*
X7264367Y-3629079D01*
X7262310Y-3628079D01*
X7260252Y-3627082D01*
X7258195Y-3626086D01*
X7256137Y-3625093D01*
X7254080Y-3624102D01*
X7252022Y-3623113D01*
X7249965Y-3622127D01*
X7247907Y-3621142D01*
X7245849Y-3620160D01*
X7243791Y-3619180D01*
X7241733Y-3618203D01*
X7239675Y-3617227D01*
X7237617Y-3616253D01*
X7235559Y-3615282D01*
X7233501Y-3614313D01*
X7231443Y-3613346D01*
X7229385Y-3612381D01*
X7227326Y-3611419D01*
X7225268Y-3610459D01*
X7223209Y-3609500D01*
X7221151Y-3608544D01*
X7219092Y-3607590D01*
X7217034Y-3606639D01*
X7214975Y-3605689D01*
X7212916Y-3604742D01*
X7208798Y-3602854D01*
X7204680Y-3600974D01*
X7200561Y-3599103D01*
X7196442Y-3597241D01*
X7192323Y-3595387D01*
X7188204Y-3593542D01*
X7184084Y-3591706D01*
X7179963Y-3589878D01*
X7175843Y-3588059D01*
X7171722Y-3586248D01*
X7167600Y-3584446D01*
X7163478Y-3582652D01*
X7159356Y-3580867D01*
X7155234Y-3579091D01*
X7151111Y-3577323D01*
X7146987Y-3575564D01*
X7142863Y-3573813D01*
X7138739Y-3572070D01*
X7134614Y-3570336D01*
X7130489Y-3568611D01*
X7126363Y-3566894D01*
X7122237Y-3565185D01*
X7118110Y-3563485D01*
X7113983Y-3561793D01*
X7109855Y-3560110D01*
X7105727Y-3558435D01*
X7101598Y-3556769D01*
X7097469Y-3555111D01*
X7093339Y-3553461D01*
X7089209Y-3551820D01*
X7085078Y-3550187D01*
X7080946Y-3548563D01*
X7076814Y-3546947D01*
X7072681Y-3545339D01*
X7068548Y-3543740D01*
X7064414Y-3542149D01*
X7060280Y-3540566D01*
X7056145Y-3538992D01*
X7052009Y-3537426D01*
X7047872Y-3535868D01*
X7043735Y-3534318D01*
X7039598Y-3532777D01*
X7035459Y-3531244D01*
X7031320Y-3529720D01*
X7027180Y-3528203D01*
X7023040Y-3526695D01*
X7018899Y-3525195D01*
X7014757Y-3523704D01*
X7010614Y-3522220D01*
X7006470Y-3520745D01*
X7002326Y-3519278D01*
X6998181Y-3517819D01*
X6994036Y-3516369D01*
X6989889Y-3514927D01*
X6985742Y-3513492D01*
X6981594Y-3512066D01*
X6977445Y-3510649D01*
X6973295Y-3509239D01*
X6969145Y-3507838D01*
X6964993Y-3506444D01*
X6960841Y-3505059D01*
X6956688Y-3503682D01*
X6952534Y-3502313D01*
X6948379Y-3500952D01*
X6944224Y-3499600D01*
X6940067Y-3498255D01*
X6935909Y-3496919D01*
X6931751Y-3495591D01*
X6927592Y-3494270D01*
X6923431Y-3492958D01*
X6919270Y-3491654D01*
X6915108Y-3490358D01*
X6910944Y-3489070D01*
X6906780Y-3487791D01*
X6902615Y-3486519D01*
X6898449Y-3485255D01*
X6894282Y-3483999D01*
X6890113Y-3482752D01*
X6885944Y-3481512D01*
X6881774Y-3480281D01*
X6877602Y-3479057D01*
X6873430Y-3477842D01*
X6869256Y-3476634D01*
X6865082Y-3475435D01*
X6860906Y-3474243D01*
X6856729Y-3473060D01*
X6852551Y-3471884D01*
X6848372Y-3470717D01*
X6844192Y-3469557D01*
X6840011Y-3468406D01*
X6835828Y-3467262D01*
X6831644Y-3466126D01*
X6827459Y-3464999D01*
X6823273Y-3463879D01*
X6819086Y-3462767D01*
X6814897Y-3461663D01*
X6810707Y-3460568D01*
X6806516Y-3459480D01*
X6802324Y-3458400D01*
X6798131Y-3457328D01*
X6793936Y-3456264D01*
X6789740Y-3455207D01*
X6785542Y-3454159D01*
X6781343Y-3453119D01*
X6777143Y-3452086D01*
X6772942Y-3451062D01*
X6768739Y-3450045D01*
X6764535Y-3449036D01*
X6760330Y-3448035D01*
X6756123Y-3447042D01*
X6751914Y-3446057D01*
X6747705Y-3445080D01*
X6743494Y-3444111D01*
X6739281Y-3443149D01*
X6735067Y-3442196D01*
X6730852Y-3441250D01*
X6726635Y-3440312D01*
X6722417Y-3439382D01*
X6718197Y-3438460D01*
X6713975Y-3437546D01*
X6709752Y-3436639D01*
X6705528Y-3435741D01*
X6701302Y-3434850D01*
X6697075Y-3433967D01*
X6692846Y-3433092D01*
X6688615Y-3432225D01*
X6684383Y-3431365D01*
X6680149Y-3430514D01*
X6675914Y-3429670D01*
X6671677Y-3428834D01*
X6667438Y-3428006D01*
X6663197Y-3427186D01*
X6658955Y-3426373D01*
X6654712Y-3425569D01*
X6650466Y-3424772D01*
X6646219Y-3423983D01*
X6641971Y-3423202D01*
X6637720Y-3422429D01*
X6633468Y-3421663D01*
X6629214Y-3420905D01*
X6624958Y-3420156D01*
X6620700Y-3419413D01*
X6616441Y-3418679D01*
X6612180Y-3417953D01*
X6607917Y-3417234D01*
X6603652Y-3416523D01*
X6599386Y-3415820D01*
X6595117Y-3415125D01*
X6590847Y-3414437D01*
X6586574Y-3413757D01*
X6582300Y-3413085D01*
X6578024Y-3412421D01*
X6573746Y-3411765D01*
X6569466Y-3411116D01*
X6565184Y-3410476D01*
X6560900Y-3409843D01*
X6556615Y-3409218D01*
X6552327Y-3408600D01*
X6548037Y-3407991D01*
X6543745Y-3407389D01*
X6539451Y-3406795D01*
X6535155Y-3406208D01*
X6530857Y-3405630D01*
X6526557Y-3405059D01*
X6522255Y-3404496D01*
X6517951Y-3403941D01*
X6513644Y-3403394D01*
X6509336Y-3402855D01*
X6505025Y-3402323D01*
X6500712Y-3401799D01*
X6496397Y-3401283D01*
X6492080Y-3400774D01*
X6487760Y-3400274D01*
X6483439Y-3399781D01*
X6479115Y-3399296D01*
X6474788Y-3398819D01*
X6470460Y-3398350D01*
X6466129Y-3397888D01*
X6461796Y-3397434D01*
X6457461Y-3396988D01*
X6453123Y-3396550D01*
X6448783Y-3396119D01*
X6444441Y-3395697D01*
X6440096Y-3395282D01*
X6435749Y-3394875D01*
X6431400Y-3394476D01*
X6427048Y-3394084D01*
X6422693Y-3393701D01*
X6418336Y-3393325D01*
X6413977Y-3392957D01*
X6409615Y-3392597D01*
X6405251Y-3392245D01*
X6400884Y-3391900D01*
X6396515Y-3391563D01*
X6392143Y-3391234D01*
X6387769Y-3390913D01*
X6383392Y-3390600D01*
X6379012Y-3390295D01*
X6374630Y-3389997D01*
X6370245Y-3389708D01*
X6365858Y-3389426D01*
X6361467Y-3389152D01*
X6357075Y-3388885D01*
X6352679Y-3388627D01*
X6348281Y-3388377D01*
X6343880Y-3388134D01*
X6339476Y-3387899D01*
X6335070Y-3387672D01*
X6330661Y-3387453D01*
X6326249Y-3387242D01*
X6321834Y-3387038D01*
X6317416Y-3386843D01*
X6312996Y-3386655D01*
X6308572Y-3386476D01*
X6304146Y-3386304D01*
X6299717Y-3386140D01*
X6295285Y-3385984D01*
X6290850Y-3385836D01*
X6286412Y-3385695D01*
X6281971Y-3385563D01*
X6277527Y-3385439D01*
X6273080Y-3385322D01*
X6268631Y-3385214D01*
X6264178Y-3385113D01*
X6259722Y-3385020D01*
X6255263Y-3384935D01*
X6250800Y-3384858D01*
X6246335Y-3384789D01*
X6241867Y-3384728D01*
X6237395Y-3384675D01*
X6232920Y-3384630D01*
X6228442Y-3384593D01*
X6223961Y-3384564D01*
X6219477Y-3384543D01*
X6214989Y-3384530D01*
X6210498Y-3384524D01*
X6206004Y-3384527D01*
X6201507Y-3384538D01*
X6197006Y-3384557D01*
X6192502Y-3384584D01*
X6187994Y-3384618D01*
X6183484Y-3384661D01*
X6178969Y-3384712D01*
X6174452Y-3384771D01*
X6169930Y-3384838D01*
X6165406Y-3384913D01*
X6160878Y-3384996D01*
X6156346Y-3385087D01*
X6151811Y-3385186D01*
X6147272Y-3385293D01*
X6142730Y-3385409D01*
X6138184Y-3385532D01*
X6133635Y-3385663D01*
X6129082Y-3385803D01*
X6124525Y-3385951D01*
X6119964Y-3386107D01*
X6115400Y-3386271D01*
X6110833Y-3386443D01*
X6106261Y-3386623D01*
X6101686Y-3386811D01*
X6097107Y-3387008D01*
X6092524Y-3387212D01*
X6087937Y-3387425D01*
X6083346Y-3387646D01*
X6078752Y-3387876D01*
X6074153Y-3388113D01*
X6069551Y-3388359D01*
X6064945Y-3388612D01*
X6060335Y-3388875D01*
X6055721Y-3389145D01*
X6051102Y-3389423D01*
X6046480Y-3389710D01*
X6041854Y-3390005D01*
X6037223Y-3390309D01*
X6032589Y-3390620D01*
X6027950Y-3390940D01*
X6023307Y-3391268D01*
X6018660Y-3391605D01*
X6014009Y-3391950D01*
X6009354Y-3392303D01*
X6004694Y-3392664D01*
X6000030Y-3393034D01*
X5995362Y-3393413D01*
X5990689Y-3393799D01*
X5986012Y-3394194D01*
X5981331Y-3394597D01*
X5976645Y-3395009D01*
X5971955Y-3395429D01*
X5967260Y-3395858D01*
X5962561Y-3396295D01*
X5957858Y-3396741D01*
X5953149Y-3397195D01*
X5948437Y-3397657D01*
X5943719Y-3398128D01*
X5938997Y-3398607D01*
X5934270Y-3399095D01*
X5929539Y-3399592D01*
X5924803Y-3400097D01*
X5920062Y-3400610D01*
X5915317Y-3401132D01*
X5910566Y-3401663D01*
X5905811Y-3402202D01*
X5901051Y-3402750D01*
X5896286Y-3403306D01*
X5891516Y-3403871D01*
X5886741Y-3404445D01*
X5881961Y-3405027D01*
X5877177Y-3405618D01*
X5872387Y-3406218D01*
X5867592Y-3406827D01*
X5862792Y-3407444D01*
X5857987Y-3408069D01*
X5853176Y-3408704D01*
X5848361Y-3409347D01*
X5843540Y-3409999D01*
X5838714Y-3410660D01*
X5833883Y-3411330D01*
X5829046Y-3412008D01*
X5824204Y-3412695D01*
X5819357Y-3413391D01*
X5814504Y-3414096D01*
X5809645Y-3414810D01*
X5804782Y-3415533D01*
X5799912Y-3416264D01*
X5795037Y-3417005D01*
X5790157Y-3417754D01*
X5785271Y-3418513D01*
X5780379Y-3419280D01*
X5775481Y-3420057D01*
X5770578Y-3420842D01*
X5765669Y-3421636D01*
X5760754Y-3422440D01*
X5755833Y-3423252D01*
X5750907Y-3424074D01*
X5745974Y-3424905D01*
X5741035Y-3425744D01*
X5736091Y-3426593D01*
X5731140Y-3427451D01*
X5726183Y-3428319D01*
X5721220Y-3429195D01*
X5716251Y-3430081D01*
X5711276Y-3430975D01*
X5706294Y-3431879D01*
X5701306Y-3432793D01*
X5696312Y-3433715D01*
X5691312Y-3434647D01*
X5686305Y-3435589D01*
X5681291Y-3436539D01*
X5676271Y-3437499D01*
X5671244Y-3438469D01*
X5666211Y-3439448D01*
X5661171Y-3440436D01*
X5656125Y-3441434D01*
X5651071Y-3442441D01*
X5646011Y-3443458D01*
X5640944Y-3444484D01*
X5635870Y-3445520D01*
X5630789Y-3446565D01*
X5625701Y-3447620D01*
X5620607Y-3448684D01*
X5615505Y-3449759D01*
X5610395Y-3450843D01*
X5605279Y-3451936D01*
X5600156Y-3453039D01*
X5595025Y-3454153D01*
X5589887Y-3455275D01*
X5584741Y-3456408D01*
X5579588Y-3457550D01*
X5574427Y-3458703D01*
X5569259Y-3459865D01*
X5564083Y-3461037D01*
X5558900Y-3462219D01*
X5553709Y-3463411D01*
X5548509Y-3464613D01*
X5543303Y-3465825D01*
X5538088Y-3467047D01*
X5532865Y-3468279D01*
X5527634Y-3469522D01*
X5522395Y-3470774D01*
X5517148Y-3472037D01*
X5511892Y-3473309D01*
X5506629Y-3474592D01*
X5501357Y-3475886D01*
X5496076Y-3477189D01*
X5490787Y-3478503D01*
X5485490Y-3479827D01*
X5480183Y-3481162D01*
X5474868Y-3482507D01*
X5469545Y-3483863D01*
X5464212Y-3485229D01*
X5458871Y-3486605D01*
X5453520Y-3487992D01*
X5448160Y-3489390D01*
X5442792Y-3490798D01*
X5437414Y-3492218D01*
X5432026Y-3493647D01*
X5426630Y-3495088D01*
X5421224Y-3496539D01*
X5415808Y-3498002D01*
X5410382Y-3499475D01*
X5404947Y-3500959D01*
X5399503Y-3502454D01*
X5394048Y-3503960D01*
X5388583Y-3505477D01*
X5383108Y-3507005D01*
X5377623Y-3508544D01*
X5372128Y-3510094D01*
X5366622Y-3511656D01*
X5361106Y-3513229D01*
X5355580Y-3514813D01*
X5350042Y-3516409D01*
X5344494Y-3518016D01*
X5338935Y-3519634D01*
X5333366Y-3521264D01*
X5327785Y-3522906D01*
X5322193Y-3524559D01*
X5316589Y-3526224D01*
X5310975Y-3527900D01*
X5305349Y-3529588D01*
X5299711Y-3531289D01*
X5294061Y-3533001D01*
X5288400Y-3534725D01*
X5282726Y-3536460D01*
X5277041Y-3538208D01*
X5271343Y-3539969D01*
X5265633Y-3541741D01*
X5259911Y-3543525D01*
X5254176Y-3545322D01*
X5248428Y-3547131D01*
X5242667Y-3548953D01*
X5236893Y-3550787D01*
X5231106Y-3552634D01*
X5225306Y-3554493D01*
X5219492Y-3556365D01*
X5213665Y-3558250D01*
X5207824Y-3560148D01*
X5201969Y-3562058D01*
X5196100Y-3563982D01*
X5190216Y-3565918D01*
X5184319Y-3567868D01*
X5178406Y-3569831D01*
X5172479Y-3571807D01*
X5166537Y-3573797D01*
X5160580Y-3575800D01*
X5154607Y-3577817D01*
X5148619Y-3579848D01*
X5142615Y-3581892D01*
X5136595Y-3583950D01*
X5130560Y-3586022D01*
X5124507Y-3588108D01*
X5118439Y-3590209D01*
X5112353Y-3592323D01*
X5106251Y-3594452D01*
X5100131Y-3596595D01*
X5093994Y-3598753D01*
X5087840Y-3600926D01*
X5081667Y-3603113D01*
X5075476Y-3605315D01*
X5069267Y-3607532D01*
X5063039Y-3609765D01*
X5056792Y-3612013D01*
X5050526Y-3614276D01*
X5044240Y-3616554D01*
X5037934Y-3618849D01*
X5031608Y-3621159D01*
X5025262Y-3623485D01*
X5018895Y-3625828D01*
X5012507Y-3628186D01*
X5006098Y-3630561D01*
X4999666Y-3632953D01*
X4993213Y-3635361D01*
X4986737Y-3637786D01*
X4980238Y-3640229D01*
X4973716Y-3642688D01*
X4967170Y-3645165D01*
X4960600Y-3647660D01*
X4954005Y-3650173D01*
X4947386Y-3652703D01*
X4940741Y-3655252D01*
X4934070Y-3657820D01*
X4927372Y-3660406D01*
X4920648Y-3663011D01*
X4913897Y-3665635D01*
X4907117Y-3668279D01*
X4900309Y-3670942D01*
X4893472Y-3673626D01*
X4886605Y-3676329D01*
X4879707Y-3679053D01*
X4872779Y-3681798D01*
X4865819Y-3684564D01*
X4858827Y-3687352D01*
X4851802Y-3690161D01*
X4844743Y-3692992D01*
X4837649Y-3695846D01*
X4830520Y-3698722D01*
X4823355Y-3701622D01*
X4816153Y-3704546D01*
X4808912Y-3707493D01*
X4801633Y-3710465D01*
X4794313Y-3713462D01*
X4786952Y-3716485D01*
X4779549Y-3719533D01*
X4772103Y-3722608D01*
X4764612Y-3725710D01*
X4757076Y-3728839D01*
X4749492Y-3731997D01*
X4741859Y-3735183D01*
X4734177Y-3738400D01*
X4726443Y-3741646D01*
X4718655Y-3744923D01*
X4710812Y-3748233D01*
X4702913Y-3751574D01*
X4694954Y-3754950D01*
X4686935Y-3758360D01*
X4678852Y-3761805D01*
X4670704Y-3765288D01*
X4662488Y-3768807D01*
X4654200Y-3772366D01*
X4645840Y-3775966D01*
X4637402Y-3779606D01*
X4628884Y-3783291D01*
X4620282Y-3787020D01*
X4611593Y-3790795D01*
X4602812Y-3794620D01*
X4593935Y-3798494D01*
X4584956Y-3802422D01*
X4575870Y-3806406D01*
X4566672Y-3810447D01*
X4557353Y-3814550D01*
X4547909Y-3818717D01*
X4538329Y-3822952D01*
X4528606Y-3827259D01*
X4518728Y-3831644D01*
X4508685Y-3836110D01*
X4498464Y-3840665D01*
X4488049Y-3845314D01*
X4477424Y-3850066D01*
X4466569Y-3854929D01*
X4455460Y-3859915D01*
X4444069Y-3865036D01*
X4432363Y-3870308D01*
X4420300Y-3875748D01*
X4407828Y-3881382D01*
X4394883Y-3887238D01*
X4381377Y-3893356D01*
X4367191Y-3899791D01*
X4352158Y-3906619D01*
X4336018Y-3913957D01*
X4318345Y-3922002D01*
X4298312Y-3931128D01*
X4273860Y-3942276D01*
X4258716Y-3949182D01*
X4240884Y-3957314D01*
X4223107Y-3965418D01*
X4205385Y-3973493D01*
X4187719Y-3981536D01*
X4178907Y-3985545D01*
X4170108Y-3989545D01*
X4161324Y-3993537D01*
X4152553Y-3997519D01*
X4143797Y-4001491D01*
X4135054Y-4005453D01*
X4126326Y-4009405D01*
X4117612Y-4013347D01*
X4108912Y-4017278D01*
X4100226Y-4021198D01*
X4091554Y-4025107D01*
X4082896Y-4029004D01*
X4074253Y-4032889D01*
X4065624Y-4036762D01*
X4057009Y-4040623D01*
X4048409Y-4044471D01*
X4039822Y-4048306D01*
X4031251Y-4052128D01*
X4022693Y-4055936D01*
X4014150Y-4059730D01*
X4005622Y-4063510D01*
X3997108Y-4067276D01*
X3988609Y-4071027D01*
X3980124Y-4074763D01*
X3975887Y-4076625D01*
X3971653Y-4078484D01*
X3967424Y-4080339D01*
X3963198Y-4082189D01*
X3958975Y-4084036D01*
X3954757Y-4085879D01*
X3950542Y-4087718D01*
X3946330Y-4089552D01*
X3942123Y-4091383D01*
X3937919Y-4093209D01*
X3933718Y-4095032D01*
X3929522Y-4096850D01*
X3925329Y-4098664D01*
X3921139Y-4100473D01*
X3916954Y-4102279D01*
X3912772Y-4104080D01*
X3908594Y-4105876D01*
X3904419Y-4107668D01*
X3900249Y-4109456D01*
X3896082Y-4111239D01*
X3891918Y-4113018D01*
X3887759Y-4114792D01*
X3883603Y-4116562D01*
X3879451Y-4118327D01*
X3875302Y-4120087D01*
X3871157Y-4121843D01*
X3867016Y-4123594D01*
X3862879Y-4125340D01*
X3858746Y-4127081D01*
X3854616Y-4128818D01*
X3850490Y-4130549D01*
X3846368Y-4132276D01*
X3842249Y-4133998D01*
X3838135Y-4135715D01*
X3834024Y-4137427D01*
X3829916Y-4139133D01*
X3825813Y-4140835D01*
X3821713Y-4142532D01*
X3817617Y-4144223D01*
X3813525Y-4145910D01*
X3809437Y-4147591D01*
X3805353Y-4149266D01*
X3801272Y-4150937D01*
X3797195Y-4152602D01*
X3793122Y-4154262D01*
X3789053Y-4155916D01*
X3784987Y-4157565D01*
X3780925Y-4159209D01*
X3776868Y-4160847D01*
X3772814Y-4162479D01*
X3768763Y-4164106D01*
X3764717Y-4165728D01*
X3760674Y-4167343D01*
X3756636Y-4168953D01*
X3752601Y-4170558D01*
X3748570Y-4172156D01*
X3744542Y-4173749D01*
X3740519Y-4175336D01*
X3736499Y-4176917D01*
X3732484Y-4178492D01*
X3728472Y-4180061D01*
X3724464Y-4181625D01*
X3720460Y-4183182D01*
X3716460Y-4184733D01*
X3712463Y-4186278D01*
X3708471Y-4187818D01*
X3704482Y-4189351D01*
X3700498Y-4190877D01*
X3696517Y-4192398D01*
X3692540Y-4193912D01*
X3688567Y-4195421D01*
X3684598Y-4196922D01*
X3680632Y-4198418D01*
X3676671Y-4199907D01*
X3672714Y-4201390D01*
X3668760Y-4202866D01*
X3664810Y-4204335D01*
X3660865Y-4205799D01*
X3656923Y-4207255D01*
X3652985Y-4208705D01*
X3649051Y-4210149D01*
X3645121Y-4211586D01*
X3641195Y-4213016D01*
X3637273Y-4214439D01*
X3633355Y-4215855D01*
X3629441Y-4217265D01*
X3625530Y-4218668D01*
X3621624Y-4220064D01*
X3617722Y-4221453D01*
X3613823Y-4222835D01*
X3609929Y-4224211D01*
X3606038Y-4225579D01*
X3602152Y-4226940D01*
X3598269Y-4228294D01*
X3594391Y-4229641D01*
X3590516Y-4230981D01*
X3586645Y-4232313D01*
X3582779Y-4233639D01*
X3578916Y-4234957D01*
X3575058Y-4236268D01*
X3571203Y-4237571D01*
X3567352Y-4238867D01*
X3563506Y-4240156D01*
X3559663Y-4241437D01*
X3555824Y-4242711D01*
X3551990Y-4243977D01*
X3548159Y-4245236D01*
X3544333Y-4246487D01*
X3540510Y-4247731D01*
X3536692Y-4248967D01*
X3532877Y-4250195D01*
X3529067Y-4251416D01*
X3525261Y-4252628D01*
X3521458Y-4253833D01*
X3517660Y-4255030D01*
X3513866Y-4256220D01*
X3510076Y-4257401D01*
X3506290Y-4258575D01*
X3502508Y-4259740D01*
X3498730Y-4260898D01*
X3494956Y-4262047D01*
X3491186Y-4263188D01*
X3487420Y-4264322D01*
X3483658Y-4265447D01*
X3479901Y-4266564D01*
X3476147Y-4267673D01*
X3472398Y-4268773D01*
X3468653Y-4269865D01*
X3464911Y-4270949D01*
X3461174Y-4272025D01*
X3457441Y-4273092D01*
X3453712Y-4274151D01*
X3449988Y-4275201D01*
X3446267Y-4276243D01*
X3442550Y-4277276D01*
X3438838Y-4278301D01*
X3435130Y-4279317D01*
X3431426Y-4280324D01*
X3427726Y-4281323D01*
X3424030Y-4282313D01*
X3420338Y-4283295D01*
X3416650Y-4284267D01*
X3412967Y-4285231D01*
X3409287Y-4286186D01*
X3405612Y-4287132D01*
X3401941Y-4288069D01*
X3398274Y-4288997D01*
X3394612Y-4289917D01*
X3390953Y-4290827D01*
X3387299Y-4291728D01*
X3383649Y-4292620D01*
X3380003Y-4293503D01*
X3376361Y-4294377D01*
X3374542Y-4294810D01*
X3372723Y-4295241D01*
X3370906Y-4295670D01*
X3369090Y-4296097D01*
X3367275Y-4296521D01*
X3365461Y-4296943D01*
X3363648Y-4297362D01*
X3361836Y-4297779D01*
X3360025Y-4298194D01*
X3358215Y-4298607D01*
X3356406Y-4299017D01*
X3354598Y-4299425D01*
X3352792Y-4299830D01*
X3350986Y-4300233D01*
X3349181Y-4300634D01*
X3347378Y-4301033D01*
X3345575Y-4301429D01*
X3343774Y-4301822D01*
X3341973Y-4302214D01*
X3340174Y-4302603D01*
X3338376Y-4302989D01*
X3336578Y-4303373D01*
X3334782Y-4303755D01*
X3332987Y-4304134D01*
X3331193Y-4304511D01*
X3329400Y-4304886D01*
X3327608Y-4305258D01*
X3325817Y-4305628D01*
X3324027Y-4305995D01*
X3322239Y-4306360D01*
X3320451Y-4306722D01*
X3318664Y-4307082D01*
X3316879Y-4307440D01*
X3315094Y-4307795D01*
X3313311Y-4308147D01*
X3311528Y-4308498D01*
X3309747Y-4308845D01*
X3307967Y-4309191D01*
X3306187Y-4309533D01*
X3304409Y-4309874D01*
X3302632Y-4310212D01*
X3300856Y-4310547D01*
X3299081Y-4310880D01*
X3297307Y-4311210D01*
X3295534Y-4311538D01*
X3293763Y-4311863D01*
X3291992Y-4312186D01*
X3290222Y-4312507D01*
X3288454Y-4312825D01*
X3286686Y-4313140D01*
X3284920Y-4313453D01*
X3283154Y-4313763D01*
X3281390Y-4314071D01*
X3279627Y-4314376D01*
X3277865Y-4314679D01*
X3276104Y-4314979D01*
X3274344Y-4315277D01*
X3272585Y-4315572D01*
X3270827Y-4315865D01*
X3269070Y-4316155D01*
X3267314Y-4316442D01*
X3265560Y-4316727D01*
X3263806Y-4317009D01*
X3262054Y-4317289D01*
X3260302Y-4317566D01*
X3258552Y-4317841D01*
X3256803Y-4318113D01*
X3255055Y-4318382D01*
X3253307Y-4318649D01*
X3251561Y-4318913D01*
X3249816Y-4319174D01*
X3248073Y-4319433D01*
X3246330Y-4319690D01*
X3244588Y-4319943D01*
X3242847Y-4320194D01*
X3241108Y-4320443D01*
X3239369Y-4320689D01*
X3237632Y-4320932D01*
X3235896Y-4321172D01*
X3234160Y-4321410D01*
X3232426Y-4321646D01*
X3230693Y-4321878D01*
X3228961Y-4322108D01*
X3227230Y-4322335D01*
X3225501Y-4322560D01*
X3223772Y-4322782D01*
X3222044Y-4323001D01*
X3220318Y-4323218D01*
X3218592Y-4323432D01*
X3216868Y-4323643D01*
X3215144Y-4323851D01*
X3213422Y-4324057D01*
X3211701Y-4324260D01*
X3209981Y-4324460D01*
X3208262Y-4324658D01*
X3206544Y-4324853D01*
X3204827Y-4325045D01*
X3203112Y-4325235D01*
X3201397Y-4325422D01*
X3199684Y-4325606D01*
X3197971Y-4325787D01*
X3196260Y-4325965D01*
X3194550Y-4326141D01*
X3192840Y-4326314D01*
X3191132Y-4326485D01*
X3189425Y-4326652D01*
X3187720Y-4326817D01*
X3186015Y-4326979D01*
X3184311Y-4327138D01*
X3182609Y-4327295D01*
X3180907Y-4327448D01*
X3179207Y-4327599D01*
X3177507Y-4327747D01*
X3175809Y-4327892D01*
X3174112Y-4328035D01*
X3172416Y-4328175D01*
X3170721Y-4328311D01*
X3169027Y-4328446D01*
X3167335Y-4328577D01*
X3165643Y-4328705D01*
X3163953Y-4328831D01*
X3162263Y-4328953D01*
X3160575Y-4329073D01*
X3158888Y-4329190D01*
X3157202Y-4329305D01*
X3155517Y-4329416D01*
X3153833Y-4329525D01*
X3152150Y-4329630D01*
X3150468Y-4329733D01*
X3148788Y-4329833D01*
X3147108Y-4329930D01*
X3145430Y-4330024D01*
X3143753Y-4330116D01*
X3142076Y-4330204D01*
X3140401Y-4330290D01*
X3138727Y-4330372D01*
X3137055Y-4330452D01*
X3135383Y-4330529D01*
X3133712Y-4330603D01*
X3132043Y-4330674D01*
X3130374Y-4330742D01*
X3128707Y-4330807D01*
X3127041Y-4330869D01*
X3125376Y-4330929D01*
X3123712Y-4330985D01*
X3122049Y-4331039D01*
X3120387Y-4331089D01*
X3118726Y-4331137D01*
X3117067Y-4331181D01*
X3115409Y-4331223D01*
X3113751Y-4331262D01*
X3112095Y-4331298D01*
X3110440Y-4331330D01*
X3108786Y-4331360D01*
X3107133Y-4331387D01*
X3105481Y-4331411D01*
X3103831Y-4331432D01*
X3102181Y-4331450D01*
X3100533Y-4331465D01*
X3098886Y-4331476D01*
X3097240Y-4331485D01*
X3095595Y-4331491D01*
X3093951Y-4331494D01*
X3092308Y-4331494D01*
X3090666Y-4331491D01*
X3089026Y-4331485D01*
X3087386Y-4331475D01*
X3085748Y-4331463D01*
X3084111Y-4331448D01*
X3082475Y-4331430D01*
X3080840Y-4331408D01*
X3079206Y-4331384D01*
X3077573Y-4331356D01*
X3075942Y-4331326D01*
X3074311Y-4331292D01*
X3072682Y-4331255D01*
X3071054Y-4331216D01*
X3069427Y-4331173D01*
X3067801Y-4331127D01*
X3066176Y-4331078D01*
X3064552Y-4331026D01*
X3062929Y-4330971D01*
X3061308Y-4330912D01*
X3059688Y-4330851D01*
X3058069Y-4330786D01*
X3056450Y-4330719D01*
X3054834Y-4330648D01*
X3053218Y-4330574D01*
X3051603Y-4330497D01*
X3049990Y-4330417D01*
X3048377Y-4330334D01*
X3046766Y-4330247D01*
X3045156Y-4330158D01*
X3043547Y-4330065D01*
X3041939Y-4329969D01*
X3040332Y-4329870D01*
X3038726Y-4329768D01*
X3037122Y-4329663D01*
X3035519Y-4329554D01*
X3033916Y-4329443D01*
X3032315Y-4329328D01*
X3030715Y-4329210D01*
X3029117Y-4329089D01*
X3027519Y-4328964D01*
X3025922Y-4328837D01*
X3024327Y-4328706D01*
X3022733Y-4328572D01*
X3021140Y-4328435D01*
X3019548Y-4328294D01*
X3017957Y-4328151D01*
X3016367Y-4328004D01*
X3014779Y-4327854D01*
X3013191Y-4327700D01*
X3011605Y-4327544D01*
X3010020Y-4327384D01*
X3008436Y-4327221D01*
X3006853Y-4327055D01*
X3005271Y-4326885D01*
X3003691Y-4326712D01*
X3002111Y-4326536D01*
X3000533Y-4326357D01*
X2998956Y-4326174D01*
X2997380Y-4325988D01*
X2995805Y-4325799D01*
X2994231Y-4325607D01*
X2992659Y-4325411D01*
X2991087Y-4325212D01*
X2989517Y-4325009D01*
X2987948Y-4324804D01*
X2986380Y-4324595D01*
X2984813Y-4324383D01*
X2983248Y-4324167D01*
X2981683Y-4323948D01*
X2980120Y-4323726D01*
X2978557Y-4323500D01*
X2976996Y-4323271D01*
X2975437Y-4323039D01*
X2973878Y-4322804D01*
X2972320Y-4322565D01*
X2970764Y-4322322D01*
X2969208Y-4322077D01*
X2967654Y-4321828D01*
X2966101Y-4321575D01*
X2964549Y-4321320D01*
X2962999Y-4321061D01*
X2961449Y-4320798D01*
X2959901Y-4320532D01*
X2958354Y-4320263D01*
X2956808Y-4319991D01*
X2955263Y-4319715D01*
X2953719Y-4319435D01*
X2952176Y-4319152D01*
X2950635Y-4318866D01*
X2949095Y-4318576D01*
X2947556Y-4318283D01*
X2946018Y-4317987D01*
X2944481Y-4317687D01*
X2942945Y-4317384D01*
X2941411Y-4317077D01*
X2939877Y-4316767D01*
X2938345Y-4316453D01*
X2936814Y-4316136D01*
X2935284Y-4315815D01*
X2933756Y-4315491D01*
X2932228Y-4315164D01*
X2930702Y-4314833D01*
X2929177Y-4314499D01*
X2927653Y-4314161D01*
X2926130Y-4313819D01*
X2924608Y-4313475D01*
X2923088Y-4313126D01*
X2921569Y-4312775D01*
X2920050Y-4312419D01*
X2918533Y-4312060D01*
X2917018Y-4311698D01*
X2915503Y-4311332D01*
X2913989Y-4310963D01*
X2912477Y-4310590D01*
X2910966Y-4310214D01*
X2909456Y-4309834D01*
X2907947Y-4309450D01*
X2906439Y-4309063D01*
X2904933Y-4308673D01*
X2903428Y-4308279D01*
X2901924Y-4307881D01*
X2900421Y-4307480D01*
X2898919Y-4307075D01*
X2897418Y-4306667D01*
X2895919Y-4306255D01*
X2894421Y-4305840D01*
X2892923Y-4305421D01*
X2891428Y-4304998D01*
X2889933Y-4304572D01*
X2888439Y-4304142D01*
X2886947Y-4303709D01*
X2885456Y-4303272D01*
X2883966Y-4302832D01*
X2882477Y-4302388D01*
X2880989Y-4301940D01*
X2879503Y-4301488D01*
X2878017Y-4301033D01*
X2876533Y-4300575D01*
X2875050Y-4300113D01*
X2873569Y-4299647D01*
X2872088Y-4299177D01*
X2870609Y-4298704D01*
X2869130Y-4298227D01*
X2867653Y-4297747D01*
X2866178Y-4297263D01*
X2864703Y-4296775D01*
X2863229Y-4296284D01*
X2861757Y-4295789D01*
X2860286Y-4295290D01*
X2858816Y-4294787D01*
X2857347Y-4294281D01*
X2855880Y-4293772D01*
X2854413Y-4293258D01*
X2852948Y-4292741D01*
X2851484Y-4292220D01*
X2850021Y-4291695D01*
X2848560Y-4291167D01*
X2847099Y-4290635D01*
X2845640Y-4290099D01*
X2844182Y-4289560D01*
X2842725Y-4289017D01*
X2841270Y-4288470D01*
X2839815Y-4287919D01*
X2838362Y-4287365D01*
X2836910Y-4286807D01*
X2835459Y-4286245D01*
X2834009Y-4285679D01*
X2832561Y-4285110D01*
X2831113Y-4284537D01*
X2829667Y-4283960D01*
X2828222Y-4283379D01*
X2826778Y-4282795D01*
X2825336Y-4282207D01*
X2823895Y-4281615D01*
X2822454Y-4281019D01*
X2821015Y-4280419D01*
X2819578Y-4279816D01*
X2818141Y-4279209D01*
X2816706Y-4278598D01*
X2815272Y-4277983D01*
X2813839Y-4277365D01*
X2812407Y-4276742D01*
X2810976Y-4276116D01*
X2809547Y-4275486D01*
X2808119Y-4274852D01*
X2806692Y-4274214D01*
X2805266Y-4273573D01*
X2803842Y-4272928D01*
X2802418Y-4272278D01*
X2800996Y-4271625D01*
X2799575Y-4270968D01*
X2798155Y-4270307D01*
X2796737Y-4269643D01*
X2795320Y-4268974D01*
X2793904Y-4268302D01*
X2792489Y-4267626D01*
X2791075Y-4266945D01*
X2789662Y-4266261D01*
X2788251Y-4265573D01*
X2786841Y-4264881D01*
X2785432Y-4264186D01*
X2784024Y-4263486D01*
X2782618Y-4262782D01*
X2781213Y-4262075D01*
X2779809Y-4261364D01*
X2778406Y-4260648D01*
X2777004Y-4259929D01*
X2775604Y-4259206D01*
X2774205Y-4258479D01*
X2772807Y-4257748D01*
X2771410Y-4257013D01*
X2770014Y-4256274D01*
X2768620Y-4255531D01*
X2767227Y-4254784D01*
X2765835Y-4254033D01*
X2764444Y-4253278D01*
X2763055Y-4252520D01*
X2761666Y-4251757D01*
X2760279Y-4250990D01*
X2758893Y-4250219D01*
X2757509Y-4249445D01*
X2756125Y-4248666D01*
X2754743Y-4247883D01*
X2753362Y-4247097D01*
X2751982Y-4246306D01*
X2750604Y-4245511D01*
X2749227Y-4244713D01*
X2747851Y-4243910D01*
X2746476Y-4243103D01*
X2745102Y-4242292D01*
X2743730Y-4241477D01*
X2742358Y-4240659D01*
X2740988Y-4239836D01*
X2739620Y-4239009D01*
X2738252Y-4238178D01*
X2736886Y-4237343D01*
X2735521Y-4236504D01*
X2734157Y-4235660D01*
X2732794Y-4234813D01*
X2731433Y-4233962D01*
X2730072Y-4233106D01*
X2728713Y-4232247D01*
X2727356Y-4231383D01*
X2725999Y-4230516D01*
X2724644Y-4229644D01*
X2723290Y-4228768D01*
X2721937Y-4227888D01*
X2720585Y-4227004D01*
X2719235Y-4226116D01*
X2717886Y-4225224D01*
X2716538Y-4224327D01*
X2715191Y-4223427D01*
X2713846Y-4222522D01*
X2712502Y-4221613D01*
X2711159Y-4220700D01*
X2709817Y-4219783D01*
X2708476Y-4218862D01*
X2707137Y-4217937D01*
X2705799Y-4217007D01*
X2704462Y-4216074D01*
X2703127Y-4215136D01*
X2701792Y-4214194D01*
X2700459Y-4213247D01*
X2699127Y-4212297D01*
X2697797Y-4211343D01*
X2696467Y-4210384D01*
X2695139Y-4209421D01*
X2693812Y-4208454D01*
X2692486Y-4207482D01*
X2691162Y-4206507D01*
X2689839Y-4205527D01*
X2688517Y-4204543D01*
X2687196Y-4203555D01*
X2685876Y-4202563D01*
X2684558Y-4201566D01*
X2683241Y-4200565D01*
X2681925Y-4199560D01*
X2680611Y-4198551D01*
X2679298Y-4197537D01*
X2677986Y-4196519D01*
X2676675Y-4195497D01*
X2675365Y-4194471D01*
X2674057Y-4193440D01*
X2672750Y-4192405D01*
X2671444Y-4191366D01*
X2670139Y-4190323D01*
X2668836Y-4189275D01*
X2667534Y-4188223D01*
X2666233Y-4187167D01*
X2664934Y-4186106D01*
X2663635Y-4185042D01*
X2662338Y-4183972D01*
X2661042Y-4182899D01*
X2659748Y-4181821D01*
X2658454Y-4180739D01*
X2657162Y-4179653D01*
X2655871Y-4178562D01*
X2654582Y-4177467D01*
X2653293Y-4176368D01*
X2652006Y-4175264D01*
X2650720Y-4174156D01*
X2649436Y-4173044D01*
X2648153Y-4171927D01*
X2646870Y-4170806D01*
X2645590Y-4169680D01*
X2644310Y-4168550D01*
X2643032Y-4167416D01*
X2641755Y-4166278D01*
X2640479Y-4165135D01*
X2639204Y-4163987D01*
X2637931Y-4162836D01*
X2636659Y-4161680D01*
X2635388Y-4160519D01*
X2634119Y-4159354D01*
X2632850Y-4158185D01*
X2631583Y-4157011D01*
X2630318Y-4155833D01*
X2629053Y-4154651D01*
X2627790Y-4153464D01*
X2626528Y-4152272D01*
X2625267Y-4151077D01*
X2624008Y-4149876D01*
X2622750Y-4148672D01*
X2621493Y-4147463D01*
X2620237Y-4146249D01*
X2618983Y-4145031D01*
X2617730Y-4143809D01*
X2616478Y-4142582D01*
X2615227Y-4141350D01*
X2613978Y-4140115D01*
X2612730Y-4138874D01*
X2611483Y-4137629D01*
X2610237Y-4136380D01*
X2608993Y-4135126D01*
X2607750Y-4133868D01*
X2606508Y-4132605D01*
X2605268Y-4131338D01*
X2604029Y-4130066D01*
X2602791Y-4128790D01*
X2601554Y-4127509D01*
X2600319Y-4126224D01*
X2599085Y-4124934D01*
X2597852Y-4123640D01*
X2596620Y-4122341D01*
X2595390Y-4121038D01*
X2594161Y-4119730D01*
X2592933Y-4118417D01*
X2591707Y-4117100D01*
X2590481Y-4115779D01*
X2589258Y-4114453D01*
X2588035Y-4113122D01*
X2586813Y-4111787D01*
X2585593Y-4110447D01*
X2584375Y-4109102D01*
X2583157Y-4107753D01*
X2581941Y-4106400D01*
X2580726Y-4105042D01*
X2579512Y-4103679D01*
X2578300Y-4102312D01*
X2577088Y-4100940D01*
X2575878Y-4099563D01*
X2574670Y-4098182D01*
X2573462Y-4096796D01*
X2572256Y-4095406D01*
X2571052Y-4094011D01*
X2569848Y-4092611D01*
X2568646Y-4091207D01*
X2567445Y-4089798D01*
X2566245Y-4088385D01*
X2565047Y-4086966D01*
X2563850Y-4085543D01*
X2562654Y-4084116D01*
X2561460Y-4082684D01*
X2560266Y-4081247D01*
X2559075Y-4079806D01*
X2557884Y-4078359D01*
X2556694Y-4076909D01*
X2555506Y-4075453D01*
X2554320Y-4073993D01*
X2553134Y-4072528D01*
X2551950Y-4071059D01*
X2550767Y-4069584D01*
X2549585Y-4068105D01*
X2548405Y-4066622D01*
X2547226Y-4065133D01*
X2546048Y-4063640D01*
X2544872Y-4062142D01*
X2543696Y-4060640D01*
X2542523Y-4059133D01*
X2541350Y-4057621D01*
X2540179Y-4056104D01*
X2539009Y-4054582D01*
X2537840Y-4053056D01*
X2536672Y-4051525D01*
X2535506Y-4049989D01*
X2534341Y-4048449D01*
X2533178Y-4046904D01*
X2532016Y-4045354D01*
X2530855Y-4043799D01*
X2529695Y-4042239D01*
X2528537Y-4040675D01*
X2527380Y-4039106D01*
X2526224Y-4037532D01*
X2525069Y-4035953D01*
X2523916Y-4034370D01*
X2522764Y-4032781D01*
X2521614Y-4031188D01*
X2520464Y-4029590D01*
X2519316Y-4027988D01*
X2518170Y-4026380D01*
X2517024Y-4024768D01*
X2515880Y-4023151D01*
X2514737Y-4021528D01*
X2513596Y-4019902D01*
X2512456Y-4018270D01*
X2511317Y-4016633D01*
X2510179Y-4014992D01*
X2509043Y-4013346D01*
X2507908Y-4011694D01*
X2506775Y-4010038D01*
X2505642Y-4008378D01*
X2504511Y-4006712D01*
X2503381Y-4005041D01*
X2502253Y-4003366D01*
X2501126Y-4001685D01*
X2500000Y-4000000D01*
X1250000Y-6500000D02*
X1250000Y-5000000D01*
X8750000Y-5000000D02*
X8747812Y-5003077D01*
X8745625Y-5006151D01*
X8743438Y-5009221D01*
X8741251Y-5012287D01*
X8739064Y-5015348D01*
X8736878Y-5018406D01*
X8734692Y-5021460D01*
X8732506Y-5024511D01*
X8730321Y-5027557D01*
X8728136Y-5030600D01*
X8725951Y-5033638D01*
X8723767Y-5036673D01*
X8721583Y-5039704D01*
X8719399Y-5042731D01*
X8717216Y-5045754D01*
X8715033Y-5048773D01*
X8712850Y-5051789D01*
X8710667Y-5054801D01*
X8708485Y-5057808D01*
X8706304Y-5060812D01*
X8704122Y-5063812D01*
X8701941Y-5066809D01*
X8699760Y-5069801D01*
X8697579Y-5072790D01*
X8695399Y-5075774D01*
X8693219Y-5078755D01*
X8691040Y-5081732D01*
X8688860Y-5084706D01*
X8686682Y-5087675D01*
X8684503Y-5090641D01*
X8682325Y-5093603D01*
X8680146Y-5096561D01*
X8677969Y-5099515D01*
X8675791Y-5102466D01*
X8673614Y-5105412D01*
X8671438Y-5108355D01*
X8669261Y-5111294D01*
X8667085Y-5114230D01*
X8664909Y-5117161D01*
X8662734Y-5120089D01*
X8660559Y-5123013D01*
X8658383Y-5125933D01*
X8656209Y-5128850D01*
X8654035Y-5131762D01*
X8651861Y-5134671D01*
X8649687Y-5137576D01*
X8647514Y-5140478D01*
X8645341Y-5143376D01*
X8643168Y-5146269D01*
X8640996Y-5149160D01*
X8638824Y-5152046D01*
X8636652Y-5154929D01*
X8634480Y-5157808D01*
X8632309Y-5160683D01*
X8630139Y-5163554D01*
X8627968Y-5166422D01*
X8625798Y-5169286D01*
X8623628Y-5172147D01*
X8621458Y-5175003D01*
X8619289Y-5177856D01*
X8617120Y-5180705D01*
X8614951Y-5183551D01*
X8612783Y-5186392D01*
X8610615Y-5189231D01*
X8608447Y-5192065D01*
X8606280Y-5194896D01*
X8604113Y-5197723D01*
X8601946Y-5200546D01*
X8599779Y-5203366D01*
X8597613Y-5206182D01*
X8595447Y-5208994D01*
X8593282Y-5211802D01*
X8591116Y-5214607D01*
X8588951Y-5217409D01*
X8586787Y-5220206D01*
X8584622Y-5223000D01*
X8582458Y-5225790D01*
X8580294Y-5228577D01*
X8578131Y-5231360D01*
X8575968Y-5234139D01*
X8573805Y-5236915D01*
X8571643Y-5239687D01*
X8569480Y-5242455D01*
X8567318Y-5245220D01*
X8565157Y-5247981D01*
X8562995Y-5250738D01*
X8560835Y-5253492D01*
X8558674Y-5256242D01*
X8556513Y-5258989D01*
X8554353Y-5261732D01*
X8552194Y-5264471D01*
X8550034Y-5267207D01*
X8547875Y-5269939D01*
X8545716Y-5272668D01*
X8543557Y-5275392D01*
X8541399Y-5278114D01*
X8539241Y-5280831D01*
X8537083Y-5283546D01*
X8534926Y-5286256D01*
X8532769Y-5288963D01*
X8530612Y-5291666D01*
X8528456Y-5294366D01*
X8526300Y-5297062D01*
X8524144Y-5299755D01*
X8521988Y-5302444D01*
X8519833Y-5305129D01*
X8517678Y-5307811D01*
X8515523Y-5310490D01*
X8513369Y-5313164D01*
X8511215Y-5315836D01*
X8509061Y-5318503D01*
X8506907Y-5321167D01*
X8504754Y-5323828D01*
X8502601Y-5326485D01*
X8500449Y-5329138D01*
X8498296Y-5331788D01*
X8496145Y-5334435D01*
X8493993Y-5337078D01*
X8491842Y-5339717D01*
X8489690Y-5342353D01*
X8487540Y-5344985D01*
X8485389Y-5347614D01*
X8483239Y-5350239D01*
X8481089Y-5352861D01*
X8478939Y-5355479D01*
X8476790Y-5358093D01*
X8474641Y-5360705D01*
X8472492Y-5363312D01*
X8470344Y-5365916D01*
X8468195Y-5368517D01*
X8466048Y-5371114D01*
X8463900Y-5373708D01*
X8461753Y-5376298D01*
X8459606Y-5378885D01*
X8457459Y-5381468D01*
X8455313Y-5384048D01*
X8453167Y-5386624D01*
X8451021Y-5389197D01*
X8448875Y-5391766D01*
X8446730Y-5394332D01*
X8444585Y-5396894D01*
X8442440Y-5399454D01*
X8440296Y-5402009D01*
X8438152Y-5404561D01*
X8436008Y-5407109D01*
X8433865Y-5409655D01*
X8431722Y-5412196D01*
X8429579Y-5414735D01*
X8427436Y-5417269D01*
X8425294Y-5419801D01*
X8423152Y-5422328D01*
X8421010Y-5424853D01*
X8418868Y-5427374D01*
X8416727Y-5429892D01*
X8414586Y-5432406D01*
X8412446Y-5434917D01*
X8410305Y-5437424D01*
X8408165Y-5439928D01*
X8406026Y-5442428D01*
X8403886Y-5444926D01*
X8401747Y-5447419D01*
X8399608Y-5449910D01*
X8397469Y-5452396D01*
X8395331Y-5454880D01*
X8393193Y-5457360D01*
X8391055Y-5459837D01*
X8388918Y-5462310D01*
X8386780Y-5464780D01*
X8384643Y-5467247D01*
X8382507Y-5469710D01*
X8380370Y-5472170D01*
X8378234Y-5474626D01*
X8376099Y-5477079D01*
X8373963Y-5479529D01*
X8371828Y-5481975D01*
X8369693Y-5484418D01*
X8367558Y-5486858D01*
X8365424Y-5489294D01*
X8363290Y-5491727D01*
X8361156Y-5494157D01*
X8359022Y-5496583D01*
X8356889Y-5499006D01*
X8354756Y-5501425D01*
X8352623Y-5503841D01*
X8350491Y-5506254D01*
X8348359Y-5508664D01*
X8346227Y-5511070D01*
X8344095Y-5513473D01*
X8341964Y-5515872D01*
X8339833Y-5518269D01*
X8337702Y-5520661D01*
X8335572Y-5523051D01*
X8333441Y-5525437D01*
X8331311Y-5527820D01*
X8329182Y-5530200D01*
X8327052Y-5532576D01*
X8324923Y-5534949D01*
X8322794Y-5537319D01*
X8320666Y-5539685D01*
X8318538Y-5542049D01*
X8316410Y-5544408D01*
X8314282Y-5546765D01*
X8312154Y-5549118D01*
X8310027Y-5551468D01*
X8307900Y-5553815D01*
X8305773Y-5556158D01*
X8303647Y-5558498D01*
X8301521Y-5560835D01*
X8299395Y-5563169D01*
X8297269Y-5565499D01*
X8295144Y-5567826D01*
X8293019Y-5570150D01*
X8290894Y-5572471D01*
X8288770Y-5574788D01*
X8286646Y-5577102D01*
X8284522Y-5579413D01*
X8282398Y-5581721D01*
X8280274Y-5584025D01*
X8278151Y-5586326D01*
X8276028Y-5588624D01*
X8273906Y-5590919D01*
X8271783Y-5593210D01*
X8269661Y-5595498D01*
X8267539Y-5597783D01*
X8265418Y-5600065D01*
X8263296Y-5602343D01*
X8261175Y-5604619D01*
X8259055Y-5606891D01*
X8256934Y-5609159D01*
X8254814Y-5611425D01*
X8252694Y-5613688D01*
X8250574Y-5615947D01*
X8248455Y-5618203D01*
X8246335Y-5620456D01*
X8244216Y-5622705D01*
X8242098Y-5624952D01*
X8239979Y-5627195D01*
X8237861Y-5629435D01*
X8235743Y-5631672D01*
X8233625Y-5633906D01*
X8231508Y-5636136D01*
X8229391Y-5638364D01*
X8227274Y-5640588D01*
X8225157Y-5642809D01*
X8223041Y-5645026D01*
X8220925Y-5647241D01*
X8218809Y-5649453D01*
X8216693Y-5651661D01*
X8214578Y-5653866D01*
X8212463Y-5656068D01*
X8210348Y-5658267D01*
X8208234Y-5660463D01*
X8206119Y-5662655D01*
X8204005Y-5664845D01*
X8201891Y-5667031D01*
X8199778Y-5669214D01*
X8197665Y-5671394D01*
X8195551Y-5673571D01*
X8193439Y-5675745D01*
X8191326Y-5677916D01*
X8189214Y-5680083D01*
X8187102Y-5682248D01*
X8184990Y-5684409D01*
X8182878Y-5686567D01*
X8180767Y-5688722D01*
X8178656Y-5690874D01*
X8176545Y-5693023D01*
X8174435Y-5695168D01*
X8172324Y-5697311D01*
X8170214Y-5699451D01*
X8168105Y-5701587D01*
X8165995Y-5703720D01*
X8163886Y-5705850D01*
X8161777Y-5707978D01*
X8159668Y-5710102D01*
X8157559Y-5712223D01*
X8155451Y-5714340D01*
X8153343Y-5716455D01*
X8151235Y-5718567D01*
X8149127Y-5720676D01*
X8147020Y-5722781D01*
X8144913Y-5724884D01*
X8142806Y-5726983D01*
X8140699Y-5729079D01*
X8138593Y-5731173D01*
X8136487Y-5733263D01*
X8134381Y-5735350D01*
X8132275Y-5737434D01*
X8130170Y-5739515D01*
X8128065Y-5741593D01*
X8125960Y-5743668D01*
X8123855Y-5745740D01*
X8121750Y-5747809D01*
X8119646Y-5749875D01*
X8117542Y-5751938D01*
X8115438Y-5753998D01*
X8113335Y-5756055D01*
X8111232Y-5758108D01*
X8109129Y-5760159D01*
X8107026Y-5762207D01*
X8104923Y-5764251D01*
X8102821Y-5766293D01*
X8100719Y-5768332D01*
X8098617Y-5770367D01*
X8096515Y-5772400D01*
X8094414Y-5774430D01*
X8092313Y-5776456D01*
X8090212Y-5778480D01*
X8088111Y-5780501D01*
X8086010Y-5782518D01*
X8083910Y-5784533D01*
X8081810Y-5786545D01*
X8079710Y-5788553D01*
X8077611Y-5790559D01*
X8075511Y-5792561D01*
X8073412Y-5794561D01*
X8071313Y-5796558D01*
X8069215Y-5798552D01*
X8067116Y-5800542D01*
X8065018Y-5802530D01*
X8062920Y-5804515D01*
X8060822Y-5806497D01*
X8058725Y-5808476D01*
X8056627Y-5810452D01*
X8054530Y-5812425D01*
X8052433Y-5814395D01*
X8050337Y-5816362D01*
X8048240Y-5818326D01*
X8046144Y-5820287D01*
X8044048Y-5822245D01*
X8041953Y-5824201D01*
X8039857Y-5826153D01*
X8037762Y-5828103D01*
X8035667Y-5830049D01*
X8033572Y-5831993D01*
X8031477Y-5833933D01*
X8029383Y-5835871D01*
X8027288Y-5837806D01*
X8025194Y-5839737D01*
X8023101Y-5841666D01*
X8021007Y-5843592D01*
X8018914Y-5845515D01*
X8016821Y-5847436D01*
X8014728Y-5849353D01*
X8012635Y-5851267D01*
X8010542Y-5853179D01*
X8008450Y-5855087D01*
X8006358Y-5856993D01*
X8004266Y-5858896D01*
X8002175Y-5860796D01*
X8000083Y-5862692D01*
X7997992Y-5864587D01*
X7995901Y-5866478D01*
X7993810Y-5868366D01*
X7991720Y-5870251D01*
X7989629Y-5872134D01*
X7987539Y-5874014D01*
X7985449Y-5875890D01*
X7983359Y-5877764D01*
X7981270Y-5879635D01*
X7979180Y-5881503D01*
X7977091Y-5883369D01*
X7975002Y-5885231D01*
X7972914Y-5887091D01*
X7970825Y-5888947D01*
X7968737Y-5890801D01*
X7966649Y-5892652D01*
X7964561Y-5894501D01*
X7962473Y-5896346D01*
X7960386Y-5898188D01*
X7958298Y-5900028D01*
X7956211Y-5901865D01*
X7954124Y-5903699D01*
X7952038Y-5905530D01*
X7949951Y-5907358D01*
X7947865Y-5909183D01*
X7945779Y-5911006D01*
X7943693Y-5912826D01*
X7941607Y-5914643D01*
X7939521Y-5916457D01*
X7937436Y-5918268D01*
X7935351Y-5920076D01*
X7933266Y-5921882D01*
X7931181Y-5923685D01*
X7929097Y-5925485D01*
X7927012Y-5927282D01*
X7924928Y-5929077D01*
X7922844Y-5930868D01*
X7920761Y-5932657D01*
X7918677Y-5934443D01*
X7916594Y-5936226D01*
X7914510Y-5938007D01*
X7912427Y-5939784D01*
X7910345Y-5941559D01*
X7908262Y-5943331D01*
X7906180Y-5945101D01*
X7904097Y-5946867D01*
X7902015Y-5948631D01*
X7899933Y-5950392D01*
X7897852Y-5952150D01*
X7895770Y-5953905D01*
X7893689Y-5955658D01*
X7891608Y-5957408D01*
X7889527Y-5959155D01*
X7887446Y-5960899D01*
X7885365Y-5962641D01*
X7883285Y-5964379D01*
X7881205Y-5966115D01*
X7879125Y-5967849D01*
X7877045Y-5969579D01*
X7874965Y-5971307D01*
X7872886Y-5973032D01*
X7870806Y-5974754D01*
X7868727Y-5976474D01*
X7866648Y-5978191D01*
X7864569Y-5979905D01*
X7862491Y-5981616D01*
X7860412Y-5983324D01*
X7858334Y-5985030D01*
X7856256Y-5986733D01*
X7854178Y-5988434D01*
X7852100Y-5990131D01*
X7850023Y-5991826D01*
X7847945Y-5993519D01*
X7845868Y-5995208D01*
X7843791Y-5996895D01*
X7841714Y-5998579D01*
X7839637Y-6000260D01*
X7837561Y-6001939D01*
X7835484Y-6003615D01*
X7833408Y-6005288D01*
X7831332Y-6006959D01*
X7829256Y-6008627D01*
X7827181Y-6010292D01*
X7825105Y-6011954D01*
X7823030Y-6013614D01*
X7820954Y-6015271D01*
X7818879Y-6016925D01*
X7816804Y-6018577D01*
X7814730Y-6020226D01*
X7812655Y-6021872D01*
X7810581Y-6023516D01*
X7808507Y-6025157D01*
X7806432Y-6026795D01*
X7804359Y-6028431D01*
X7802285Y-6030064D01*
X7800211Y-6031694D01*
X7798138Y-6033321D01*
X7796064Y-6034946D01*
X7793991Y-6036569D01*
X7791918Y-6038188D01*
X7789845Y-6039805D01*
X7787773Y-6041419D01*
X7785700Y-6043031D01*
X7783628Y-6044640D01*
X7781556Y-6046246D01*
X7779484Y-6047850D01*
X7777412Y-6049451D01*
X7775340Y-6051050D01*
X7773268Y-6052645D01*
X7771197Y-6054238D01*
X7769126Y-6055829D01*
X7767054Y-6057417D01*
X7764983Y-6059002D01*
X7762913Y-6060584D01*
X7760842Y-6062164D01*
X7758771Y-6063742D01*
X7756701Y-6065316D01*
X7754631Y-6066889D01*
X7752560Y-6068458D01*
X7750491Y-6070025D01*
X7748421Y-6071589D01*
X7746351Y-6073151D01*
X7744281Y-6074710D01*
X7742212Y-6076266D01*
X7740143Y-6077820D01*
X7738074Y-6079371D01*
X7736005Y-6080920D01*
X7733936Y-6082466D01*
X7731867Y-6084009D01*
X7729798Y-6085550D01*
X7727730Y-6087088D01*
X7725662Y-6088623D01*
X7723593Y-6090156D01*
X7721525Y-6091687D01*
X7719457Y-6093215D01*
X7717390Y-6094740D01*
X7715322Y-6096263D01*
X7713254Y-6097783D01*
X7711187Y-6099300D01*
X7709120Y-6100815D01*
X7707053Y-6102328D01*
X7704986Y-6103837D01*
X7702919Y-6105345D01*
X7700852Y-6106849D01*
X7698785Y-6108351D01*
X7696719Y-6109851D01*
X7694653Y-6111348D01*
X7692586Y-6112842D01*
X7690520Y-6114334D01*
X7688454Y-6115823D01*
X7686388Y-6117310D01*
X7684323Y-6118794D01*
X7682257Y-6120276D01*
X7680191Y-6121755D01*
X7678126Y-6123231D01*
X7676061Y-6124705D01*
X7673996Y-6126177D01*
X7671931Y-6127646D01*
X7669866Y-6129112D01*
X7667801Y-6130576D01*
X7665736Y-6132037D01*
X7663672Y-6133496D01*
X7661607Y-6134952D01*
X7659543Y-6136406D01*
X7657479Y-6137857D01*
X7655414Y-6139306D01*
X7653350Y-6140752D01*
X7651287Y-6142196D01*
X7649223Y-6143637D01*
X7647159Y-6145075D01*
X7645096Y-6146512D01*
X7643032Y-6147945D01*
X7640969Y-6149376D01*
X7638905Y-6150805D01*
X7636842Y-6152231D01*
X7634779Y-6153654D01*
X7632716Y-6155075D01*
X7630654Y-6156494D01*
X7628591Y-6157910D01*
X7626528Y-6159324D01*
X7624466Y-6160735D01*
X7622403Y-6162143D01*
X7620341Y-6163549D01*
X7618279Y-6164953D01*
X7616217Y-6166354D01*
X7614155Y-6167753D01*
X7612093Y-6169149D01*
X7610031Y-6170543D01*
X7607969Y-6171934D01*
X7605907Y-6173322D01*
X7603846Y-6174709D01*
X7601784Y-6176092D01*
X7599723Y-6177474D01*
X7597662Y-6178853D01*
X7595601Y-6180229D01*
X7593540Y-6181603D01*
X7591479Y-6182974D01*
X7589418Y-6184343D01*
X7587357Y-6185710D01*
X7585296Y-6187074D01*
X7583236Y-6188435D01*
X7581175Y-6189795D01*
X7579115Y-6191151D01*
X7577054Y-6192506D01*
X7574994Y-6193857D01*
X7572934Y-6195207D01*
X7570873Y-6196554D01*
X7568813Y-6197898D01*
X7566753Y-6199240D01*
X7564693Y-6200580D01*
X7562634Y-6201917D01*
X7560574Y-6203252D01*
X7558514Y-6204584D01*
X7556455Y-6205914D01*
X7554395Y-6207241D01*
X7552336Y-6208566D01*
X7550276Y-6209889D01*
X7548217Y-6211209D01*
X7546158Y-6212527D01*
X7544099Y-6213842D01*
X7542040Y-6215155D01*
X7539981Y-6216466D01*
X7537922Y-6217774D01*
X7535863Y-6219079D01*
X7533804Y-6220382D01*
X7531745Y-6221683D01*
X7529687Y-6222982D01*
X7527628Y-6224278D01*
X7525570Y-6225571D01*
X7523511Y-6226863D01*
X7521453Y-6228151D01*
X7519394Y-6229438D01*
X7517336Y-6230722D01*
X7515278Y-6232004D01*
X7513220Y-6233283D01*
X7511162Y-6234560D01*
X7509104Y-6235834D01*
X7507046Y-6237106D01*
X7504988Y-6238376D01*
X7502930Y-6239643D01*
X7500872Y-6240908D01*
X7498814Y-6242171D01*
X7496756Y-6243431D01*
X7494699Y-6244689D01*
X7492641Y-6245944D01*
X7490584Y-6247197D01*
X7488526Y-6248448D01*
X7486469Y-6249696D01*
X7484411Y-6250942D01*
X7482354Y-6252186D01*
X7480297Y-6253427D01*
X7478239Y-6254666D01*
X7476182Y-6255902D01*
X7474125Y-6257136D01*
X7472068Y-6258368D01*
X7470011Y-6259597D01*
X7467954Y-6260824D01*
X7465897Y-6262049D01*
X7463840Y-6263271D01*
X7461783Y-6264491D01*
X7459726Y-6265709D01*
X7457669Y-6266924D01*
X7455612Y-6268137D01*
X7453555Y-6269348D01*
X7451499Y-6270556D01*
X7449442Y-6271762D01*
X7447385Y-6272966D01*
X7445329Y-6274167D01*
X7443272Y-6275366D01*
X7441215Y-6276563D01*
X7439159Y-6277757D01*
X7437102Y-6278949D01*
X7435046Y-6280138D01*
X7432989Y-6281326D01*
X7430933Y-6282511D01*
X7428877Y-6283693D01*
X7426820Y-6284874D01*
X7424764Y-6286052D01*
X7422708Y-6287227D01*
X7420651Y-6288401D01*
X7418595Y-6289572D01*
X7416539Y-6290741D01*
X7414482Y-6291907D01*
X7412426Y-6293071D01*
X7410370Y-6294233D01*
X7408314Y-6295392D01*
X7406258Y-6296550D01*
X7404201Y-6297705D01*
X7402145Y-6298857D01*
X7400089Y-6300007D01*
X7398033Y-6301155D01*
X7395977Y-6302301D01*
X7393921Y-6303444D01*
X7391865Y-6304586D01*
X7389809Y-6305724D01*
X7387752Y-6306861D01*
X7385696Y-6307995D01*
X7383640Y-6309127D01*
X7381584Y-6310257D01*
X7379528Y-6311384D01*
X7377472Y-6312509D01*
X7375416Y-6313632D01*
X7373360Y-6314753D01*
X7371304Y-6315871D01*
X7369248Y-6316987D01*
X7367192Y-6318101D01*
X7365136Y-6319212D01*
X7363080Y-6320321D01*
X7361024Y-6321428D01*
X7358968Y-6322533D01*
X7356912Y-6323635D01*
X7354855Y-6324736D01*
X7352799Y-6325833D01*
X7350743Y-6326929D01*
X7348687Y-6328022D01*
X7346631Y-6329113D01*
X7344575Y-6330202D01*
X7342519Y-6331289D01*
X7340463Y-6332373D01*
X7338406Y-6333455D01*
X7336350Y-6334535D01*
X7334294Y-6335612D01*
X7332238Y-6336688D01*
X7330182Y-6337761D01*
X7328126Y-6338832D01*
X7326069Y-6339900D01*
X7324013Y-6340966D01*
X7321957Y-6342031D01*
X7319900Y-6343092D01*
X7317844Y-6344152D01*
X7315788Y-6345209D01*
X7313731Y-6346265D01*
X7311675Y-6347317D01*
X7309618Y-6348368D01*
X7307562Y-6349417D01*
X7305505Y-6350463D01*
X7303449Y-6351507D01*
X7301392Y-6352549D01*
X7299336Y-6353588D01*
X7297279Y-6354625D01*
X7295222Y-6355660D01*
X7293165Y-6356693D01*
X7291109Y-6357724D01*
X7289052Y-6358752D01*
X7286995Y-6359779D01*
X7284938Y-6360803D01*
X7282881Y-6361824D01*
X7280824Y-6362844D01*
X7278767Y-6363861D01*
X7276710Y-6364876D01*
X7274653Y-6365889D01*
X7272596Y-6366900D01*
X7270539Y-6367909D01*
X7268482Y-6368915D01*
X7266425Y-6369919D01*
X7264367Y-6370921D01*
X7262310Y-6371921D01*
X7260252Y-6372918D01*
X7258195Y-6373914D01*
X7256137Y-6374907D01*
X7254080Y-6375898D01*
X7252022Y-6376887D01*
X7249965Y-6377873D01*
X7247907Y-6378857D01*
X7245849Y-6379840D01*
X7243791Y-6380820D01*
X7241733Y-6381797D01*
X7239675Y-6382773D01*
X7237617Y-6383746D01*
X7235559Y-6384718D01*
X7233501Y-6385687D01*
X7231443Y-6386654D01*
X7229385Y-6387618D01*
X7227326Y-6388581D01*
X7225268Y-6389541D01*
X7223209Y-6390500D01*
X7221151Y-6391456D01*
X7219092Y-6392409D01*
X7217034Y-6393361D01*
X7214975Y-6394311D01*
X7212916Y-6395258D01*
X7208798Y-6397146D01*
X7204680Y-6399026D01*
X7200561Y-6400897D01*
X7196442Y-6402759D01*
X7192323Y-6404613D01*
X7188204Y-6406458D01*
X7184084Y-6408294D01*
X7179963Y-6410122D01*
X7175843Y-6411941D01*
X7171722Y-6413752D01*
X7167600Y-6415554D01*
X7163478Y-6417347D01*
X7159356Y-6419132D01*
X7155234Y-6420909D01*
X7151111Y-6422677D01*
X7146987Y-6424436D01*
X7142863Y-6426187D01*
X7138739Y-6427930D01*
X7134614Y-6429664D01*
X7130489Y-6431389D01*
X7126363Y-6433106D01*
X7122237Y-6434815D01*
X7118110Y-6436515D01*
X7113983Y-6438206D01*
X7109855Y-6439890D01*
X7105727Y-6441564D01*
X7101598Y-6443231D01*
X7097469Y-6444889D01*
X7093339Y-6446538D01*
X7089209Y-6448180D01*
X7085078Y-6449812D01*
X7080946Y-6451437D01*
X7076814Y-6453053D01*
X7072681Y-6454661D01*
X7068548Y-6456260D01*
X7064414Y-6457851D01*
X7060280Y-6459434D01*
X7056145Y-6461008D01*
X7052009Y-6462574D01*
X7047872Y-6464132D01*
X7043735Y-6465682D01*
X7039598Y-6467223D01*
X7035459Y-6468756D01*
X7031320Y-6470280D01*
X7027180Y-6471797D01*
X7023040Y-6473305D01*
X7018899Y-6474805D01*
X7014757Y-6476296D01*
X7010614Y-6477780D01*
X7006470Y-6479255D01*
X7002326Y-6480722D01*
X6998181Y-6482181D01*
X6994036Y-6483631D01*
X6989889Y-6485073D01*
X6985742Y-6486508D01*
X6981594Y-6487934D01*
X6977445Y-6489351D01*
X6973295Y-6490761D01*
X6969145Y-6492162D01*
X6964993Y-6493556D01*
X6960841Y-6494941D01*
X6956688Y-6496318D01*
X6952534Y-6497687D01*
X6948379Y-6499047D01*
X6944224Y-6500400D01*
X6940067Y-6501745D01*
X6935909Y-6503081D01*
X6931751Y-6504409D01*
X6927592Y-6505729D01*
X6923431Y-6507042D01*
X6919270Y-6508346D01*
X6915108Y-6509642D01*
X6910944Y-6510929D01*
X6906780Y-6512209D01*
X6902615Y-6513481D01*
X6898449Y-6514745D01*
X6894282Y-6516000D01*
X6890113Y-6517248D01*
X6885944Y-6518488D01*
X6881774Y-6519719D01*
X6877602Y-6520943D01*
X6873430Y-6522158D01*
X6869256Y-6523366D01*
X6865082Y-6524565D01*
X6860906Y-6525757D01*
X6856729Y-6526940D01*
X6852551Y-6528116D01*
X6848372Y-6529283D01*
X6844192Y-6530443D01*
X6840011Y-6531594D01*
X6835828Y-6532738D01*
X6831644Y-6533874D01*
X6827459Y-6535001D01*
X6823273Y-6536121D01*
X6819086Y-6537233D01*
X6814897Y-6538336D01*
X6810707Y-6539432D01*
X6806516Y-6540520D01*
X6802324Y-6541600D01*
X6798131Y-6542672D01*
X6793936Y-6543736D01*
X6789740Y-6544793D01*
X6785542Y-6545841D01*
X6781343Y-6546881D01*
X6777143Y-6547914D01*
X6772942Y-6548938D01*
X6768739Y-6549955D01*
X6764535Y-6550964D01*
X6760330Y-6551965D01*
X6756123Y-6552958D01*
X6751914Y-6553943D01*
X6747705Y-6554920D01*
X6743494Y-6555889D01*
X6739281Y-6556851D01*
X6735067Y-6557804D01*
X6730852Y-6558750D01*
X6726635Y-6559688D01*
X6722417Y-6560618D01*
X6718197Y-6561540D01*
X6713975Y-6562454D01*
X6709752Y-6563361D01*
X6705528Y-6564259D01*
X6701302Y-6565150D01*
X6697075Y-6566033D01*
X6692846Y-6566908D01*
X6688615Y-6567775D01*
X6684383Y-6568635D01*
X6680149Y-6569486D01*
X6675914Y-6570330D01*
X6671677Y-6571166D01*
X6667438Y-6571994D01*
X6663197Y-6572814D01*
X6658955Y-6573626D01*
X6654712Y-6574431D01*
X6650466Y-6575228D01*
X6646219Y-6576017D01*
X6641971Y-6576798D01*
X6637720Y-6577571D01*
X6633468Y-6578337D01*
X6629214Y-6579094D01*
X6624958Y-6579844D01*
X6620700Y-6580586D01*
X6616441Y-6581321D01*
X6612180Y-6582047D01*
X6607917Y-6582766D01*
X6603652Y-6583477D01*
X6599386Y-6584180D01*
X6595117Y-6584875D01*
X6590847Y-6585563D01*
X6586574Y-6586243D01*
X6582300Y-6586914D01*
X6578024Y-6587579D01*
X6573746Y-6588235D01*
X6569466Y-6588883D01*
X6565184Y-6589524D01*
X6560900Y-6590157D01*
X6556615Y-6590782D01*
X6552327Y-6591400D01*
X6548037Y-6592009D01*
X6543745Y-6592611D01*
X6539451Y-6593205D01*
X6535155Y-6593791D01*
X6530857Y-6594370D01*
X6526557Y-6594941D01*
X6522255Y-6595503D01*
X6517951Y-6596058D01*
X6513644Y-6596606D01*
X6509336Y-6597145D01*
X6505025Y-6597677D01*
X6500712Y-6598201D01*
X6496397Y-6598717D01*
X6492080Y-6599225D01*
X6487760Y-6599726D01*
X6483439Y-6600219D01*
X6479115Y-6600704D01*
X6474788Y-6601181D01*
X6470460Y-6601650D01*
X6466129Y-6602112D01*
X6461796Y-6602566D01*
X6457461Y-6603012D01*
X6453123Y-6603450D01*
X6448783Y-6603880D01*
X6444441Y-6604303D01*
X6440096Y-6604718D01*
X6435749Y-6605125D01*
X6431400Y-6605524D01*
X6427048Y-6605915D01*
X6422693Y-6606299D01*
X6418336Y-6606675D01*
X6413977Y-6607043D01*
X6409615Y-6607403D01*
X6405251Y-6607755D01*
X6400884Y-6608100D01*
X6396515Y-6608437D01*
X6392143Y-6608765D01*
X6387769Y-6609086D01*
X6383392Y-6609400D01*
X6379012Y-6609705D01*
X6374630Y-6610003D01*
X6370245Y-6610292D01*
X6365858Y-6610574D01*
X6361467Y-6610848D01*
X6357075Y-6611115D01*
X6352679Y-6611373D01*
X6348281Y-6611623D01*
X6343880Y-6611866D01*
X6339476Y-6612101D01*
X6335070Y-6612328D01*
X6330661Y-6612547D01*
X6326249Y-6612758D01*
X6321834Y-6612961D01*
X6317416Y-6613157D01*
X6312996Y-6613344D01*
X6308572Y-6613524D01*
X6304146Y-6613696D01*
X6299717Y-6613860D01*
X6295285Y-6614016D01*
X6290850Y-6614164D01*
X6286412Y-6614304D01*
X6281971Y-6614437D01*
X6277527Y-6614561D01*
X6273080Y-6614678D01*
X6268631Y-6614786D01*
X6264178Y-6614887D01*
X6259722Y-6614980D01*
X6255263Y-6615065D01*
X6250800Y-6615141D01*
X6246335Y-6615210D01*
X6241867Y-6615271D01*
X6237395Y-6615324D01*
X6232920Y-6615370D01*
X6228442Y-6615407D01*
X6223961Y-6615436D01*
X6219477Y-6615457D01*
X6214989Y-6615470D01*
X6210498Y-6615475D01*
X6206004Y-6615473D01*
X6201507Y-6615462D01*
X6197006Y-6615443D01*
X6192502Y-6615416D01*
X6187994Y-6615382D01*
X6183484Y-6615339D01*
X6178969Y-6615288D01*
X6174452Y-6615229D01*
X6169930Y-6615162D01*
X6165406Y-6615087D01*
X6160878Y-6615004D01*
X6156346Y-6614913D01*
X6151811Y-6614814D01*
X6147272Y-6614707D01*
X6142730Y-6614591D01*
X6138184Y-6614468D01*
X6133635Y-6614336D01*
X6129082Y-6614197D01*
X6124525Y-6614049D01*
X6119964Y-6613893D01*
X6115400Y-6613729D01*
X6110833Y-6613557D01*
X6106261Y-6613377D01*
X6101686Y-6613189D01*
X6097107Y-6612992D01*
X6092524Y-6612788D01*
X6087937Y-6612575D01*
X6083346Y-6612354D01*
X6078752Y-6612124D01*
X6074153Y-6611887D01*
X6069551Y-6611641D01*
X6064945Y-6611387D01*
X6060335Y-6611125D01*
X6055721Y-6610855D01*
X6051102Y-6610577D01*
X6046480Y-6610290D01*
X6041854Y-6609995D01*
X6037223Y-6609691D01*
X6032589Y-6609380D01*
X6027950Y-6609060D01*
X6023307Y-6608732D01*
X6018660Y-6608395D01*
X6014009Y-6608050D01*
X6009354Y-6607697D01*
X6004694Y-6607335D01*
X6000030Y-6606966D01*
X5995362Y-6606587D01*
X5990689Y-6606201D01*
X5986012Y-6605806D01*
X5981331Y-6605402D01*
X5976645Y-6604991D01*
X5971955Y-6604570D01*
X5967260Y-6604142D01*
X5962561Y-6603705D01*
X5957858Y-6603259D01*
X5953149Y-6602805D01*
X5948437Y-6602343D01*
X5943719Y-6601872D01*
X5938997Y-6601393D01*
X5934270Y-6600905D01*
X5929539Y-6600408D01*
X5924803Y-6599903D01*
X5920062Y-6599390D01*
X5915317Y-6598868D01*
X5910566Y-6598337D01*
X5905811Y-6597798D01*
X5901051Y-6597250D01*
X5896286Y-6596694D01*
X5891516Y-6596128D01*
X5886741Y-6595555D01*
X5881961Y-6594972D01*
X5877177Y-6594381D01*
X5872387Y-6593782D01*
X5867592Y-6593173D01*
X5862792Y-6592556D01*
X5857987Y-6591931D01*
X5853176Y-6591296D01*
X5848361Y-6590653D01*
X5843540Y-6590001D01*
X5838714Y-6589340D01*
X5833883Y-6588670D01*
X5829046Y-6587992D01*
X5824204Y-6587305D01*
X5819357Y-6586608D01*
X5814504Y-6585904D01*
X5809645Y-6585190D01*
X5804782Y-6584467D01*
X5799912Y-6583735D01*
X5795037Y-6582995D01*
X5790157Y-6582245D01*
X5785271Y-6581487D01*
X5780379Y-6580720D01*
X5775481Y-6579943D01*
X5770578Y-6579158D01*
X5765669Y-6578364D01*
X5760754Y-6577560D01*
X5755833Y-6576748D01*
X5750907Y-6575926D01*
X5745974Y-6575095D01*
X5741035Y-6574256D01*
X5736091Y-6573407D01*
X5731140Y-6572549D01*
X5726183Y-6571681D01*
X5721220Y-6570805D01*
X5716251Y-6569919D01*
X5711276Y-6569025D01*
X5706294Y-6568120D01*
X5701306Y-6567207D01*
X5696312Y-6566284D01*
X5691312Y-6565352D01*
X5686305Y-6564411D01*
X5681291Y-6563461D01*
X5676271Y-6562500D01*
X5671244Y-6561531D01*
X5666211Y-6560552D01*
X5661171Y-6559564D01*
X5656125Y-6558566D01*
X5651071Y-6557559D01*
X5646011Y-6556542D01*
X5640944Y-6555516D01*
X5635870Y-6554480D01*
X5630789Y-6553435D01*
X5625701Y-6552380D01*
X5620607Y-6551315D01*
X5615505Y-6550241D01*
X5610395Y-6549157D01*
X5605279Y-6548064D01*
X5600156Y-6546960D01*
X5595025Y-6545847D01*
X5589887Y-6544725D01*
X5584741Y-6543592D01*
X5579588Y-6542449D01*
X5574427Y-6541297D01*
X5569259Y-6540135D01*
X5564083Y-6538963D01*
X5558900Y-6537781D01*
X5553709Y-6536589D01*
X5548509Y-6535387D01*
X5543303Y-6534175D01*
X5538088Y-6532953D01*
X5532865Y-6531721D01*
X5527634Y-6530478D01*
X5522395Y-6529226D01*
X5517148Y-6527963D01*
X5511892Y-6526691D01*
X5506629Y-6525408D01*
X5501357Y-6524114D01*
X5496076Y-6522811D01*
X5490787Y-6521497D01*
X5485490Y-6520173D01*
X5480183Y-6518838D01*
X5474868Y-6517493D01*
X5469545Y-6516137D01*
X5464212Y-6514771D01*
X5458871Y-6513395D01*
X5453520Y-6512008D01*
X5448160Y-6510610D01*
X5442792Y-6509201D01*
X5437414Y-6507782D01*
X5432026Y-6506352D01*
X5426630Y-6504912D01*
X5421224Y-6503461D01*
X5415808Y-6501998D01*
X5410382Y-6500525D01*
X5404947Y-6499041D01*
X5399503Y-6497546D01*
X5394048Y-6496040D01*
X5388583Y-6494523D01*
X5383108Y-6492995D01*
X5377623Y-6491456D01*
X5372128Y-6489906D01*
X5366622Y-6488344D01*
X5361106Y-6486771D01*
X5355580Y-6485187D01*
X5350042Y-6483591D01*
X5344494Y-6481984D01*
X5338935Y-6480366D01*
X5333366Y-6478736D01*
X5327785Y-6477094D01*
X5322193Y-6475441D01*
X5316589Y-6473776D01*
X5310975Y-6472100D01*
X5305349Y-6470411D01*
X5299711Y-6468711D01*
X5294061Y-6466999D01*
X5288400Y-6465275D01*
X5282726Y-6463539D01*
X5277041Y-6461791D01*
X5271343Y-6460031D01*
X5265633Y-6458259D01*
X5259911Y-6456475D01*
X5254176Y-6454678D01*
X5248428Y-6452869D01*
X5242667Y-6451047D01*
X5236893Y-6449213D01*
X5231106Y-6447366D01*
X5225306Y-6445507D01*
X5219492Y-6443635D01*
X5213665Y-6441750D01*
X5207824Y-6439852D01*
X5201969Y-6437942D01*
X5196100Y-6436018D01*
X5190216Y-6434082D01*
X5184319Y-6432132D01*
X5178406Y-6430169D01*
X5172479Y-6428192D01*
X5166537Y-6426203D01*
X5160580Y-6424199D01*
X5154607Y-6422183D01*
X5148619Y-6420152D01*
X5142615Y-6418108D01*
X5136595Y-6416050D01*
X5130560Y-6413978D01*
X5124507Y-6411892D01*
X5118439Y-6409791D01*
X5112353Y-6407677D01*
X5106251Y-6405548D01*
X5100131Y-6403405D01*
X5093994Y-6401247D01*
X5087840Y-6399074D01*
X5081667Y-6396887D01*
X5075476Y-6394685D01*
X5069267Y-6392467D01*
X5063039Y-6390235D01*
X5056792Y-6387987D01*
X5050526Y-6385724D01*
X5044240Y-6383445D01*
X5037934Y-6381151D01*
X5031608Y-6378841D01*
X5025262Y-6376515D01*
X5018895Y-6374172D01*
X5012507Y-6371814D01*
X5006098Y-6369439D01*
X4999666Y-6367047D01*
X4993213Y-6364639D01*
X4986737Y-6362214D01*
X4980238Y-6359771D01*
X4973716Y-6357312D01*
X4967170Y-6354835D01*
X4960600Y-6352340D01*
X4954005Y-6349827D01*
X4947386Y-6347296D01*
X4940741Y-6344748D01*
X4934070Y-6342180D01*
X4927372Y-6339594D01*
X4920648Y-6336989D01*
X4913897Y-6334365D01*
X4907117Y-6331721D01*
X4900309Y-6329058D01*
X4893472Y-6326374D01*
X4886605Y-6323671D01*
X4879707Y-6320947D01*
X4872779Y-6318202D01*
X4865819Y-6315436D01*
X4858827Y-6312648D01*
X4851802Y-6309839D01*
X4844743Y-6307008D01*
X4837649Y-6304154D01*
X4830520Y-6301277D01*
X4823355Y-6298378D01*
X4816153Y-6295454D01*
X4808912Y-6292507D01*
X4801633Y-6289535D01*
X4794313Y-6286538D01*
X4786952Y-6283515D01*
X4779549Y-6280467D01*
X4772103Y-6277392D01*
X4764612Y-6274290D01*
X4757076Y-6271161D01*
X4749492Y-6268003D01*
X4741859Y-6264816D01*
X4734177Y-6261600D01*
X4726443Y-6258354D01*
X4718655Y-6255077D01*
X4710812Y-6251767D01*
X4702913Y-6248425D01*
X4694954Y-6245050D01*
X4686935Y-6241640D01*
X4678852Y-6238194D01*
X4670704Y-6234712D01*
X4662488Y-6231192D01*
X4654200Y-6227634D01*
X4645840Y-6224034D01*
X4637402Y-6220393D01*
X4628884Y-6216709D01*
X4620282Y-6212980D01*
X4611593Y-6209205D01*
X4602812Y-6205380D01*
X4593935Y-6201505D01*
X4584956Y-6197578D01*
X4575870Y-6193594D01*
X4566672Y-6189553D01*
X4557353Y-6185450D01*
X4547909Y-6181283D01*
X4538329Y-6177048D01*
X4528606Y-6172740D01*
X4518728Y-6168356D01*
X4508685Y-6163890D01*
X4498464Y-6159335D01*
X4488049Y-6154686D01*
X4477424Y-6149934D01*
X4466569Y-6145070D01*
X4455460Y-6140085D01*
X4444069Y-6134964D01*
X4432363Y-6129692D01*
X4420300Y-6124252D01*
X4407828Y-6118618D01*
X4394883Y-6112762D01*
X4381377Y-6106644D01*
X4367191Y-6100209D01*
X4352158Y-6093381D01*
X4336018Y-6086043D01*
X4318345Y-6077998D01*
X4298312Y-6068872D01*
X4273860Y-6057724D01*
X4258716Y-6050818D01*
X4240884Y-6042686D01*
X4223107Y-6034582D01*
X4205385Y-6026507D01*
X4187719Y-6018464D01*
X4178907Y-6014455D01*
X4170108Y-6010454D01*
X4161324Y-6006463D01*
X4152553Y-6002481D01*
X4143797Y-5998509D01*
X4135054Y-5994547D01*
X4126326Y-5990594D01*
X4117612Y-5986653D01*
X4108912Y-5982722D01*
X4100226Y-5978802D01*
X4091554Y-5974893D01*
X4082896Y-5970996D01*
X4074253Y-5967111D01*
X4065624Y-5963238D01*
X4057009Y-5959377D01*
X4048409Y-5955529D01*
X4039822Y-5951694D01*
X4031251Y-5947872D01*
X4022693Y-5944064D01*
X4014150Y-5940270D01*
X4005622Y-5936490D01*
X3997108Y-5932724D01*
X3988609Y-5928973D01*
X3980124Y-5925237D01*
X3975887Y-5923374D01*
X3971653Y-5921516D01*
X3967424Y-5919661D01*
X3963198Y-5917811D01*
X3958975Y-5915964D01*
X3954757Y-5914121D01*
X3950542Y-5912282D01*
X3946330Y-5910448D01*
X3942123Y-5908617D01*
X3937919Y-5906791D01*
X3933718Y-5904968D01*
X3929522Y-5903150D01*
X3925329Y-5901336D01*
X3921139Y-5899527D01*
X3916954Y-5897721D01*
X3912772Y-5895920D01*
X3908594Y-5894124D01*
X3904419Y-5892332D01*
X3900249Y-5890544D01*
X3896082Y-5888761D01*
X3891918Y-5886982D01*
X3887759Y-5885208D01*
X3883603Y-5883438D01*
X3879451Y-5881673D01*
X3875302Y-5879913D01*
X3871157Y-5878157D01*
X3867016Y-5876406D01*
X3862879Y-5874660D01*
X3858746Y-5872919D01*
X3854616Y-5871182D01*
X3850490Y-5869450D01*
X3846368Y-5867724D01*
X3842249Y-5866002D01*
X3838135Y-5864285D01*
X3834024Y-5862573D01*
X3829916Y-5860866D01*
X3825813Y-5859165D01*
X3821713Y-5857468D01*
X3817617Y-5855777D01*
X3813525Y-5854090D01*
X3809437Y-5852409D01*
X3805353Y-5850734D01*
X3801272Y-5849063D01*
X3797195Y-5847398D01*
X3793122Y-5845738D01*
X3789053Y-5844084D01*
X3784987Y-5842435D01*
X3780925Y-5840791D01*
X3776868Y-5839153D01*
X3772814Y-5837521D01*
X3768763Y-5835894D01*
X3764717Y-5834272D01*
X3760674Y-5832657D01*
X3756636Y-5831047D01*
X3752601Y-5829442D01*
X3748570Y-5827844D01*
X3744542Y-5826251D01*
X3740519Y-5824664D01*
X3736499Y-5823083D01*
X3732484Y-5821508D01*
X3728472Y-5819939D01*
X3724464Y-5818375D01*
X3720460Y-5816818D01*
X3716460Y-5815267D01*
X3712463Y-5813721D01*
X3708471Y-5812182D01*
X3704482Y-5810649D01*
X3700498Y-5809123D01*
X3696517Y-5807602D01*
X3692540Y-5806088D01*
X3688567Y-5804579D01*
X3684598Y-5803078D01*
X3680632Y-5801582D01*
X3676671Y-5800093D01*
X3672714Y-5798610D01*
X3668760Y-5797134D01*
X3664810Y-5795665D01*
X3660865Y-5794201D01*
X3656923Y-5792745D01*
X3652985Y-5791295D01*
X3649051Y-5789851D01*
X3645121Y-5788414D01*
X3641195Y-5786984D01*
X3637273Y-5785561D01*
X3633355Y-5784145D01*
X3629441Y-5782735D01*
X3625530Y-5781332D01*
X3621624Y-5779936D01*
X3617722Y-5778547D01*
X3613823Y-5777165D01*
X3609929Y-5775789D01*
X3606038Y-5774421D01*
X3602152Y-5773060D01*
X3598269Y-5771706D01*
X3594391Y-5770359D01*
X3590516Y-5769019D01*
X3586645Y-5767687D01*
X3582779Y-5766361D01*
X3578916Y-5765043D01*
X3575058Y-5763732D01*
X3571203Y-5762429D01*
X3567352Y-5761133D01*
X3563506Y-5759844D01*
X3559663Y-5758563D01*
X3555824Y-5757289D01*
X3551990Y-5756023D01*
X3548159Y-5754764D01*
X3544333Y-5753513D01*
X3540510Y-5752269D01*
X3536692Y-5751033D01*
X3532877Y-5749805D01*
X3529067Y-5748584D01*
X3525261Y-5747372D01*
X3521458Y-5746167D01*
X3517660Y-5744970D01*
X3513866Y-5743780D01*
X3510076Y-5742599D01*
X3506290Y-5741425D01*
X3502508Y-5740260D01*
X3498730Y-5739102D01*
X3494956Y-5737953D01*
X3491186Y-5736812D01*
X3487420Y-5735678D01*
X3483658Y-5734553D01*
X3479901Y-5733436D01*
X3476147Y-5732327D01*
X3472398Y-5731227D01*
X3468653Y-5730135D01*
X3464911Y-5729051D01*
X3461174Y-5727975D01*
X3457441Y-5726908D01*
X3453712Y-5725849D01*
X3449988Y-5724799D01*
X3446267Y-5723757D01*
X3442550Y-5722724D01*
X3438838Y-5721699D01*
X3435130Y-5720683D01*
X3431426Y-5719676D01*
X3427726Y-5718677D01*
X3424030Y-5717687D01*
X3420338Y-5716705D01*
X3416650Y-5715733D01*
X3412967Y-5714769D01*
X3409287Y-5713814D01*
X3405612Y-5712868D01*
X3401941Y-5711931D01*
X3398274Y-5711003D01*
X3394612Y-5710083D01*
X3390953Y-5709173D01*
X3387299Y-5708272D01*
X3383649Y-5707380D01*
X3380003Y-5706497D01*
X3376361Y-5705623D01*
X3374542Y-5705190D01*
X3372723Y-5704759D01*
X3370906Y-5704330D01*
X3369090Y-5703903D01*
X3367275Y-5703479D01*
X3365461Y-5703057D01*
X3363648Y-5702638D01*
X3361836Y-5702221D01*
X3360025Y-5701806D01*
X3358215Y-5701393D01*
X3356406Y-5700983D01*
X3354598Y-5700575D01*
X3352792Y-5700170D01*
X3350986Y-5699767D01*
X3349181Y-5699366D01*
X3347378Y-5698967D01*
X3345575Y-5698571D01*
X3343774Y-5698178D01*
X3341973Y-5697786D01*
X3340174Y-5697397D01*
X3338376Y-5697011D01*
X3336578Y-5696627D01*
X3334782Y-5696245D01*
X3332987Y-5695866D01*
X3331193Y-5695489D01*
X3329400Y-5695114D01*
X3327608Y-5694742D01*
X3325817Y-5694372D01*
X3324027Y-5694005D01*
X3322239Y-5693640D01*
X3320451Y-5693278D01*
X3318664Y-5692918D01*
X3316879Y-5692560D01*
X3315094Y-5692205D01*
X3313311Y-5691853D01*
X3311528Y-5691502D01*
X3309747Y-5691155D01*
X3307967Y-5690809D01*
X3306187Y-5690467D01*
X3304409Y-5690126D01*
X3302632Y-5689788D01*
X3300856Y-5689453D01*
X3299081Y-5689120D01*
X3297307Y-5688790D01*
X3295534Y-5688462D01*
X3293763Y-5688137D01*
X3291992Y-5687814D01*
X3290222Y-5687493D01*
X3288454Y-5687175D01*
X3286686Y-5686860D01*
X3284920Y-5686547D01*
X3283154Y-5686237D01*
X3281390Y-5685929D01*
X3279627Y-5685624D01*
X3277865Y-5685321D01*
X3276104Y-5685021D01*
X3274344Y-5684723D01*
X3272585Y-5684428D01*
X3270827Y-5684135D01*
X3269070Y-5683845D01*
X3267314Y-5683558D01*
X3265560Y-5683273D01*
X3263806Y-5682991D01*
X3262054Y-5682711D01*
X3260302Y-5682434D01*
X3258552Y-5682159D01*
X3256803Y-5681887D01*
X3255055Y-5681618D01*
X3253307Y-5681351D01*
X3251561Y-5681087D01*
X3249816Y-5680826D01*
X3248073Y-5680567D01*
X3246330Y-5680310D01*
X3244588Y-5680057D01*
X3242847Y-5679806D01*
X3241108Y-5679557D01*
X3239369Y-5679311D01*
X3237632Y-5679068D01*
X3235896Y-5678828D01*
X3234160Y-5678590D01*
X3232426Y-5678354D01*
X3230693Y-5678122D01*
X3228961Y-5677892D01*
X3227230Y-5677665D01*
X3225501Y-5677440D01*
X3223772Y-5677218D01*
X3222044Y-5676999D01*
X3220318Y-5676782D01*
X3218592Y-5676568D01*
X3216868Y-5676357D01*
X3215144Y-5676149D01*
X3213422Y-5675943D01*
X3211701Y-5675740D01*
X3209981Y-5675540D01*
X3208262Y-5675342D01*
X3206544Y-5675147D01*
X3204827Y-5674955D01*
X3203112Y-5674765D01*
X3201397Y-5674578D01*
X3199684Y-5674394D01*
X3197971Y-5674213D01*
X3196260Y-5674035D01*
X3194550Y-5673859D01*
X3192840Y-5673686D01*
X3191132Y-5673515D01*
X3189425Y-5673348D01*
X3187720Y-5673183D01*
X3186015Y-5673021D01*
X3184311Y-5672862D01*
X3182609Y-5672705D01*
X3180907Y-5672552D01*
X3179207Y-5672401D01*
X3177507Y-5672253D01*
X3175809Y-5672108D01*
X3174112Y-5671965D01*
X3172416Y-5671825D01*
X3170721Y-5671689D01*
X3169027Y-5671554D01*
X3167335Y-5671423D01*
X3165643Y-5671295D01*
X3163953Y-5671169D01*
X3162263Y-5671047D01*
X3160575Y-5670927D01*
X3158888Y-5670810D01*
X3157202Y-5670695D01*
X3155517Y-5670584D01*
X3153833Y-5670475D01*
X3152150Y-5670370D01*
X3150468Y-5670267D01*
X3148788Y-5670167D01*
X3147108Y-5670070D01*
X3145430Y-5669976D01*
X3143753Y-5669884D01*
X3142076Y-5669796D01*
X3140401Y-5669710D01*
X3138727Y-5669628D01*
X3137055Y-5669548D01*
X3135383Y-5669471D01*
X3133712Y-5669397D01*
X3132043Y-5669326D01*
X3130374Y-5669258D01*
X3128707Y-5669193D01*
X3127041Y-5669131D01*
X3125376Y-5669071D01*
X3123712Y-5669015D01*
X3122049Y-5668961D01*
X3120387Y-5668911D01*
X3118726Y-5668863D01*
X3117067Y-5668819D01*
X3115409Y-5668777D01*
X3113751Y-5668738D01*
X3112095Y-5668702D01*
X3110440Y-5668670D01*
X3108786Y-5668640D01*
X3107133Y-5668613D01*
X3105481Y-5668589D01*
X3103831Y-5668568D01*
X3102181Y-5668550D01*
X3100533Y-5668535D01*
X3098886Y-5668524D01*
X3097240Y-5668515D01*
X3095595Y-5668509D01*
X3093951Y-5668506D01*
X3092308Y-5668506D01*
X3090666Y-5668509D01*
X3089026Y-5668515D01*
X3087386Y-5668525D01*
X3085748Y-5668537D01*
X3084111Y-5668552D01*
X3082475Y-5668570D01*
X3080840Y-5668592D01*
X3079206Y-5668616D01*
X3077573Y-5668644D01*
X3075942Y-5668674D01*
X3074311Y-5668708D01*
X3072682Y-5668745D01*
X3071054Y-5668784D01*
X3069427Y-5668827D01*
X3067801Y-5668873D01*
X3066176Y-5668922D01*
X3064552Y-5668974D01*
X3062929Y-5669029D01*
X3061308Y-5669088D01*
X3059688Y-5669149D01*
X3058069Y-5669214D01*
X3056450Y-5669281D01*
X3054834Y-5669352D01*
X3053218Y-5669426D01*
X3051603Y-5669503D01*
X3049990Y-5669583D01*
X3048377Y-5669666D01*
X3046766Y-5669753D01*
X3045156Y-5669842D01*
X3043547Y-5669935D01*
X3041939Y-5670031D01*
X3040332Y-5670130D01*
X3038726Y-5670232D01*
X3037122Y-5670337D01*
X3035519Y-5670446D01*
X3033916Y-5670557D01*
X3032315Y-5670672D01*
X3030715Y-5670790D01*
X3029117Y-5670911D01*
X3027519Y-5671036D01*
X3025922Y-5671163D01*
X3024327Y-5671294D01*
X3022733Y-5671428D01*
X3021140Y-5671565D01*
X3019548Y-5671706D01*
X3017957Y-5671849D01*
X3016367Y-5671996D01*
X3014779Y-5672146D01*
X3013191Y-5672300D01*
X3011605Y-5672456D01*
X3010020Y-5672616D01*
X3008436Y-5672779D01*
X3006853Y-5672945D01*
X3005271Y-5673115D01*
X3003691Y-5673288D01*
X3002111Y-5673464D01*
X3000533Y-5673643D01*
X2998956Y-5673826D01*
X2997380Y-5674012D01*
X2995805Y-5674201D01*
X2994231Y-5674393D01*
X2992659Y-5674589D01*
X2991087Y-5674788D01*
X2989517Y-5674991D01*
X2987948Y-5675196D01*
X2986380Y-5675405D01*
X2984813Y-5675617D01*
X2983248Y-5675833D01*
X2981683Y-5676052D01*
X2980120Y-5676274D01*
X2978557Y-5676500D01*
X2976996Y-5676729D01*
X2975437Y-5676961D01*
X2973878Y-5677196D01*
X2972320Y-5677435D01*
X2970764Y-5677678D01*
X2969208Y-5677923D01*
X2967654Y-5678172D01*
X2966101Y-5678425D01*
X2964549Y-5678680D01*
X2962999Y-5678939D01*
X2961449Y-5679202D01*
X2959901Y-5679468D01*
X2958354Y-5679737D01*
X2956808Y-5680009D01*
X2955263Y-5680285D01*
X2953719Y-5680565D01*
X2952176Y-5680848D01*
X2950635Y-5681134D01*
X2949095Y-5681424D01*
X2947556Y-5681717D01*
X2946018Y-5682013D01*
X2944481Y-5682313D01*
X2942945Y-5682616D01*
X2941411Y-5682923D01*
X2939877Y-5683233D01*
X2938345Y-5683547D01*
X2936814Y-5683864D01*
X2935284Y-5684185D01*
X2933756Y-5684509D01*
X2932228Y-5684836D01*
X2930702Y-5685167D01*
X2929177Y-5685501D01*
X2927653Y-5685839D01*
X2926130Y-5686181D01*
X2924608Y-5686525D01*
X2923088Y-5686874D01*
X2921569Y-5687225D01*
X2920050Y-5687581D01*
X2918533Y-5687940D01*
X2917018Y-5688302D01*
X2915503Y-5688668D01*
X2913989Y-5689037D01*
X2912477Y-5689410D01*
X2910966Y-5689786D01*
X2909456Y-5690166D01*
X2907947Y-5690550D01*
X2906439Y-5690937D01*
X2904933Y-5691327D01*
X2903428Y-5691721D01*
X2901924Y-5692119D01*
X2900421Y-5692520D01*
X2898919Y-5692925D01*
X2897418Y-5693333D01*
X2895919Y-5693745D01*
X2894421Y-5694160D01*
X2892923Y-5694579D01*
X2891428Y-5695002D01*
X2889933Y-5695428D01*
X2888439Y-5695858D01*
X2886947Y-5696291D01*
X2885456Y-5696728D01*
X2883966Y-5697168D01*
X2882477Y-5697612D01*
X2880989Y-5698060D01*
X2879503Y-5698512D01*
X2878017Y-5698967D01*
X2876533Y-5699425D01*
X2875050Y-5699887D01*
X2873569Y-5700353D01*
X2872088Y-5700823D01*
X2870609Y-5701296D01*
X2869130Y-5701773D01*
X2867653Y-5702253D01*
X2866178Y-5702737D01*
X2864703Y-5703225D01*
X2863229Y-5703716D01*
X2861757Y-5704211D01*
X2860286Y-5704710D01*
X2858816Y-5705213D01*
X2857347Y-5705719D01*
X2855880Y-5706228D01*
X2854413Y-5706742D01*
X2852948Y-5707259D01*
X2851484Y-5707780D01*
X2850021Y-5708305D01*
X2848560Y-5708833D01*
X2847099Y-5709365D01*
X2845640Y-5709901D01*
X2844182Y-5710440D01*
X2842725Y-5710983D01*
X2841270Y-5711530D01*
X2839815Y-5712081D01*
X2838362Y-5712635D01*
X2836910Y-5713193D01*
X2835459Y-5713755D01*
X2834009Y-5714321D01*
X2832561Y-5714890D01*
X2831113Y-5715463D01*
X2829667Y-5716040D01*
X2828222Y-5716621D01*
X2826778Y-5717205D01*
X2825336Y-5717793D01*
X2823895Y-5718385D01*
X2822454Y-5718981D01*
X2821015Y-5719581D01*
X2819578Y-5720184D01*
X2818141Y-5720791D01*
X2816706Y-5721402D01*
X2815272Y-5722017D01*
X2813839Y-5722635D01*
X2812407Y-5723258D01*
X2810976Y-5723884D01*
X2809547Y-5724514D01*
X2808119Y-5725148D01*
X2806692Y-5725786D01*
X2805266Y-5726427D01*
X2803842Y-5727072D01*
X2802418Y-5727722D01*
X2800996Y-5728375D01*
X2799575Y-5729032D01*
X2798155Y-5729693D01*
X2796737Y-5730357D01*
X2795320Y-5731026D01*
X2793904Y-5731698D01*
X2792489Y-5732374D01*
X2791075Y-5733055D01*
X2789662Y-5733739D01*
X2788251Y-5734427D01*
X2786841Y-5735119D01*
X2785432Y-5735814D01*
X2784024Y-5736514D01*
X2782618Y-5737218D01*
X2781213Y-5737925D01*
X2779809Y-5738636D01*
X2778406Y-5739352D01*
X2777004Y-5740071D01*
X2775604Y-5740794D01*
X2774205Y-5741521D01*
X2772807Y-5742252D01*
X2771410Y-5742987D01*
X2770014Y-5743726D01*
X2768620Y-5744469D01*
X2767227Y-5745216D01*
X2765835Y-5745967D01*
X2764444Y-5746722D01*
X2763055Y-5747480D01*
X2761666Y-5748243D01*
X2760279Y-5749010D01*
X2758893Y-5749781D01*
X2757509Y-5750555D01*
X2756125Y-5751334D01*
X2754743Y-5752117D01*
X2753362Y-5752903D01*
X2751982Y-5753694D01*
X2750604Y-5754489D01*
X2749227Y-5755287D01*
X2747851Y-5756090D01*
X2746476Y-5756897D01*
X2745102Y-5757708D01*
X2743730Y-5758523D01*
X2742358Y-5759341D01*
X2740988Y-5760164D01*
X2739620Y-5760991D01*
X2738252Y-5761822D01*
X2736886Y-5762657D01*
X2735521Y-5763496D01*
X2734157Y-5764340D01*
X2732794Y-5765187D01*
X2731433Y-5766038D01*
X2730072Y-5766894D01*
X2728713Y-5767753D01*
X2727356Y-5768617D01*
X2725999Y-5769484D01*
X2724644Y-5770356D01*
X2723290Y-5771232D01*
X2721937Y-5772112D01*
X2720585Y-5772996D01*
X2719235Y-5773884D01*
X2717886Y-5774776D01*
X2716538Y-5775673D01*
X2715191Y-5776573D01*
X2713846Y-5777478D01*
X2712502Y-5778387D01*
X2711159Y-5779300D01*
X2709817Y-5780217D01*
X2708476Y-5781138D01*
X2707137Y-5782063D01*
X2705799Y-5782993D01*
X2704462Y-5783926D01*
X2703127Y-5784864D01*
X2701792Y-5785806D01*
X2700459Y-5786753D01*
X2699127Y-5787703D01*
X2697797Y-5788657D01*
X2696467Y-5789616D01*
X2695139Y-5790579D01*
X2693812Y-5791546D01*
X2692486Y-5792518D01*
X2691162Y-5793493D01*
X2689839Y-5794473D01*
X2688517Y-5795457D01*
X2687196Y-5796445D01*
X2685876Y-5797437D01*
X2684558Y-5798434D01*
X2683241Y-5799435D01*
X2681925Y-5800440D01*
X2680611Y-5801449D01*
X2679298Y-5802463D01*
X2677986Y-5803481D01*
X2676675Y-5804503D01*
X2675365Y-5805529D01*
X2674057Y-5806560D01*
X2672750Y-5807594D01*
X2671444Y-5808634D01*
X2670139Y-5809677D01*
X2668836Y-5810725D01*
X2667534Y-5811777D01*
X2666233Y-5812833D01*
X2664934Y-5813893D01*
X2663635Y-5814958D01*
X2662338Y-5816027D01*
X2661042Y-5817101D01*
X2659748Y-5818179D01*
X2658454Y-5819261D01*
X2657162Y-5820347D01*
X2655871Y-5821438D01*
X2654582Y-5822533D01*
X2653293Y-5823632D01*
X2652006Y-5824736D01*
X2650720Y-5825844D01*
X2649436Y-5826956D01*
X2648153Y-5828073D01*
X2646870Y-5829194D01*
X2645590Y-5830320D01*
X2644310Y-5831449D01*
X2643032Y-5832584D01*
X2641755Y-5833722D01*
X2640479Y-5834865D01*
X2639204Y-5836012D01*
X2637931Y-5837164D01*
X2636659Y-5838320D01*
X2635388Y-5839481D01*
X2634119Y-5840646D01*
X2632850Y-5841815D01*
X2631583Y-5842989D01*
X2630318Y-5844167D01*
X2629053Y-5845349D01*
X2627790Y-5846536D01*
X2626528Y-5847727D01*
X2625267Y-5848923D01*
X2624008Y-5850123D01*
X2622750Y-5851328D01*
X2621493Y-5852537D01*
X2620237Y-5853751D01*
X2618983Y-5854969D01*
X2617730Y-5856191D01*
X2616478Y-5857418D01*
X2615227Y-5858649D01*
X2613978Y-5859885D01*
X2612730Y-5861126D01*
X2611483Y-5862370D01*
X2610237Y-5863620D01*
X2608993Y-5864873D01*
X2607750Y-5866132D01*
X2606508Y-5867394D01*
X2605268Y-5868662D01*
X2604029Y-5869933D01*
X2602791Y-5871210D01*
X2601554Y-5872490D01*
X2600319Y-5873776D01*
X2599085Y-5875066D01*
X2597852Y-5876360D01*
X2596620Y-5877659D01*
X2595390Y-5878962D01*
X2594161Y-5880270D01*
X2592933Y-5881583D01*
X2591707Y-5882900D01*
X2590481Y-5884221D01*
X2589258Y-5885547D01*
X2588035Y-5886878D01*
X2586813Y-5888213D01*
X2585593Y-5889553D01*
X2584375Y-5890897D01*
X2583157Y-5892246D01*
X2581941Y-5893600D01*
X2580726Y-5894958D01*
X2579512Y-5896321D01*
X2578300Y-5897688D01*
X2577088Y-5899060D01*
X2575878Y-5900437D01*
X2574670Y-5901818D01*
X2573462Y-5903204D01*
X2572256Y-5904594D01*
X2571052Y-5905989D01*
X2569848Y-5907389D01*
X2568646Y-5908793D01*
X2567445Y-5910202D01*
X2566245Y-5911615D01*
X2565047Y-5913034D01*
X2563850Y-5914456D01*
X2562654Y-5915884D01*
X2561460Y-5917316D01*
X2560266Y-5918753D01*
X2559075Y-5920194D01*
X2557884Y-5921640D01*
X2556694Y-5923091D01*
X2555506Y-5924547D01*
X2554320Y-5926007D01*
X2553134Y-5927472D01*
X2551950Y-5928941D01*
X2550767Y-5930416D01*
X2549585Y-5931895D01*
X2548405Y-5933378D01*
X2547226Y-5934867D01*
X2546048Y-5936360D01*
X2544872Y-5937858D01*
X2543696Y-5939360D01*
X2542523Y-5940867D01*
X2541350Y-5942379D01*
X2540179Y-5943896D01*
X2539009Y-5945418D01*
X2537840Y-5946944D01*
X2536672Y-5948475D01*
X2535506Y-5950010D01*
X2534341Y-5951551D01*
X2533178Y-5953096D01*
X2532016Y-5954646D01*
X2530855Y-5956201D01*
X2529695Y-5957761D01*
X2528537Y-5959325D01*
X2527380Y-5960894D01*
X2526224Y-5962468D01*
X2525069Y-5964047D01*
X2523916Y-5965630D01*
X2522764Y-5967218D01*
X2521614Y-5968812D01*
X2520464Y-5970409D01*
X2519316Y-5972012D01*
X2518170Y-5973620D01*
X2517024Y-5975232D01*
X2515880Y-5976849D01*
X2514737Y-5978471D01*
X2513596Y-5980098D01*
X2512456Y-5981730D01*
X2511317Y-5983367D01*
X2510179Y-5985008D01*
X2509043Y-5986654D01*
X2507908Y-5988305D01*
X2506775Y-5989961D01*
X2505642Y-5991622D01*
X2504511Y-5993288D01*
X2503381Y-5994959D01*
X2502253Y-5996634D01*
X2501126Y-5998315D01*
X2500000Y-6000000D01*
D11*
X1508277Y-7531409D02*
X1508277Y-7331409D01*
X1508277Y-7331409D02*
X1555896Y-7331409D01*
X1555896Y-7331409D02*
X1584467Y-7340933D01*
X1584467Y-7340933D02*
X1603515Y-7359980D01*
X1603515Y-7359980D02*
X1613039Y-7379028D01*
X1613039Y-7379028D02*
X1622562Y-7417123D01*
X1622562Y-7417123D02*
X1622562Y-7445695D01*
X1622562Y-7445695D02*
X1613039Y-7483790D01*
X1613039Y-7483790D02*
X1603515Y-7502837D01*
X1603515Y-7502837D02*
X1584467Y-7521885D01*
X1584467Y-7521885D02*
X1555896Y-7531409D01*
X1555896Y-7531409D02*
X1508277Y-7531409D01*
X1708277Y-7531409D02*
X1708277Y-7398076D01*
X1708277Y-7436171D02*
X1717801Y-7417123D01*
X1717801Y-7417123D02*
X1727324Y-7407599D01*
X1727324Y-7407599D02*
X1746372Y-7398076D01*
X1746372Y-7398076D02*
X1765420Y-7398076D01*
X1832086Y-7531409D02*
X1832086Y-7398076D01*
X1832086Y-7331409D02*
X1822562Y-7340933D01*
X1822562Y-7340933D02*
X1832086Y-7350457D01*
X1832086Y-7350457D02*
X1841610Y-7340933D01*
X1841610Y-7340933D02*
X1832086Y-7331409D01*
X1832086Y-7331409D02*
X1832086Y-7350457D01*
X1955896Y-7531409D02*
X1936848Y-7521885D01*
X1936848Y-7521885D02*
X1927324Y-7502837D01*
X1927324Y-7502837D02*
X1927324Y-7331409D01*
X2060658Y-7531409D02*
X2041610Y-7521885D01*
X2041610Y-7521885D02*
X2032086Y-7502837D01*
X2032086Y-7502837D02*
X2032086Y-7331409D01*
X2289229Y-7531409D02*
X2289229Y-7331409D01*
X2289229Y-7331409D02*
X2355896Y-7474266D01*
X2355896Y-7474266D02*
X2422563Y-7331409D01*
X2422563Y-7331409D02*
X2422563Y-7531409D01*
X2603515Y-7531409D02*
X2603515Y-7426647D01*
X2603515Y-7426647D02*
X2593991Y-7407599D01*
X2593991Y-7407599D02*
X2574944Y-7398076D01*
X2574944Y-7398076D02*
X2536848Y-7398076D01*
X2536848Y-7398076D02*
X2517801Y-7407599D01*
X2603515Y-7521885D02*
X2584467Y-7531409D01*
X2584467Y-7531409D02*
X2536848Y-7531409D01*
X2536848Y-7531409D02*
X2517801Y-7521885D01*
X2517801Y-7521885D02*
X2508277Y-7502837D01*
X2508277Y-7502837D02*
X2508277Y-7483790D01*
X2508277Y-7483790D02*
X2517801Y-7464742D01*
X2517801Y-7464742D02*
X2536848Y-7455218D01*
X2536848Y-7455218D02*
X2584467Y-7455218D01*
X2584467Y-7455218D02*
X2603515Y-7445695D01*
X2698753Y-7398076D02*
X2698753Y-7598076D01*
X2698753Y-7407599D02*
X2717801Y-7398076D01*
X2717801Y-7398076D02*
X2755896Y-7398076D01*
X2755896Y-7398076D02*
X2774944Y-7407599D01*
X2774944Y-7407599D02*
X2784467Y-7417123D01*
X2784467Y-7417123D02*
X2793991Y-7436171D01*
X2793991Y-7436171D02*
X2793991Y-7493314D01*
X2793991Y-7493314D02*
X2784467Y-7512361D01*
X2784467Y-7512361D02*
X2774944Y-7521885D01*
X2774944Y-7521885D02*
X2755896Y-7531409D01*
X2755896Y-7531409D02*
X2717801Y-7531409D01*
X2717801Y-7531409D02*
X2698753Y-7521885D01*
X2879705Y-7512361D02*
X2889229Y-7521885D01*
X2889229Y-7521885D02*
X2879705Y-7531409D01*
X2879705Y-7531409D02*
X2870182Y-7521885D01*
X2870182Y-7521885D02*
X2879705Y-7512361D01*
X2879705Y-7512361D02*
X2879705Y-7531409D01*
X2879705Y-7407599D02*
X2889229Y-7417123D01*
X2889229Y-7417123D02*
X2879705Y-7426647D01*
X2879705Y-7426647D02*
X2870182Y-7417123D01*
X2870182Y-7417123D02*
X2879705Y-7407599D01*
X2879705Y-7407599D02*
X2879705Y-7426647D01*
M02*
