G04 #@! TF.GenerationSoftware,KiCad,Pcbnew,9.0.2-2.fc42*
G04 #@! TF.CreationDate,2025-06-29T00:33:01+02:00*
G04 #@! TF.ProjectId,hack_solder,6861636b-5f73-46f6-9c64-65722e6b6963,rev?*
G04 #@! TF.SameCoordinates,Original*
G04 #@! TF.FileFunction,Legend,Top*
G04 #@! TF.FilePolarity,Positive*
%FSLAX46Y46*%
G04 Gerber Fmt 4.6, Leading zero omitted, Abs format (unit mm)*
G04 Created by KiCad (PCBNEW 9.0.2-2.fc42) date 2025-06-29 00:33:01*
%MOMM*%
%LPD*%
G01*
G04 APERTURE LIST*
G04 Aperture macros list*
%AMRoundRect*
0 Rectangle with rounded corners*
0 $1 Rounding radius*
0 $2 $3 $4 $5 $6 $7 $8 $9 X,Y pos of 4 corners*
0 Add a 4 corners polygon primitive as box body*
4,1,4,$2,$3,$4,$5,$6,$7,$8,$9,$2,$3,0*
0 Add four circle primitives for the rounded corners*
1,1,$1+$1,$2,$3*
1,1,$1+$1,$4,$5*
1,1,$1+$1,$6,$7*
1,1,$1+$1,$8,$9*
0 Add four rect primitives between the rounded corners*
20,1,$1+$1,$2,$3,$4,$5,0*
20,1,$1+$1,$4,$5,$6,$7,0*
20,1,$1+$1,$6,$7,$8,$9,0*
20,1,$1+$1,$8,$9,$2,$3,0*%
G04 Aperture macros list end*
%ADD10C,0.500000*%
%ADD11C,0.100000*%
%ADD12C,0.150000*%
%ADD13C,0.120000*%
%ADD14C,1.440000*%
%ADD15C,7.000000*%
%ADD16C,1.600000*%
%ADD17R,5.080000X1.270000*%
%ADD18C,17.800000*%
%ADD19C,1.500000*%
%ADD20C,2.000000*%
%ADD21R,1.800000X1.100000*%
%ADD22RoundRect,0.275000X-0.625000X0.275000X-0.625000X-0.275000X0.625000X-0.275000X0.625000X0.275000X0*%
%ADD23R,1.100000X1.800000*%
%ADD24RoundRect,0.275000X-0.275000X-0.625000X0.275000X-0.625000X0.275000X0.625000X-0.275000X0.625000X0*%
%ADD25R,1.700000X1.700000*%
%ADD26C,1.700000*%
%ADD27R,1.800000X1.800000*%
%ADD28C,1.800000*%
G04 APERTURE END LIST*
D10*
X87350000Y-50000000D02*
G75*
G02*
X78230115Y-52336102I-7600000J10700000D01*
G01*
D11*
X67926785Y-37053371D02*
X67879166Y-37005752D01*
X67879166Y-37005752D02*
X67783928Y-36862895D01*
X67783928Y-36862895D02*
X67736309Y-36767657D01*
X67736309Y-36767657D02*
X67688690Y-36624800D01*
X67688690Y-36624800D02*
X67641071Y-36386704D01*
X67641071Y-36386704D02*
X67641071Y-36196228D01*
X67641071Y-36196228D02*
X67688690Y-35958133D01*
X67688690Y-35958133D02*
X67736309Y-35815276D01*
X67736309Y-35815276D02*
X67783928Y-35720038D01*
X67783928Y-35720038D02*
X67879166Y-35577180D01*
X67879166Y-35577180D02*
X67926785Y-35529561D01*
X62039598Y-60803371D02*
X61991979Y-60755752D01*
X61991979Y-60755752D02*
X61896741Y-60612895D01*
X61896741Y-60612895D02*
X61849122Y-60517657D01*
X61849122Y-60517657D02*
X61801503Y-60374800D01*
X61801503Y-60374800D02*
X61753884Y-60136704D01*
X61753884Y-60136704D02*
X61753884Y-59946228D01*
X61753884Y-59946228D02*
X61801503Y-59708133D01*
X61801503Y-59708133D02*
X61849122Y-59565276D01*
X61849122Y-59565276D02*
X61896741Y-59470038D01*
X61896741Y-59470038D02*
X61991979Y-59327180D01*
X61991979Y-59327180D02*
X62039598Y-59279561D01*
X58589598Y-63903371D02*
X58541979Y-63855752D01*
X58541979Y-63855752D02*
X58446741Y-63712895D01*
X58446741Y-63712895D02*
X58399122Y-63617657D01*
X58399122Y-63617657D02*
X58351503Y-63474800D01*
X58351503Y-63474800D02*
X58303884Y-63236704D01*
X58303884Y-63236704D02*
X58303884Y-63046228D01*
X58303884Y-63046228D02*
X58351503Y-62808133D01*
X58351503Y-62808133D02*
X58399122Y-62665276D01*
X58399122Y-62665276D02*
X58446741Y-62570038D01*
X58446741Y-62570038D02*
X58541979Y-62427180D01*
X58541979Y-62427180D02*
X58589598Y-62379561D01*
X53589598Y-63353371D02*
X53541979Y-63305752D01*
X53541979Y-63305752D02*
X53446741Y-63162895D01*
X53446741Y-63162895D02*
X53399122Y-63067657D01*
X53399122Y-63067657D02*
X53351503Y-62924800D01*
X53351503Y-62924800D02*
X53303884Y-62686704D01*
X53303884Y-62686704D02*
X53303884Y-62496228D01*
X53303884Y-62496228D02*
X53351503Y-62258133D01*
X53351503Y-62258133D02*
X53399122Y-62115276D01*
X53399122Y-62115276D02*
X53446741Y-62020038D01*
X53446741Y-62020038D02*
X53541979Y-61877180D01*
X53541979Y-61877180D02*
X53589598Y-61829561D01*
X72176497Y-61402797D02*
X72128878Y-61355178D01*
X72128878Y-61355178D02*
X72033640Y-61212321D01*
X72033640Y-61212321D02*
X71986021Y-61117083D01*
X71986021Y-61117083D02*
X71938402Y-60974226D01*
X71938402Y-60974226D02*
X71890783Y-60736130D01*
X71890783Y-60736130D02*
X71890783Y-60545654D01*
X71890783Y-60545654D02*
X71938402Y-60307559D01*
X71938402Y-60307559D02*
X71986021Y-60164702D01*
X71986021Y-60164702D02*
X72033640Y-60069464D01*
X72033640Y-60069464D02*
X72128878Y-59926606D01*
X72128878Y-59926606D02*
X72176497Y-59878987D01*
X62089598Y-40203371D02*
X62041979Y-40155752D01*
X62041979Y-40155752D02*
X61946741Y-40012895D01*
X61946741Y-40012895D02*
X61899122Y-39917657D01*
X61899122Y-39917657D02*
X61851503Y-39774800D01*
X61851503Y-39774800D02*
X61803884Y-39536704D01*
X61803884Y-39536704D02*
X61803884Y-39346228D01*
X61803884Y-39346228D02*
X61851503Y-39108133D01*
X61851503Y-39108133D02*
X61899122Y-38965276D01*
X61899122Y-38965276D02*
X61946741Y-38870038D01*
X61946741Y-38870038D02*
X62041979Y-38727180D01*
X62041979Y-38727180D02*
X62089598Y-38679561D01*
X69989598Y-50653371D02*
X69941979Y-50605752D01*
X69941979Y-50605752D02*
X69846741Y-50462895D01*
X69846741Y-50462895D02*
X69799122Y-50367657D01*
X69799122Y-50367657D02*
X69751503Y-50224800D01*
X69751503Y-50224800D02*
X69703884Y-49986704D01*
X69703884Y-49986704D02*
X69703884Y-49796228D01*
X69703884Y-49796228D02*
X69751503Y-49558133D01*
X69751503Y-49558133D02*
X69799122Y-49415276D01*
X69799122Y-49415276D02*
X69846741Y-49320038D01*
X69846741Y-49320038D02*
X69941979Y-49177180D01*
X69941979Y-49177180D02*
X69989598Y-49129561D01*
X71339598Y-41203371D02*
X71291979Y-41155752D01*
X71291979Y-41155752D02*
X71196741Y-41012895D01*
X71196741Y-41012895D02*
X71149122Y-40917657D01*
X71149122Y-40917657D02*
X71101503Y-40774800D01*
X71101503Y-40774800D02*
X71053884Y-40536704D01*
X71053884Y-40536704D02*
X71053884Y-40346228D01*
X71053884Y-40346228D02*
X71101503Y-40108133D01*
X71101503Y-40108133D02*
X71149122Y-39965276D01*
X71149122Y-39965276D02*
X71196741Y-39870038D01*
X71196741Y-39870038D02*
X71291979Y-39727180D01*
X71291979Y-39727180D02*
X71339598Y-39679561D01*
X68739598Y-46953371D02*
X68691979Y-46905752D01*
X68691979Y-46905752D02*
X68596741Y-46762895D01*
X68596741Y-46762895D02*
X68549122Y-46667657D01*
X68549122Y-46667657D02*
X68501503Y-46524800D01*
X68501503Y-46524800D02*
X68453884Y-46286704D01*
X68453884Y-46286704D02*
X68453884Y-46096228D01*
X68453884Y-46096228D02*
X68501503Y-45858133D01*
X68501503Y-45858133D02*
X68549122Y-45715276D01*
X68549122Y-45715276D02*
X68596741Y-45620038D01*
X68596741Y-45620038D02*
X68691979Y-45477180D01*
X68691979Y-45477180D02*
X68739598Y-45429561D01*
X63239598Y-51003371D02*
X63191979Y-50955752D01*
X63191979Y-50955752D02*
X63096741Y-50812895D01*
X63096741Y-50812895D02*
X63049122Y-50717657D01*
X63049122Y-50717657D02*
X63001503Y-50574800D01*
X63001503Y-50574800D02*
X62953884Y-50336704D01*
X62953884Y-50336704D02*
X62953884Y-50146228D01*
X62953884Y-50146228D02*
X63001503Y-49908133D01*
X63001503Y-49908133D02*
X63049122Y-49765276D01*
X63049122Y-49765276D02*
X63096741Y-49670038D01*
X63096741Y-49670038D02*
X63191979Y-49527180D01*
X63191979Y-49527180D02*
X63239598Y-49479561D01*
X58439598Y-60603371D02*
X58391979Y-60555752D01*
X58391979Y-60555752D02*
X58296741Y-60412895D01*
X58296741Y-60412895D02*
X58249122Y-60317657D01*
X58249122Y-60317657D02*
X58201503Y-60174800D01*
X58201503Y-60174800D02*
X58153884Y-59936704D01*
X58153884Y-59936704D02*
X58153884Y-59746228D01*
X58153884Y-59746228D02*
X58201503Y-59508133D01*
X58201503Y-59508133D02*
X58249122Y-59365276D01*
X58249122Y-59365276D02*
X58296741Y-59270038D01*
X58296741Y-59270038D02*
X58391979Y-59127180D01*
X58391979Y-59127180D02*
X58439598Y-59079561D01*
X55989598Y-59593371D02*
X55941979Y-59545752D01*
X55941979Y-59545752D02*
X55846741Y-59402895D01*
X55846741Y-59402895D02*
X55799122Y-59307657D01*
X55799122Y-59307657D02*
X55751503Y-59164800D01*
X55751503Y-59164800D02*
X55703884Y-58926704D01*
X55703884Y-58926704D02*
X55703884Y-58736228D01*
X55703884Y-58736228D02*
X55751503Y-58498133D01*
X55751503Y-58498133D02*
X55799122Y-58355276D01*
X55799122Y-58355276D02*
X55846741Y-58260038D01*
X55846741Y-58260038D02*
X55941979Y-58117180D01*
X55941979Y-58117180D02*
X55989598Y-58069561D01*
X58939598Y-38503371D02*
X58891979Y-38455752D01*
X58891979Y-38455752D02*
X58796741Y-38312895D01*
X58796741Y-38312895D02*
X58749122Y-38217657D01*
X58749122Y-38217657D02*
X58701503Y-38074800D01*
X58701503Y-38074800D02*
X58653884Y-37836704D01*
X58653884Y-37836704D02*
X58653884Y-37646228D01*
X58653884Y-37646228D02*
X58701503Y-37408133D01*
X58701503Y-37408133D02*
X58749122Y-37265276D01*
X58749122Y-37265276D02*
X58796741Y-37170038D01*
X58796741Y-37170038D02*
X58891979Y-37027180D01*
X58891979Y-37027180D02*
X58939598Y-36979561D01*
X77789598Y-54703371D02*
X77741979Y-54655752D01*
X77741979Y-54655752D02*
X77646741Y-54512895D01*
X77646741Y-54512895D02*
X77599122Y-54417657D01*
X77599122Y-54417657D02*
X77551503Y-54274800D01*
X77551503Y-54274800D02*
X77503884Y-54036704D01*
X77503884Y-54036704D02*
X77503884Y-53846228D01*
X77503884Y-53846228D02*
X77551503Y-53608133D01*
X77551503Y-53608133D02*
X77599122Y-53465276D01*
X77599122Y-53465276D02*
X77646741Y-53370038D01*
X77646741Y-53370038D02*
X77741979Y-53227180D01*
X77741979Y-53227180D02*
X77789598Y-53179561D01*
X63339598Y-54353371D02*
X63291979Y-54305752D01*
X63291979Y-54305752D02*
X63196741Y-54162895D01*
X63196741Y-54162895D02*
X63149122Y-54067657D01*
X63149122Y-54067657D02*
X63101503Y-53924800D01*
X63101503Y-53924800D02*
X63053884Y-53686704D01*
X63053884Y-53686704D02*
X63053884Y-53496228D01*
X63053884Y-53496228D02*
X63101503Y-53258133D01*
X63101503Y-53258133D02*
X63149122Y-53115276D01*
X63149122Y-53115276D02*
X63196741Y-53020038D01*
X63196741Y-53020038D02*
X63291979Y-52877180D01*
X63291979Y-52877180D02*
X63339598Y-52829561D01*
X64739598Y-60903371D02*
X64691979Y-60855752D01*
X64691979Y-60855752D02*
X64596741Y-60712895D01*
X64596741Y-60712895D02*
X64549122Y-60617657D01*
X64549122Y-60617657D02*
X64501503Y-60474800D01*
X64501503Y-60474800D02*
X64453884Y-60236704D01*
X64453884Y-60236704D02*
X64453884Y-60046228D01*
X64453884Y-60046228D02*
X64501503Y-59808133D01*
X64501503Y-59808133D02*
X64549122Y-59665276D01*
X64549122Y-59665276D02*
X64596741Y-59570038D01*
X64596741Y-59570038D02*
X64691979Y-59427180D01*
X64691979Y-59427180D02*
X64739598Y-59379561D01*
X73539598Y-55003371D02*
X73491979Y-54955752D01*
X73491979Y-54955752D02*
X73396741Y-54812895D01*
X73396741Y-54812895D02*
X73349122Y-54717657D01*
X73349122Y-54717657D02*
X73301503Y-54574800D01*
X73301503Y-54574800D02*
X73253884Y-54336704D01*
X73253884Y-54336704D02*
X73253884Y-54146228D01*
X73253884Y-54146228D02*
X73301503Y-53908133D01*
X73301503Y-53908133D02*
X73349122Y-53765276D01*
X73349122Y-53765276D02*
X73396741Y-53670038D01*
X73396741Y-53670038D02*
X73491979Y-53527180D01*
X73491979Y-53527180D02*
X73539598Y-53479561D01*
X71439598Y-47353371D02*
X71391979Y-47305752D01*
X71391979Y-47305752D02*
X71296741Y-47162895D01*
X71296741Y-47162895D02*
X71249122Y-47067657D01*
X71249122Y-47067657D02*
X71201503Y-46924800D01*
X71201503Y-46924800D02*
X71153884Y-46686704D01*
X71153884Y-46686704D02*
X71153884Y-46496228D01*
X71153884Y-46496228D02*
X71201503Y-46258133D01*
X71201503Y-46258133D02*
X71249122Y-46115276D01*
X71249122Y-46115276D02*
X71296741Y-46020038D01*
X71296741Y-46020038D02*
X71391979Y-45877180D01*
X71391979Y-45877180D02*
X71439598Y-45829561D01*
X71989598Y-58053371D02*
X71941979Y-58005752D01*
X71941979Y-58005752D02*
X71846741Y-57862895D01*
X71846741Y-57862895D02*
X71799122Y-57767657D01*
X71799122Y-57767657D02*
X71751503Y-57624800D01*
X71751503Y-57624800D02*
X71703884Y-57386704D01*
X71703884Y-57386704D02*
X71703884Y-57196228D01*
X71703884Y-57196228D02*
X71751503Y-56958133D01*
X71751503Y-56958133D02*
X71799122Y-56815276D01*
X71799122Y-56815276D02*
X71846741Y-56720038D01*
X71846741Y-56720038D02*
X71941979Y-56577180D01*
X71941979Y-56577180D02*
X71989598Y-56529561D01*
X59089598Y-55053371D02*
X59041979Y-55005752D01*
X59041979Y-55005752D02*
X58946741Y-54862895D01*
X58946741Y-54862895D02*
X58899122Y-54767657D01*
X58899122Y-54767657D02*
X58851503Y-54624800D01*
X58851503Y-54624800D02*
X58803884Y-54386704D01*
X58803884Y-54386704D02*
X58803884Y-54196228D01*
X58803884Y-54196228D02*
X58851503Y-53958133D01*
X58851503Y-53958133D02*
X58899122Y-53815276D01*
X58899122Y-53815276D02*
X58946741Y-53720038D01*
X58946741Y-53720038D02*
X59041979Y-53577180D01*
X59041979Y-53577180D02*
X59089598Y-53529561D01*
X73539598Y-39703371D02*
X73491979Y-39655752D01*
X73491979Y-39655752D02*
X73396741Y-39512895D01*
X73396741Y-39512895D02*
X73349122Y-39417657D01*
X73349122Y-39417657D02*
X73301503Y-39274800D01*
X73301503Y-39274800D02*
X73253884Y-39036704D01*
X73253884Y-39036704D02*
X73253884Y-38846228D01*
X73253884Y-38846228D02*
X73301503Y-38608133D01*
X73301503Y-38608133D02*
X73349122Y-38465276D01*
X73349122Y-38465276D02*
X73396741Y-38370038D01*
X73396741Y-38370038D02*
X73491979Y-38227180D01*
X73491979Y-38227180D02*
X73539598Y-38179561D01*
X69289598Y-54853371D02*
X69241979Y-54805752D01*
X69241979Y-54805752D02*
X69146741Y-54662895D01*
X69146741Y-54662895D02*
X69099122Y-54567657D01*
X69099122Y-54567657D02*
X69051503Y-54424800D01*
X69051503Y-54424800D02*
X69003884Y-54186704D01*
X69003884Y-54186704D02*
X69003884Y-53996228D01*
X69003884Y-53996228D02*
X69051503Y-53758133D01*
X69051503Y-53758133D02*
X69099122Y-53615276D01*
X69099122Y-53615276D02*
X69146741Y-53520038D01*
X69146741Y-53520038D02*
X69241979Y-53377180D01*
X69241979Y-53377180D02*
X69289598Y-53329561D01*
X38989598Y-43303371D02*
X38941979Y-43255752D01*
X38941979Y-43255752D02*
X38846741Y-43112895D01*
X38846741Y-43112895D02*
X38799122Y-43017657D01*
X38799122Y-43017657D02*
X38751503Y-42874800D01*
X38751503Y-42874800D02*
X38703884Y-42636704D01*
X38703884Y-42636704D02*
X38703884Y-42446228D01*
X38703884Y-42446228D02*
X38751503Y-42208133D01*
X38751503Y-42208133D02*
X38799122Y-42065276D01*
X38799122Y-42065276D02*
X38846741Y-41970038D01*
X38846741Y-41970038D02*
X38941979Y-41827180D01*
X38941979Y-41827180D02*
X38989598Y-41779561D01*
X61589598Y-53353371D02*
X61541979Y-53305752D01*
X61541979Y-53305752D02*
X61446741Y-53162895D01*
X61446741Y-53162895D02*
X61399122Y-53067657D01*
X61399122Y-53067657D02*
X61351503Y-52924800D01*
X61351503Y-52924800D02*
X61303884Y-52686704D01*
X61303884Y-52686704D02*
X61303884Y-52496228D01*
X61303884Y-52496228D02*
X61351503Y-52258133D01*
X61351503Y-52258133D02*
X61399122Y-52115276D01*
X61399122Y-52115276D02*
X61446741Y-52020038D01*
X61446741Y-52020038D02*
X61541979Y-51877180D01*
X61541979Y-51877180D02*
X61589598Y-51829561D01*
X61389598Y-58603371D02*
X61341979Y-58555752D01*
X61341979Y-58555752D02*
X61246741Y-58412895D01*
X61246741Y-58412895D02*
X61199122Y-58317657D01*
X61199122Y-58317657D02*
X61151503Y-58174800D01*
X61151503Y-58174800D02*
X61103884Y-57936704D01*
X61103884Y-57936704D02*
X61103884Y-57746228D01*
X61103884Y-57746228D02*
X61151503Y-57508133D01*
X61151503Y-57508133D02*
X61199122Y-57365276D01*
X61199122Y-57365276D02*
X61246741Y-57270038D01*
X61246741Y-57270038D02*
X61341979Y-57127180D01*
X61341979Y-57127180D02*
X61389598Y-57079561D01*
X71289598Y-54203371D02*
X71241979Y-54155752D01*
X71241979Y-54155752D02*
X71146741Y-54012895D01*
X71146741Y-54012895D02*
X71099122Y-53917657D01*
X71099122Y-53917657D02*
X71051503Y-53774800D01*
X71051503Y-53774800D02*
X71003884Y-53536704D01*
X71003884Y-53536704D02*
X71003884Y-53346228D01*
X71003884Y-53346228D02*
X71051503Y-53108133D01*
X71051503Y-53108133D02*
X71099122Y-52965276D01*
X71099122Y-52965276D02*
X71146741Y-52870038D01*
X71146741Y-52870038D02*
X71241979Y-52727180D01*
X71241979Y-52727180D02*
X71289598Y-52679561D01*
X53789598Y-37553371D02*
X53741979Y-37505752D01*
X53741979Y-37505752D02*
X53646741Y-37362895D01*
X53646741Y-37362895D02*
X53599122Y-37267657D01*
X53599122Y-37267657D02*
X53551503Y-37124800D01*
X53551503Y-37124800D02*
X53503884Y-36886704D01*
X53503884Y-36886704D02*
X53503884Y-36696228D01*
X53503884Y-36696228D02*
X53551503Y-36458133D01*
X53551503Y-36458133D02*
X53599122Y-36315276D01*
X53599122Y-36315276D02*
X53646741Y-36220038D01*
X53646741Y-36220038D02*
X53741979Y-36077180D01*
X53741979Y-36077180D02*
X53789598Y-36029561D01*
X72189598Y-50303371D02*
X72141979Y-50255752D01*
X72141979Y-50255752D02*
X72046741Y-50112895D01*
X72046741Y-50112895D02*
X71999122Y-50017657D01*
X71999122Y-50017657D02*
X71951503Y-49874800D01*
X71951503Y-49874800D02*
X71903884Y-49636704D01*
X71903884Y-49636704D02*
X71903884Y-49446228D01*
X71903884Y-49446228D02*
X71951503Y-49208133D01*
X71951503Y-49208133D02*
X71999122Y-49065276D01*
X71999122Y-49065276D02*
X72046741Y-48970038D01*
X72046741Y-48970038D02*
X72141979Y-48827180D01*
X72141979Y-48827180D02*
X72189598Y-48779561D01*
X75689598Y-52153371D02*
X75641979Y-52105752D01*
X75641979Y-52105752D02*
X75546741Y-51962895D01*
X75546741Y-51962895D02*
X75499122Y-51867657D01*
X75499122Y-51867657D02*
X75451503Y-51724800D01*
X75451503Y-51724800D02*
X75403884Y-51486704D01*
X75403884Y-51486704D02*
X75403884Y-51296228D01*
X75403884Y-51296228D02*
X75451503Y-51058133D01*
X75451503Y-51058133D02*
X75499122Y-50915276D01*
X75499122Y-50915276D02*
X75546741Y-50820038D01*
X75546741Y-50820038D02*
X75641979Y-50677180D01*
X75641979Y-50677180D02*
X75689598Y-50629561D01*
X39689598Y-58553371D02*
X39641979Y-58505752D01*
X39641979Y-58505752D02*
X39546741Y-58362895D01*
X39546741Y-58362895D02*
X39499122Y-58267657D01*
X39499122Y-58267657D02*
X39451503Y-58124800D01*
X39451503Y-58124800D02*
X39403884Y-57886704D01*
X39403884Y-57886704D02*
X39403884Y-57696228D01*
X39403884Y-57696228D02*
X39451503Y-57458133D01*
X39451503Y-57458133D02*
X39499122Y-57315276D01*
X39499122Y-57315276D02*
X39546741Y-57220038D01*
X39546741Y-57220038D02*
X39641979Y-57077180D01*
X39641979Y-57077180D02*
X39689598Y-57029561D01*
X77239598Y-58453371D02*
X77191979Y-58405752D01*
X77191979Y-58405752D02*
X77096741Y-58262895D01*
X77096741Y-58262895D02*
X77049122Y-58167657D01*
X77049122Y-58167657D02*
X77001503Y-58024800D01*
X77001503Y-58024800D02*
X76953884Y-57786704D01*
X76953884Y-57786704D02*
X76953884Y-57596228D01*
X76953884Y-57596228D02*
X77001503Y-57358133D01*
X77001503Y-57358133D02*
X77049122Y-57215276D01*
X77049122Y-57215276D02*
X77096741Y-57120038D01*
X77096741Y-57120038D02*
X77191979Y-56977180D01*
X77191979Y-56977180D02*
X77239598Y-56929561D01*
X64539598Y-40103371D02*
X64491979Y-40055752D01*
X64491979Y-40055752D02*
X64396741Y-39912895D01*
X64396741Y-39912895D02*
X64349122Y-39817657D01*
X64349122Y-39817657D02*
X64301503Y-39674800D01*
X64301503Y-39674800D02*
X64253884Y-39436704D01*
X64253884Y-39436704D02*
X64253884Y-39246228D01*
X64253884Y-39246228D02*
X64301503Y-39008133D01*
X64301503Y-39008133D02*
X64349122Y-38865276D01*
X64349122Y-38865276D02*
X64396741Y-38770038D01*
X64396741Y-38770038D02*
X64491979Y-38627180D01*
X64491979Y-38627180D02*
X64539598Y-38579561D01*
X53439598Y-59803371D02*
X53391979Y-59755752D01*
X53391979Y-59755752D02*
X53296741Y-59612895D01*
X53296741Y-59612895D02*
X53249122Y-59517657D01*
X53249122Y-59517657D02*
X53201503Y-59374800D01*
X53201503Y-59374800D02*
X53153884Y-59136704D01*
X53153884Y-59136704D02*
X53153884Y-58946228D01*
X53153884Y-58946228D02*
X53201503Y-58708133D01*
X53201503Y-58708133D02*
X53249122Y-58565276D01*
X53249122Y-58565276D02*
X53296741Y-58470038D01*
X53296741Y-58470038D02*
X53391979Y-58327180D01*
X53391979Y-58327180D02*
X53439598Y-58279561D01*
X73939598Y-48203371D02*
X73891979Y-48155752D01*
X73891979Y-48155752D02*
X73796741Y-48012895D01*
X73796741Y-48012895D02*
X73749122Y-47917657D01*
X73749122Y-47917657D02*
X73701503Y-47774800D01*
X73701503Y-47774800D02*
X73653884Y-47536704D01*
X73653884Y-47536704D02*
X73653884Y-47346228D01*
X73653884Y-47346228D02*
X73701503Y-47108133D01*
X73701503Y-47108133D02*
X73749122Y-46965276D01*
X73749122Y-46965276D02*
X73796741Y-46870038D01*
X73796741Y-46870038D02*
X73891979Y-46727180D01*
X73891979Y-46727180D02*
X73939598Y-46679561D01*
X60689598Y-36453371D02*
X60641979Y-36405752D01*
X60641979Y-36405752D02*
X60546741Y-36262895D01*
X60546741Y-36262895D02*
X60499122Y-36167657D01*
X60499122Y-36167657D02*
X60451503Y-36024800D01*
X60451503Y-36024800D02*
X60403884Y-35786704D01*
X60403884Y-35786704D02*
X60403884Y-35596228D01*
X60403884Y-35596228D02*
X60451503Y-35358133D01*
X60451503Y-35358133D02*
X60499122Y-35215276D01*
X60499122Y-35215276D02*
X60546741Y-35120038D01*
X60546741Y-35120038D02*
X60641979Y-34977180D01*
X60641979Y-34977180D02*
X60689598Y-34929561D01*
X79439598Y-56853371D02*
X79391979Y-56805752D01*
X79391979Y-56805752D02*
X79296741Y-56662895D01*
X79296741Y-56662895D02*
X79249122Y-56567657D01*
X79249122Y-56567657D02*
X79201503Y-56424800D01*
X79201503Y-56424800D02*
X79153884Y-56186704D01*
X79153884Y-56186704D02*
X79153884Y-55996228D01*
X79153884Y-55996228D02*
X79201503Y-55758133D01*
X79201503Y-55758133D02*
X79249122Y-55615276D01*
X79249122Y-55615276D02*
X79296741Y-55520038D01*
X79296741Y-55520038D02*
X79391979Y-55377180D01*
X79391979Y-55377180D02*
X79439598Y-55329561D01*
X74289598Y-60303371D02*
X74241979Y-60255752D01*
X74241979Y-60255752D02*
X74146741Y-60112895D01*
X74146741Y-60112895D02*
X74099122Y-60017657D01*
X74099122Y-60017657D02*
X74051503Y-59874800D01*
X74051503Y-59874800D02*
X74003884Y-59636704D01*
X74003884Y-59636704D02*
X74003884Y-59446228D01*
X74003884Y-59446228D02*
X74051503Y-59208133D01*
X74051503Y-59208133D02*
X74099122Y-59065276D01*
X74099122Y-59065276D02*
X74146741Y-58970038D01*
X74146741Y-58970038D02*
X74241979Y-58827180D01*
X74241979Y-58827180D02*
X74289598Y-58779561D01*
X61289598Y-49203371D02*
X61241979Y-49155752D01*
X61241979Y-49155752D02*
X61146741Y-49012895D01*
X61146741Y-49012895D02*
X61099122Y-48917657D01*
X61099122Y-48917657D02*
X61051503Y-48774800D01*
X61051503Y-48774800D02*
X61003884Y-48536704D01*
X61003884Y-48536704D02*
X61003884Y-48346228D01*
X61003884Y-48346228D02*
X61051503Y-48108133D01*
X61051503Y-48108133D02*
X61099122Y-47965276D01*
X61099122Y-47965276D02*
X61146741Y-47870038D01*
X61146741Y-47870038D02*
X61241979Y-47727180D01*
X61241979Y-47727180D02*
X61289598Y-47679561D01*
X76689598Y-41453371D02*
X76641979Y-41405752D01*
X76641979Y-41405752D02*
X76546741Y-41262895D01*
X76546741Y-41262895D02*
X76499122Y-41167657D01*
X76499122Y-41167657D02*
X76451503Y-41024800D01*
X76451503Y-41024800D02*
X76403884Y-40786704D01*
X76403884Y-40786704D02*
X76403884Y-40596228D01*
X76403884Y-40596228D02*
X76451503Y-40358133D01*
X76451503Y-40358133D02*
X76499122Y-40215276D01*
X76499122Y-40215276D02*
X76546741Y-40120038D01*
X76546741Y-40120038D02*
X76641979Y-39977180D01*
X76641979Y-39977180D02*
X76689598Y-39929561D01*
X59889598Y-46353371D02*
X59841979Y-46305752D01*
X59841979Y-46305752D02*
X59746741Y-46162895D01*
X59746741Y-46162895D02*
X59699122Y-46067657D01*
X59699122Y-46067657D02*
X59651503Y-45924800D01*
X59651503Y-45924800D02*
X59603884Y-45686704D01*
X59603884Y-45686704D02*
X59603884Y-45496228D01*
X59603884Y-45496228D02*
X59651503Y-45258133D01*
X59651503Y-45258133D02*
X59699122Y-45115276D01*
X59699122Y-45115276D02*
X59746741Y-45020038D01*
X59746741Y-45020038D02*
X59841979Y-44877180D01*
X59841979Y-44877180D02*
X59889598Y-44829561D01*
X73889598Y-44803371D02*
X73841979Y-44755752D01*
X73841979Y-44755752D02*
X73746741Y-44612895D01*
X73746741Y-44612895D02*
X73699122Y-44517657D01*
X73699122Y-44517657D02*
X73651503Y-44374800D01*
X73651503Y-44374800D02*
X73603884Y-44136704D01*
X73603884Y-44136704D02*
X73603884Y-43946228D01*
X73603884Y-43946228D02*
X73651503Y-43708133D01*
X73651503Y-43708133D02*
X73699122Y-43565276D01*
X73699122Y-43565276D02*
X73746741Y-43470038D01*
X73746741Y-43470038D02*
X73841979Y-43327180D01*
X73841979Y-43327180D02*
X73889598Y-43279561D01*
X62389598Y-45853371D02*
X62341979Y-45805752D01*
X62341979Y-45805752D02*
X62246741Y-45662895D01*
X62246741Y-45662895D02*
X62199122Y-45567657D01*
X62199122Y-45567657D02*
X62151503Y-45424800D01*
X62151503Y-45424800D02*
X62103884Y-45186704D01*
X62103884Y-45186704D02*
X62103884Y-44996228D01*
X62103884Y-44996228D02*
X62151503Y-44758133D01*
X62151503Y-44758133D02*
X62199122Y-44615276D01*
X62199122Y-44615276D02*
X62246741Y-44520038D01*
X62246741Y-44520038D02*
X62341979Y-44377180D01*
X62341979Y-44377180D02*
X62389598Y-44329561D01*
X63339598Y-58203371D02*
X63291979Y-58155752D01*
X63291979Y-58155752D02*
X63196741Y-58012895D01*
X63196741Y-58012895D02*
X63149122Y-57917657D01*
X63149122Y-57917657D02*
X63101503Y-57774800D01*
X63101503Y-57774800D02*
X63053884Y-57536704D01*
X63053884Y-57536704D02*
X63053884Y-57346228D01*
X63053884Y-57346228D02*
X63101503Y-57108133D01*
X63101503Y-57108133D02*
X63149122Y-56965276D01*
X63149122Y-56965276D02*
X63196741Y-56870038D01*
X63196741Y-56870038D02*
X63291979Y-56727180D01*
X63291979Y-56727180D02*
X63339598Y-56679561D01*
X75039598Y-56553371D02*
X74991979Y-56505752D01*
X74991979Y-56505752D02*
X74896741Y-56362895D01*
X74896741Y-56362895D02*
X74849122Y-56267657D01*
X74849122Y-56267657D02*
X74801503Y-56124800D01*
X74801503Y-56124800D02*
X74753884Y-55886704D01*
X74753884Y-55886704D02*
X74753884Y-55696228D01*
X74753884Y-55696228D02*
X74801503Y-55458133D01*
X74801503Y-55458133D02*
X74849122Y-55315276D01*
X74849122Y-55315276D02*
X74896741Y-55220038D01*
X74896741Y-55220038D02*
X74991979Y-55077180D01*
X74991979Y-55077180D02*
X75039598Y-55029561D01*
X70639598Y-44303371D02*
X70591979Y-44255752D01*
X70591979Y-44255752D02*
X70496741Y-44112895D01*
X70496741Y-44112895D02*
X70449122Y-44017657D01*
X70449122Y-44017657D02*
X70401503Y-43874800D01*
X70401503Y-43874800D02*
X70353884Y-43636704D01*
X70353884Y-43636704D02*
X70353884Y-43446228D01*
X70353884Y-43446228D02*
X70401503Y-43208133D01*
X70401503Y-43208133D02*
X70449122Y-43065276D01*
X70449122Y-43065276D02*
X70496741Y-42970038D01*
X70496741Y-42970038D02*
X70591979Y-42827180D01*
X70591979Y-42827180D02*
X70639598Y-42779561D01*
X59539598Y-58175025D02*
X59491979Y-58127406D01*
X59491979Y-58127406D02*
X59396741Y-57984549D01*
X59396741Y-57984549D02*
X59349122Y-57889311D01*
X59349122Y-57889311D02*
X59301503Y-57746454D01*
X59301503Y-57746454D02*
X59253884Y-57508358D01*
X59253884Y-57508358D02*
X59253884Y-57317882D01*
X59253884Y-57317882D02*
X59301503Y-57079787D01*
X59301503Y-57079787D02*
X59349122Y-56936930D01*
X59349122Y-56936930D02*
X59396741Y-56841692D01*
X59396741Y-56841692D02*
X59491979Y-56698834D01*
X59491979Y-56698834D02*
X59539598Y-56651215D01*
X67089598Y-64853371D02*
X67041979Y-64805752D01*
X67041979Y-64805752D02*
X66946741Y-64662895D01*
X66946741Y-64662895D02*
X66899122Y-64567657D01*
X66899122Y-64567657D02*
X66851503Y-64424800D01*
X66851503Y-64424800D02*
X66803884Y-64186704D01*
X66803884Y-64186704D02*
X66803884Y-63996228D01*
X66803884Y-63996228D02*
X66851503Y-63758133D01*
X66851503Y-63758133D02*
X66899122Y-63615276D01*
X66899122Y-63615276D02*
X66946741Y-63520038D01*
X66946741Y-63520038D02*
X67041979Y-63377180D01*
X67041979Y-63377180D02*
X67089598Y-63329561D01*
X60039598Y-41803371D02*
X59991979Y-41755752D01*
X59991979Y-41755752D02*
X59896741Y-41612895D01*
X59896741Y-41612895D02*
X59849122Y-41517657D01*
X59849122Y-41517657D02*
X59801503Y-41374800D01*
X59801503Y-41374800D02*
X59753884Y-41136704D01*
X59753884Y-41136704D02*
X59753884Y-40946228D01*
X59753884Y-40946228D02*
X59801503Y-40708133D01*
X59801503Y-40708133D02*
X59849122Y-40565276D01*
X59849122Y-40565276D02*
X59896741Y-40470038D01*
X59896741Y-40470038D02*
X59991979Y-40327180D01*
X59991979Y-40327180D02*
X60039598Y-40279561D01*
D12*
X65954819Y-50166666D02*
X65478628Y-50499999D01*
X65954819Y-50738094D02*
X64954819Y-50738094D01*
X64954819Y-50738094D02*
X64954819Y-50357142D01*
X64954819Y-50357142D02*
X65002438Y-50261904D01*
X65002438Y-50261904D02*
X65050057Y-50214285D01*
X65050057Y-50214285D02*
X65145295Y-50166666D01*
X65145295Y-50166666D02*
X65288152Y-50166666D01*
X65288152Y-50166666D02*
X65383390Y-50214285D01*
X65383390Y-50214285D02*
X65431009Y-50261904D01*
X65431009Y-50261904D02*
X65478628Y-50357142D01*
X65478628Y-50357142D02*
X65478628Y-50738094D01*
X64954819Y-49833332D02*
X64954819Y-49214285D01*
X64954819Y-49214285D02*
X65335771Y-49547618D01*
X65335771Y-49547618D02*
X65335771Y-49404761D01*
X65335771Y-49404761D02*
X65383390Y-49309523D01*
X65383390Y-49309523D02*
X65431009Y-49261904D01*
X65431009Y-49261904D02*
X65526247Y-49214285D01*
X65526247Y-49214285D02*
X65764342Y-49214285D01*
X65764342Y-49214285D02*
X65859580Y-49261904D01*
X65859580Y-49261904D02*
X65907200Y-49309523D01*
X65907200Y-49309523D02*
X65954819Y-49404761D01*
X65954819Y-49404761D02*
X65954819Y-49690475D01*
X65954819Y-49690475D02*
X65907200Y-49785713D01*
X65907200Y-49785713D02*
X65859580Y-49833332D01*
X68509677Y-40133533D02*
X67937258Y-40032518D01*
X68105616Y-40537594D02*
X67398510Y-39830487D01*
X67398510Y-39830487D02*
X67667884Y-39561113D01*
X67667884Y-39561113D02*
X67768899Y-39527441D01*
X67768899Y-39527441D02*
X67836242Y-39527441D01*
X67836242Y-39527441D02*
X67937258Y-39561113D01*
X67937258Y-39561113D02*
X68038273Y-39662128D01*
X68038273Y-39662128D02*
X68071945Y-39763144D01*
X68071945Y-39763144D02*
X68071945Y-39830487D01*
X68071945Y-39830487D02*
X68038273Y-39931502D01*
X68038273Y-39931502D02*
X67768899Y-40200876D01*
X69183112Y-39460098D02*
X68779051Y-39864159D01*
X68981082Y-39662128D02*
X68273975Y-38955022D01*
X68273975Y-38955022D02*
X68307647Y-39123380D01*
X68307647Y-39123380D02*
X68307647Y-39258067D01*
X68307647Y-39258067D02*
X68273975Y-39359083D01*
X67866466Y-60009677D02*
X67967481Y-59437258D01*
X67462405Y-59605616D02*
X68169512Y-58898510D01*
X68169512Y-58898510D02*
X68438886Y-59167884D01*
X68438886Y-59167884D02*
X68472558Y-59268899D01*
X68472558Y-59268899D02*
X68472558Y-59336242D01*
X68472558Y-59336242D02*
X68438886Y-59437258D01*
X68438886Y-59437258D02*
X68337871Y-59538273D01*
X68337871Y-59538273D02*
X68236855Y-59571945D01*
X68236855Y-59571945D02*
X68169512Y-59571945D01*
X68169512Y-59571945D02*
X68068497Y-59538273D01*
X68068497Y-59538273D02*
X67799123Y-59268899D01*
X68943962Y-60144364D02*
X68472558Y-60615769D01*
X69044977Y-59706632D02*
X68371542Y-60043349D01*
X68371542Y-60043349D02*
X68809275Y-60481082D01*
D13*
G04 #@! TO.C,RV1*
X23390000Y-46590000D02*
X23390000Y-53410000D01*
X23390000Y-46590000D02*
X26678000Y-46590000D01*
X23390000Y-53410000D02*
X26678000Y-53410000D01*
X27442000Y-46590000D02*
X30610000Y-46590000D01*
X27442000Y-53410000D02*
X30610000Y-53410000D01*
X30610000Y-46590000D02*
X30610000Y-53410000D01*
G04 #@! TO.C,R3*
X64130000Y-46540000D02*
X64130000Y-53080000D01*
X64130000Y-53080000D02*
X64460000Y-53080000D01*
X64460000Y-46540000D02*
X64130000Y-46540000D01*
X66540000Y-46540000D02*
X66870000Y-46540000D01*
X66870000Y-46540000D02*
X66870000Y-53080000D01*
X66870000Y-53080000D02*
X66540000Y-53080000D01*
G04 #@! TO.C,BT1*
X41460000Y-41300000D02*
X41460000Y-44800000D01*
X41460000Y-41300000D02*
X43540000Y-39220000D01*
X41460000Y-55200000D02*
X41460000Y-58700000D01*
X41460000Y-58700000D02*
X43540000Y-60780000D01*
X43540000Y-39220000D02*
X46000000Y-39220000D01*
X43540000Y-60780000D02*
X46000000Y-60780000D01*
X52000000Y-39220000D02*
X52630000Y-39220000D01*
X52000000Y-60780000D02*
X52630000Y-60780000D01*
X52630000Y-39220000D02*
X56580000Y-40660000D01*
X52630000Y-60780000D02*
X56580000Y-59340000D01*
X56588169Y-40674757D02*
G75*
G02*
X57550000Y-44000000I-738169J-2015243D01*
G01*
X57566530Y-56003354D02*
G75*
G02*
X56580000Y-59340000I-1716531J-1306646D01*
G01*
G04 #@! TO.C,R2*
X17900000Y-62850000D02*
X14850000Y-62850000D01*
X17900000Y-67150000D02*
X14850000Y-67150000D01*
X14850000Y-67150000D02*
G75*
G02*
X14805487Y-62881751I1500000J2150000D01*
G01*
X17900000Y-62850000D02*
G75*
G02*
X17878234Y-67165525I-1550000J-2150000D01*
G01*
G04 #@! TO.C,SW1*
X14250000Y-49000000D02*
X14250000Y-50500000D01*
X15500000Y-53000000D02*
X20000000Y-53000000D01*
X20000000Y-46500000D02*
X15500000Y-46500000D01*
X21250000Y-50500000D02*
X21250000Y-49000000D01*
G04 #@! TO.C,Q3*
X18380000Y-56200000D02*
X18380000Y-59800000D01*
X18387844Y-56188547D02*
G75*
G02*
X22680000Y-57180000I1842156J-1811453D01*
G01*
X22680000Y-58780000D02*
G75*
G02*
X18402316Y-59808445I-2450000J780000D01*
G01*
G04 #@! TO.C,R1*
X65024947Y-41037580D02*
X69649426Y-36413102D01*
X65258293Y-41270925D02*
X65024947Y-41037580D01*
X66729075Y-42741707D02*
X66962420Y-42975053D01*
X66962420Y-42975053D02*
X71586898Y-38350574D01*
X69649426Y-36413102D02*
X69882771Y-36646447D01*
X71586898Y-38350574D02*
X71353553Y-38117229D01*
G04 #@! TO.C,R4*
X65024948Y-58462420D02*
X65258293Y-58229075D01*
X66962420Y-56524948D02*
X66729075Y-56758293D01*
X69649426Y-63086899D02*
X65024948Y-58462420D01*
X69882771Y-62853553D02*
X69649426Y-63086899D01*
X71353553Y-61382771D02*
X71586899Y-61149426D01*
X71586899Y-61149426D02*
X66962420Y-56524948D01*
G04 #@! TO.C,Q2*
X32930000Y-47350000D02*
X36530000Y-47350000D01*
X32918547Y-47342156D02*
G75*
G02*
X33910000Y-43050000I1811453J1842156D01*
G01*
X35510000Y-43050000D02*
G75*
G02*
X36538445Y-47327684I-780000J-2450000D01*
G01*
G04 #@! TO.C,J1*
X32130000Y-48420000D02*
X32130000Y-51180000D01*
X34780000Y-48420000D02*
X32130000Y-48420000D01*
X34780000Y-48420000D02*
X34780000Y-51180000D01*
X34780000Y-51180000D02*
X32130000Y-51180000D01*
X36050000Y-48420000D02*
X37430000Y-48420000D01*
X37430000Y-48420000D02*
X37430000Y-49800000D01*
G04 #@! TO.C,D1*
X76170000Y-44455000D02*
X76170000Y-47545000D01*
X76170000Y-44455170D02*
G75*
G02*
X81720000Y-46000000I2560000J-1544830D01*
G01*
X81720000Y-46000000D02*
G75*
G02*
X76170000Y-47544830I-2990000J0D01*
G01*
X81230000Y-46000000D02*
G75*
G02*
X76230000Y-46000000I-2500000J0D01*
G01*
X76230000Y-46000000D02*
G75*
G02*
X81230000Y-46000000I2500000J0D01*
G01*
G04 #@! TO.C,Q1*
X18380000Y-40200000D02*
X18380000Y-43800000D01*
X18387844Y-40188547D02*
G75*
G02*
X22680000Y-41180000I1842156J-1811453D01*
G01*
X22680000Y-42780000D02*
G75*
G02*
X18402316Y-43808445I-2450000J780000D01*
G01*
G04 #@! TD*
%LPC*%
D14*
G04 #@! TO.C,RV1*
X27060000Y-52540000D03*
X29600000Y-50000000D03*
X27060000Y-47460000D03*
G04 #@! TD*
D15*
G04 #@! TO.C,REF\u002A\u002A*
X16500000Y-34500000D03*
G04 #@! TD*
D16*
G04 #@! TO.C,R3*
X65500000Y-46000000D03*
X65500000Y-53620000D03*
G04 #@! TD*
D17*
G04 #@! TO.C,BT1*
X49000000Y-60985000D03*
X49000000Y-39015000D03*
D18*
X49000000Y-50000000D03*
G04 #@! TD*
D19*
G04 #@! TO.C,R2*
X18050000Y-65000000D03*
X14650000Y-65000000D03*
G04 #@! TD*
D20*
G04 #@! TO.C,SW1*
X21000000Y-52000000D03*
X14500000Y-52000000D03*
X21000000Y-47500000D03*
X14500000Y-47500000D03*
G04 #@! TD*
D21*
G04 #@! TO.C,Q3*
X19830000Y-56730000D03*
D22*
X21900000Y-58000000D03*
X19830000Y-59270000D03*
G04 #@! TD*
D16*
G04 #@! TO.C,R1*
X65611846Y-42388154D03*
X71000000Y-37000000D03*
G04 #@! TD*
G04 #@! TO.C,R4*
X71000000Y-62500000D03*
X65611846Y-57111846D03*
G04 #@! TD*
D23*
G04 #@! TO.C,Q2*
X33460000Y-45900000D03*
D24*
X34730000Y-43830000D03*
X36000000Y-45900000D03*
G04 #@! TD*
D25*
G04 #@! TO.C,J1*
X36050000Y-49800000D03*
D26*
X33510000Y-49800000D03*
G04 #@! TD*
D27*
G04 #@! TO.C,D1*
X77460000Y-46000000D03*
D28*
X80000000Y-46000000D03*
G04 #@! TD*
D21*
G04 #@! TO.C,Q1*
X19830000Y-40730000D03*
D22*
X21900000Y-42000000D03*
X19830000Y-43270000D03*
G04 #@! TD*
D16*
G04 #@! TO.C,R5*
X63550000Y-36950000D03*
X55930000Y-36950000D03*
G04 #@! TD*
G04 #@! TO.C,R6*
X55880000Y-62900000D03*
X63500000Y-62900000D03*
G04 #@! TD*
G04 #@! TO.C,R7*
X38050000Y-55000000D03*
X30430000Y-55000000D03*
G04 #@! TD*
%LPD*%
M02*
